%
M48
M72
T01C0.02400
T02C0.02756
T03C0.03200
T04C0.04000
T05C0.04724
T06C0.05118
T07C0.14173
%
T01
X65961Y63655
X97457Y89246
X40370Y101057
X143500Y194600
X163500Y194600
X178165Y169954
X170291Y167986
X180134Y144364
X148638Y144364
T02
X141000Y134600
X131000Y134600
X131000Y87100
X141000Y87100
X141000Y39600
X131000Y39600
X116000Y189600
X106000Y189600
T03
X111000Y169600
X111000Y159600
X111000Y149600
X111000Y139600
X111000Y129600
X111000Y119600
X111000Y109600
X111000Y99600
X111000Y89600
X111000Y79600
X111000Y69600
X111000Y59600
X111000Y49600
X111000Y39600
X110180Y23600
X110180Y13600
X126000Y12100
X126000Y22100
X146000Y22100
X146000Y12100
X156000Y22100
X156000Y42100
X146000Y59600
X146000Y69600
X156000Y79600
X156000Y99600
X146000Y107100
X146000Y117100
X156000Y129600
X156000Y149600
X156000Y159600
X141000Y159600
X128500Y159600
X128500Y179600
X141000Y179600
X156000Y179600
X126000Y117100
X126000Y107100
X126000Y69600
X126000Y59600
X81000Y59600
X81000Y69600
X81000Y79600
X81000Y89600
X81000Y99600
X81000Y109600
X81000Y119600
X81000Y129600
X81000Y139600
X81000Y149600
X81000Y159600
X81000Y169600
X53500Y137100
X53500Y127100
X53370Y117230
X53500Y107100
X53390Y98030
X67260Y98670
X67260Y118670
X33370Y117230
X33500Y127100
X33500Y137100
X31000Y159600
X31000Y169600
X11000Y169600
X11000Y159600
X16000Y108840
X16000Y98840
X33390Y98030
X33500Y107100
X81000Y49600
X81000Y39600
X80180Y23600
X80180Y13600
T04
X16470Y119210
X16470Y129210
X16470Y139210
X16470Y149210
X21000Y184600
X11000Y184600
X11000Y194600
X21000Y194600
X31000Y194600
X41000Y194600
X41000Y184600
X31000Y184600
X51000Y184600
X51000Y194600
X66000Y194600
X76000Y194600
X76000Y184600
X66000Y184600
X86000Y184600
X86000Y194600
T05
X171315Y134600
X191000Y114915
X191000Y104285
X171315Y84600
X191000Y64915
X191000Y54285
X171315Y34600
X191000Y14915
X191000Y154285
T06
X191000Y134600
X171315Y124757
X171315Y114915
X171315Y104285
X171315Y94443
X171315Y74757
X171315Y64915
X171315Y54285
X171315Y44443
X171315Y24757
X171315Y14915
X191000Y34600
X191000Y84600
X171315Y144443
X171315Y154285
T07
X53500Y159600
M30
