G75*
%MOIN*%
%OFA0B0*%
%FSLAX25Y25*%
%IPPOS*%
%LPD*%
%AMOC8*
5,1,8,0,0,1.08239X$1,22.5*
%
%ADD10C,0.00000*%
%ADD11R,0.05512X0.01378*%
%ADD12R,0.07480X0.07087*%
%ADD13R,0.07480X0.07480*%
%ADD14C,0.05200*%
%ADD15C,0.08600*%
%ADD16OC8,0.05200*%
%ADD17C,0.06500*%
%ADD18R,0.06500X0.06500*%
%ADD19C,0.04400*%
%ADD20OC8,0.06300*%
%ADD21C,0.06000*%
%ADD22OC8,0.06000*%
%ADD23C,0.23000*%
%ADD24C,0.06000*%
%ADD25C,0.01000*%
%ADD26C,0.01600*%
%ADD27C,0.04000*%
D10*
X0001000Y0004600D02*
X0001000Y0204561D01*
X0199701Y0204561D01*
X0199701Y0004600D01*
X0001000Y0004600D01*
X0168953Y0034600D02*
X0168955Y0034697D01*
X0168961Y0034794D01*
X0168971Y0034890D01*
X0168985Y0034986D01*
X0169003Y0035082D01*
X0169024Y0035176D01*
X0169050Y0035270D01*
X0169079Y0035362D01*
X0169113Y0035453D01*
X0169149Y0035543D01*
X0169190Y0035631D01*
X0169234Y0035717D01*
X0169282Y0035802D01*
X0169333Y0035884D01*
X0169387Y0035965D01*
X0169445Y0036043D01*
X0169506Y0036118D01*
X0169569Y0036191D01*
X0169636Y0036262D01*
X0169706Y0036329D01*
X0169778Y0036394D01*
X0169853Y0036455D01*
X0169931Y0036514D01*
X0170010Y0036569D01*
X0170092Y0036621D01*
X0170176Y0036669D01*
X0170262Y0036714D01*
X0170350Y0036756D01*
X0170439Y0036794D01*
X0170530Y0036828D01*
X0170622Y0036858D01*
X0170715Y0036885D01*
X0170810Y0036907D01*
X0170905Y0036926D01*
X0171001Y0036941D01*
X0171097Y0036952D01*
X0171194Y0036959D01*
X0171291Y0036962D01*
X0171388Y0036961D01*
X0171485Y0036956D01*
X0171581Y0036947D01*
X0171677Y0036934D01*
X0171773Y0036917D01*
X0171868Y0036896D01*
X0171961Y0036872D01*
X0172054Y0036843D01*
X0172146Y0036811D01*
X0172236Y0036775D01*
X0172324Y0036736D01*
X0172411Y0036692D01*
X0172496Y0036646D01*
X0172579Y0036595D01*
X0172660Y0036542D01*
X0172738Y0036485D01*
X0172815Y0036425D01*
X0172888Y0036362D01*
X0172959Y0036296D01*
X0173027Y0036227D01*
X0173093Y0036155D01*
X0173155Y0036081D01*
X0173214Y0036004D01*
X0173270Y0035925D01*
X0173323Y0035843D01*
X0173373Y0035760D01*
X0173418Y0035674D01*
X0173461Y0035587D01*
X0173500Y0035498D01*
X0173535Y0035408D01*
X0173566Y0035316D01*
X0173593Y0035223D01*
X0173617Y0035129D01*
X0173637Y0035034D01*
X0173653Y0034938D01*
X0173665Y0034842D01*
X0173673Y0034745D01*
X0173677Y0034648D01*
X0173677Y0034552D01*
X0173673Y0034455D01*
X0173665Y0034358D01*
X0173653Y0034262D01*
X0173637Y0034166D01*
X0173617Y0034071D01*
X0173593Y0033977D01*
X0173566Y0033884D01*
X0173535Y0033792D01*
X0173500Y0033702D01*
X0173461Y0033613D01*
X0173418Y0033526D01*
X0173373Y0033440D01*
X0173323Y0033357D01*
X0173270Y0033275D01*
X0173214Y0033196D01*
X0173155Y0033119D01*
X0173093Y0033045D01*
X0173027Y0032973D01*
X0172959Y0032904D01*
X0172888Y0032838D01*
X0172815Y0032775D01*
X0172738Y0032715D01*
X0172660Y0032658D01*
X0172579Y0032605D01*
X0172496Y0032554D01*
X0172411Y0032508D01*
X0172324Y0032464D01*
X0172236Y0032425D01*
X0172146Y0032389D01*
X0172054Y0032357D01*
X0171961Y0032328D01*
X0171868Y0032304D01*
X0171773Y0032283D01*
X0171677Y0032266D01*
X0171581Y0032253D01*
X0171485Y0032244D01*
X0171388Y0032239D01*
X0171291Y0032238D01*
X0171194Y0032241D01*
X0171097Y0032248D01*
X0171001Y0032259D01*
X0170905Y0032274D01*
X0170810Y0032293D01*
X0170715Y0032315D01*
X0170622Y0032342D01*
X0170530Y0032372D01*
X0170439Y0032406D01*
X0170350Y0032444D01*
X0170262Y0032486D01*
X0170176Y0032531D01*
X0170092Y0032579D01*
X0170010Y0032631D01*
X0169931Y0032686D01*
X0169853Y0032745D01*
X0169778Y0032806D01*
X0169706Y0032871D01*
X0169636Y0032938D01*
X0169569Y0033009D01*
X0169506Y0033082D01*
X0169445Y0033157D01*
X0169387Y0033235D01*
X0169333Y0033316D01*
X0169282Y0033398D01*
X0169234Y0033483D01*
X0169190Y0033569D01*
X0169149Y0033657D01*
X0169113Y0033747D01*
X0169079Y0033838D01*
X0169050Y0033930D01*
X0169024Y0034024D01*
X0169003Y0034118D01*
X0168985Y0034214D01*
X0168971Y0034310D01*
X0168961Y0034406D01*
X0168955Y0034503D01*
X0168953Y0034600D01*
X0188638Y0014915D02*
X0188640Y0015012D01*
X0188646Y0015109D01*
X0188656Y0015205D01*
X0188670Y0015301D01*
X0188688Y0015397D01*
X0188709Y0015491D01*
X0188735Y0015585D01*
X0188764Y0015677D01*
X0188798Y0015768D01*
X0188834Y0015858D01*
X0188875Y0015946D01*
X0188919Y0016032D01*
X0188967Y0016117D01*
X0189018Y0016199D01*
X0189072Y0016280D01*
X0189130Y0016358D01*
X0189191Y0016433D01*
X0189254Y0016506D01*
X0189321Y0016577D01*
X0189391Y0016644D01*
X0189463Y0016709D01*
X0189538Y0016770D01*
X0189616Y0016829D01*
X0189695Y0016884D01*
X0189777Y0016936D01*
X0189861Y0016984D01*
X0189947Y0017029D01*
X0190035Y0017071D01*
X0190124Y0017109D01*
X0190215Y0017143D01*
X0190307Y0017173D01*
X0190400Y0017200D01*
X0190495Y0017222D01*
X0190590Y0017241D01*
X0190686Y0017256D01*
X0190782Y0017267D01*
X0190879Y0017274D01*
X0190976Y0017277D01*
X0191073Y0017276D01*
X0191170Y0017271D01*
X0191266Y0017262D01*
X0191362Y0017249D01*
X0191458Y0017232D01*
X0191553Y0017211D01*
X0191646Y0017187D01*
X0191739Y0017158D01*
X0191831Y0017126D01*
X0191921Y0017090D01*
X0192009Y0017051D01*
X0192096Y0017007D01*
X0192181Y0016961D01*
X0192264Y0016910D01*
X0192345Y0016857D01*
X0192423Y0016800D01*
X0192500Y0016740D01*
X0192573Y0016677D01*
X0192644Y0016611D01*
X0192712Y0016542D01*
X0192778Y0016470D01*
X0192840Y0016396D01*
X0192899Y0016319D01*
X0192955Y0016240D01*
X0193008Y0016158D01*
X0193058Y0016075D01*
X0193103Y0015989D01*
X0193146Y0015902D01*
X0193185Y0015813D01*
X0193220Y0015723D01*
X0193251Y0015631D01*
X0193278Y0015538D01*
X0193302Y0015444D01*
X0193322Y0015349D01*
X0193338Y0015253D01*
X0193350Y0015157D01*
X0193358Y0015060D01*
X0193362Y0014963D01*
X0193362Y0014867D01*
X0193358Y0014770D01*
X0193350Y0014673D01*
X0193338Y0014577D01*
X0193322Y0014481D01*
X0193302Y0014386D01*
X0193278Y0014292D01*
X0193251Y0014199D01*
X0193220Y0014107D01*
X0193185Y0014017D01*
X0193146Y0013928D01*
X0193103Y0013841D01*
X0193058Y0013755D01*
X0193008Y0013672D01*
X0192955Y0013590D01*
X0192899Y0013511D01*
X0192840Y0013434D01*
X0192778Y0013360D01*
X0192712Y0013288D01*
X0192644Y0013219D01*
X0192573Y0013153D01*
X0192500Y0013090D01*
X0192423Y0013030D01*
X0192345Y0012973D01*
X0192264Y0012920D01*
X0192181Y0012869D01*
X0192096Y0012823D01*
X0192009Y0012779D01*
X0191921Y0012740D01*
X0191831Y0012704D01*
X0191739Y0012672D01*
X0191646Y0012643D01*
X0191553Y0012619D01*
X0191458Y0012598D01*
X0191362Y0012581D01*
X0191266Y0012568D01*
X0191170Y0012559D01*
X0191073Y0012554D01*
X0190976Y0012553D01*
X0190879Y0012556D01*
X0190782Y0012563D01*
X0190686Y0012574D01*
X0190590Y0012589D01*
X0190495Y0012608D01*
X0190400Y0012630D01*
X0190307Y0012657D01*
X0190215Y0012687D01*
X0190124Y0012721D01*
X0190035Y0012759D01*
X0189947Y0012801D01*
X0189861Y0012846D01*
X0189777Y0012894D01*
X0189695Y0012946D01*
X0189616Y0013001D01*
X0189538Y0013060D01*
X0189463Y0013121D01*
X0189391Y0013186D01*
X0189321Y0013253D01*
X0189254Y0013324D01*
X0189191Y0013397D01*
X0189130Y0013472D01*
X0189072Y0013550D01*
X0189018Y0013631D01*
X0188967Y0013713D01*
X0188919Y0013798D01*
X0188875Y0013884D01*
X0188834Y0013972D01*
X0188798Y0014062D01*
X0188764Y0014153D01*
X0188735Y0014245D01*
X0188709Y0014339D01*
X0188688Y0014433D01*
X0188670Y0014529D01*
X0188656Y0014625D01*
X0188646Y0014721D01*
X0188640Y0014818D01*
X0188638Y0014915D01*
X0188638Y0054285D02*
X0188640Y0054382D01*
X0188646Y0054479D01*
X0188656Y0054575D01*
X0188670Y0054671D01*
X0188688Y0054767D01*
X0188709Y0054861D01*
X0188735Y0054955D01*
X0188764Y0055047D01*
X0188798Y0055138D01*
X0188834Y0055228D01*
X0188875Y0055316D01*
X0188919Y0055402D01*
X0188967Y0055487D01*
X0189018Y0055569D01*
X0189072Y0055650D01*
X0189130Y0055728D01*
X0189191Y0055803D01*
X0189254Y0055876D01*
X0189321Y0055947D01*
X0189391Y0056014D01*
X0189463Y0056079D01*
X0189538Y0056140D01*
X0189616Y0056199D01*
X0189695Y0056254D01*
X0189777Y0056306D01*
X0189861Y0056354D01*
X0189947Y0056399D01*
X0190035Y0056441D01*
X0190124Y0056479D01*
X0190215Y0056513D01*
X0190307Y0056543D01*
X0190400Y0056570D01*
X0190495Y0056592D01*
X0190590Y0056611D01*
X0190686Y0056626D01*
X0190782Y0056637D01*
X0190879Y0056644D01*
X0190976Y0056647D01*
X0191073Y0056646D01*
X0191170Y0056641D01*
X0191266Y0056632D01*
X0191362Y0056619D01*
X0191458Y0056602D01*
X0191553Y0056581D01*
X0191646Y0056557D01*
X0191739Y0056528D01*
X0191831Y0056496D01*
X0191921Y0056460D01*
X0192009Y0056421D01*
X0192096Y0056377D01*
X0192181Y0056331D01*
X0192264Y0056280D01*
X0192345Y0056227D01*
X0192423Y0056170D01*
X0192500Y0056110D01*
X0192573Y0056047D01*
X0192644Y0055981D01*
X0192712Y0055912D01*
X0192778Y0055840D01*
X0192840Y0055766D01*
X0192899Y0055689D01*
X0192955Y0055610D01*
X0193008Y0055528D01*
X0193058Y0055445D01*
X0193103Y0055359D01*
X0193146Y0055272D01*
X0193185Y0055183D01*
X0193220Y0055093D01*
X0193251Y0055001D01*
X0193278Y0054908D01*
X0193302Y0054814D01*
X0193322Y0054719D01*
X0193338Y0054623D01*
X0193350Y0054527D01*
X0193358Y0054430D01*
X0193362Y0054333D01*
X0193362Y0054237D01*
X0193358Y0054140D01*
X0193350Y0054043D01*
X0193338Y0053947D01*
X0193322Y0053851D01*
X0193302Y0053756D01*
X0193278Y0053662D01*
X0193251Y0053569D01*
X0193220Y0053477D01*
X0193185Y0053387D01*
X0193146Y0053298D01*
X0193103Y0053211D01*
X0193058Y0053125D01*
X0193008Y0053042D01*
X0192955Y0052960D01*
X0192899Y0052881D01*
X0192840Y0052804D01*
X0192778Y0052730D01*
X0192712Y0052658D01*
X0192644Y0052589D01*
X0192573Y0052523D01*
X0192500Y0052460D01*
X0192423Y0052400D01*
X0192345Y0052343D01*
X0192264Y0052290D01*
X0192181Y0052239D01*
X0192096Y0052193D01*
X0192009Y0052149D01*
X0191921Y0052110D01*
X0191831Y0052074D01*
X0191739Y0052042D01*
X0191646Y0052013D01*
X0191553Y0051989D01*
X0191458Y0051968D01*
X0191362Y0051951D01*
X0191266Y0051938D01*
X0191170Y0051929D01*
X0191073Y0051924D01*
X0190976Y0051923D01*
X0190879Y0051926D01*
X0190782Y0051933D01*
X0190686Y0051944D01*
X0190590Y0051959D01*
X0190495Y0051978D01*
X0190400Y0052000D01*
X0190307Y0052027D01*
X0190215Y0052057D01*
X0190124Y0052091D01*
X0190035Y0052129D01*
X0189947Y0052171D01*
X0189861Y0052216D01*
X0189777Y0052264D01*
X0189695Y0052316D01*
X0189616Y0052371D01*
X0189538Y0052430D01*
X0189463Y0052491D01*
X0189391Y0052556D01*
X0189321Y0052623D01*
X0189254Y0052694D01*
X0189191Y0052767D01*
X0189130Y0052842D01*
X0189072Y0052920D01*
X0189018Y0053001D01*
X0188967Y0053083D01*
X0188919Y0053168D01*
X0188875Y0053254D01*
X0188834Y0053342D01*
X0188798Y0053432D01*
X0188764Y0053523D01*
X0188735Y0053615D01*
X0188709Y0053709D01*
X0188688Y0053803D01*
X0188670Y0053899D01*
X0188656Y0053995D01*
X0188646Y0054091D01*
X0188640Y0054188D01*
X0188638Y0054285D01*
X0188638Y0064915D02*
X0188640Y0065012D01*
X0188646Y0065109D01*
X0188656Y0065205D01*
X0188670Y0065301D01*
X0188688Y0065397D01*
X0188709Y0065491D01*
X0188735Y0065585D01*
X0188764Y0065677D01*
X0188798Y0065768D01*
X0188834Y0065858D01*
X0188875Y0065946D01*
X0188919Y0066032D01*
X0188967Y0066117D01*
X0189018Y0066199D01*
X0189072Y0066280D01*
X0189130Y0066358D01*
X0189191Y0066433D01*
X0189254Y0066506D01*
X0189321Y0066577D01*
X0189391Y0066644D01*
X0189463Y0066709D01*
X0189538Y0066770D01*
X0189616Y0066829D01*
X0189695Y0066884D01*
X0189777Y0066936D01*
X0189861Y0066984D01*
X0189947Y0067029D01*
X0190035Y0067071D01*
X0190124Y0067109D01*
X0190215Y0067143D01*
X0190307Y0067173D01*
X0190400Y0067200D01*
X0190495Y0067222D01*
X0190590Y0067241D01*
X0190686Y0067256D01*
X0190782Y0067267D01*
X0190879Y0067274D01*
X0190976Y0067277D01*
X0191073Y0067276D01*
X0191170Y0067271D01*
X0191266Y0067262D01*
X0191362Y0067249D01*
X0191458Y0067232D01*
X0191553Y0067211D01*
X0191646Y0067187D01*
X0191739Y0067158D01*
X0191831Y0067126D01*
X0191921Y0067090D01*
X0192009Y0067051D01*
X0192096Y0067007D01*
X0192181Y0066961D01*
X0192264Y0066910D01*
X0192345Y0066857D01*
X0192423Y0066800D01*
X0192500Y0066740D01*
X0192573Y0066677D01*
X0192644Y0066611D01*
X0192712Y0066542D01*
X0192778Y0066470D01*
X0192840Y0066396D01*
X0192899Y0066319D01*
X0192955Y0066240D01*
X0193008Y0066158D01*
X0193058Y0066075D01*
X0193103Y0065989D01*
X0193146Y0065902D01*
X0193185Y0065813D01*
X0193220Y0065723D01*
X0193251Y0065631D01*
X0193278Y0065538D01*
X0193302Y0065444D01*
X0193322Y0065349D01*
X0193338Y0065253D01*
X0193350Y0065157D01*
X0193358Y0065060D01*
X0193362Y0064963D01*
X0193362Y0064867D01*
X0193358Y0064770D01*
X0193350Y0064673D01*
X0193338Y0064577D01*
X0193322Y0064481D01*
X0193302Y0064386D01*
X0193278Y0064292D01*
X0193251Y0064199D01*
X0193220Y0064107D01*
X0193185Y0064017D01*
X0193146Y0063928D01*
X0193103Y0063841D01*
X0193058Y0063755D01*
X0193008Y0063672D01*
X0192955Y0063590D01*
X0192899Y0063511D01*
X0192840Y0063434D01*
X0192778Y0063360D01*
X0192712Y0063288D01*
X0192644Y0063219D01*
X0192573Y0063153D01*
X0192500Y0063090D01*
X0192423Y0063030D01*
X0192345Y0062973D01*
X0192264Y0062920D01*
X0192181Y0062869D01*
X0192096Y0062823D01*
X0192009Y0062779D01*
X0191921Y0062740D01*
X0191831Y0062704D01*
X0191739Y0062672D01*
X0191646Y0062643D01*
X0191553Y0062619D01*
X0191458Y0062598D01*
X0191362Y0062581D01*
X0191266Y0062568D01*
X0191170Y0062559D01*
X0191073Y0062554D01*
X0190976Y0062553D01*
X0190879Y0062556D01*
X0190782Y0062563D01*
X0190686Y0062574D01*
X0190590Y0062589D01*
X0190495Y0062608D01*
X0190400Y0062630D01*
X0190307Y0062657D01*
X0190215Y0062687D01*
X0190124Y0062721D01*
X0190035Y0062759D01*
X0189947Y0062801D01*
X0189861Y0062846D01*
X0189777Y0062894D01*
X0189695Y0062946D01*
X0189616Y0063001D01*
X0189538Y0063060D01*
X0189463Y0063121D01*
X0189391Y0063186D01*
X0189321Y0063253D01*
X0189254Y0063324D01*
X0189191Y0063397D01*
X0189130Y0063472D01*
X0189072Y0063550D01*
X0189018Y0063631D01*
X0188967Y0063713D01*
X0188919Y0063798D01*
X0188875Y0063884D01*
X0188834Y0063972D01*
X0188798Y0064062D01*
X0188764Y0064153D01*
X0188735Y0064245D01*
X0188709Y0064339D01*
X0188688Y0064433D01*
X0188670Y0064529D01*
X0188656Y0064625D01*
X0188646Y0064721D01*
X0188640Y0064818D01*
X0188638Y0064915D01*
X0168953Y0084600D02*
X0168955Y0084697D01*
X0168961Y0084794D01*
X0168971Y0084890D01*
X0168985Y0084986D01*
X0169003Y0085082D01*
X0169024Y0085176D01*
X0169050Y0085270D01*
X0169079Y0085362D01*
X0169113Y0085453D01*
X0169149Y0085543D01*
X0169190Y0085631D01*
X0169234Y0085717D01*
X0169282Y0085802D01*
X0169333Y0085884D01*
X0169387Y0085965D01*
X0169445Y0086043D01*
X0169506Y0086118D01*
X0169569Y0086191D01*
X0169636Y0086262D01*
X0169706Y0086329D01*
X0169778Y0086394D01*
X0169853Y0086455D01*
X0169931Y0086514D01*
X0170010Y0086569D01*
X0170092Y0086621D01*
X0170176Y0086669D01*
X0170262Y0086714D01*
X0170350Y0086756D01*
X0170439Y0086794D01*
X0170530Y0086828D01*
X0170622Y0086858D01*
X0170715Y0086885D01*
X0170810Y0086907D01*
X0170905Y0086926D01*
X0171001Y0086941D01*
X0171097Y0086952D01*
X0171194Y0086959D01*
X0171291Y0086962D01*
X0171388Y0086961D01*
X0171485Y0086956D01*
X0171581Y0086947D01*
X0171677Y0086934D01*
X0171773Y0086917D01*
X0171868Y0086896D01*
X0171961Y0086872D01*
X0172054Y0086843D01*
X0172146Y0086811D01*
X0172236Y0086775D01*
X0172324Y0086736D01*
X0172411Y0086692D01*
X0172496Y0086646D01*
X0172579Y0086595D01*
X0172660Y0086542D01*
X0172738Y0086485D01*
X0172815Y0086425D01*
X0172888Y0086362D01*
X0172959Y0086296D01*
X0173027Y0086227D01*
X0173093Y0086155D01*
X0173155Y0086081D01*
X0173214Y0086004D01*
X0173270Y0085925D01*
X0173323Y0085843D01*
X0173373Y0085760D01*
X0173418Y0085674D01*
X0173461Y0085587D01*
X0173500Y0085498D01*
X0173535Y0085408D01*
X0173566Y0085316D01*
X0173593Y0085223D01*
X0173617Y0085129D01*
X0173637Y0085034D01*
X0173653Y0084938D01*
X0173665Y0084842D01*
X0173673Y0084745D01*
X0173677Y0084648D01*
X0173677Y0084552D01*
X0173673Y0084455D01*
X0173665Y0084358D01*
X0173653Y0084262D01*
X0173637Y0084166D01*
X0173617Y0084071D01*
X0173593Y0083977D01*
X0173566Y0083884D01*
X0173535Y0083792D01*
X0173500Y0083702D01*
X0173461Y0083613D01*
X0173418Y0083526D01*
X0173373Y0083440D01*
X0173323Y0083357D01*
X0173270Y0083275D01*
X0173214Y0083196D01*
X0173155Y0083119D01*
X0173093Y0083045D01*
X0173027Y0082973D01*
X0172959Y0082904D01*
X0172888Y0082838D01*
X0172815Y0082775D01*
X0172738Y0082715D01*
X0172660Y0082658D01*
X0172579Y0082605D01*
X0172496Y0082554D01*
X0172411Y0082508D01*
X0172324Y0082464D01*
X0172236Y0082425D01*
X0172146Y0082389D01*
X0172054Y0082357D01*
X0171961Y0082328D01*
X0171868Y0082304D01*
X0171773Y0082283D01*
X0171677Y0082266D01*
X0171581Y0082253D01*
X0171485Y0082244D01*
X0171388Y0082239D01*
X0171291Y0082238D01*
X0171194Y0082241D01*
X0171097Y0082248D01*
X0171001Y0082259D01*
X0170905Y0082274D01*
X0170810Y0082293D01*
X0170715Y0082315D01*
X0170622Y0082342D01*
X0170530Y0082372D01*
X0170439Y0082406D01*
X0170350Y0082444D01*
X0170262Y0082486D01*
X0170176Y0082531D01*
X0170092Y0082579D01*
X0170010Y0082631D01*
X0169931Y0082686D01*
X0169853Y0082745D01*
X0169778Y0082806D01*
X0169706Y0082871D01*
X0169636Y0082938D01*
X0169569Y0083009D01*
X0169506Y0083082D01*
X0169445Y0083157D01*
X0169387Y0083235D01*
X0169333Y0083316D01*
X0169282Y0083398D01*
X0169234Y0083483D01*
X0169190Y0083569D01*
X0169149Y0083657D01*
X0169113Y0083747D01*
X0169079Y0083838D01*
X0169050Y0083930D01*
X0169024Y0084024D01*
X0169003Y0084118D01*
X0168985Y0084214D01*
X0168971Y0084310D01*
X0168961Y0084406D01*
X0168955Y0084503D01*
X0168953Y0084600D01*
X0188638Y0104285D02*
X0188640Y0104382D01*
X0188646Y0104479D01*
X0188656Y0104575D01*
X0188670Y0104671D01*
X0188688Y0104767D01*
X0188709Y0104861D01*
X0188735Y0104955D01*
X0188764Y0105047D01*
X0188798Y0105138D01*
X0188834Y0105228D01*
X0188875Y0105316D01*
X0188919Y0105402D01*
X0188967Y0105487D01*
X0189018Y0105569D01*
X0189072Y0105650D01*
X0189130Y0105728D01*
X0189191Y0105803D01*
X0189254Y0105876D01*
X0189321Y0105947D01*
X0189391Y0106014D01*
X0189463Y0106079D01*
X0189538Y0106140D01*
X0189616Y0106199D01*
X0189695Y0106254D01*
X0189777Y0106306D01*
X0189861Y0106354D01*
X0189947Y0106399D01*
X0190035Y0106441D01*
X0190124Y0106479D01*
X0190215Y0106513D01*
X0190307Y0106543D01*
X0190400Y0106570D01*
X0190495Y0106592D01*
X0190590Y0106611D01*
X0190686Y0106626D01*
X0190782Y0106637D01*
X0190879Y0106644D01*
X0190976Y0106647D01*
X0191073Y0106646D01*
X0191170Y0106641D01*
X0191266Y0106632D01*
X0191362Y0106619D01*
X0191458Y0106602D01*
X0191553Y0106581D01*
X0191646Y0106557D01*
X0191739Y0106528D01*
X0191831Y0106496D01*
X0191921Y0106460D01*
X0192009Y0106421D01*
X0192096Y0106377D01*
X0192181Y0106331D01*
X0192264Y0106280D01*
X0192345Y0106227D01*
X0192423Y0106170D01*
X0192500Y0106110D01*
X0192573Y0106047D01*
X0192644Y0105981D01*
X0192712Y0105912D01*
X0192778Y0105840D01*
X0192840Y0105766D01*
X0192899Y0105689D01*
X0192955Y0105610D01*
X0193008Y0105528D01*
X0193058Y0105445D01*
X0193103Y0105359D01*
X0193146Y0105272D01*
X0193185Y0105183D01*
X0193220Y0105093D01*
X0193251Y0105001D01*
X0193278Y0104908D01*
X0193302Y0104814D01*
X0193322Y0104719D01*
X0193338Y0104623D01*
X0193350Y0104527D01*
X0193358Y0104430D01*
X0193362Y0104333D01*
X0193362Y0104237D01*
X0193358Y0104140D01*
X0193350Y0104043D01*
X0193338Y0103947D01*
X0193322Y0103851D01*
X0193302Y0103756D01*
X0193278Y0103662D01*
X0193251Y0103569D01*
X0193220Y0103477D01*
X0193185Y0103387D01*
X0193146Y0103298D01*
X0193103Y0103211D01*
X0193058Y0103125D01*
X0193008Y0103042D01*
X0192955Y0102960D01*
X0192899Y0102881D01*
X0192840Y0102804D01*
X0192778Y0102730D01*
X0192712Y0102658D01*
X0192644Y0102589D01*
X0192573Y0102523D01*
X0192500Y0102460D01*
X0192423Y0102400D01*
X0192345Y0102343D01*
X0192264Y0102290D01*
X0192181Y0102239D01*
X0192096Y0102193D01*
X0192009Y0102149D01*
X0191921Y0102110D01*
X0191831Y0102074D01*
X0191739Y0102042D01*
X0191646Y0102013D01*
X0191553Y0101989D01*
X0191458Y0101968D01*
X0191362Y0101951D01*
X0191266Y0101938D01*
X0191170Y0101929D01*
X0191073Y0101924D01*
X0190976Y0101923D01*
X0190879Y0101926D01*
X0190782Y0101933D01*
X0190686Y0101944D01*
X0190590Y0101959D01*
X0190495Y0101978D01*
X0190400Y0102000D01*
X0190307Y0102027D01*
X0190215Y0102057D01*
X0190124Y0102091D01*
X0190035Y0102129D01*
X0189947Y0102171D01*
X0189861Y0102216D01*
X0189777Y0102264D01*
X0189695Y0102316D01*
X0189616Y0102371D01*
X0189538Y0102430D01*
X0189463Y0102491D01*
X0189391Y0102556D01*
X0189321Y0102623D01*
X0189254Y0102694D01*
X0189191Y0102767D01*
X0189130Y0102842D01*
X0189072Y0102920D01*
X0189018Y0103001D01*
X0188967Y0103083D01*
X0188919Y0103168D01*
X0188875Y0103254D01*
X0188834Y0103342D01*
X0188798Y0103432D01*
X0188764Y0103523D01*
X0188735Y0103615D01*
X0188709Y0103709D01*
X0188688Y0103803D01*
X0188670Y0103899D01*
X0188656Y0103995D01*
X0188646Y0104091D01*
X0188640Y0104188D01*
X0188638Y0104285D01*
X0188638Y0114915D02*
X0188640Y0115012D01*
X0188646Y0115109D01*
X0188656Y0115205D01*
X0188670Y0115301D01*
X0188688Y0115397D01*
X0188709Y0115491D01*
X0188735Y0115585D01*
X0188764Y0115677D01*
X0188798Y0115768D01*
X0188834Y0115858D01*
X0188875Y0115946D01*
X0188919Y0116032D01*
X0188967Y0116117D01*
X0189018Y0116199D01*
X0189072Y0116280D01*
X0189130Y0116358D01*
X0189191Y0116433D01*
X0189254Y0116506D01*
X0189321Y0116577D01*
X0189391Y0116644D01*
X0189463Y0116709D01*
X0189538Y0116770D01*
X0189616Y0116829D01*
X0189695Y0116884D01*
X0189777Y0116936D01*
X0189861Y0116984D01*
X0189947Y0117029D01*
X0190035Y0117071D01*
X0190124Y0117109D01*
X0190215Y0117143D01*
X0190307Y0117173D01*
X0190400Y0117200D01*
X0190495Y0117222D01*
X0190590Y0117241D01*
X0190686Y0117256D01*
X0190782Y0117267D01*
X0190879Y0117274D01*
X0190976Y0117277D01*
X0191073Y0117276D01*
X0191170Y0117271D01*
X0191266Y0117262D01*
X0191362Y0117249D01*
X0191458Y0117232D01*
X0191553Y0117211D01*
X0191646Y0117187D01*
X0191739Y0117158D01*
X0191831Y0117126D01*
X0191921Y0117090D01*
X0192009Y0117051D01*
X0192096Y0117007D01*
X0192181Y0116961D01*
X0192264Y0116910D01*
X0192345Y0116857D01*
X0192423Y0116800D01*
X0192500Y0116740D01*
X0192573Y0116677D01*
X0192644Y0116611D01*
X0192712Y0116542D01*
X0192778Y0116470D01*
X0192840Y0116396D01*
X0192899Y0116319D01*
X0192955Y0116240D01*
X0193008Y0116158D01*
X0193058Y0116075D01*
X0193103Y0115989D01*
X0193146Y0115902D01*
X0193185Y0115813D01*
X0193220Y0115723D01*
X0193251Y0115631D01*
X0193278Y0115538D01*
X0193302Y0115444D01*
X0193322Y0115349D01*
X0193338Y0115253D01*
X0193350Y0115157D01*
X0193358Y0115060D01*
X0193362Y0114963D01*
X0193362Y0114867D01*
X0193358Y0114770D01*
X0193350Y0114673D01*
X0193338Y0114577D01*
X0193322Y0114481D01*
X0193302Y0114386D01*
X0193278Y0114292D01*
X0193251Y0114199D01*
X0193220Y0114107D01*
X0193185Y0114017D01*
X0193146Y0113928D01*
X0193103Y0113841D01*
X0193058Y0113755D01*
X0193008Y0113672D01*
X0192955Y0113590D01*
X0192899Y0113511D01*
X0192840Y0113434D01*
X0192778Y0113360D01*
X0192712Y0113288D01*
X0192644Y0113219D01*
X0192573Y0113153D01*
X0192500Y0113090D01*
X0192423Y0113030D01*
X0192345Y0112973D01*
X0192264Y0112920D01*
X0192181Y0112869D01*
X0192096Y0112823D01*
X0192009Y0112779D01*
X0191921Y0112740D01*
X0191831Y0112704D01*
X0191739Y0112672D01*
X0191646Y0112643D01*
X0191553Y0112619D01*
X0191458Y0112598D01*
X0191362Y0112581D01*
X0191266Y0112568D01*
X0191170Y0112559D01*
X0191073Y0112554D01*
X0190976Y0112553D01*
X0190879Y0112556D01*
X0190782Y0112563D01*
X0190686Y0112574D01*
X0190590Y0112589D01*
X0190495Y0112608D01*
X0190400Y0112630D01*
X0190307Y0112657D01*
X0190215Y0112687D01*
X0190124Y0112721D01*
X0190035Y0112759D01*
X0189947Y0112801D01*
X0189861Y0112846D01*
X0189777Y0112894D01*
X0189695Y0112946D01*
X0189616Y0113001D01*
X0189538Y0113060D01*
X0189463Y0113121D01*
X0189391Y0113186D01*
X0189321Y0113253D01*
X0189254Y0113324D01*
X0189191Y0113397D01*
X0189130Y0113472D01*
X0189072Y0113550D01*
X0189018Y0113631D01*
X0188967Y0113713D01*
X0188919Y0113798D01*
X0188875Y0113884D01*
X0188834Y0113972D01*
X0188798Y0114062D01*
X0188764Y0114153D01*
X0188735Y0114245D01*
X0188709Y0114339D01*
X0188688Y0114433D01*
X0188670Y0114529D01*
X0188656Y0114625D01*
X0188646Y0114721D01*
X0188640Y0114818D01*
X0188638Y0114915D01*
X0168953Y0134600D02*
X0168955Y0134697D01*
X0168961Y0134794D01*
X0168971Y0134890D01*
X0168985Y0134986D01*
X0169003Y0135082D01*
X0169024Y0135176D01*
X0169050Y0135270D01*
X0169079Y0135362D01*
X0169113Y0135453D01*
X0169149Y0135543D01*
X0169190Y0135631D01*
X0169234Y0135717D01*
X0169282Y0135802D01*
X0169333Y0135884D01*
X0169387Y0135965D01*
X0169445Y0136043D01*
X0169506Y0136118D01*
X0169569Y0136191D01*
X0169636Y0136262D01*
X0169706Y0136329D01*
X0169778Y0136394D01*
X0169853Y0136455D01*
X0169931Y0136514D01*
X0170010Y0136569D01*
X0170092Y0136621D01*
X0170176Y0136669D01*
X0170262Y0136714D01*
X0170350Y0136756D01*
X0170439Y0136794D01*
X0170530Y0136828D01*
X0170622Y0136858D01*
X0170715Y0136885D01*
X0170810Y0136907D01*
X0170905Y0136926D01*
X0171001Y0136941D01*
X0171097Y0136952D01*
X0171194Y0136959D01*
X0171291Y0136962D01*
X0171388Y0136961D01*
X0171485Y0136956D01*
X0171581Y0136947D01*
X0171677Y0136934D01*
X0171773Y0136917D01*
X0171868Y0136896D01*
X0171961Y0136872D01*
X0172054Y0136843D01*
X0172146Y0136811D01*
X0172236Y0136775D01*
X0172324Y0136736D01*
X0172411Y0136692D01*
X0172496Y0136646D01*
X0172579Y0136595D01*
X0172660Y0136542D01*
X0172738Y0136485D01*
X0172815Y0136425D01*
X0172888Y0136362D01*
X0172959Y0136296D01*
X0173027Y0136227D01*
X0173093Y0136155D01*
X0173155Y0136081D01*
X0173214Y0136004D01*
X0173270Y0135925D01*
X0173323Y0135843D01*
X0173373Y0135760D01*
X0173418Y0135674D01*
X0173461Y0135587D01*
X0173500Y0135498D01*
X0173535Y0135408D01*
X0173566Y0135316D01*
X0173593Y0135223D01*
X0173617Y0135129D01*
X0173637Y0135034D01*
X0173653Y0134938D01*
X0173665Y0134842D01*
X0173673Y0134745D01*
X0173677Y0134648D01*
X0173677Y0134552D01*
X0173673Y0134455D01*
X0173665Y0134358D01*
X0173653Y0134262D01*
X0173637Y0134166D01*
X0173617Y0134071D01*
X0173593Y0133977D01*
X0173566Y0133884D01*
X0173535Y0133792D01*
X0173500Y0133702D01*
X0173461Y0133613D01*
X0173418Y0133526D01*
X0173373Y0133440D01*
X0173323Y0133357D01*
X0173270Y0133275D01*
X0173214Y0133196D01*
X0173155Y0133119D01*
X0173093Y0133045D01*
X0173027Y0132973D01*
X0172959Y0132904D01*
X0172888Y0132838D01*
X0172815Y0132775D01*
X0172738Y0132715D01*
X0172660Y0132658D01*
X0172579Y0132605D01*
X0172496Y0132554D01*
X0172411Y0132508D01*
X0172324Y0132464D01*
X0172236Y0132425D01*
X0172146Y0132389D01*
X0172054Y0132357D01*
X0171961Y0132328D01*
X0171868Y0132304D01*
X0171773Y0132283D01*
X0171677Y0132266D01*
X0171581Y0132253D01*
X0171485Y0132244D01*
X0171388Y0132239D01*
X0171291Y0132238D01*
X0171194Y0132241D01*
X0171097Y0132248D01*
X0171001Y0132259D01*
X0170905Y0132274D01*
X0170810Y0132293D01*
X0170715Y0132315D01*
X0170622Y0132342D01*
X0170530Y0132372D01*
X0170439Y0132406D01*
X0170350Y0132444D01*
X0170262Y0132486D01*
X0170176Y0132531D01*
X0170092Y0132579D01*
X0170010Y0132631D01*
X0169931Y0132686D01*
X0169853Y0132745D01*
X0169778Y0132806D01*
X0169706Y0132871D01*
X0169636Y0132938D01*
X0169569Y0133009D01*
X0169506Y0133082D01*
X0169445Y0133157D01*
X0169387Y0133235D01*
X0169333Y0133316D01*
X0169282Y0133398D01*
X0169234Y0133483D01*
X0169190Y0133569D01*
X0169149Y0133657D01*
X0169113Y0133747D01*
X0169079Y0133838D01*
X0169050Y0133930D01*
X0169024Y0134024D01*
X0169003Y0134118D01*
X0168985Y0134214D01*
X0168971Y0134310D01*
X0168961Y0134406D01*
X0168955Y0134503D01*
X0168953Y0134600D01*
X0188638Y0154285D02*
X0188640Y0154382D01*
X0188646Y0154479D01*
X0188656Y0154575D01*
X0188670Y0154671D01*
X0188688Y0154767D01*
X0188709Y0154861D01*
X0188735Y0154955D01*
X0188764Y0155047D01*
X0188798Y0155138D01*
X0188834Y0155228D01*
X0188875Y0155316D01*
X0188919Y0155402D01*
X0188967Y0155487D01*
X0189018Y0155569D01*
X0189072Y0155650D01*
X0189130Y0155728D01*
X0189191Y0155803D01*
X0189254Y0155876D01*
X0189321Y0155947D01*
X0189391Y0156014D01*
X0189463Y0156079D01*
X0189538Y0156140D01*
X0189616Y0156199D01*
X0189695Y0156254D01*
X0189777Y0156306D01*
X0189861Y0156354D01*
X0189947Y0156399D01*
X0190035Y0156441D01*
X0190124Y0156479D01*
X0190215Y0156513D01*
X0190307Y0156543D01*
X0190400Y0156570D01*
X0190495Y0156592D01*
X0190590Y0156611D01*
X0190686Y0156626D01*
X0190782Y0156637D01*
X0190879Y0156644D01*
X0190976Y0156647D01*
X0191073Y0156646D01*
X0191170Y0156641D01*
X0191266Y0156632D01*
X0191362Y0156619D01*
X0191458Y0156602D01*
X0191553Y0156581D01*
X0191646Y0156557D01*
X0191739Y0156528D01*
X0191831Y0156496D01*
X0191921Y0156460D01*
X0192009Y0156421D01*
X0192096Y0156377D01*
X0192181Y0156331D01*
X0192264Y0156280D01*
X0192345Y0156227D01*
X0192423Y0156170D01*
X0192500Y0156110D01*
X0192573Y0156047D01*
X0192644Y0155981D01*
X0192712Y0155912D01*
X0192778Y0155840D01*
X0192840Y0155766D01*
X0192899Y0155689D01*
X0192955Y0155610D01*
X0193008Y0155528D01*
X0193058Y0155445D01*
X0193103Y0155359D01*
X0193146Y0155272D01*
X0193185Y0155183D01*
X0193220Y0155093D01*
X0193251Y0155001D01*
X0193278Y0154908D01*
X0193302Y0154814D01*
X0193322Y0154719D01*
X0193338Y0154623D01*
X0193350Y0154527D01*
X0193358Y0154430D01*
X0193362Y0154333D01*
X0193362Y0154237D01*
X0193358Y0154140D01*
X0193350Y0154043D01*
X0193338Y0153947D01*
X0193322Y0153851D01*
X0193302Y0153756D01*
X0193278Y0153662D01*
X0193251Y0153569D01*
X0193220Y0153477D01*
X0193185Y0153387D01*
X0193146Y0153298D01*
X0193103Y0153211D01*
X0193058Y0153125D01*
X0193008Y0153042D01*
X0192955Y0152960D01*
X0192899Y0152881D01*
X0192840Y0152804D01*
X0192778Y0152730D01*
X0192712Y0152658D01*
X0192644Y0152589D01*
X0192573Y0152523D01*
X0192500Y0152460D01*
X0192423Y0152400D01*
X0192345Y0152343D01*
X0192264Y0152290D01*
X0192181Y0152239D01*
X0192096Y0152193D01*
X0192009Y0152149D01*
X0191921Y0152110D01*
X0191831Y0152074D01*
X0191739Y0152042D01*
X0191646Y0152013D01*
X0191553Y0151989D01*
X0191458Y0151968D01*
X0191362Y0151951D01*
X0191266Y0151938D01*
X0191170Y0151929D01*
X0191073Y0151924D01*
X0190976Y0151923D01*
X0190879Y0151926D01*
X0190782Y0151933D01*
X0190686Y0151944D01*
X0190590Y0151959D01*
X0190495Y0151978D01*
X0190400Y0152000D01*
X0190307Y0152027D01*
X0190215Y0152057D01*
X0190124Y0152091D01*
X0190035Y0152129D01*
X0189947Y0152171D01*
X0189861Y0152216D01*
X0189777Y0152264D01*
X0189695Y0152316D01*
X0189616Y0152371D01*
X0189538Y0152430D01*
X0189463Y0152491D01*
X0189391Y0152556D01*
X0189321Y0152623D01*
X0189254Y0152694D01*
X0189191Y0152767D01*
X0189130Y0152842D01*
X0189072Y0152920D01*
X0189018Y0153001D01*
X0188967Y0153083D01*
X0188919Y0153168D01*
X0188875Y0153254D01*
X0188834Y0153342D01*
X0188798Y0153432D01*
X0188764Y0153523D01*
X0188735Y0153615D01*
X0188709Y0153709D01*
X0188688Y0153803D01*
X0188670Y0153899D01*
X0188656Y0153995D01*
X0188646Y0154091D01*
X0188640Y0154188D01*
X0188638Y0154285D01*
D11*
X0178067Y0174482D03*
X0178067Y0177041D03*
X0178067Y0179600D03*
X0178067Y0182159D03*
X0178067Y0184718D03*
D12*
X0188500Y0195348D03*
X0188500Y0163852D03*
D13*
X0188500Y0174600D03*
X0188500Y0184600D03*
D14*
X0113600Y0169600D02*
X0108400Y0169600D01*
X0108400Y0159600D02*
X0113600Y0159600D01*
X0113600Y0149600D02*
X0108400Y0149600D01*
X0108400Y0139600D02*
X0113600Y0139600D01*
X0113600Y0129600D02*
X0108400Y0129600D01*
X0108400Y0119600D02*
X0113600Y0119600D01*
X0113600Y0109600D02*
X0108400Y0109600D01*
X0108400Y0099600D02*
X0113600Y0099600D01*
X0113600Y0089600D02*
X0108400Y0089600D01*
X0108400Y0079600D02*
X0113600Y0079600D01*
X0113600Y0069600D02*
X0108400Y0069600D01*
X0108400Y0059600D02*
X0113600Y0059600D01*
X0113600Y0049600D02*
X0108400Y0049600D01*
X0108400Y0039600D02*
X0113600Y0039600D01*
X0112780Y0023600D02*
X0107580Y0023600D01*
X0107580Y0013600D02*
X0112780Y0013600D01*
X0083600Y0039600D02*
X0078400Y0039600D01*
X0078400Y0049600D02*
X0083600Y0049600D01*
X0083600Y0059600D02*
X0078400Y0059600D01*
X0078400Y0069600D02*
X0083600Y0069600D01*
X0083600Y0079600D02*
X0078400Y0079600D01*
X0078400Y0089600D02*
X0083600Y0089600D01*
X0083600Y0099600D02*
X0078400Y0099600D01*
X0078400Y0109600D02*
X0083600Y0109600D01*
X0083600Y0119600D02*
X0078400Y0119600D01*
X0078400Y0129600D02*
X0083600Y0129600D01*
X0083600Y0139600D02*
X0078400Y0139600D01*
X0078400Y0149600D02*
X0083600Y0149600D01*
X0083600Y0159600D02*
X0078400Y0159600D01*
X0078400Y0169600D02*
X0083600Y0169600D01*
X0082780Y0023600D02*
X0077580Y0023600D01*
X0077580Y0013600D02*
X0082780Y0013600D01*
D15*
X0171315Y0014915D03*
X0171315Y0024757D03*
X0171315Y0044443D03*
X0171315Y0054285D03*
X0171315Y0064915D03*
X0171315Y0074757D03*
X0171315Y0094443D03*
X0171315Y0104285D03*
X0171315Y0114915D03*
X0171315Y0124757D03*
X0171315Y0144443D03*
X0171315Y0154285D03*
X0191000Y0134600D03*
X0191000Y0084600D03*
X0191000Y0034600D03*
D16*
X0156000Y0042100D03*
X0156000Y0022100D03*
X0146000Y0022100D03*
X0146000Y0012100D03*
X0126000Y0012100D03*
X0126000Y0022100D03*
X0126000Y0059600D03*
X0126000Y0069600D03*
X0146000Y0069600D03*
X0146000Y0059600D03*
X0156000Y0079600D03*
X0156000Y0099600D03*
X0146000Y0107100D03*
X0146000Y0117100D03*
X0156000Y0129600D03*
X0156000Y0149600D03*
X0128500Y0159600D03*
X0128500Y0179600D03*
X0126000Y0117100D03*
X0126000Y0107100D03*
X0067260Y0098670D03*
X0053390Y0098030D03*
X0053500Y0107100D03*
X0053370Y0117230D03*
X0053500Y0127100D03*
X0053500Y0137100D03*
X0033500Y0137100D03*
X0033500Y0127100D03*
X0033370Y0117230D03*
X0033500Y0107100D03*
X0033390Y0098030D03*
X0016000Y0098840D03*
X0016000Y0108840D03*
X0067260Y0118670D03*
X0031000Y0159600D03*
X0031000Y0169600D03*
X0011000Y0169600D03*
X0011000Y0159600D03*
D17*
X0106000Y0189600D03*
X0141000Y0134600D03*
X0141000Y0087100D03*
X0141000Y0039600D03*
D18*
X0131000Y0039600D03*
X0131000Y0087100D03*
X0131000Y0134600D03*
X0116000Y0189600D03*
D19*
X0143500Y0192400D02*
X0143500Y0196800D01*
X0163500Y0196800D02*
X0163500Y0192400D01*
D20*
X0156000Y0179600D03*
X0141000Y0179600D03*
X0141000Y0159600D03*
X0156000Y0159600D03*
D21*
X0086000Y0194600D03*
D22*
X0086000Y0184600D03*
X0076000Y0184600D03*
X0066000Y0184600D03*
X0066000Y0194600D03*
X0076000Y0194600D03*
X0051000Y0194600D03*
X0051000Y0184600D03*
X0041000Y0184600D03*
X0031000Y0184600D03*
X0031000Y0194600D03*
X0041000Y0194600D03*
X0021000Y0194600D03*
X0011000Y0194600D03*
X0011000Y0184600D03*
X0021000Y0184600D03*
D23*
X0053500Y0159600D03*
D24*
X0019470Y0149210D02*
X0013470Y0149210D01*
X0013470Y0139210D02*
X0019470Y0139210D01*
X0019470Y0129210D02*
X0013470Y0129210D01*
X0013470Y0119210D02*
X0019470Y0119210D01*
D25*
X0040370Y0101057D02*
X0040370Y0150269D01*
X0038402Y0152238D01*
X0038402Y0177828D01*
X0036433Y0179797D01*
X0036433Y0189639D01*
X0032496Y0193576D01*
X0031000Y0194600D01*
X0041000Y0194600D02*
X0042339Y0193576D01*
X0046276Y0189639D01*
X0046276Y0175860D01*
X0058087Y0175860D01*
X0069898Y0164049D01*
X0069898Y0154206D01*
X0060055Y0144364D01*
X0060055Y0114836D01*
X0071866Y0103025D01*
X0071866Y0065624D01*
X0083677Y0065624D01*
X0091551Y0057750D01*
X0091551Y0049876D01*
X0109268Y0049876D01*
X0111000Y0049600D01*
X0126000Y0059600D02*
X0126984Y0059718D01*
X0126984Y0069561D01*
X0126000Y0069600D01*
X0125016Y0071529D01*
X0125016Y0079403D01*
X0130921Y0085309D01*
X0131000Y0087100D01*
X0148638Y0095151D02*
X0148638Y0077435D01*
X0152575Y0073498D01*
X0152575Y0047907D01*
X0154543Y0045939D01*
X0154543Y0043970D01*
X0156000Y0042100D01*
X0162417Y0038065D02*
X0156512Y0032159D01*
X0132890Y0032159D01*
X0128953Y0036096D01*
X0130921Y0038065D01*
X0131000Y0039600D01*
X0128953Y0036096D02*
X0125016Y0032159D01*
X0125016Y0022317D01*
X0126000Y0022100D01*
X0126984Y0020348D01*
X0126984Y0012474D01*
X0126000Y0012100D01*
X0156000Y0022100D02*
X0156512Y0022317D01*
X0156512Y0032159D01*
X0162417Y0038065D02*
X0162417Y0055781D01*
X0170291Y0055781D01*
X0171315Y0054285D01*
X0180134Y0036096D02*
X0180134Y0130584D01*
X0182102Y0132553D01*
X0182102Y0140427D01*
X0184071Y0142395D01*
X0184071Y0146332D01*
X0180134Y0150269D01*
X0180134Y0158143D01*
X0170291Y0167986D01*
X0170291Y0164049D02*
X0164386Y0164049D01*
X0164386Y0158143D01*
X0160449Y0154206D01*
X0160449Y0148301D01*
X0148638Y0136490D01*
X0148638Y0126647D01*
X0152575Y0122710D01*
X0152575Y0103025D01*
X0156000Y0099600D01*
X0162417Y0104994D02*
X0162417Y0089246D01*
X0156512Y0083340D01*
X0156512Y0081372D01*
X0156000Y0079600D01*
X0148638Y0095151D02*
X0132890Y0110899D01*
X0132890Y0120742D01*
X0121079Y0132553D01*
X0121079Y0154206D01*
X0115173Y0160112D01*
X0111236Y0160112D01*
X0111000Y0159600D01*
X0111000Y0169600D02*
X0111236Y0169954D01*
X0115173Y0169954D01*
X0121079Y0164049D01*
X0121079Y0158143D01*
X0123047Y0156175D01*
X0123047Y0152238D01*
X0134858Y0152238D01*
X0148638Y0138458D01*
X0148638Y0136490D01*
X0148638Y0144364D02*
X0148638Y0154206D01*
X0154543Y0160112D01*
X0156000Y0159600D01*
X0168323Y0171923D01*
X0168323Y0189639D01*
X0164386Y0193576D01*
X0163500Y0194600D01*
X0178067Y0174482D02*
X0178165Y0173891D01*
X0178165Y0169954D01*
X0170291Y0164049D02*
X0178165Y0156175D01*
X0178165Y0146332D01*
X0180134Y0144364D01*
X0171315Y0154285D02*
X0170291Y0154206D01*
X0156512Y0140427D01*
X0156512Y0130584D01*
X0156000Y0129600D01*
X0156512Y0128616D01*
X0170291Y0114836D01*
X0171315Y0114915D01*
X0170291Y0104994D02*
X0162417Y0104994D01*
X0170291Y0104994D02*
X0171315Y0104285D01*
X0126984Y0108931D02*
X0126000Y0107100D01*
X0126984Y0108931D02*
X0126984Y0116805D01*
X0126000Y0117100D01*
X0101394Y0093183D02*
X0101394Y0171923D01*
X0111236Y0181765D01*
X0125016Y0181765D01*
X0130921Y0187671D01*
X0140764Y0187671D01*
X0140764Y0191608D01*
X0142732Y0193576D01*
X0143500Y0194600D01*
X0140764Y0187671D02*
X0140764Y0179797D01*
X0141000Y0179600D01*
X0093520Y0156175D02*
X0085646Y0164049D01*
X0073835Y0164049D01*
X0073835Y0183734D01*
X0075803Y0185702D01*
X0076000Y0184600D01*
X0071866Y0175860D02*
X0065961Y0181765D01*
X0065961Y0183734D01*
X0066000Y0184600D01*
X0071866Y0175860D02*
X0071866Y0124679D01*
X0085646Y0124679D01*
X0091551Y0118773D01*
X0091551Y0069561D01*
X0109268Y0069561D01*
X0111000Y0069600D01*
X0109268Y0079403D02*
X0101394Y0079403D01*
X0093520Y0087277D01*
X0093520Y0156175D01*
X0081709Y0169954D02*
X0081000Y0169600D01*
X0081709Y0169954D02*
X0087614Y0175860D01*
X0087614Y0183734D01*
X0086000Y0184600D01*
X0053370Y0117230D02*
X0052181Y0116805D01*
X0046276Y0110899D01*
X0046276Y0083340D01*
X0065961Y0063655D01*
X0069898Y0047907D02*
X0079740Y0038065D01*
X0081000Y0039600D01*
X0079740Y0038065D02*
X0079740Y0024285D01*
X0080180Y0023600D01*
X0069898Y0047907D02*
X0069898Y0095151D01*
X0067929Y0097120D01*
X0067260Y0098670D01*
X0097457Y0089246D02*
X0101394Y0093183D01*
X0109268Y0079403D02*
X0111000Y0079600D01*
X0180134Y0036096D02*
X0189976Y0036096D01*
X0191000Y0034600D01*
X0012811Y0160112D02*
X0011000Y0159600D01*
X0012811Y0160112D02*
X0012811Y0167986D01*
X0011000Y0169600D01*
D26*
X0015200Y0169247D02*
X0026800Y0169247D01*
X0026800Y0167860D02*
X0029260Y0165400D01*
X0032740Y0165400D01*
X0035200Y0167860D01*
X0035200Y0171340D01*
X0032740Y0173800D01*
X0029260Y0173800D01*
X0026800Y0171340D01*
X0026800Y0167860D01*
X0027012Y0167648D02*
X0014988Y0167648D01*
X0014937Y0167597D02*
X0015200Y0167860D01*
X0015200Y0171340D01*
X0012740Y0173800D01*
X0009260Y0173800D01*
X0006800Y0171340D01*
X0006800Y0167860D01*
X0009260Y0165400D01*
X0010711Y0165400D01*
X0010711Y0163800D01*
X0009260Y0163800D01*
X0006800Y0161340D01*
X0006800Y0157860D01*
X0009260Y0155400D01*
X0012740Y0155400D01*
X0015200Y0157860D01*
X0015200Y0161340D01*
X0014911Y0161629D01*
X0014911Y0167186D01*
X0014957Y0167238D01*
X0014937Y0167597D01*
X0014911Y0166050D02*
X0028611Y0166050D01*
X0029177Y0164000D02*
X0026600Y0161423D01*
X0026600Y0159600D01*
X0031000Y0159600D01*
X0035400Y0159600D01*
X0035400Y0161423D01*
X0032823Y0164000D01*
X0031000Y0164000D01*
X0031000Y0159600D01*
X0031000Y0159600D01*
X0031000Y0159600D01*
X0035400Y0159600D01*
X0035400Y0157777D01*
X0032823Y0155200D01*
X0031000Y0155200D01*
X0031000Y0159600D01*
X0031000Y0159600D01*
X0031000Y0159600D01*
X0031000Y0164000D01*
X0029177Y0164000D01*
X0028030Y0162853D02*
X0014911Y0162853D01*
X0014911Y0164451D02*
X0036302Y0164451D01*
X0036302Y0162853D02*
X0033970Y0162853D01*
X0035400Y0161254D02*
X0036302Y0161254D01*
X0036302Y0159656D02*
X0035400Y0159656D01*
X0035400Y0158057D02*
X0036302Y0158057D01*
X0036302Y0156459D02*
X0034081Y0156459D01*
X0036302Y0154860D02*
X0005800Y0154860D01*
X0005800Y0153262D02*
X0011231Y0153262D01*
X0010864Y0153110D02*
X0012555Y0153810D01*
X0020385Y0153810D01*
X0022076Y0153110D01*
X0023370Y0151816D01*
X0024070Y0150125D01*
X0024070Y0148295D01*
X0023370Y0146604D01*
X0022076Y0145310D01*
X0020385Y0144610D01*
X0012555Y0144610D01*
X0010864Y0145310D01*
X0009570Y0146604D01*
X0008870Y0148295D01*
X0008870Y0150125D01*
X0009570Y0151816D01*
X0010864Y0153110D01*
X0009507Y0151663D02*
X0005800Y0151663D01*
X0005800Y0150065D02*
X0008870Y0150065D01*
X0008870Y0148466D02*
X0005800Y0148466D01*
X0005800Y0146868D02*
X0009461Y0146868D01*
X0010964Y0145269D02*
X0005800Y0145269D01*
X0005800Y0143670D02*
X0012218Y0143670D01*
X0012555Y0143810D02*
X0010864Y0143110D01*
X0009570Y0141816D01*
X0008870Y0140125D01*
X0008870Y0138295D01*
X0009570Y0136604D01*
X0010864Y0135310D01*
X0012555Y0134610D01*
X0020385Y0134610D01*
X0022076Y0135310D01*
X0023370Y0136604D01*
X0024070Y0138295D01*
X0024070Y0140125D01*
X0023370Y0141816D01*
X0022076Y0143110D01*
X0020385Y0143810D01*
X0012555Y0143810D01*
X0009827Y0142072D02*
X0005800Y0142072D01*
X0005800Y0140473D02*
X0009014Y0140473D01*
X0008870Y0138875D02*
X0005800Y0138875D01*
X0005800Y0137276D02*
X0009292Y0137276D01*
X0010497Y0135678D02*
X0005800Y0135678D01*
X0005800Y0134079D02*
X0030581Y0134079D01*
X0031760Y0132900D02*
X0035240Y0132900D01*
X0037700Y0135360D01*
X0037700Y0138840D01*
X0035240Y0141300D01*
X0031760Y0141300D01*
X0029300Y0138840D01*
X0029300Y0135360D01*
X0031760Y0132900D01*
X0031760Y0131300D02*
X0029300Y0128840D01*
X0029300Y0125360D01*
X0031760Y0122900D01*
X0035240Y0122900D01*
X0037700Y0125360D01*
X0037700Y0128840D01*
X0035240Y0131300D01*
X0031760Y0131300D01*
X0031343Y0130882D02*
X0023756Y0130882D01*
X0024070Y0130125D02*
X0023370Y0131816D01*
X0022076Y0133110D01*
X0020385Y0133810D01*
X0012555Y0133810D01*
X0010864Y0133110D01*
X0009570Y0131816D01*
X0008870Y0130125D01*
X0008870Y0128295D01*
X0009570Y0126604D01*
X0010864Y0125310D01*
X0012555Y0124610D01*
X0020385Y0124610D01*
X0022076Y0125310D01*
X0023370Y0126604D01*
X0024070Y0128295D01*
X0024070Y0130125D01*
X0024070Y0129284D02*
X0029744Y0129284D01*
X0029300Y0127685D02*
X0023817Y0127685D01*
X0022852Y0126087D02*
X0029300Y0126087D01*
X0030172Y0124488D02*
X0005800Y0124488D01*
X0005800Y0122890D02*
X0010644Y0122890D01*
X0010864Y0123110D02*
X0009570Y0121816D01*
X0008870Y0120125D01*
X0008870Y0118295D01*
X0009570Y0116604D01*
X0010864Y0115310D01*
X0012555Y0114610D01*
X0020385Y0114610D01*
X0022076Y0115310D01*
X0023370Y0116604D01*
X0024070Y0118295D01*
X0024070Y0120125D01*
X0023370Y0121816D01*
X0022076Y0123110D01*
X0020385Y0123810D01*
X0012555Y0123810D01*
X0010864Y0123110D01*
X0009353Y0121291D02*
X0005800Y0121291D01*
X0005800Y0119693D02*
X0008870Y0119693D01*
X0008953Y0118094D02*
X0005800Y0118094D01*
X0005800Y0116496D02*
X0009679Y0116496D01*
X0011861Y0114897D02*
X0005800Y0114897D01*
X0005800Y0113299D02*
X0031362Y0113299D01*
X0031630Y0113030D02*
X0035110Y0113030D01*
X0037570Y0115490D01*
X0037570Y0118970D01*
X0035110Y0121430D01*
X0031630Y0121430D01*
X0029170Y0118970D01*
X0029170Y0115490D01*
X0031630Y0113030D01*
X0031760Y0111300D02*
X0029300Y0108840D01*
X0029300Y0105360D01*
X0031760Y0102900D01*
X0035240Y0102900D01*
X0037700Y0105360D01*
X0037700Y0108840D01*
X0035240Y0111300D01*
X0031760Y0111300D01*
X0030562Y0110102D02*
X0020400Y0110102D01*
X0020400Y0110663D02*
X0020400Y0108840D01*
X0016000Y0108840D01*
X0016000Y0108840D01*
X0016000Y0113240D01*
X0017823Y0113240D01*
X0020400Y0110663D01*
X0019362Y0111700D02*
X0038270Y0111700D01*
X0038270Y0110102D02*
X0036438Y0110102D01*
X0037700Y0108503D02*
X0038270Y0108503D01*
X0038270Y0106905D02*
X0037700Y0106905D01*
X0037646Y0105306D02*
X0038270Y0105306D01*
X0038270Y0104048D02*
X0037318Y0103096D01*
X0036770Y0101773D01*
X0036770Y0100590D01*
X0035130Y0102230D01*
X0031650Y0102230D01*
X0029190Y0099770D01*
X0029190Y0096290D01*
X0031650Y0093830D01*
X0035130Y0093830D01*
X0037590Y0096290D01*
X0037590Y0098746D01*
X0038331Y0098005D01*
X0039654Y0097457D01*
X0041086Y0097457D01*
X0042409Y0098005D01*
X0043422Y0099017D01*
X0043970Y0100341D01*
X0043970Y0101773D01*
X0043422Y0103096D01*
X0042470Y0104048D01*
X0042470Y0151139D01*
X0040502Y0153108D01*
X0040502Y0157496D01*
X0041293Y0154544D01*
X0043017Y0151556D01*
X0045456Y0149117D01*
X0048444Y0147393D01*
X0051775Y0146500D01*
X0055225Y0146500D01*
X0058556Y0147393D01*
X0061544Y0149117D01*
X0063983Y0151556D01*
X0065707Y0154544D01*
X0066600Y0157875D01*
X0066600Y0161325D01*
X0065707Y0164656D01*
X0064870Y0166107D01*
X0067798Y0163179D01*
X0067798Y0155076D01*
X0057955Y0145234D01*
X0057955Y0113966D01*
X0059185Y0112736D01*
X0069766Y0102155D01*
X0069766Y0102104D01*
X0069000Y0102870D01*
X0065520Y0102870D01*
X0063060Y0100410D01*
X0063060Y0096930D01*
X0065520Y0094470D01*
X0067609Y0094470D01*
X0067798Y0094281D01*
X0067798Y0066791D01*
X0066677Y0067255D01*
X0065330Y0067255D01*
X0048376Y0084210D01*
X0048376Y0110029D01*
X0051503Y0113157D01*
X0051630Y0113030D01*
X0055110Y0113030D01*
X0057570Y0115490D01*
X0057570Y0118970D01*
X0055110Y0121430D01*
X0051630Y0121430D01*
X0049170Y0118970D01*
X0049170Y0116763D01*
X0044176Y0111769D01*
X0044176Y0082470D01*
X0045406Y0081240D01*
X0062361Y0064285D01*
X0062361Y0062939D01*
X0062909Y0061616D01*
X0063921Y0060603D01*
X0065245Y0060055D01*
X0066677Y0060055D01*
X0067798Y0060519D01*
X0067798Y0047037D01*
X0074258Y0040576D01*
X0074200Y0040435D01*
X0074200Y0038765D01*
X0074839Y0037221D01*
X0076021Y0036039D01*
X0077565Y0035400D01*
X0077640Y0035400D01*
X0077640Y0027800D01*
X0076745Y0027800D01*
X0075201Y0027161D01*
X0074019Y0025979D01*
X0073380Y0024435D01*
X0073380Y0022765D01*
X0074019Y0021221D01*
X0075201Y0020039D01*
X0076745Y0019400D01*
X0083615Y0019400D01*
X0085159Y0020039D01*
X0086341Y0021221D01*
X0086980Y0022765D01*
X0086980Y0024435D01*
X0086341Y0025979D01*
X0085159Y0027161D01*
X0083615Y0027800D01*
X0081840Y0027800D01*
X0081840Y0035400D01*
X0084435Y0035400D01*
X0085979Y0036039D01*
X0087161Y0037221D01*
X0087800Y0038765D01*
X0087800Y0040435D01*
X0087161Y0041979D01*
X0085979Y0043161D01*
X0084435Y0043800D01*
X0077565Y0043800D01*
X0077147Y0043627D01*
X0071998Y0048777D01*
X0071998Y0063524D01*
X0076897Y0063524D01*
X0076021Y0063161D01*
X0074839Y0061979D01*
X0074200Y0060435D01*
X0074200Y0058765D01*
X0074839Y0057221D01*
X0076021Y0056039D01*
X0077565Y0055400D01*
X0084435Y0055400D01*
X0085979Y0056039D01*
X0087161Y0057221D01*
X0087732Y0058599D01*
X0089451Y0056880D01*
X0089451Y0049006D01*
X0090681Y0047776D01*
X0104610Y0047776D01*
X0104839Y0047221D01*
X0106021Y0046039D01*
X0107565Y0045400D01*
X0114435Y0045400D01*
X0115979Y0046039D01*
X0117161Y0047221D01*
X0117800Y0048765D01*
X0117800Y0050435D01*
X0117161Y0051979D01*
X0115979Y0053161D01*
X0114435Y0053800D01*
X0107565Y0053800D01*
X0106021Y0053161D01*
X0104839Y0051979D01*
X0104838Y0051976D01*
X0093651Y0051976D01*
X0093651Y0058619D01*
X0086105Y0066165D01*
X0087161Y0067221D01*
X0087800Y0068765D01*
X0087800Y0070435D01*
X0087161Y0071979D01*
X0085979Y0073161D01*
X0084435Y0073800D01*
X0077565Y0073800D01*
X0076021Y0073161D01*
X0074839Y0071979D01*
X0074200Y0070435D01*
X0074200Y0068765D01*
X0074631Y0067724D01*
X0073966Y0067724D01*
X0073966Y0103895D01*
X0062155Y0115706D01*
X0062155Y0143494D01*
X0069766Y0151105D01*
X0069766Y0123809D01*
X0070996Y0122579D01*
X0075439Y0122579D01*
X0074839Y0121979D01*
X0074200Y0120435D01*
X0074200Y0118765D01*
X0074839Y0117221D01*
X0076021Y0116039D01*
X0077565Y0115400D01*
X0084435Y0115400D01*
X0085979Y0116039D01*
X0087161Y0117221D01*
X0087800Y0118765D01*
X0087800Y0119555D01*
X0089451Y0117903D01*
X0089451Y0068691D01*
X0090681Y0067461D01*
X0104740Y0067461D01*
X0104839Y0067221D01*
X0106021Y0066039D01*
X0107565Y0065400D01*
X0114435Y0065400D01*
X0115979Y0066039D01*
X0117161Y0067221D01*
X0117800Y0068765D01*
X0117800Y0070435D01*
X0117161Y0071979D01*
X0115979Y0073161D01*
X0114435Y0073800D01*
X0107565Y0073800D01*
X0106021Y0073161D01*
X0104839Y0071979D01*
X0104707Y0071661D01*
X0093651Y0071661D01*
X0093651Y0084176D01*
X0100524Y0077303D01*
X0104805Y0077303D01*
X0104839Y0077221D01*
X0106021Y0076039D01*
X0107565Y0075400D01*
X0114435Y0075400D01*
X0115979Y0076039D01*
X0117161Y0077221D01*
X0117800Y0078765D01*
X0117800Y0080435D01*
X0117161Y0081979D01*
X0115979Y0083161D01*
X0114435Y0083800D01*
X0107565Y0083800D01*
X0106021Y0083161D01*
X0104839Y0081979D01*
X0104642Y0081503D01*
X0102264Y0081503D01*
X0098121Y0085646D01*
X0098173Y0085646D01*
X0099496Y0086194D01*
X0100509Y0087206D01*
X0101057Y0088530D01*
X0101057Y0089876D01*
X0102264Y0091083D01*
X0103494Y0092313D01*
X0103494Y0171053D01*
X0112106Y0179665D01*
X0124300Y0179665D01*
X0124300Y0177860D01*
X0126760Y0175400D01*
X0130240Y0175400D01*
X0132700Y0177860D01*
X0132700Y0181340D01*
X0130240Y0183800D01*
X0130020Y0183800D01*
X0131791Y0185571D01*
X0138664Y0185571D01*
X0138664Y0183981D01*
X0136250Y0181568D01*
X0136250Y0177632D01*
X0139032Y0174850D01*
X0142968Y0174850D01*
X0145750Y0177632D01*
X0145750Y0181568D01*
X0142968Y0184350D01*
X0142864Y0184350D01*
X0142864Y0188600D01*
X0144256Y0188600D01*
X0145653Y0189179D01*
X0146721Y0190247D01*
X0147300Y0191644D01*
X0147300Y0197556D01*
X0146721Y0198953D01*
X0145913Y0199761D01*
X0161087Y0199761D01*
X0160279Y0198953D01*
X0159700Y0197556D01*
X0159700Y0191644D01*
X0160279Y0190247D01*
X0161347Y0189179D01*
X0162744Y0188600D01*
X0164256Y0188600D01*
X0165653Y0189179D01*
X0165733Y0189259D01*
X0166223Y0188770D01*
X0166223Y0172793D01*
X0157780Y0164350D01*
X0154032Y0164350D01*
X0151250Y0161568D01*
X0151250Y0159788D01*
X0146538Y0155076D01*
X0146538Y0147355D01*
X0145586Y0146403D01*
X0145038Y0145080D01*
X0145038Y0145028D01*
X0136958Y0153108D01*
X0135728Y0154338D01*
X0125147Y0154338D01*
X0125147Y0157013D01*
X0126760Y0155400D01*
X0130240Y0155400D01*
X0132700Y0157860D01*
X0132700Y0161340D01*
X0130240Y0163800D01*
X0126760Y0163800D01*
X0124300Y0161340D01*
X0124300Y0157892D01*
X0123179Y0159013D01*
X0123179Y0164919D01*
X0117800Y0170297D01*
X0117800Y0170435D01*
X0117161Y0171979D01*
X0115979Y0173161D01*
X0114435Y0173800D01*
X0107565Y0173800D01*
X0106021Y0173161D01*
X0104839Y0171979D01*
X0104200Y0170435D01*
X0104200Y0168765D01*
X0104839Y0167221D01*
X0106021Y0166039D01*
X0107565Y0165400D01*
X0114435Y0165400D01*
X0115979Y0166039D01*
X0116049Y0166109D01*
X0118979Y0163179D01*
X0118979Y0159276D01*
X0117786Y0160469D01*
X0117161Y0161979D01*
X0115979Y0163161D01*
X0114435Y0163800D01*
X0107565Y0163800D01*
X0106021Y0163161D01*
X0104839Y0161979D01*
X0104200Y0160435D01*
X0104200Y0158765D01*
X0104839Y0157221D01*
X0106021Y0156039D01*
X0107565Y0155400D01*
X0114435Y0155400D01*
X0115979Y0156039D01*
X0116127Y0156188D01*
X0118979Y0153336D01*
X0118979Y0131683D01*
X0130790Y0119872D01*
X0130790Y0110029D01*
X0132020Y0108799D01*
X0146538Y0094281D01*
X0146538Y0076565D01*
X0147768Y0075335D01*
X0150475Y0072628D01*
X0150475Y0047037D01*
X0151705Y0045807D01*
X0152443Y0045069D01*
X0152443Y0044483D01*
X0151800Y0043840D01*
X0151800Y0040360D01*
X0154260Y0037900D01*
X0157740Y0037900D01*
X0160200Y0040360D01*
X0160200Y0043840D01*
X0157740Y0046300D01*
X0156643Y0046300D01*
X0156643Y0046808D01*
X0154675Y0048777D01*
X0154675Y0074367D01*
X0150738Y0078304D01*
X0150738Y0096021D01*
X0134990Y0111769D01*
X0134990Y0121612D01*
X0123179Y0133423D01*
X0123179Y0150138D01*
X0133988Y0150138D01*
X0146538Y0137588D01*
X0146538Y0125777D01*
X0147768Y0124547D01*
X0150475Y0121840D01*
X0150475Y0102155D01*
X0151705Y0100925D01*
X0151800Y0100830D01*
X0151800Y0097860D01*
X0154260Y0095400D01*
X0157740Y0095400D01*
X0160200Y0097860D01*
X0160200Y0101340D01*
X0157740Y0103800D01*
X0154770Y0103800D01*
X0154675Y0103895D01*
X0154675Y0123580D01*
X0150738Y0127517D01*
X0150738Y0135620D01*
X0154412Y0139294D01*
X0154412Y0133800D01*
X0154260Y0133800D01*
X0151800Y0131340D01*
X0151800Y0127860D01*
X0154260Y0125400D01*
X0156758Y0125400D01*
X0165607Y0116551D01*
X0165415Y0116089D01*
X0165415Y0113741D01*
X0166313Y0111573D01*
X0167973Y0109913D01*
X0168729Y0109600D01*
X0167973Y0109287D01*
X0166313Y0107627D01*
X0166092Y0107094D01*
X0161547Y0107094D01*
X0160317Y0105864D01*
X0160317Y0090116D01*
X0155642Y0085440D01*
X0154412Y0084210D01*
X0154412Y0083800D01*
X0154260Y0083800D01*
X0151800Y0081340D01*
X0151800Y0077860D01*
X0154260Y0075400D01*
X0157740Y0075400D01*
X0160200Y0077860D01*
X0160200Y0081340D01*
X0158841Y0082699D01*
X0164517Y0088376D01*
X0164517Y0102894D01*
X0165505Y0102894D01*
X0166313Y0100943D01*
X0167892Y0099364D01*
X0166313Y0097785D01*
X0165415Y0095616D01*
X0165415Y0093269D01*
X0166313Y0091100D01*
X0167000Y0090414D01*
X0165243Y0088657D01*
X0164153Y0086025D01*
X0164153Y0083175D01*
X0165243Y0080543D01*
X0167000Y0078786D01*
X0166313Y0078100D01*
X0165415Y0075931D01*
X0165415Y0073584D01*
X0166313Y0071415D01*
X0167892Y0069836D01*
X0166313Y0068257D01*
X0165415Y0066089D01*
X0165415Y0063741D01*
X0166313Y0061573D01*
X0167973Y0059913D01*
X0168729Y0059600D01*
X0167973Y0059287D01*
X0166567Y0057881D01*
X0161547Y0057881D01*
X0160317Y0056651D01*
X0160317Y0038934D01*
X0155642Y0034259D01*
X0133760Y0034259D01*
X0133269Y0034750D01*
X0134913Y0034750D01*
X0135850Y0035687D01*
X0135850Y0043513D01*
X0134913Y0044450D01*
X0127087Y0044450D01*
X0126150Y0043513D01*
X0126150Y0036263D01*
X0124146Y0034259D01*
X0122916Y0033029D01*
X0122916Y0024955D01*
X0121800Y0023840D01*
X0121800Y0020360D01*
X0124260Y0017900D01*
X0124884Y0017900D01*
X0124884Y0016300D01*
X0124260Y0016300D01*
X0121800Y0013840D01*
X0121800Y0010360D01*
X0122760Y0009400D01*
X0005800Y0009400D01*
X0005800Y0199761D01*
X0141087Y0199761D01*
X0140279Y0198953D01*
X0139700Y0197556D01*
X0139700Y0193514D01*
X0138664Y0192478D01*
X0138664Y0189771D01*
X0130051Y0189771D01*
X0128821Y0188541D01*
X0124146Y0183865D01*
X0110366Y0183865D01*
X0109136Y0182635D01*
X0099294Y0172793D01*
X0099294Y0094053D01*
X0098087Y0092846D01*
X0096741Y0092846D01*
X0095620Y0092381D01*
X0095620Y0157045D01*
X0087746Y0164919D01*
X0086516Y0166149D01*
X0086088Y0166149D01*
X0087161Y0167221D01*
X0087800Y0168765D01*
X0087800Y0170435D01*
X0087161Y0171979D01*
X0086932Y0172208D01*
X0088484Y0173760D01*
X0089714Y0174990D01*
X0089714Y0181809D01*
X0090600Y0182695D01*
X0090600Y0186505D01*
X0087905Y0189200D01*
X0084095Y0189200D01*
X0081400Y0186505D01*
X0081400Y0182695D01*
X0084095Y0180000D01*
X0085514Y0180000D01*
X0085514Y0176730D01*
X0082584Y0173800D01*
X0077565Y0173800D01*
X0076021Y0173161D01*
X0075935Y0173074D01*
X0075935Y0180000D01*
X0077905Y0180000D01*
X0080600Y0182695D01*
X0080600Y0186505D01*
X0077905Y0189200D01*
X0074095Y0189200D01*
X0071400Y0186505D01*
X0071400Y0182695D01*
X0071735Y0182360D01*
X0071735Y0178961D01*
X0069301Y0181395D01*
X0070600Y0182695D01*
X0070600Y0186505D01*
X0067905Y0189200D01*
X0064095Y0189200D01*
X0061400Y0186505D01*
X0061400Y0182695D01*
X0064095Y0180000D01*
X0064756Y0180000D01*
X0065091Y0179665D01*
X0069766Y0174990D01*
X0069766Y0167150D01*
X0060187Y0176730D01*
X0058956Y0177960D01*
X0048376Y0177960D01*
X0048376Y0180436D01*
X0049012Y0179800D01*
X0050800Y0179800D01*
X0050800Y0184400D01*
X0051200Y0184400D01*
X0051200Y0184800D01*
X0050800Y0184800D01*
X0050800Y0189400D01*
X0049012Y0189400D01*
X0048376Y0188764D01*
X0048376Y0190509D01*
X0045600Y0193285D01*
X0045600Y0196505D01*
X0042905Y0199200D01*
X0039095Y0199200D01*
X0036400Y0196505D01*
X0036400Y0192695D01*
X0039095Y0190000D01*
X0042905Y0190000D01*
X0042925Y0190020D01*
X0044176Y0188770D01*
X0044176Y0187930D01*
X0042905Y0189200D01*
X0039095Y0189200D01*
X0038533Y0188638D01*
X0038533Y0190509D01*
X0035600Y0193442D01*
X0035600Y0196505D01*
X0032905Y0199200D01*
X0029095Y0199200D01*
X0026400Y0196505D01*
X0026400Y0192695D01*
X0029095Y0190000D01*
X0032905Y0190000D01*
X0033004Y0190099D01*
X0034333Y0188770D01*
X0034333Y0187772D01*
X0032905Y0189200D01*
X0029095Y0189200D01*
X0026400Y0186505D01*
X0026400Y0182695D01*
X0029095Y0180000D01*
X0032905Y0180000D01*
X0034333Y0181428D01*
X0034333Y0178927D01*
X0035563Y0177697D01*
X0036302Y0176958D01*
X0036302Y0151368D01*
X0037532Y0150138D01*
X0038270Y0149399D01*
X0038270Y0104048D01*
X0037930Y0103708D02*
X0036047Y0103708D01*
X0035250Y0102109D02*
X0036909Y0102109D01*
X0037590Y0097314D02*
X0044176Y0097314D01*
X0044176Y0098912D02*
X0043317Y0098912D01*
X0043970Y0100511D02*
X0044176Y0100511D01*
X0044176Y0102109D02*
X0043831Y0102109D01*
X0044176Y0103708D02*
X0042810Y0103708D01*
X0042470Y0105306D02*
X0044176Y0105306D01*
X0044176Y0106905D02*
X0042470Y0106905D01*
X0042470Y0108503D02*
X0044176Y0108503D01*
X0044176Y0110102D02*
X0042470Y0110102D01*
X0042470Y0111700D02*
X0044176Y0111700D01*
X0045705Y0113299D02*
X0042470Y0113299D01*
X0042470Y0114897D02*
X0047304Y0114897D01*
X0048902Y0116496D02*
X0042470Y0116496D01*
X0042470Y0118094D02*
X0049170Y0118094D01*
X0049893Y0119693D02*
X0042470Y0119693D01*
X0042470Y0121291D02*
X0051492Y0121291D01*
X0051760Y0122900D02*
X0055240Y0122900D01*
X0057700Y0125360D01*
X0057700Y0128840D01*
X0055240Y0131300D01*
X0051760Y0131300D01*
X0049300Y0128840D01*
X0049300Y0125360D01*
X0051760Y0122900D01*
X0050172Y0124488D02*
X0042470Y0124488D01*
X0042470Y0122890D02*
X0057955Y0122890D01*
X0057955Y0124488D02*
X0056828Y0124488D01*
X0057700Y0126087D02*
X0057955Y0126087D01*
X0057955Y0127685D02*
X0057700Y0127685D01*
X0057955Y0129284D02*
X0057256Y0129284D01*
X0057955Y0130882D02*
X0055657Y0130882D01*
X0055240Y0132900D02*
X0057700Y0135360D01*
X0057700Y0138840D01*
X0055240Y0141300D01*
X0051760Y0141300D01*
X0049300Y0138840D01*
X0049300Y0135360D01*
X0051760Y0132900D01*
X0055240Y0132900D01*
X0056419Y0134079D02*
X0057955Y0134079D01*
X0057955Y0132481D02*
X0042470Y0132481D01*
X0042470Y0134079D02*
X0050581Y0134079D01*
X0049300Y0135678D02*
X0042470Y0135678D01*
X0042470Y0137276D02*
X0049300Y0137276D01*
X0049335Y0138875D02*
X0042470Y0138875D01*
X0042470Y0140473D02*
X0050934Y0140473D01*
X0056066Y0140473D02*
X0057955Y0140473D01*
X0057955Y0138875D02*
X0057665Y0138875D01*
X0057700Y0137276D02*
X0057955Y0137276D01*
X0057955Y0135678D02*
X0057700Y0135678D01*
X0062155Y0135678D02*
X0069766Y0135678D01*
X0069766Y0137276D02*
X0062155Y0137276D01*
X0062155Y0138875D02*
X0069766Y0138875D01*
X0069766Y0140473D02*
X0062155Y0140473D01*
X0062155Y0142072D02*
X0069766Y0142072D01*
X0069766Y0143670D02*
X0062332Y0143670D01*
X0063930Y0145269D02*
X0069766Y0145269D01*
X0069766Y0146868D02*
X0065529Y0146868D01*
X0067127Y0148466D02*
X0069766Y0148466D01*
X0069766Y0150065D02*
X0068726Y0150065D01*
X0065983Y0153262D02*
X0064967Y0153262D01*
X0064385Y0151663D02*
X0064044Y0151663D01*
X0062786Y0150065D02*
X0062491Y0150065D01*
X0061188Y0148466D02*
X0060415Y0148466D01*
X0059589Y0146868D02*
X0056596Y0146868D01*
X0057990Y0145269D02*
X0042470Y0145269D01*
X0042470Y0143670D02*
X0057955Y0143670D01*
X0057955Y0142072D02*
X0042470Y0142072D01*
X0038270Y0142072D02*
X0023113Y0142072D01*
X0023926Y0140473D02*
X0030934Y0140473D01*
X0029335Y0138875D02*
X0024070Y0138875D01*
X0023648Y0137276D02*
X0029300Y0137276D01*
X0029300Y0135678D02*
X0022443Y0135678D01*
X0022704Y0132481D02*
X0038270Y0132481D01*
X0038270Y0134079D02*
X0036419Y0134079D01*
X0037700Y0135678D02*
X0038270Y0135678D01*
X0038270Y0137276D02*
X0037700Y0137276D01*
X0037665Y0138875D02*
X0038270Y0138875D01*
X0038270Y0140473D02*
X0036066Y0140473D01*
X0038270Y0143670D02*
X0020722Y0143670D01*
X0021976Y0145269D02*
X0038270Y0145269D01*
X0038270Y0146868D02*
X0023479Y0146868D01*
X0024070Y0148466D02*
X0038270Y0148466D01*
X0037605Y0150065D02*
X0024070Y0150065D01*
X0023433Y0151663D02*
X0036302Y0151663D01*
X0036302Y0153262D02*
X0021709Y0153262D01*
X0026600Y0157777D02*
X0026600Y0159600D01*
X0031000Y0159600D01*
X0031000Y0155200D01*
X0029177Y0155200D01*
X0026600Y0157777D01*
X0026600Y0158057D02*
X0015200Y0158057D01*
X0015200Y0159656D02*
X0026600Y0159656D01*
X0026600Y0161254D02*
X0015200Y0161254D01*
X0013798Y0156459D02*
X0027919Y0156459D01*
X0031000Y0156459D02*
X0031000Y0156459D01*
X0031000Y0158057D02*
X0031000Y0158057D01*
X0031000Y0159656D02*
X0031000Y0159656D01*
X0031000Y0161254D02*
X0031000Y0161254D01*
X0031000Y0162853D02*
X0031000Y0162853D01*
X0033389Y0166050D02*
X0036302Y0166050D01*
X0036302Y0167648D02*
X0034988Y0167648D01*
X0035200Y0169247D02*
X0036302Y0169247D01*
X0036302Y0170845D02*
X0035200Y0170845D01*
X0036302Y0172444D02*
X0034096Y0172444D01*
X0036302Y0174042D02*
X0005800Y0174042D01*
X0005800Y0172444D02*
X0007904Y0172444D01*
X0006800Y0170845D02*
X0005800Y0170845D01*
X0005800Y0169247D02*
X0006800Y0169247D01*
X0007012Y0167648D02*
X0005800Y0167648D01*
X0005800Y0166050D02*
X0008611Y0166050D01*
X0010711Y0164451D02*
X0005800Y0164451D01*
X0005800Y0162853D02*
X0008313Y0162853D01*
X0006800Y0161254D02*
X0005800Y0161254D01*
X0005800Y0159656D02*
X0006800Y0159656D01*
X0006800Y0158057D02*
X0005800Y0158057D01*
X0005800Y0156459D02*
X0008202Y0156459D01*
X0015200Y0170845D02*
X0026800Y0170845D01*
X0027904Y0172444D02*
X0014096Y0172444D01*
X0012905Y0180000D02*
X0009095Y0180000D01*
X0006400Y0182695D01*
X0006400Y0186505D01*
X0009095Y0189200D01*
X0012905Y0189200D01*
X0015600Y0186505D01*
X0015600Y0182695D01*
X0012905Y0180000D01*
X0013342Y0180436D02*
X0018658Y0180436D01*
X0019095Y0180000D02*
X0022905Y0180000D01*
X0025600Y0182695D01*
X0025600Y0186505D01*
X0022905Y0189200D01*
X0019095Y0189200D01*
X0016400Y0186505D01*
X0016400Y0182695D01*
X0019095Y0180000D01*
X0017060Y0182035D02*
X0014940Y0182035D01*
X0015600Y0183633D02*
X0016400Y0183633D01*
X0016400Y0185232D02*
X0015600Y0185232D01*
X0015275Y0186830D02*
X0016725Y0186830D01*
X0018323Y0188429D02*
X0013677Y0188429D01*
X0012905Y0190000D02*
X0015600Y0192695D01*
X0015600Y0196505D01*
X0012905Y0199200D01*
X0009095Y0199200D01*
X0006400Y0196505D01*
X0006400Y0192695D01*
X0009095Y0190000D01*
X0012905Y0190000D01*
X0012933Y0190027D02*
X0019067Y0190027D01*
X0019095Y0190000D02*
X0022905Y0190000D01*
X0025600Y0192695D01*
X0025600Y0196505D01*
X0022905Y0199200D01*
X0019095Y0199200D01*
X0016400Y0196505D01*
X0016400Y0192695D01*
X0019095Y0190000D01*
X0017469Y0191626D02*
X0014531Y0191626D01*
X0015600Y0193224D02*
X0016400Y0193224D01*
X0016400Y0194823D02*
X0015600Y0194823D01*
X0015600Y0196421D02*
X0016400Y0196421D01*
X0017914Y0198020D02*
X0014085Y0198020D01*
X0007914Y0198020D02*
X0005800Y0198020D01*
X0005800Y0199618D02*
X0140944Y0199618D01*
X0139892Y0198020D02*
X0089368Y0198020D01*
X0089127Y0198261D02*
X0088516Y0198705D01*
X0087843Y0199048D01*
X0087124Y0199282D01*
X0086378Y0199400D01*
X0086200Y0199400D01*
X0086200Y0194800D01*
X0090800Y0194800D01*
X0090800Y0194978D01*
X0090682Y0195724D01*
X0090448Y0196443D01*
X0090105Y0197116D01*
X0089661Y0197727D01*
X0089127Y0198261D01*
X0090455Y0196421D02*
X0139700Y0196421D01*
X0139700Y0194823D02*
X0090800Y0194823D01*
X0090800Y0194400D02*
X0086200Y0194400D01*
X0086200Y0194800D01*
X0085800Y0194800D01*
X0085800Y0199400D01*
X0085622Y0199400D01*
X0084876Y0199282D01*
X0084157Y0199048D01*
X0083484Y0198705D01*
X0082873Y0198261D01*
X0082339Y0197727D01*
X0081895Y0197116D01*
X0081552Y0196443D01*
X0081318Y0195724D01*
X0081200Y0194978D01*
X0081200Y0194800D01*
X0085800Y0194800D01*
X0085800Y0194400D01*
X0086200Y0194400D01*
X0086200Y0189800D01*
X0086378Y0189800D01*
X0087124Y0189918D01*
X0087843Y0190152D01*
X0088516Y0190495D01*
X0089127Y0190939D01*
X0089661Y0191473D01*
X0090105Y0192084D01*
X0090448Y0192757D01*
X0090682Y0193476D01*
X0090800Y0194222D01*
X0090800Y0194400D01*
X0090600Y0193224D02*
X0102483Y0193224D01*
X0102710Y0193452D02*
X0102148Y0192890D01*
X0101681Y0192247D01*
X0101320Y0191539D01*
X0101074Y0190783D01*
X0100950Y0189997D01*
X0100950Y0189600D01*
X0106000Y0189600D01*
X0111050Y0189600D01*
X0111050Y0189997D01*
X0110926Y0190783D01*
X0110680Y0191539D01*
X0110319Y0192247D01*
X0109852Y0192890D01*
X0109290Y0193452D01*
X0108647Y0193919D01*
X0107939Y0194280D01*
X0107183Y0194526D01*
X0106397Y0194650D01*
X0106000Y0194650D01*
X0106000Y0189600D01*
X0106000Y0189600D01*
X0106000Y0189600D01*
X0111050Y0189600D01*
X0111050Y0189203D01*
X0110926Y0188417D01*
X0110680Y0187661D01*
X0110319Y0186953D01*
X0109852Y0186310D01*
X0109290Y0185748D01*
X0108647Y0185281D01*
X0107939Y0184920D01*
X0107183Y0184674D01*
X0106397Y0184550D01*
X0106000Y0184550D01*
X0106000Y0189600D01*
X0106000Y0189600D01*
X0106000Y0189600D01*
X0106000Y0194650D01*
X0105603Y0194650D01*
X0104817Y0194526D01*
X0104061Y0194280D01*
X0103353Y0193919D01*
X0102710Y0193452D01*
X0101364Y0191626D02*
X0089772Y0191626D01*
X0087460Y0190027D02*
X0100955Y0190027D01*
X0100950Y0189600D02*
X0100950Y0189203D01*
X0101074Y0188417D01*
X0101320Y0187661D01*
X0101681Y0186953D01*
X0102148Y0186310D01*
X0102710Y0185748D01*
X0103353Y0185281D01*
X0104061Y0184920D01*
X0104817Y0184674D01*
X0105603Y0184550D01*
X0106000Y0184550D01*
X0106000Y0189600D01*
X0100950Y0189600D01*
X0101073Y0188429D02*
X0088677Y0188429D01*
X0090275Y0186830D02*
X0101770Y0186830D01*
X0103450Y0185232D02*
X0090600Y0185232D01*
X0090600Y0183633D02*
X0110134Y0183633D01*
X0111605Y0185232D02*
X0108550Y0185232D01*
X0110230Y0186830D02*
X0111150Y0186830D01*
X0111150Y0185687D02*
X0112087Y0184750D01*
X0119913Y0184750D01*
X0120850Y0185687D01*
X0120850Y0193513D01*
X0119913Y0194450D01*
X0112087Y0194450D01*
X0111150Y0193513D01*
X0111150Y0185687D01*
X0111150Y0188429D02*
X0110927Y0188429D01*
X0111045Y0190027D02*
X0111150Y0190027D01*
X0111150Y0191626D02*
X0110636Y0191626D01*
X0111150Y0193224D02*
X0109517Y0193224D01*
X0106000Y0193224D02*
X0106000Y0193224D01*
X0106000Y0191626D02*
X0106000Y0191626D01*
X0106000Y0190027D02*
X0106000Y0190027D01*
X0106000Y0188429D02*
X0106000Y0188429D01*
X0106000Y0186830D02*
X0106000Y0186830D01*
X0106000Y0185232D02*
X0106000Y0185232D01*
X0108536Y0182035D02*
X0089940Y0182035D01*
X0089714Y0180436D02*
X0106937Y0180436D01*
X0105339Y0178838D02*
X0089714Y0178838D01*
X0089714Y0177239D02*
X0103740Y0177239D01*
X0102142Y0175641D02*
X0089714Y0175641D01*
X0088766Y0174042D02*
X0100543Y0174042D01*
X0099294Y0172444D02*
X0087168Y0172444D01*
X0087630Y0170845D02*
X0099294Y0170845D01*
X0099294Y0169247D02*
X0087800Y0169247D01*
X0087338Y0167648D02*
X0099294Y0167648D01*
X0099294Y0166050D02*
X0086615Y0166050D01*
X0088213Y0164451D02*
X0099294Y0164451D01*
X0099294Y0162853D02*
X0089812Y0162853D01*
X0091410Y0161254D02*
X0099294Y0161254D01*
X0099294Y0159656D02*
X0093009Y0159656D01*
X0094607Y0158057D02*
X0099294Y0158057D01*
X0099294Y0156459D02*
X0095620Y0156459D01*
X0095620Y0154860D02*
X0099294Y0154860D01*
X0099294Y0153262D02*
X0095620Y0153262D01*
X0095620Y0151663D02*
X0099294Y0151663D01*
X0099294Y0150065D02*
X0095620Y0150065D01*
X0095620Y0148466D02*
X0099294Y0148466D01*
X0099294Y0146868D02*
X0095620Y0146868D01*
X0095620Y0145269D02*
X0099294Y0145269D01*
X0099294Y0143670D02*
X0095620Y0143670D01*
X0095620Y0142072D02*
X0099294Y0142072D01*
X0099294Y0140473D02*
X0095620Y0140473D01*
X0095620Y0138875D02*
X0099294Y0138875D01*
X0099294Y0137276D02*
X0095620Y0137276D01*
X0095620Y0135678D02*
X0099294Y0135678D01*
X0099294Y0134079D02*
X0095620Y0134079D01*
X0095620Y0132481D02*
X0099294Y0132481D01*
X0099294Y0130882D02*
X0095620Y0130882D01*
X0095620Y0129284D02*
X0099294Y0129284D01*
X0099294Y0127685D02*
X0095620Y0127685D01*
X0095620Y0126087D02*
X0099294Y0126087D01*
X0099294Y0124488D02*
X0095620Y0124488D01*
X0095620Y0122890D02*
X0099294Y0122890D01*
X0099294Y0121291D02*
X0095620Y0121291D01*
X0095620Y0119693D02*
X0099294Y0119693D01*
X0099294Y0118094D02*
X0095620Y0118094D01*
X0095620Y0116496D02*
X0099294Y0116496D01*
X0099294Y0114897D02*
X0095620Y0114897D01*
X0095620Y0113299D02*
X0099294Y0113299D01*
X0099294Y0111700D02*
X0095620Y0111700D01*
X0095620Y0110102D02*
X0099294Y0110102D01*
X0099294Y0108503D02*
X0095620Y0108503D01*
X0095620Y0106905D02*
X0099294Y0106905D01*
X0099294Y0105306D02*
X0095620Y0105306D01*
X0095620Y0103708D02*
X0099294Y0103708D01*
X0099294Y0102109D02*
X0095620Y0102109D01*
X0095620Y0100511D02*
X0099294Y0100511D01*
X0099294Y0098912D02*
X0095620Y0098912D01*
X0095620Y0097314D02*
X0099294Y0097314D01*
X0099294Y0095715D02*
X0095620Y0095715D01*
X0095620Y0094117D02*
X0099294Y0094117D01*
X0095950Y0092518D02*
X0095620Y0092518D01*
X0089451Y0092518D02*
X0086622Y0092518D01*
X0087161Y0091979D02*
X0085979Y0093161D01*
X0084435Y0093800D01*
X0077565Y0093800D01*
X0076021Y0093161D01*
X0074839Y0091979D01*
X0074200Y0090435D01*
X0074200Y0088765D01*
X0074839Y0087221D01*
X0076021Y0086039D01*
X0077565Y0085400D01*
X0084435Y0085400D01*
X0085979Y0086039D01*
X0087161Y0087221D01*
X0087800Y0088765D01*
X0087800Y0090435D01*
X0087161Y0091979D01*
X0087599Y0090920D02*
X0089451Y0090920D01*
X0089451Y0089321D02*
X0087800Y0089321D01*
X0087368Y0087723D02*
X0089451Y0087723D01*
X0089451Y0086124D02*
X0086064Y0086124D01*
X0084435Y0083800D02*
X0085979Y0083161D01*
X0087161Y0081979D01*
X0087800Y0080435D01*
X0087800Y0078765D01*
X0087161Y0077221D01*
X0085979Y0076039D01*
X0084435Y0075400D01*
X0077565Y0075400D01*
X0076021Y0076039D01*
X0074839Y0077221D01*
X0074200Y0078765D01*
X0074200Y0080435D01*
X0074839Y0081979D01*
X0076021Y0083161D01*
X0077565Y0083800D01*
X0084435Y0083800D01*
X0086213Y0082927D02*
X0089451Y0082927D01*
X0089451Y0081329D02*
X0087430Y0081329D01*
X0087800Y0079730D02*
X0089451Y0079730D01*
X0089451Y0078132D02*
X0087538Y0078132D01*
X0086473Y0076533D02*
X0089451Y0076533D01*
X0089451Y0074934D02*
X0073966Y0074934D01*
X0073966Y0073336D02*
X0076444Y0073336D01*
X0074739Y0071737D02*
X0073966Y0071737D01*
X0073966Y0070139D02*
X0074200Y0070139D01*
X0074293Y0068540D02*
X0073966Y0068540D01*
X0067798Y0068540D02*
X0064045Y0068540D01*
X0062447Y0070139D02*
X0067798Y0070139D01*
X0067798Y0071737D02*
X0060848Y0071737D01*
X0059250Y0073336D02*
X0067798Y0073336D01*
X0067798Y0074934D02*
X0057651Y0074934D01*
X0056053Y0076533D02*
X0067798Y0076533D01*
X0067798Y0078132D02*
X0054454Y0078132D01*
X0052856Y0079730D02*
X0067798Y0079730D01*
X0067798Y0081329D02*
X0051257Y0081329D01*
X0049659Y0082927D02*
X0067798Y0082927D01*
X0067798Y0084526D02*
X0048376Y0084526D01*
X0048376Y0086124D02*
X0067798Y0086124D01*
X0067798Y0087723D02*
X0048376Y0087723D01*
X0048376Y0089321D02*
X0067798Y0089321D01*
X0067798Y0090920D02*
X0048376Y0090920D01*
X0048376Y0092518D02*
X0067798Y0092518D01*
X0067798Y0094117D02*
X0055699Y0094117D01*
X0055213Y0093630D02*
X0057790Y0096207D01*
X0057790Y0098030D01*
X0057790Y0099853D01*
X0055213Y0102430D01*
X0053390Y0102430D01*
X0053390Y0098030D01*
X0053390Y0093630D01*
X0055213Y0093630D01*
X0053390Y0093630D02*
X0053390Y0098030D01*
X0053390Y0098030D01*
X0057790Y0098030D01*
X0053390Y0098030D01*
X0053390Y0098030D01*
X0053390Y0098030D01*
X0048990Y0098030D01*
X0048990Y0096207D01*
X0051567Y0093630D01*
X0053390Y0093630D01*
X0053390Y0094117D02*
X0053390Y0094117D01*
X0053390Y0095715D02*
X0053390Y0095715D01*
X0053390Y0097314D02*
X0053390Y0097314D01*
X0053390Y0098030D02*
X0053390Y0098030D01*
X0048990Y0098030D01*
X0048990Y0099853D01*
X0051567Y0102430D01*
X0053390Y0102430D01*
X0053390Y0098030D01*
X0053390Y0098912D02*
X0053390Y0098912D01*
X0053390Y0100511D02*
X0053390Y0100511D01*
X0053390Y0102109D02*
X0053390Y0102109D01*
X0051760Y0102900D02*
X0055240Y0102900D01*
X0057700Y0105360D01*
X0057700Y0108840D01*
X0055240Y0111300D01*
X0051760Y0111300D01*
X0049300Y0108840D01*
X0049300Y0105360D01*
X0051760Y0102900D01*
X0051247Y0102109D02*
X0048376Y0102109D01*
X0048376Y0100511D02*
X0049648Y0100511D01*
X0048990Y0098912D02*
X0048376Y0098912D01*
X0048376Y0097314D02*
X0048990Y0097314D01*
X0049482Y0095715D02*
X0048376Y0095715D01*
X0048376Y0094117D02*
X0051081Y0094117D01*
X0057298Y0095715D02*
X0064275Y0095715D01*
X0063060Y0097314D02*
X0057790Y0097314D01*
X0057790Y0098912D02*
X0063060Y0098912D01*
X0063161Y0100511D02*
X0057132Y0100511D01*
X0055533Y0102109D02*
X0064759Y0102109D01*
X0066615Y0105306D02*
X0057646Y0105306D01*
X0057700Y0106905D02*
X0065017Y0106905D01*
X0063418Y0108503D02*
X0057700Y0108503D01*
X0056438Y0110102D02*
X0061820Y0110102D01*
X0060221Y0111700D02*
X0050046Y0111700D01*
X0050562Y0110102D02*
X0048448Y0110102D01*
X0048376Y0108503D02*
X0049300Y0108503D01*
X0049300Y0106905D02*
X0048376Y0106905D01*
X0048376Y0105306D02*
X0049354Y0105306D01*
X0048376Y0103708D02*
X0050953Y0103708D01*
X0056047Y0103708D02*
X0068214Y0103708D01*
X0069760Y0102109D02*
X0069766Y0102109D01*
X0073966Y0102109D02*
X0074784Y0102109D01*
X0074637Y0101906D02*
X0074322Y0101289D01*
X0074108Y0100630D01*
X0074000Y0099946D01*
X0074000Y0099600D01*
X0081000Y0099600D01*
X0081000Y0099600D01*
X0081000Y0104000D01*
X0083946Y0104000D01*
X0084630Y0103892D01*
X0085289Y0103678D01*
X0085906Y0103363D01*
X0086466Y0102956D01*
X0086956Y0102466D01*
X0087363Y0101906D01*
X0087678Y0101289D01*
X0087892Y0100630D01*
X0088000Y0099946D01*
X0088000Y0099600D01*
X0081000Y0099600D01*
X0081000Y0099600D01*
X0081000Y0095200D01*
X0083946Y0095200D01*
X0084630Y0095308D01*
X0085289Y0095522D01*
X0085906Y0095837D01*
X0086466Y0096244D01*
X0086956Y0096734D01*
X0087363Y0097294D01*
X0087678Y0097911D01*
X0087892Y0098570D01*
X0088000Y0099254D01*
X0088000Y0099600D01*
X0081000Y0099600D01*
X0081000Y0099600D01*
X0081000Y0099600D01*
X0081000Y0104000D01*
X0078054Y0104000D01*
X0077370Y0103892D01*
X0076711Y0103678D01*
X0076094Y0103363D01*
X0075534Y0102956D01*
X0075044Y0102466D01*
X0074637Y0101906D01*
X0074089Y0100511D02*
X0073966Y0100511D01*
X0074000Y0099600D02*
X0074000Y0099254D01*
X0074108Y0098570D01*
X0074322Y0097911D01*
X0074637Y0097294D01*
X0075044Y0096734D01*
X0075534Y0096244D01*
X0076094Y0095837D01*
X0076711Y0095522D01*
X0077370Y0095308D01*
X0078054Y0095200D01*
X0081000Y0095200D01*
X0081000Y0099600D01*
X0074000Y0099600D01*
X0073966Y0098912D02*
X0074054Y0098912D01*
X0073966Y0097314D02*
X0074627Y0097314D01*
X0073966Y0095715D02*
X0076333Y0095715D01*
X0075378Y0092518D02*
X0073966Y0092518D01*
X0073966Y0090920D02*
X0074401Y0090920D01*
X0074200Y0089321D02*
X0073966Y0089321D01*
X0073966Y0087723D02*
X0074632Y0087723D01*
X0073966Y0086124D02*
X0075936Y0086124D01*
X0073966Y0084526D02*
X0089451Y0084526D01*
X0093651Y0082927D02*
X0094900Y0082927D01*
X0093651Y0081329D02*
X0096498Y0081329D01*
X0098097Y0079730D02*
X0093651Y0079730D01*
X0093651Y0078132D02*
X0099695Y0078132D01*
X0100840Y0082927D02*
X0105787Y0082927D01*
X0107565Y0085400D02*
X0106021Y0086039D01*
X0104839Y0087221D01*
X0104200Y0088765D01*
X0104200Y0090435D01*
X0104839Y0091979D01*
X0106021Y0093161D01*
X0107565Y0093800D01*
X0114435Y0093800D01*
X0115979Y0093161D01*
X0117161Y0091979D01*
X0117800Y0090435D01*
X0117800Y0088765D01*
X0117161Y0087221D01*
X0115979Y0086039D01*
X0114435Y0085400D01*
X0107565Y0085400D01*
X0105936Y0086124D02*
X0099328Y0086124D01*
X0099241Y0084526D02*
X0126150Y0084526D01*
X0126150Y0083507D02*
X0124146Y0081503D01*
X0122916Y0080273D01*
X0122916Y0072455D01*
X0121800Y0071340D01*
X0121800Y0067860D01*
X0124260Y0065400D01*
X0124884Y0065400D01*
X0124884Y0063800D01*
X0124260Y0063800D01*
X0121800Y0061340D01*
X0121800Y0057860D01*
X0124260Y0055400D01*
X0127740Y0055400D01*
X0130200Y0057860D01*
X0130200Y0061340D01*
X0129084Y0062455D01*
X0129084Y0066745D01*
X0130200Y0067860D01*
X0130200Y0071340D01*
X0127740Y0073800D01*
X0127116Y0073800D01*
X0127116Y0078533D01*
X0130832Y0082250D01*
X0134913Y0082250D01*
X0135850Y0083187D01*
X0135850Y0091013D01*
X0134913Y0091950D01*
X0127087Y0091950D01*
X0126150Y0091013D01*
X0126150Y0083507D01*
X0125570Y0082927D02*
X0116213Y0082927D01*
X0117430Y0081329D02*
X0123971Y0081329D01*
X0122916Y0079730D02*
X0117800Y0079730D01*
X0117538Y0078132D02*
X0122916Y0078132D01*
X0122916Y0076533D02*
X0116473Y0076533D01*
X0115556Y0073336D02*
X0122916Y0073336D01*
X0122916Y0074934D02*
X0093651Y0074934D01*
X0093651Y0073336D02*
X0106444Y0073336D01*
X0104739Y0071737D02*
X0093651Y0071737D01*
X0089451Y0071737D02*
X0087261Y0071737D01*
X0087800Y0070139D02*
X0089451Y0070139D01*
X0089602Y0068540D02*
X0087707Y0068540D01*
X0086882Y0066942D02*
X0105118Y0066942D01*
X0106021Y0063161D02*
X0104839Y0061979D01*
X0104200Y0060435D01*
X0104200Y0058765D01*
X0104839Y0057221D01*
X0106021Y0056039D01*
X0107565Y0055400D01*
X0114435Y0055400D01*
X0115979Y0056039D01*
X0117161Y0057221D01*
X0117800Y0058765D01*
X0117800Y0060435D01*
X0117161Y0061979D01*
X0115979Y0063161D01*
X0114435Y0063800D01*
X0107565Y0063800D01*
X0106021Y0063161D01*
X0105007Y0062146D02*
X0090124Y0062146D01*
X0091723Y0060548D02*
X0104247Y0060548D01*
X0104200Y0058949D02*
X0093321Y0058949D01*
X0093651Y0057351D02*
X0104786Y0057351D01*
X0106714Y0055752D02*
X0093651Y0055752D01*
X0093651Y0054154D02*
X0150475Y0054154D01*
X0150475Y0055752D02*
X0148092Y0055752D01*
X0147740Y0055400D02*
X0150200Y0057860D01*
X0150200Y0061340D01*
X0147740Y0063800D01*
X0144260Y0063800D01*
X0141800Y0061340D01*
X0141800Y0057860D01*
X0144260Y0055400D01*
X0147740Y0055400D01*
X0149691Y0057351D02*
X0150475Y0057351D01*
X0150475Y0058949D02*
X0150200Y0058949D01*
X0150200Y0060548D02*
X0150475Y0060548D01*
X0150475Y0062146D02*
X0149393Y0062146D01*
X0150475Y0063745D02*
X0147795Y0063745D01*
X0147823Y0065200D02*
X0146000Y0065200D01*
X0146000Y0069600D01*
X0150400Y0069600D01*
X0150400Y0071423D01*
X0147823Y0074000D01*
X0146000Y0074000D01*
X0146000Y0069600D01*
X0146000Y0069600D01*
X0146000Y0069600D01*
X0150400Y0069600D01*
X0150400Y0067777D01*
X0147823Y0065200D01*
X0147966Y0065343D02*
X0150475Y0065343D01*
X0150475Y0066942D02*
X0149564Y0066942D01*
X0150400Y0068540D02*
X0150475Y0068540D01*
X0150475Y0070139D02*
X0150400Y0070139D01*
X0150475Y0071737D02*
X0150085Y0071737D01*
X0149767Y0073336D02*
X0148487Y0073336D01*
X0148168Y0074934D02*
X0127116Y0074934D01*
X0127116Y0076533D02*
X0146570Y0076533D01*
X0146538Y0078132D02*
X0127116Y0078132D01*
X0128312Y0079730D02*
X0146538Y0079730D01*
X0146538Y0081329D02*
X0129911Y0081329D01*
X0126150Y0086124D02*
X0116064Y0086124D01*
X0117368Y0087723D02*
X0126150Y0087723D01*
X0126150Y0089321D02*
X0117800Y0089321D01*
X0117599Y0090920D02*
X0126150Y0090920D01*
X0116622Y0092518D02*
X0146538Y0092518D01*
X0146538Y0090920D02*
X0144322Y0090920D01*
X0144290Y0090952D02*
X0143647Y0091419D01*
X0142939Y0091780D01*
X0142183Y0092026D01*
X0141397Y0092150D01*
X0141000Y0092150D01*
X0141000Y0087100D01*
X0146050Y0087100D01*
X0146050Y0087497D01*
X0145926Y0088283D01*
X0145680Y0089039D01*
X0145319Y0089747D01*
X0144852Y0090390D01*
X0144290Y0090952D01*
X0145536Y0089321D02*
X0146538Y0089321D01*
X0146538Y0087723D02*
X0146014Y0087723D01*
X0146050Y0087100D02*
X0141000Y0087100D01*
X0141000Y0087100D01*
X0141000Y0087100D01*
X0141000Y0082050D01*
X0141397Y0082050D01*
X0142183Y0082174D01*
X0142939Y0082420D01*
X0143647Y0082781D01*
X0144290Y0083248D01*
X0144852Y0083810D01*
X0145319Y0084453D01*
X0145680Y0085161D01*
X0145926Y0085917D01*
X0146050Y0086703D01*
X0146050Y0087100D01*
X0145958Y0086124D02*
X0146538Y0086124D01*
X0146538Y0084526D02*
X0145356Y0084526D01*
X0146538Y0082927D02*
X0143848Y0082927D01*
X0141000Y0082927D02*
X0141000Y0082927D01*
X0141000Y0082050D02*
X0141000Y0087100D01*
X0141000Y0087100D01*
X0141000Y0087100D01*
X0135950Y0087100D01*
X0135950Y0087497D01*
X0136074Y0088283D01*
X0136320Y0089039D01*
X0136681Y0089747D01*
X0137148Y0090390D01*
X0137710Y0090952D01*
X0138353Y0091419D01*
X0139061Y0091780D01*
X0139817Y0092026D01*
X0140603Y0092150D01*
X0141000Y0092150D01*
X0141000Y0087100D01*
X0135950Y0087100D01*
X0135950Y0086703D01*
X0136074Y0085917D01*
X0136320Y0085161D01*
X0136681Y0084453D01*
X0137148Y0083810D01*
X0137710Y0083248D01*
X0138353Y0082781D01*
X0139061Y0082420D01*
X0139817Y0082174D01*
X0140603Y0082050D01*
X0141000Y0082050D01*
X0141000Y0084526D02*
X0141000Y0084526D01*
X0141000Y0086124D02*
X0141000Y0086124D01*
X0141000Y0087723D02*
X0141000Y0087723D01*
X0141000Y0089321D02*
X0141000Y0089321D01*
X0141000Y0090920D02*
X0141000Y0090920D01*
X0137678Y0090920D02*
X0135850Y0090920D01*
X0135850Y0089321D02*
X0136464Y0089321D01*
X0135986Y0087723D02*
X0135850Y0087723D01*
X0135850Y0086124D02*
X0136042Y0086124D01*
X0135850Y0084526D02*
X0136644Y0084526D01*
X0135590Y0082927D02*
X0138152Y0082927D01*
X0144177Y0074000D02*
X0141600Y0071423D01*
X0141600Y0069600D01*
X0146000Y0069600D01*
X0146000Y0069600D01*
X0146000Y0069600D01*
X0146000Y0074000D01*
X0144177Y0074000D01*
X0143513Y0073336D02*
X0128204Y0073336D01*
X0129802Y0071737D02*
X0141915Y0071737D01*
X0141600Y0070139D02*
X0130200Y0070139D01*
X0130200Y0068540D02*
X0141600Y0068540D01*
X0141600Y0067777D02*
X0141600Y0069600D01*
X0146000Y0069600D01*
X0146000Y0065200D01*
X0144177Y0065200D01*
X0141600Y0067777D01*
X0142436Y0066942D02*
X0129282Y0066942D01*
X0129084Y0065343D02*
X0144034Y0065343D01*
X0144205Y0063745D02*
X0129084Y0063745D01*
X0129393Y0062146D02*
X0142607Y0062146D01*
X0141800Y0060548D02*
X0130200Y0060548D01*
X0130200Y0058949D02*
X0141800Y0058949D01*
X0142309Y0057351D02*
X0129691Y0057351D01*
X0128092Y0055752D02*
X0143908Y0055752D01*
X0150475Y0052555D02*
X0116584Y0052555D01*
X0117584Y0050957D02*
X0150475Y0050957D01*
X0150475Y0049358D02*
X0117800Y0049358D01*
X0117384Y0047760D02*
X0150475Y0047760D01*
X0151351Y0046161D02*
X0116101Y0046161D01*
X0114435Y0043800D02*
X0115979Y0043161D01*
X0117161Y0041979D01*
X0117800Y0040435D01*
X0117800Y0038765D01*
X0117161Y0037221D01*
X0115979Y0036039D01*
X0114435Y0035400D01*
X0107565Y0035400D01*
X0106021Y0036039D01*
X0104839Y0037221D01*
X0104200Y0038765D01*
X0104200Y0040435D01*
X0104839Y0041979D01*
X0106021Y0043161D01*
X0107565Y0043800D01*
X0114435Y0043800D01*
X0116175Y0042964D02*
X0126150Y0042964D01*
X0126150Y0041366D02*
X0117415Y0041366D01*
X0117800Y0039767D02*
X0126150Y0039767D01*
X0126150Y0038169D02*
X0117553Y0038169D01*
X0116510Y0036570D02*
X0126150Y0036570D01*
X0124859Y0034972D02*
X0081840Y0034972D01*
X0081840Y0033373D02*
X0123260Y0033373D01*
X0122916Y0031775D02*
X0081840Y0031775D01*
X0081840Y0030176D02*
X0122916Y0030176D01*
X0122916Y0028578D02*
X0081840Y0028578D01*
X0085341Y0026979D02*
X0105019Y0026979D01*
X0105201Y0027161D02*
X0104019Y0025979D01*
X0103380Y0024435D01*
X0103380Y0022765D01*
X0104019Y0021221D01*
X0105201Y0020039D01*
X0106745Y0019400D01*
X0113615Y0019400D01*
X0115159Y0020039D01*
X0116341Y0021221D01*
X0116980Y0022765D01*
X0116980Y0024435D01*
X0116341Y0025979D01*
X0115159Y0027161D01*
X0113615Y0027800D01*
X0106745Y0027800D01*
X0105201Y0027161D01*
X0103772Y0025381D02*
X0086588Y0025381D01*
X0086980Y0023782D02*
X0103380Y0023782D01*
X0103621Y0022184D02*
X0086739Y0022184D01*
X0085705Y0020585D02*
X0104655Y0020585D01*
X0105750Y0017388D02*
X0084610Y0017388D01*
X0085159Y0017161D02*
X0083615Y0017800D01*
X0076745Y0017800D01*
X0075201Y0017161D01*
X0074019Y0015979D01*
X0073380Y0014435D01*
X0073380Y0012765D01*
X0074019Y0011221D01*
X0075201Y0010039D01*
X0076745Y0009400D01*
X0083615Y0009400D01*
X0085159Y0010039D01*
X0086341Y0011221D01*
X0086980Y0012765D01*
X0086980Y0014435D01*
X0086341Y0015979D01*
X0085159Y0017161D01*
X0086419Y0015790D02*
X0103941Y0015790D01*
X0104019Y0015979D02*
X0103380Y0014435D01*
X0103380Y0012765D01*
X0104019Y0011221D01*
X0105201Y0010039D01*
X0106745Y0009400D01*
X0113615Y0009400D01*
X0115159Y0010039D01*
X0116341Y0011221D01*
X0116980Y0012765D01*
X0116980Y0014435D01*
X0116341Y0015979D01*
X0115159Y0017161D01*
X0113615Y0017800D01*
X0106745Y0017800D01*
X0105201Y0017161D01*
X0104019Y0015979D01*
X0103380Y0014191D02*
X0086980Y0014191D01*
X0086909Y0012593D02*
X0103451Y0012593D01*
X0104246Y0010994D02*
X0086114Y0010994D01*
X0074246Y0010994D02*
X0005800Y0010994D01*
X0005800Y0012593D02*
X0073451Y0012593D01*
X0073380Y0014191D02*
X0005800Y0014191D01*
X0005800Y0015790D02*
X0073941Y0015790D01*
X0075750Y0017388D02*
X0005800Y0017388D01*
X0005800Y0018987D02*
X0123174Y0018987D01*
X0121800Y0020585D02*
X0115705Y0020585D01*
X0116739Y0022184D02*
X0121800Y0022184D01*
X0121800Y0023782D02*
X0116980Y0023782D01*
X0116588Y0025381D02*
X0122916Y0025381D01*
X0122916Y0026979D02*
X0115341Y0026979D01*
X0114610Y0017388D02*
X0124884Y0017388D01*
X0123750Y0015790D02*
X0116419Y0015790D01*
X0116980Y0014191D02*
X0122151Y0014191D01*
X0121800Y0012593D02*
X0116909Y0012593D01*
X0116114Y0010994D02*
X0121800Y0010994D01*
X0129240Y0009400D02*
X0130200Y0010360D01*
X0130200Y0013840D01*
X0129084Y0014955D01*
X0129084Y0019245D01*
X0130200Y0020360D01*
X0130200Y0023840D01*
X0127740Y0026300D01*
X0127116Y0026300D01*
X0127116Y0031289D01*
X0128953Y0033126D01*
X0130790Y0031289D01*
X0132020Y0030059D01*
X0154412Y0030059D01*
X0154412Y0026300D01*
X0154260Y0026300D01*
X0151800Y0023840D01*
X0151800Y0020360D01*
X0154260Y0017900D01*
X0157740Y0017900D01*
X0160200Y0020360D01*
X0160200Y0023840D01*
X0158612Y0025428D01*
X0158612Y0031289D01*
X0164517Y0037195D01*
X0164517Y0053681D01*
X0165415Y0053681D01*
X0165415Y0053111D01*
X0166313Y0050943D01*
X0167892Y0049364D01*
X0166313Y0047785D01*
X0165415Y0045616D01*
X0165415Y0043269D01*
X0166313Y0041100D01*
X0167000Y0040414D01*
X0165243Y0038657D01*
X0164153Y0036025D01*
X0164153Y0033175D01*
X0165243Y0030543D01*
X0167000Y0028786D01*
X0166313Y0028100D01*
X0165415Y0025931D01*
X0165415Y0023584D01*
X0166313Y0021415D01*
X0167892Y0019836D01*
X0166313Y0018257D01*
X0165415Y0016089D01*
X0165415Y0013741D01*
X0166313Y0011573D01*
X0167973Y0009913D01*
X0169212Y0009400D01*
X0149240Y0009400D01*
X0150200Y0010360D01*
X0150200Y0013840D01*
X0147740Y0016300D01*
X0144260Y0016300D01*
X0141800Y0013840D01*
X0141800Y0010360D01*
X0142760Y0009400D01*
X0129240Y0009400D01*
X0130200Y0010994D02*
X0141800Y0010994D01*
X0141800Y0012593D02*
X0130200Y0012593D01*
X0129849Y0014191D02*
X0142151Y0014191D01*
X0143750Y0015790D02*
X0129084Y0015790D01*
X0129084Y0017388D02*
X0165953Y0017388D01*
X0165415Y0015790D02*
X0148250Y0015790D01*
X0147823Y0017700D02*
X0150400Y0020277D01*
X0150400Y0022100D01*
X0150400Y0023923D01*
X0147823Y0026500D01*
X0146000Y0026500D01*
X0146000Y0022100D01*
X0150400Y0022100D01*
X0146000Y0022100D01*
X0146000Y0022100D01*
X0146000Y0022100D01*
X0146000Y0017700D01*
X0147823Y0017700D01*
X0149109Y0018987D02*
X0153174Y0018987D01*
X0151800Y0020585D02*
X0150400Y0020585D01*
X0150400Y0022184D02*
X0151800Y0022184D01*
X0151800Y0023782D02*
X0150400Y0023782D01*
X0148942Y0025381D02*
X0153341Y0025381D01*
X0154412Y0026979D02*
X0127116Y0026979D01*
X0127116Y0028578D02*
X0154412Y0028578D01*
X0158612Y0028578D02*
X0166791Y0028578D01*
X0165849Y0026979D02*
X0158612Y0026979D01*
X0158659Y0025381D02*
X0165415Y0025381D01*
X0165415Y0023782D02*
X0160200Y0023782D01*
X0160200Y0022184D02*
X0165995Y0022184D01*
X0167143Y0020585D02*
X0160200Y0020585D01*
X0158826Y0018987D02*
X0167043Y0018987D01*
X0165415Y0014191D02*
X0149849Y0014191D01*
X0150200Y0012593D02*
X0165891Y0012593D01*
X0166892Y0010994D02*
X0150200Y0010994D01*
X0146000Y0017700D02*
X0146000Y0022100D01*
X0146000Y0022100D01*
X0146000Y0022100D01*
X0141600Y0022100D01*
X0141600Y0023923D01*
X0144177Y0026500D01*
X0146000Y0026500D01*
X0146000Y0022100D01*
X0141600Y0022100D01*
X0141600Y0020277D01*
X0144177Y0017700D01*
X0146000Y0017700D01*
X0146000Y0018987D02*
X0146000Y0018987D01*
X0146000Y0020585D02*
X0146000Y0020585D01*
X0146000Y0022184D02*
X0146000Y0022184D01*
X0146000Y0023782D02*
X0146000Y0023782D01*
X0146000Y0025381D02*
X0146000Y0025381D01*
X0143058Y0025381D02*
X0128659Y0025381D01*
X0130200Y0023782D02*
X0141600Y0023782D01*
X0141600Y0022184D02*
X0130200Y0022184D01*
X0130200Y0020585D02*
X0141600Y0020585D01*
X0142891Y0018987D02*
X0129084Y0018987D01*
X0127116Y0030176D02*
X0131903Y0030176D01*
X0130304Y0031775D02*
X0127601Y0031775D01*
X0135134Y0034972D02*
X0138960Y0034972D01*
X0139061Y0034920D02*
X0139817Y0034674D01*
X0140603Y0034550D01*
X0141000Y0034550D01*
X0141397Y0034550D01*
X0142183Y0034674D01*
X0142939Y0034920D01*
X0143647Y0035281D01*
X0144290Y0035748D01*
X0144852Y0036310D01*
X0145319Y0036953D01*
X0145680Y0037661D01*
X0145926Y0038417D01*
X0146050Y0039203D01*
X0146050Y0039600D01*
X0146050Y0039997D01*
X0145926Y0040783D01*
X0145680Y0041539D01*
X0145319Y0042247D01*
X0144852Y0042890D01*
X0144290Y0043452D01*
X0143647Y0043919D01*
X0142939Y0044280D01*
X0142183Y0044526D01*
X0141397Y0044650D01*
X0141000Y0044650D01*
X0141000Y0039600D01*
X0146050Y0039600D01*
X0141000Y0039600D01*
X0141000Y0039600D01*
X0141000Y0039600D01*
X0141000Y0034550D01*
X0141000Y0039600D01*
X0141000Y0039600D01*
X0141000Y0039600D01*
X0135950Y0039600D01*
X0135950Y0039997D01*
X0136074Y0040783D01*
X0136320Y0041539D01*
X0136681Y0042247D01*
X0137148Y0042890D01*
X0137710Y0043452D01*
X0138353Y0043919D01*
X0139061Y0044280D01*
X0139817Y0044526D01*
X0140603Y0044650D01*
X0141000Y0044650D01*
X0141000Y0039600D01*
X0135950Y0039600D01*
X0135950Y0039203D01*
X0136074Y0038417D01*
X0136320Y0037661D01*
X0136681Y0036953D01*
X0137148Y0036310D01*
X0137710Y0035748D01*
X0138353Y0035281D01*
X0139061Y0034920D01*
X0141000Y0034972D02*
X0141000Y0034972D01*
X0141000Y0036570D02*
X0141000Y0036570D01*
X0141000Y0038169D02*
X0141000Y0038169D01*
X0141000Y0039767D02*
X0141000Y0039767D01*
X0141000Y0041366D02*
X0141000Y0041366D01*
X0141000Y0042964D02*
X0141000Y0042964D01*
X0141000Y0044563D02*
X0141000Y0044563D01*
X0140052Y0044563D02*
X0076212Y0044563D01*
X0076021Y0046039D02*
X0077565Y0045400D01*
X0084435Y0045400D01*
X0085979Y0046039D01*
X0087161Y0047221D01*
X0087800Y0048765D01*
X0087800Y0050435D01*
X0087161Y0051979D01*
X0085979Y0053161D01*
X0084435Y0053800D01*
X0077565Y0053800D01*
X0076021Y0053161D01*
X0074839Y0051979D01*
X0074200Y0050435D01*
X0074200Y0048765D01*
X0074839Y0047221D01*
X0076021Y0046039D01*
X0075899Y0046161D02*
X0074613Y0046161D01*
X0074616Y0047760D02*
X0073015Y0047760D01*
X0071998Y0049358D02*
X0074200Y0049358D01*
X0074416Y0050957D02*
X0071998Y0050957D01*
X0071998Y0052555D02*
X0075416Y0052555D01*
X0071998Y0054154D02*
X0089451Y0054154D01*
X0089451Y0055752D02*
X0085286Y0055752D01*
X0087214Y0057351D02*
X0088980Y0057351D01*
X0089451Y0052555D02*
X0086584Y0052555D01*
X0087584Y0050957D02*
X0089451Y0050957D01*
X0089451Y0049358D02*
X0087800Y0049358D01*
X0087384Y0047760D02*
X0104616Y0047760D01*
X0105899Y0046161D02*
X0086101Y0046161D01*
X0086175Y0042964D02*
X0105825Y0042964D01*
X0104585Y0041366D02*
X0087415Y0041366D01*
X0087800Y0039767D02*
X0104200Y0039767D01*
X0104447Y0038169D02*
X0087553Y0038169D01*
X0086510Y0036570D02*
X0105490Y0036570D01*
X0105416Y0052555D02*
X0093651Y0052555D01*
X0088526Y0063745D02*
X0107432Y0063745D01*
X0114568Y0063745D02*
X0124205Y0063745D01*
X0124884Y0065343D02*
X0086927Y0065343D01*
X0085556Y0073336D02*
X0089451Y0073336D01*
X0093651Y0076533D02*
X0105527Y0076533D01*
X0117261Y0071737D02*
X0122198Y0071737D01*
X0121800Y0070139D02*
X0117800Y0070139D01*
X0117707Y0068540D02*
X0121800Y0068540D01*
X0122718Y0066942D02*
X0116882Y0066942D01*
X0116993Y0062146D02*
X0122607Y0062146D01*
X0121800Y0060548D02*
X0117753Y0060548D01*
X0117800Y0058949D02*
X0121800Y0058949D01*
X0122309Y0057351D02*
X0117214Y0057351D01*
X0115286Y0055752D02*
X0123908Y0055752D01*
X0135850Y0042964D02*
X0137222Y0042964D01*
X0136264Y0041366D02*
X0135850Y0041366D01*
X0135850Y0039767D02*
X0135950Y0039767D01*
X0135850Y0038169D02*
X0136155Y0038169D01*
X0135850Y0036570D02*
X0136959Y0036570D01*
X0143040Y0034972D02*
X0156355Y0034972D01*
X0157953Y0036570D02*
X0145041Y0036570D01*
X0145845Y0038169D02*
X0153992Y0038169D01*
X0152393Y0039767D02*
X0146050Y0039767D01*
X0145736Y0041366D02*
X0151800Y0041366D01*
X0151800Y0042964D02*
X0144777Y0042964D01*
X0141948Y0044563D02*
X0152443Y0044563D01*
X0155692Y0047760D02*
X0160317Y0047760D01*
X0160317Y0049358D02*
X0154675Y0049358D01*
X0154675Y0050957D02*
X0160317Y0050957D01*
X0160317Y0052555D02*
X0154675Y0052555D01*
X0154675Y0054154D02*
X0160317Y0054154D01*
X0160317Y0055752D02*
X0154675Y0055752D01*
X0154675Y0057351D02*
X0161017Y0057351D01*
X0164517Y0052555D02*
X0165645Y0052555D01*
X0166307Y0050957D02*
X0164517Y0050957D01*
X0164517Y0049358D02*
X0167887Y0049358D01*
X0166303Y0047760D02*
X0164517Y0047760D01*
X0164517Y0046161D02*
X0165641Y0046161D01*
X0165415Y0044563D02*
X0164517Y0044563D01*
X0164517Y0042964D02*
X0165541Y0042964D01*
X0166203Y0041366D02*
X0164517Y0041366D01*
X0164517Y0039767D02*
X0166353Y0039767D01*
X0165041Y0038169D02*
X0164517Y0038169D01*
X0164379Y0036570D02*
X0163893Y0036570D01*
X0164153Y0034972D02*
X0162294Y0034972D01*
X0160696Y0033373D02*
X0164153Y0033373D01*
X0164733Y0031775D02*
X0159097Y0031775D01*
X0158612Y0030176D02*
X0165610Y0030176D01*
X0159552Y0038169D02*
X0158008Y0038169D01*
X0159607Y0039767D02*
X0160317Y0039767D01*
X0160317Y0041366D02*
X0160200Y0041366D01*
X0160200Y0042964D02*
X0160317Y0042964D01*
X0160317Y0044563D02*
X0159477Y0044563D01*
X0160317Y0046161D02*
X0157878Y0046161D01*
X0154675Y0058949D02*
X0167635Y0058949D01*
X0167338Y0060548D02*
X0154675Y0060548D01*
X0154675Y0062146D02*
X0166076Y0062146D01*
X0165415Y0063745D02*
X0154675Y0063745D01*
X0154675Y0065343D02*
X0165415Y0065343D01*
X0165768Y0066942D02*
X0154675Y0066942D01*
X0154675Y0068540D02*
X0166597Y0068540D01*
X0167590Y0070139D02*
X0154675Y0070139D01*
X0154675Y0071737D02*
X0166180Y0071737D01*
X0165518Y0073336D02*
X0154675Y0073336D01*
X0154108Y0074934D02*
X0165415Y0074934D01*
X0165664Y0076533D02*
X0158873Y0076533D01*
X0160200Y0078132D02*
X0166345Y0078132D01*
X0166056Y0079730D02*
X0160200Y0079730D01*
X0160200Y0081329D02*
X0164918Y0081329D01*
X0164256Y0082927D02*
X0159069Y0082927D01*
X0160667Y0084526D02*
X0164153Y0084526D01*
X0164194Y0086124D02*
X0162266Y0086124D01*
X0163864Y0087723D02*
X0164856Y0087723D01*
X0164517Y0089321D02*
X0165907Y0089321D01*
X0166494Y0090920D02*
X0164517Y0090920D01*
X0164517Y0092518D02*
X0165726Y0092518D01*
X0165415Y0094117D02*
X0164517Y0094117D01*
X0164517Y0095715D02*
X0165456Y0095715D01*
X0166118Y0097314D02*
X0164517Y0097314D01*
X0164517Y0098912D02*
X0167441Y0098912D01*
X0166745Y0100511D02*
X0164517Y0100511D01*
X0164517Y0102109D02*
X0165830Y0102109D01*
X0160317Y0102109D02*
X0159430Y0102109D01*
X0160200Y0100511D02*
X0160317Y0100511D01*
X0160317Y0098912D02*
X0160200Y0098912D01*
X0160317Y0097314D02*
X0159653Y0097314D01*
X0160317Y0095715D02*
X0158055Y0095715D01*
X0160317Y0094117D02*
X0150738Y0094117D01*
X0150738Y0095715D02*
X0153945Y0095715D01*
X0152347Y0097314D02*
X0149445Y0097314D01*
X0147847Y0098912D02*
X0151800Y0098912D01*
X0151800Y0100511D02*
X0146248Y0100511D01*
X0144650Y0102109D02*
X0150521Y0102109D01*
X0150475Y0103708D02*
X0148547Y0103708D01*
X0147740Y0102900D02*
X0150200Y0105360D01*
X0150200Y0108840D01*
X0147740Y0111300D01*
X0144260Y0111300D01*
X0141800Y0108840D01*
X0141800Y0105360D01*
X0144260Y0102900D01*
X0147740Y0102900D01*
X0150146Y0105306D02*
X0150475Y0105306D01*
X0150475Y0106905D02*
X0150200Y0106905D01*
X0150200Y0108503D02*
X0150475Y0108503D01*
X0150475Y0110102D02*
X0148938Y0110102D01*
X0150475Y0111700D02*
X0135059Y0111700D01*
X0134990Y0113299D02*
X0143579Y0113299D01*
X0144177Y0112700D02*
X0141600Y0115277D01*
X0141600Y0117100D01*
X0146000Y0117100D01*
X0150400Y0117100D01*
X0150400Y0118923D01*
X0147823Y0121500D01*
X0146000Y0121500D01*
X0146000Y0117100D01*
X0146000Y0117100D01*
X0146000Y0117100D01*
X0150400Y0117100D01*
X0150400Y0115277D01*
X0147823Y0112700D01*
X0146000Y0112700D01*
X0146000Y0117100D01*
X0146000Y0117100D01*
X0146000Y0117100D01*
X0146000Y0121500D01*
X0144177Y0121500D01*
X0141600Y0118923D01*
X0141600Y0117100D01*
X0146000Y0117100D01*
X0146000Y0112700D01*
X0144177Y0112700D01*
X0146000Y0113299D02*
X0146000Y0113299D01*
X0146000Y0114897D02*
X0146000Y0114897D01*
X0146000Y0116496D02*
X0146000Y0116496D01*
X0146000Y0118094D02*
X0146000Y0118094D01*
X0146000Y0119693D02*
X0146000Y0119693D01*
X0146000Y0121291D02*
X0146000Y0121291D01*
X0148031Y0121291D02*
X0150475Y0121291D01*
X0150475Y0119693D02*
X0149630Y0119693D01*
X0150400Y0118094D02*
X0150475Y0118094D01*
X0150475Y0116496D02*
X0150400Y0116496D01*
X0150475Y0114897D02*
X0150020Y0114897D01*
X0150475Y0113299D02*
X0148421Y0113299D01*
X0154675Y0113299D02*
X0165598Y0113299D01*
X0165415Y0114897D02*
X0154675Y0114897D01*
X0154675Y0116496D02*
X0165584Y0116496D01*
X0164063Y0118094D02*
X0154675Y0118094D01*
X0154675Y0119693D02*
X0162465Y0119693D01*
X0160866Y0121291D02*
X0154675Y0121291D01*
X0154675Y0122890D02*
X0159268Y0122890D01*
X0157669Y0124488D02*
X0153767Y0124488D01*
X0153573Y0126087D02*
X0152168Y0126087D01*
X0151975Y0127685D02*
X0150738Y0127685D01*
X0150738Y0129284D02*
X0151800Y0129284D01*
X0151800Y0130882D02*
X0150738Y0130882D01*
X0150738Y0132481D02*
X0152941Y0132481D01*
X0154412Y0134079D02*
X0150738Y0134079D01*
X0150796Y0135678D02*
X0154412Y0135678D01*
X0154412Y0137276D02*
X0152394Y0137276D01*
X0153993Y0138875D02*
X0154412Y0138875D01*
X0146538Y0137276D02*
X0145298Y0137276D01*
X0145319Y0137247D02*
X0144852Y0137890D01*
X0144290Y0138452D01*
X0143647Y0138919D01*
X0142939Y0139280D01*
X0142183Y0139526D01*
X0141397Y0139650D01*
X0141000Y0139650D01*
X0141000Y0134600D01*
X0146050Y0134600D01*
X0146050Y0134997D01*
X0145926Y0135783D01*
X0145680Y0136539D01*
X0145319Y0137247D01*
X0145251Y0138875D02*
X0143708Y0138875D01*
X0143653Y0140473D02*
X0123179Y0140473D01*
X0123179Y0138875D02*
X0126512Y0138875D01*
X0126150Y0138513D02*
X0127087Y0139450D01*
X0134913Y0139450D01*
X0135850Y0138513D01*
X0135850Y0130687D01*
X0134913Y0129750D01*
X0127087Y0129750D01*
X0126150Y0130687D01*
X0126150Y0138513D01*
X0126150Y0137276D02*
X0123179Y0137276D01*
X0123179Y0135678D02*
X0126150Y0135678D01*
X0126150Y0134079D02*
X0123179Y0134079D01*
X0124120Y0132481D02*
X0126150Y0132481D01*
X0126150Y0130882D02*
X0125719Y0130882D01*
X0127317Y0129284D02*
X0146538Y0129284D01*
X0146538Y0130882D02*
X0144424Y0130882D01*
X0144290Y0130748D02*
X0144852Y0131310D01*
X0145319Y0131953D01*
X0145680Y0132661D01*
X0145926Y0133417D01*
X0146050Y0134203D01*
X0146050Y0134600D01*
X0141000Y0134600D01*
X0141000Y0134600D01*
X0141000Y0134600D01*
X0141000Y0129550D01*
X0141397Y0129550D01*
X0142183Y0129674D01*
X0142939Y0129920D01*
X0143647Y0130281D01*
X0144290Y0130748D01*
X0145588Y0132481D02*
X0146538Y0132481D01*
X0146538Y0134079D02*
X0146030Y0134079D01*
X0145942Y0135678D02*
X0146538Y0135678D01*
X0141000Y0135678D02*
X0141000Y0135678D01*
X0141000Y0134600D02*
X0141000Y0139650D01*
X0140603Y0139650D01*
X0139817Y0139526D01*
X0139061Y0139280D01*
X0138353Y0138919D01*
X0137710Y0138452D01*
X0137148Y0137890D01*
X0136681Y0137247D01*
X0136320Y0136539D01*
X0136074Y0135783D01*
X0135950Y0134997D01*
X0135950Y0134600D01*
X0141000Y0134600D01*
X0141000Y0134600D01*
X0141000Y0134600D01*
X0141000Y0129550D01*
X0140603Y0129550D01*
X0139817Y0129674D01*
X0139061Y0129920D01*
X0138353Y0130281D01*
X0137710Y0130748D01*
X0137148Y0131310D01*
X0136681Y0131953D01*
X0136320Y0132661D01*
X0136074Y0133417D01*
X0135950Y0134203D01*
X0135950Y0134600D01*
X0141000Y0134600D01*
X0141000Y0134079D02*
X0141000Y0134079D01*
X0141000Y0132481D02*
X0141000Y0132481D01*
X0141000Y0130882D02*
X0141000Y0130882D01*
X0137576Y0130882D02*
X0135850Y0130882D01*
X0135850Y0132481D02*
X0136412Y0132481D01*
X0135970Y0134079D02*
X0135850Y0134079D01*
X0135850Y0135678D02*
X0136058Y0135678D01*
X0135850Y0137276D02*
X0136702Y0137276D01*
X0135488Y0138875D02*
X0138292Y0138875D01*
X0141000Y0138875D02*
X0141000Y0138875D01*
X0141000Y0137276D02*
X0141000Y0137276D01*
X0142054Y0142072D02*
X0123179Y0142072D01*
X0123179Y0143670D02*
X0140456Y0143670D01*
X0138857Y0145269D02*
X0123179Y0145269D01*
X0123179Y0146868D02*
X0137259Y0146868D01*
X0135660Y0148466D02*
X0123179Y0148466D01*
X0123179Y0150065D02*
X0134062Y0150065D01*
X0136804Y0153262D02*
X0146538Y0153262D01*
X0146538Y0154860D02*
X0143260Y0154860D01*
X0143050Y0154650D02*
X0145950Y0157550D01*
X0145950Y0159600D01*
X0145950Y0161650D01*
X0143050Y0164550D01*
X0141000Y0164550D01*
X0141000Y0159600D01*
X0141000Y0159600D01*
X0145950Y0159600D01*
X0141000Y0159600D01*
X0141000Y0159600D01*
X0141000Y0159600D01*
X0136050Y0159600D01*
X0136050Y0161650D01*
X0138950Y0164550D01*
X0141000Y0164550D01*
X0141000Y0159600D01*
X0141000Y0154650D01*
X0143050Y0154650D01*
X0141000Y0154650D02*
X0141000Y0159600D01*
X0141000Y0159600D01*
X0136050Y0159600D01*
X0136050Y0157550D01*
X0138950Y0154650D01*
X0141000Y0154650D01*
X0141000Y0154860D02*
X0141000Y0154860D01*
X0141000Y0156459D02*
X0141000Y0156459D01*
X0141000Y0158057D02*
X0141000Y0158057D01*
X0141000Y0159656D02*
X0141000Y0159656D01*
X0141000Y0161254D02*
X0141000Y0161254D01*
X0141000Y0162853D02*
X0141000Y0162853D01*
X0141000Y0164451D02*
X0141000Y0164451D01*
X0143149Y0164451D02*
X0157881Y0164451D01*
X0159480Y0166050D02*
X0122048Y0166050D01*
X0123179Y0164451D02*
X0138851Y0164451D01*
X0137252Y0162853D02*
X0131187Y0162853D01*
X0132700Y0161254D02*
X0136050Y0161254D01*
X0136050Y0159656D02*
X0132700Y0159656D01*
X0132700Y0158057D02*
X0136050Y0158057D01*
X0137141Y0156459D02*
X0131298Y0156459D01*
X0125702Y0156459D02*
X0125147Y0156459D01*
X0125147Y0154860D02*
X0138740Y0154860D01*
X0138403Y0151663D02*
X0146538Y0151663D01*
X0146538Y0150065D02*
X0140001Y0150065D01*
X0141600Y0148466D02*
X0146538Y0148466D01*
X0146050Y0146868D02*
X0143198Y0146868D01*
X0144797Y0145269D02*
X0145116Y0145269D01*
X0144859Y0156459D02*
X0147920Y0156459D01*
X0149519Y0158057D02*
X0145950Y0158057D01*
X0145950Y0159656D02*
X0151117Y0159656D01*
X0151250Y0161254D02*
X0145950Y0161254D01*
X0144748Y0162853D02*
X0152535Y0162853D01*
X0161078Y0167648D02*
X0120449Y0167648D01*
X0118851Y0169247D02*
X0162677Y0169247D01*
X0164275Y0170845D02*
X0117630Y0170845D01*
X0116696Y0172444D02*
X0165874Y0172444D01*
X0166223Y0174042D02*
X0106483Y0174042D01*
X0105304Y0172444D02*
X0104884Y0172444D01*
X0104370Y0170845D02*
X0103494Y0170845D01*
X0103494Y0169247D02*
X0104200Y0169247D01*
X0104662Y0167648D02*
X0103494Y0167648D01*
X0103494Y0166050D02*
X0106011Y0166050D01*
X0103494Y0164451D02*
X0117707Y0164451D01*
X0118979Y0162853D02*
X0116287Y0162853D01*
X0117461Y0161254D02*
X0118979Y0161254D01*
X0118979Y0159656D02*
X0118599Y0159656D01*
X0123179Y0159656D02*
X0124300Y0159656D01*
X0124300Y0161254D02*
X0123179Y0161254D01*
X0123179Y0162853D02*
X0125813Y0162853D01*
X0124300Y0158057D02*
X0124135Y0158057D01*
X0118979Y0153262D02*
X0115735Y0153262D01*
X0115979Y0153161D02*
X0114435Y0153800D01*
X0107565Y0153800D01*
X0106021Y0153161D01*
X0104839Y0151979D01*
X0104200Y0150435D01*
X0104200Y0148765D01*
X0104839Y0147221D01*
X0106021Y0146039D01*
X0107565Y0145400D01*
X0114435Y0145400D01*
X0115979Y0146039D01*
X0117161Y0147221D01*
X0117800Y0148765D01*
X0117800Y0150435D01*
X0117161Y0151979D01*
X0115979Y0153161D01*
X0117291Y0151663D02*
X0118979Y0151663D01*
X0118979Y0150065D02*
X0117800Y0150065D01*
X0117676Y0148466D02*
X0118979Y0148466D01*
X0118979Y0146868D02*
X0116807Y0146868D01*
X0118979Y0145269D02*
X0103494Y0145269D01*
X0103494Y0143670D02*
X0107252Y0143670D01*
X0107565Y0143800D02*
X0106021Y0143161D01*
X0104839Y0141979D01*
X0104200Y0140435D01*
X0104200Y0138765D01*
X0104839Y0137221D01*
X0106021Y0136039D01*
X0107565Y0135400D01*
X0114435Y0135400D01*
X0115979Y0136039D01*
X0117161Y0137221D01*
X0117800Y0138765D01*
X0117800Y0140435D01*
X0117161Y0141979D01*
X0115979Y0143161D01*
X0114435Y0143800D01*
X0107565Y0143800D01*
X0104932Y0142072D02*
X0103494Y0142072D01*
X0103494Y0140473D02*
X0104216Y0140473D01*
X0104200Y0138875D02*
X0103494Y0138875D01*
X0103494Y0137276D02*
X0104816Y0137276D01*
X0103494Y0135678D02*
X0106894Y0135678D01*
X0107565Y0133800D02*
X0106021Y0133161D01*
X0104839Y0131979D01*
X0104200Y0130435D01*
X0104200Y0128765D01*
X0104839Y0127221D01*
X0106021Y0126039D01*
X0107565Y0125400D01*
X0114435Y0125400D01*
X0115979Y0126039D01*
X0117161Y0127221D01*
X0117800Y0128765D01*
X0117800Y0130435D01*
X0117161Y0131979D01*
X0115979Y0133161D01*
X0114435Y0133800D01*
X0107565Y0133800D01*
X0105341Y0132481D02*
X0103494Y0132481D01*
X0103494Y0134079D02*
X0118979Y0134079D01*
X0118979Y0132481D02*
X0116659Y0132481D01*
X0117615Y0130882D02*
X0119779Y0130882D01*
X0121378Y0129284D02*
X0117800Y0129284D01*
X0117353Y0127685D02*
X0122976Y0127685D01*
X0124575Y0126087D02*
X0116027Y0126087D01*
X0114435Y0123800D02*
X0115979Y0123161D01*
X0117161Y0121979D01*
X0117800Y0120435D01*
X0117800Y0118765D01*
X0117161Y0117221D01*
X0115979Y0116039D01*
X0114435Y0115400D01*
X0107565Y0115400D01*
X0106021Y0116039D01*
X0104839Y0117221D01*
X0104200Y0118765D01*
X0104200Y0120435D01*
X0104839Y0121979D01*
X0106021Y0123161D01*
X0107565Y0123800D01*
X0114435Y0123800D01*
X0116250Y0122890D02*
X0127772Y0122890D01*
X0127740Y0121300D02*
X0124260Y0121300D01*
X0121800Y0118840D01*
X0121800Y0115360D01*
X0124260Y0112900D01*
X0124884Y0112900D01*
X0124884Y0111300D01*
X0124260Y0111300D01*
X0121800Y0108840D01*
X0121800Y0105360D01*
X0124260Y0102900D01*
X0127740Y0102900D01*
X0130200Y0105360D01*
X0130200Y0108840D01*
X0129084Y0109955D01*
X0129084Y0114245D01*
X0130200Y0115360D01*
X0130200Y0118840D01*
X0127740Y0121300D01*
X0127748Y0121291D02*
X0129370Y0121291D01*
X0129347Y0119693D02*
X0130790Y0119693D01*
X0130790Y0118094D02*
X0130200Y0118094D01*
X0130200Y0116496D02*
X0130790Y0116496D01*
X0130790Y0114897D02*
X0129737Y0114897D01*
X0129084Y0113299D02*
X0130790Y0113299D01*
X0130790Y0111700D02*
X0129084Y0111700D01*
X0129084Y0110102D02*
X0130790Y0110102D01*
X0130200Y0108503D02*
X0132316Y0108503D01*
X0133914Y0106905D02*
X0130200Y0106905D01*
X0130146Y0105306D02*
X0135513Y0105306D01*
X0137111Y0103708D02*
X0128547Y0103708D01*
X0123453Y0103708D02*
X0114658Y0103708D01*
X0114435Y0103800D02*
X0115979Y0103161D01*
X0117161Y0101979D01*
X0117800Y0100435D01*
X0117800Y0098765D01*
X0117161Y0097221D01*
X0115979Y0096039D01*
X0114435Y0095400D01*
X0107565Y0095400D01*
X0106021Y0096039D01*
X0104839Y0097221D01*
X0104200Y0098765D01*
X0104200Y0100435D01*
X0104839Y0101979D01*
X0106021Y0103161D01*
X0107565Y0103800D01*
X0114435Y0103800D01*
X0113946Y0105200D02*
X0114630Y0105308D01*
X0115289Y0105522D01*
X0115906Y0105837D01*
X0116466Y0106244D01*
X0116956Y0106734D01*
X0117363Y0107294D01*
X0117678Y0107911D01*
X0117892Y0108570D01*
X0118000Y0109254D01*
X0118000Y0109600D01*
X0118000Y0109946D01*
X0117892Y0110630D01*
X0117678Y0111289D01*
X0117363Y0111906D01*
X0116956Y0112466D01*
X0116466Y0112956D01*
X0115906Y0113363D01*
X0115289Y0113678D01*
X0114630Y0113892D01*
X0113946Y0114000D01*
X0111000Y0114000D01*
X0111000Y0109600D01*
X0111000Y0109600D01*
X0118000Y0109600D01*
X0111000Y0109600D01*
X0111000Y0109600D01*
X0111000Y0105200D01*
X0113946Y0105200D01*
X0114617Y0105306D02*
X0121854Y0105306D01*
X0121800Y0106905D02*
X0117080Y0106905D01*
X0117870Y0108503D02*
X0121800Y0108503D01*
X0123062Y0110102D02*
X0117975Y0110102D01*
X0117468Y0111700D02*
X0124884Y0111700D01*
X0123862Y0113299D02*
X0115995Y0113299D01*
X0116435Y0116496D02*
X0121800Y0116496D01*
X0121800Y0118094D02*
X0117522Y0118094D01*
X0117800Y0119693D02*
X0122653Y0119693D01*
X0124252Y0121291D02*
X0117445Y0121291D01*
X0122263Y0114897D02*
X0103494Y0114897D01*
X0103494Y0113299D02*
X0106005Y0113299D01*
X0106094Y0113363D02*
X0105534Y0112956D01*
X0105044Y0112466D01*
X0104637Y0111906D01*
X0104322Y0111289D01*
X0104108Y0110630D01*
X0104000Y0109946D01*
X0104000Y0109600D01*
X0111000Y0109600D01*
X0111000Y0109600D01*
X0111000Y0109600D01*
X0111000Y0114000D01*
X0108054Y0114000D01*
X0107370Y0113892D01*
X0106711Y0113678D01*
X0106094Y0113363D01*
X0104532Y0111700D02*
X0103494Y0111700D01*
X0103494Y0110102D02*
X0104025Y0110102D01*
X0104000Y0109600D02*
X0104000Y0109254D01*
X0104108Y0108570D01*
X0104322Y0107911D01*
X0104637Y0107294D01*
X0105044Y0106734D01*
X0105534Y0106244D01*
X0106094Y0105837D01*
X0106711Y0105522D01*
X0107370Y0105308D01*
X0108054Y0105200D01*
X0111000Y0105200D01*
X0111000Y0109600D01*
X0104000Y0109600D01*
X0104130Y0108503D02*
X0103494Y0108503D01*
X0103494Y0106905D02*
X0104920Y0106905D01*
X0103494Y0105306D02*
X0107383Y0105306D01*
X0107342Y0103708D02*
X0103494Y0103708D01*
X0103494Y0102109D02*
X0104970Y0102109D01*
X0104231Y0100511D02*
X0103494Y0100511D01*
X0103494Y0098912D02*
X0104200Y0098912D01*
X0104801Y0097314D02*
X0103494Y0097314D01*
X0103494Y0095715D02*
X0106804Y0095715D01*
X0105378Y0092518D02*
X0103494Y0092518D01*
X0103494Y0094117D02*
X0146538Y0094117D01*
X0145104Y0095715D02*
X0115196Y0095715D01*
X0117199Y0097314D02*
X0143505Y0097314D01*
X0141907Y0098912D02*
X0117800Y0098912D01*
X0117769Y0100511D02*
X0140308Y0100511D01*
X0138710Y0102109D02*
X0117030Y0102109D01*
X0111000Y0105306D02*
X0111000Y0105306D01*
X0111000Y0106905D02*
X0111000Y0106905D01*
X0111000Y0108503D02*
X0111000Y0108503D01*
X0111000Y0110102D02*
X0111000Y0110102D01*
X0111000Y0111700D02*
X0111000Y0111700D01*
X0111000Y0113299D02*
X0111000Y0113299D01*
X0105565Y0116496D02*
X0103494Y0116496D01*
X0103494Y0118094D02*
X0104478Y0118094D01*
X0104200Y0119693D02*
X0103494Y0119693D01*
X0103494Y0121291D02*
X0104555Y0121291D01*
X0103494Y0122890D02*
X0105750Y0122890D01*
X0103494Y0124488D02*
X0126173Y0124488D01*
X0128916Y0127685D02*
X0146538Y0127685D01*
X0146538Y0126087D02*
X0130514Y0126087D01*
X0132113Y0124488D02*
X0147827Y0124488D01*
X0149425Y0122890D02*
X0133711Y0122890D01*
X0134990Y0121291D02*
X0143969Y0121291D01*
X0142370Y0119693D02*
X0134990Y0119693D01*
X0134990Y0118094D02*
X0141600Y0118094D01*
X0141600Y0116496D02*
X0134990Y0116496D01*
X0134990Y0114897D02*
X0141980Y0114897D01*
X0143062Y0110102D02*
X0136657Y0110102D01*
X0138256Y0108503D02*
X0141800Y0108503D01*
X0141800Y0106905D02*
X0139854Y0106905D01*
X0141453Y0105306D02*
X0141854Y0105306D01*
X0143051Y0103708D02*
X0143453Y0103708D01*
X0154675Y0105306D02*
X0160317Y0105306D01*
X0160317Y0103708D02*
X0157832Y0103708D01*
X0154675Y0106905D02*
X0161359Y0106905D01*
X0167189Y0108503D02*
X0154675Y0108503D01*
X0154675Y0110102D02*
X0167784Y0110102D01*
X0166260Y0111700D02*
X0154675Y0111700D01*
X0150738Y0092518D02*
X0160317Y0092518D01*
X0160317Y0090920D02*
X0150738Y0090920D01*
X0150738Y0089321D02*
X0159523Y0089321D01*
X0157924Y0087723D02*
X0150738Y0087723D01*
X0150738Y0086124D02*
X0156326Y0086124D01*
X0154727Y0084526D02*
X0150738Y0084526D01*
X0150738Y0082927D02*
X0153387Y0082927D01*
X0151800Y0081329D02*
X0150738Y0081329D01*
X0150738Y0079730D02*
X0151800Y0079730D01*
X0151800Y0078132D02*
X0150911Y0078132D01*
X0152509Y0076533D02*
X0153127Y0076533D01*
X0146000Y0073336D02*
X0146000Y0073336D01*
X0146000Y0071737D02*
X0146000Y0071737D01*
X0146000Y0070139D02*
X0146000Y0070139D01*
X0146000Y0068540D02*
X0146000Y0068540D01*
X0146000Y0066942D02*
X0146000Y0066942D01*
X0146000Y0065343D02*
X0146000Y0065343D01*
X0182234Y0065343D02*
X0183838Y0065343D01*
X0183838Y0066340D02*
X0183838Y0063490D01*
X0184928Y0060858D01*
X0186186Y0059600D01*
X0184928Y0058342D01*
X0183838Y0055710D01*
X0183838Y0052860D01*
X0184928Y0050228D01*
X0186943Y0048213D01*
X0189575Y0047123D01*
X0192425Y0047123D01*
X0194901Y0048148D01*
X0194901Y0039043D01*
X0194342Y0039602D01*
X0192174Y0040500D01*
X0189826Y0040500D01*
X0187658Y0039602D01*
X0186252Y0038196D01*
X0182234Y0038196D01*
X0182234Y0129714D01*
X0182972Y0130453D01*
X0184202Y0131683D01*
X0184202Y0139557D01*
X0184941Y0140295D01*
X0186171Y0141525D01*
X0186171Y0147202D01*
X0182234Y0151139D01*
X0182234Y0159013D01*
X0173891Y0167356D01*
X0173891Y0168702D01*
X0173343Y0170025D01*
X0172331Y0171038D01*
X0171007Y0171586D01*
X0170423Y0171586D01*
X0170423Y0190509D01*
X0169193Y0191739D01*
X0167300Y0193632D01*
X0167300Y0197556D01*
X0166721Y0198953D01*
X0165913Y0199761D01*
X0183183Y0199761D01*
X0183083Y0199586D01*
X0182960Y0199128D01*
X0182960Y0196148D01*
X0187700Y0196148D01*
X0187700Y0194548D01*
X0189300Y0194548D01*
X0189300Y0190005D01*
X0192477Y0190005D01*
X0192935Y0190127D01*
X0193345Y0190364D01*
X0193681Y0190699D01*
X0193917Y0191110D01*
X0194040Y0191568D01*
X0194040Y0194548D01*
X0189300Y0194548D01*
X0189300Y0196148D01*
X0194040Y0196148D01*
X0194040Y0199128D01*
X0193917Y0199586D01*
X0193817Y0199761D01*
X0194901Y0199761D01*
X0194901Y0160422D01*
X0194040Y0160778D01*
X0194040Y0163052D01*
X0189300Y0163052D01*
X0189300Y0164652D01*
X0187700Y0164652D01*
X0187700Y0169195D01*
X0184523Y0169195D01*
X0184065Y0169073D01*
X0183655Y0168836D01*
X0183319Y0168500D01*
X0183083Y0168090D01*
X0182960Y0167632D01*
X0182960Y0164652D01*
X0187700Y0164652D01*
X0187700Y0163052D01*
X0182960Y0163052D01*
X0182960Y0160072D01*
X0183083Y0159614D01*
X0183319Y0159203D01*
X0183655Y0158868D01*
X0184065Y0158631D01*
X0184523Y0158509D01*
X0185095Y0158509D01*
X0184928Y0158342D01*
X0183838Y0155710D01*
X0183838Y0152860D01*
X0184928Y0150228D01*
X0186943Y0148213D01*
X0189575Y0147123D01*
X0192425Y0147123D01*
X0194901Y0148148D01*
X0194901Y0139043D01*
X0194342Y0139602D01*
X0192174Y0140500D01*
X0189826Y0140500D01*
X0187658Y0139602D01*
X0185998Y0137942D01*
X0185100Y0135774D01*
X0185100Y0133426D01*
X0185998Y0131258D01*
X0187658Y0129598D01*
X0189826Y0128700D01*
X0192174Y0128700D01*
X0194342Y0129598D01*
X0194901Y0130157D01*
X0194901Y0121052D01*
X0192425Y0122077D01*
X0189575Y0122077D01*
X0186943Y0120987D01*
X0184928Y0118972D01*
X0183838Y0116340D01*
X0183838Y0113490D01*
X0184928Y0110858D01*
X0186186Y0109600D01*
X0184928Y0108342D01*
X0183838Y0105710D01*
X0183838Y0102860D01*
X0184928Y0100228D01*
X0186943Y0098213D01*
X0189575Y0097123D01*
X0192425Y0097123D01*
X0194901Y0098148D01*
X0194901Y0089043D01*
X0194342Y0089602D01*
X0192174Y0090500D01*
X0189826Y0090500D01*
X0187658Y0089602D01*
X0185998Y0087942D01*
X0185100Y0085774D01*
X0185100Y0083426D01*
X0185998Y0081258D01*
X0187658Y0079598D01*
X0189826Y0078700D01*
X0192174Y0078700D01*
X0194342Y0079598D01*
X0194901Y0080157D01*
X0194901Y0071052D01*
X0192425Y0072077D01*
X0189575Y0072077D01*
X0186943Y0070987D01*
X0184928Y0068972D01*
X0183838Y0066340D01*
X0184087Y0066942D02*
X0182234Y0066942D01*
X0182234Y0068540D02*
X0184749Y0068540D01*
X0186095Y0070139D02*
X0182234Y0070139D01*
X0182234Y0071737D02*
X0188755Y0071737D01*
X0193245Y0071737D02*
X0194901Y0071737D01*
X0194901Y0073336D02*
X0182234Y0073336D01*
X0182234Y0074934D02*
X0194901Y0074934D01*
X0194901Y0076533D02*
X0182234Y0076533D01*
X0182234Y0078132D02*
X0194901Y0078132D01*
X0194901Y0079730D02*
X0194474Y0079730D01*
X0187526Y0079730D02*
X0182234Y0079730D01*
X0182234Y0081329D02*
X0185969Y0081329D01*
X0185307Y0082927D02*
X0182234Y0082927D01*
X0182234Y0084526D02*
X0185100Y0084526D01*
X0185245Y0086124D02*
X0182234Y0086124D01*
X0182234Y0087723D02*
X0185907Y0087723D01*
X0187377Y0089321D02*
X0182234Y0089321D01*
X0182234Y0090920D02*
X0194901Y0090920D01*
X0194901Y0092518D02*
X0182234Y0092518D01*
X0182234Y0094117D02*
X0194901Y0094117D01*
X0194901Y0095715D02*
X0182234Y0095715D01*
X0182234Y0097314D02*
X0189115Y0097314D01*
X0186244Y0098912D02*
X0182234Y0098912D01*
X0182234Y0100511D02*
X0184811Y0100511D01*
X0184149Y0102109D02*
X0182234Y0102109D01*
X0182234Y0103708D02*
X0183838Y0103708D01*
X0183838Y0105306D02*
X0182234Y0105306D01*
X0182234Y0106905D02*
X0184333Y0106905D01*
X0185089Y0108503D02*
X0182234Y0108503D01*
X0182234Y0110102D02*
X0185684Y0110102D01*
X0184579Y0111700D02*
X0182234Y0111700D01*
X0182234Y0113299D02*
X0183917Y0113299D01*
X0183838Y0114897D02*
X0182234Y0114897D01*
X0182234Y0116496D02*
X0183902Y0116496D01*
X0184565Y0118094D02*
X0182234Y0118094D01*
X0182234Y0119693D02*
X0185649Y0119693D01*
X0187678Y0121291D02*
X0182234Y0121291D01*
X0182234Y0122890D02*
X0194901Y0122890D01*
X0194901Y0124488D02*
X0182234Y0124488D01*
X0182234Y0126087D02*
X0194901Y0126087D01*
X0194901Y0127685D02*
X0182234Y0127685D01*
X0182234Y0129284D02*
X0188417Y0129284D01*
X0186374Y0130882D02*
X0183402Y0130882D01*
X0184202Y0132481D02*
X0185492Y0132481D01*
X0185100Y0134079D02*
X0184202Y0134079D01*
X0184202Y0135678D02*
X0185100Y0135678D01*
X0185723Y0137276D02*
X0184202Y0137276D01*
X0184202Y0138875D02*
X0186931Y0138875D01*
X0185119Y0140473D02*
X0189762Y0140473D01*
X0192238Y0140473D02*
X0194901Y0140473D01*
X0194901Y0142072D02*
X0186171Y0142072D01*
X0186171Y0143670D02*
X0194901Y0143670D01*
X0194901Y0145269D02*
X0186171Y0145269D01*
X0186171Y0146868D02*
X0194901Y0146868D01*
X0186690Y0148466D02*
X0184907Y0148466D01*
X0185092Y0150065D02*
X0183308Y0150065D01*
X0184334Y0151663D02*
X0182234Y0151663D01*
X0182234Y0153262D02*
X0183838Y0153262D01*
X0183838Y0154860D02*
X0182234Y0154860D01*
X0182234Y0156459D02*
X0184148Y0156459D01*
X0184810Y0158057D02*
X0182234Y0158057D01*
X0181591Y0159656D02*
X0183071Y0159656D01*
X0182960Y0161254D02*
X0179993Y0161254D01*
X0178394Y0162853D02*
X0182960Y0162853D01*
X0182960Y0166050D02*
X0175197Y0166050D01*
X0176126Y0166902D02*
X0177449Y0166354D01*
X0178881Y0166354D01*
X0180205Y0166902D01*
X0181217Y0167915D01*
X0181765Y0169238D01*
X0181765Y0170670D01*
X0181217Y0171994D01*
X0181018Y0172193D01*
X0181486Y0172193D01*
X0182423Y0173130D01*
X0182423Y0183200D01*
X0182500Y0183334D01*
X0182623Y0183792D01*
X0182623Y0184718D01*
X0178067Y0184718D01*
X0178067Y0184718D01*
X0182623Y0184718D01*
X0182623Y0185644D01*
X0182500Y0186102D01*
X0182263Y0186512D01*
X0181928Y0186847D01*
X0181518Y0187084D01*
X0181060Y0187207D01*
X0178067Y0187207D01*
X0178067Y0184718D01*
X0173511Y0184718D01*
X0173511Y0183792D01*
X0173634Y0183334D01*
X0173711Y0183200D01*
X0173711Y0175689D01*
X0173711Y0173130D01*
X0174648Y0172193D01*
X0175313Y0172193D01*
X0175113Y0171994D01*
X0174565Y0170670D01*
X0174565Y0169238D01*
X0175113Y0167915D01*
X0176126Y0166902D01*
X0175380Y0167648D02*
X0173891Y0167648D01*
X0173666Y0169247D02*
X0174565Y0169247D01*
X0174638Y0170845D02*
X0172523Y0170845D01*
X0174398Y0172444D02*
X0170423Y0172444D01*
X0170423Y0174042D02*
X0173711Y0174042D01*
X0173711Y0175641D02*
X0170423Y0175641D01*
X0170423Y0177239D02*
X0173711Y0177239D01*
X0173711Y0178838D02*
X0170423Y0178838D01*
X0170423Y0180436D02*
X0173711Y0180436D01*
X0173711Y0182035D02*
X0170423Y0182035D01*
X0170423Y0183633D02*
X0173554Y0183633D01*
X0173511Y0184718D02*
X0178067Y0184718D01*
X0178067Y0184718D01*
X0178067Y0184718D01*
X0178067Y0187207D01*
X0175074Y0187207D01*
X0174616Y0187084D01*
X0174206Y0186847D01*
X0173871Y0186512D01*
X0173634Y0186102D01*
X0173511Y0185644D01*
X0173511Y0184718D01*
X0173511Y0185232D02*
X0170423Y0185232D01*
X0170423Y0186830D02*
X0174189Y0186830D01*
X0170423Y0188429D02*
X0183160Y0188429D01*
X0183160Y0189003D02*
X0183160Y0180197D01*
X0183757Y0179600D01*
X0183160Y0179003D01*
X0183160Y0170197D01*
X0184097Y0169260D01*
X0192903Y0169260D01*
X0193840Y0170197D01*
X0193840Y0179003D01*
X0193243Y0179600D01*
X0193840Y0180197D01*
X0193840Y0189003D01*
X0192903Y0189940D01*
X0184097Y0189940D01*
X0183160Y0189003D01*
X0184065Y0190127D02*
X0184523Y0190005D01*
X0187700Y0190005D01*
X0187700Y0194548D01*
X0182960Y0194548D01*
X0182960Y0191568D01*
X0183083Y0191110D01*
X0183319Y0190699D01*
X0183655Y0190364D01*
X0184065Y0190127D01*
X0184439Y0190027D02*
X0170423Y0190027D01*
X0169306Y0191626D02*
X0182960Y0191626D01*
X0182960Y0193224D02*
X0167708Y0193224D01*
X0167300Y0194823D02*
X0187700Y0194823D01*
X0187700Y0193224D02*
X0189300Y0193224D01*
X0189300Y0191626D02*
X0187700Y0191626D01*
X0187700Y0190027D02*
X0189300Y0190027D01*
X0192561Y0190027D02*
X0194901Y0190027D01*
X0194901Y0188429D02*
X0193840Y0188429D01*
X0193840Y0186830D02*
X0194901Y0186830D01*
X0194901Y0185232D02*
X0193840Y0185232D01*
X0193840Y0183633D02*
X0194901Y0183633D01*
X0194901Y0182035D02*
X0193840Y0182035D01*
X0193840Y0180436D02*
X0194901Y0180436D01*
X0194901Y0178838D02*
X0193840Y0178838D01*
X0193840Y0177239D02*
X0194901Y0177239D01*
X0194901Y0175641D02*
X0193840Y0175641D01*
X0193840Y0174042D02*
X0194901Y0174042D01*
X0194901Y0172444D02*
X0193840Y0172444D01*
X0193840Y0170845D02*
X0194901Y0170845D01*
X0194901Y0169247D02*
X0181765Y0169247D01*
X0181693Y0170845D02*
X0183160Y0170845D01*
X0183160Y0172444D02*
X0181736Y0172444D01*
X0182423Y0174042D02*
X0183160Y0174042D01*
X0183160Y0175641D02*
X0182423Y0175641D01*
X0182423Y0177239D02*
X0183160Y0177239D01*
X0183160Y0178838D02*
X0182423Y0178838D01*
X0182423Y0180436D02*
X0183160Y0180436D01*
X0183160Y0182035D02*
X0182423Y0182035D01*
X0182580Y0183633D02*
X0183160Y0183633D01*
X0183160Y0185232D02*
X0182623Y0185232D01*
X0183160Y0186830D02*
X0181945Y0186830D01*
X0178067Y0186830D02*
X0178067Y0186830D01*
X0178067Y0185232D02*
X0178067Y0185232D01*
X0166223Y0185232D02*
X0142864Y0185232D01*
X0142864Y0186830D02*
X0166223Y0186830D01*
X0166223Y0188429D02*
X0142864Y0188429D01*
X0146501Y0190027D02*
X0160499Y0190027D01*
X0159708Y0191626D02*
X0147292Y0191626D01*
X0147300Y0193224D02*
X0159700Y0193224D01*
X0159700Y0194823D02*
X0147300Y0194823D01*
X0147300Y0196421D02*
X0159700Y0196421D01*
X0159892Y0198020D02*
X0147108Y0198020D01*
X0146056Y0199618D02*
X0160944Y0199618D01*
X0166056Y0199618D02*
X0183101Y0199618D01*
X0182960Y0198020D02*
X0167108Y0198020D01*
X0167300Y0196421D02*
X0182960Y0196421D01*
X0189300Y0194823D02*
X0194901Y0194823D01*
X0194901Y0196421D02*
X0194040Y0196421D01*
X0194040Y0198020D02*
X0194901Y0198020D01*
X0194901Y0199618D02*
X0193899Y0199618D01*
X0194040Y0193224D02*
X0194901Y0193224D01*
X0194901Y0191626D02*
X0194040Y0191626D01*
X0192477Y0169195D02*
X0189300Y0169195D01*
X0189300Y0164652D01*
X0194040Y0164652D01*
X0194040Y0167632D01*
X0193917Y0168090D01*
X0193681Y0168500D01*
X0193345Y0168836D01*
X0192935Y0169073D01*
X0192477Y0169195D01*
X0194036Y0167648D02*
X0194901Y0167648D01*
X0194901Y0166050D02*
X0194040Y0166050D01*
X0194901Y0164451D02*
X0189300Y0164451D01*
X0189300Y0166050D02*
X0187700Y0166050D01*
X0187700Y0167648D02*
X0189300Y0167648D01*
X0187700Y0164451D02*
X0176796Y0164451D01*
X0180950Y0167648D02*
X0182964Y0167648D01*
X0194040Y0162853D02*
X0194901Y0162853D01*
X0194901Y0161254D02*
X0194040Y0161254D01*
X0166223Y0175641D02*
X0159041Y0175641D01*
X0158050Y0174650D02*
X0160950Y0177550D01*
X0160950Y0179600D01*
X0160950Y0181650D01*
X0158050Y0184550D01*
X0156000Y0184550D01*
X0156000Y0179600D01*
X0156000Y0179600D01*
X0160950Y0179600D01*
X0156000Y0179600D01*
X0156000Y0179600D01*
X0156000Y0179600D01*
X0151050Y0179600D01*
X0151050Y0181650D01*
X0153950Y0184550D01*
X0156000Y0184550D01*
X0156000Y0179600D01*
X0156000Y0174650D01*
X0158050Y0174650D01*
X0156000Y0174650D02*
X0156000Y0179600D01*
X0156000Y0179600D01*
X0151050Y0179600D01*
X0151050Y0177550D01*
X0153950Y0174650D01*
X0156000Y0174650D01*
X0156000Y0175641D02*
X0156000Y0175641D01*
X0156000Y0177239D02*
X0156000Y0177239D01*
X0156000Y0178838D02*
X0156000Y0178838D01*
X0156000Y0180436D02*
X0156000Y0180436D01*
X0156000Y0182035D02*
X0156000Y0182035D01*
X0156000Y0183633D02*
X0156000Y0183633D01*
X0158967Y0183633D02*
X0166223Y0183633D01*
X0166223Y0182035D02*
X0160566Y0182035D01*
X0160950Y0180436D02*
X0166223Y0180436D01*
X0166223Y0178838D02*
X0160950Y0178838D01*
X0160640Y0177239D02*
X0166223Y0177239D01*
X0152959Y0175641D02*
X0143758Y0175641D01*
X0145357Y0177239D02*
X0151360Y0177239D01*
X0151050Y0178838D02*
X0145750Y0178838D01*
X0145750Y0180436D02*
X0151050Y0180436D01*
X0151434Y0182035D02*
X0145283Y0182035D01*
X0143684Y0183633D02*
X0153033Y0183633D01*
X0138664Y0185232D02*
X0131452Y0185232D01*
X0130406Y0183633D02*
X0138316Y0183633D01*
X0136717Y0182035D02*
X0132005Y0182035D01*
X0132700Y0180436D02*
X0136250Y0180436D01*
X0136250Y0178838D02*
X0132700Y0178838D01*
X0132079Y0177239D02*
X0136643Y0177239D01*
X0138242Y0175641D02*
X0130480Y0175641D01*
X0126520Y0175641D02*
X0108081Y0175641D01*
X0109680Y0177239D02*
X0124921Y0177239D01*
X0124300Y0178838D02*
X0111278Y0178838D01*
X0120395Y0185232D02*
X0125512Y0185232D01*
X0127111Y0186830D02*
X0120850Y0186830D01*
X0120850Y0188429D02*
X0128709Y0188429D01*
X0120850Y0190027D02*
X0138664Y0190027D01*
X0138664Y0191626D02*
X0120850Y0191626D01*
X0120850Y0193224D02*
X0139410Y0193224D01*
X0116108Y0166050D02*
X0115989Y0166050D01*
X0105713Y0162853D02*
X0103494Y0162853D01*
X0103494Y0161254D02*
X0104539Y0161254D01*
X0104200Y0159656D02*
X0103494Y0159656D01*
X0103494Y0158057D02*
X0104493Y0158057D01*
X0103494Y0156459D02*
X0105602Y0156459D01*
X0103494Y0154860D02*
X0117455Y0154860D01*
X0118979Y0143670D02*
X0114748Y0143670D01*
X0117068Y0142072D02*
X0118979Y0142072D01*
X0118979Y0140473D02*
X0117784Y0140473D01*
X0117800Y0138875D02*
X0118979Y0138875D01*
X0118979Y0137276D02*
X0117184Y0137276D01*
X0118979Y0135678D02*
X0115106Y0135678D01*
X0104647Y0127685D02*
X0103494Y0127685D01*
X0103494Y0126087D02*
X0105973Y0126087D01*
X0104200Y0129284D02*
X0103494Y0129284D01*
X0103494Y0130882D02*
X0104385Y0130882D01*
X0089260Y0118094D02*
X0087522Y0118094D01*
X0086435Y0116496D02*
X0089451Y0116496D01*
X0089451Y0114897D02*
X0069710Y0114897D01*
X0069083Y0114270D02*
X0067260Y0114270D01*
X0067260Y0118670D01*
X0067260Y0118670D01*
X0067260Y0123070D01*
X0069083Y0123070D01*
X0071660Y0120493D01*
X0071660Y0118670D01*
X0067260Y0118670D01*
X0067260Y0118670D01*
X0067260Y0118670D01*
X0062860Y0118670D01*
X0062860Y0120493D01*
X0065437Y0123070D01*
X0067260Y0123070D01*
X0067260Y0118670D01*
X0071660Y0118670D01*
X0071660Y0116847D01*
X0069083Y0114270D01*
X0067260Y0114270D02*
X0067260Y0118670D01*
X0067260Y0118670D01*
X0062860Y0118670D01*
X0062860Y0116847D01*
X0065437Y0114270D01*
X0067260Y0114270D01*
X0067260Y0114897D02*
X0067260Y0114897D01*
X0067260Y0116496D02*
X0067260Y0116496D01*
X0067260Y0118094D02*
X0067260Y0118094D01*
X0067260Y0119693D02*
X0067260Y0119693D01*
X0067260Y0121291D02*
X0067260Y0121291D01*
X0067260Y0122890D02*
X0067260Y0122890D01*
X0069263Y0122890D02*
X0070685Y0122890D01*
X0070861Y0121291D02*
X0074555Y0121291D01*
X0074200Y0119693D02*
X0071660Y0119693D01*
X0071660Y0118094D02*
X0074478Y0118094D01*
X0075565Y0116496D02*
X0071308Y0116496D01*
X0074839Y0111979D02*
X0074200Y0110435D01*
X0074200Y0108765D01*
X0074839Y0107221D01*
X0076021Y0106039D01*
X0077565Y0105400D01*
X0084435Y0105400D01*
X0085979Y0106039D01*
X0087161Y0107221D01*
X0087800Y0108765D01*
X0087800Y0110435D01*
X0087161Y0111979D01*
X0085979Y0113161D01*
X0084435Y0113800D01*
X0077565Y0113800D01*
X0076021Y0113161D01*
X0074839Y0111979D01*
X0074724Y0111700D02*
X0066161Y0111700D01*
X0067759Y0110102D02*
X0074200Y0110102D01*
X0074308Y0108503D02*
X0069358Y0108503D01*
X0070956Y0106905D02*
X0075156Y0106905D01*
X0072555Y0105306D02*
X0089451Y0105306D01*
X0089451Y0103708D02*
X0085196Y0103708D01*
X0087216Y0102109D02*
X0089451Y0102109D01*
X0089451Y0100511D02*
X0087911Y0100511D01*
X0087946Y0098912D02*
X0089451Y0098912D01*
X0089451Y0097314D02*
X0087373Y0097314D01*
X0085667Y0095715D02*
X0089451Y0095715D01*
X0089451Y0094117D02*
X0073966Y0094117D01*
X0081000Y0095715D02*
X0081000Y0095715D01*
X0081000Y0097314D02*
X0081000Y0097314D01*
X0081000Y0098912D02*
X0081000Y0098912D01*
X0081000Y0100511D02*
X0081000Y0100511D01*
X0081000Y0102109D02*
X0081000Y0102109D01*
X0081000Y0103708D02*
X0081000Y0103708D01*
X0076804Y0103708D02*
X0073966Y0103708D01*
X0076355Y0113299D02*
X0064562Y0113299D01*
X0064810Y0114897D02*
X0062964Y0114897D01*
X0063212Y0116496D02*
X0062155Y0116496D01*
X0062155Y0118094D02*
X0062860Y0118094D01*
X0062860Y0119693D02*
X0062155Y0119693D01*
X0062155Y0121291D02*
X0063659Y0121291D01*
X0062155Y0122890D02*
X0065257Y0122890D01*
X0062155Y0124488D02*
X0069766Y0124488D01*
X0069766Y0126087D02*
X0062155Y0126087D01*
X0062155Y0127685D02*
X0069766Y0127685D01*
X0069766Y0129284D02*
X0062155Y0129284D01*
X0062155Y0130882D02*
X0069766Y0130882D01*
X0069766Y0132481D02*
X0062155Y0132481D01*
X0062155Y0134079D02*
X0069766Y0134079D01*
X0057955Y0121291D02*
X0055248Y0121291D01*
X0056847Y0119693D02*
X0057955Y0119693D01*
X0057955Y0118094D02*
X0057570Y0118094D01*
X0057570Y0116496D02*
X0057955Y0116496D01*
X0057955Y0114897D02*
X0056977Y0114897D01*
X0055378Y0113299D02*
X0058623Y0113299D01*
X0049300Y0126087D02*
X0042470Y0126087D01*
X0042470Y0127685D02*
X0049300Y0127685D01*
X0049744Y0129284D02*
X0042470Y0129284D01*
X0042470Y0130882D02*
X0051343Y0130882D01*
X0038270Y0130882D02*
X0035657Y0130882D01*
X0037256Y0129284D02*
X0038270Y0129284D01*
X0038270Y0127685D02*
X0037700Y0127685D01*
X0037700Y0126087D02*
X0038270Y0126087D01*
X0038270Y0124488D02*
X0036828Y0124488D01*
X0038270Y0122890D02*
X0022296Y0122890D01*
X0023587Y0121291D02*
X0031492Y0121291D01*
X0029893Y0119693D02*
X0024070Y0119693D01*
X0023987Y0118094D02*
X0029170Y0118094D01*
X0029170Y0116496D02*
X0023261Y0116496D01*
X0021079Y0114897D02*
X0029763Y0114897D01*
X0035378Y0113299D02*
X0038270Y0113299D01*
X0038270Y0114897D02*
X0036977Y0114897D01*
X0037570Y0116496D02*
X0038270Y0116496D01*
X0038270Y0118094D02*
X0037570Y0118094D01*
X0038270Y0119693D02*
X0036847Y0119693D01*
X0038270Y0121291D02*
X0035248Y0121291D01*
X0029300Y0108503D02*
X0020400Y0108503D01*
X0020400Y0108840D02*
X0020400Y0107017D01*
X0017823Y0104440D01*
X0016000Y0104440D01*
X0016000Y0108840D01*
X0016000Y0108840D01*
X0016000Y0108840D01*
X0011600Y0108840D01*
X0011600Y0110663D01*
X0014177Y0113240D01*
X0016000Y0113240D01*
X0016000Y0108840D01*
X0020400Y0108840D01*
X0020287Y0106905D02*
X0029300Y0106905D01*
X0029354Y0105306D02*
X0018689Y0105306D01*
X0017740Y0103040D02*
X0014260Y0103040D01*
X0011800Y0100580D01*
X0011800Y0097100D01*
X0014260Y0094640D01*
X0017740Y0094640D01*
X0020200Y0097100D01*
X0020200Y0100580D01*
X0017740Y0103040D01*
X0018670Y0102109D02*
X0031529Y0102109D01*
X0030953Y0103708D02*
X0005800Y0103708D01*
X0005800Y0105306D02*
X0013311Y0105306D01*
X0014177Y0104440D02*
X0011600Y0107017D01*
X0011600Y0108840D01*
X0016000Y0108840D01*
X0016000Y0108840D01*
X0016000Y0104440D01*
X0014177Y0104440D01*
X0016000Y0105306D02*
X0016000Y0105306D01*
X0016000Y0106905D02*
X0016000Y0106905D01*
X0016000Y0108503D02*
X0016000Y0108503D01*
X0016000Y0110102D02*
X0016000Y0110102D01*
X0016000Y0111700D02*
X0016000Y0111700D01*
X0012638Y0111700D02*
X0005800Y0111700D01*
X0005800Y0110102D02*
X0011600Y0110102D01*
X0011600Y0108503D02*
X0005800Y0108503D01*
X0005800Y0106905D02*
X0011713Y0106905D01*
X0013330Y0102109D02*
X0005800Y0102109D01*
X0005800Y0100511D02*
X0011800Y0100511D01*
X0011800Y0098912D02*
X0005800Y0098912D01*
X0005800Y0097314D02*
X0011800Y0097314D01*
X0013185Y0095715D02*
X0005800Y0095715D01*
X0005800Y0094117D02*
X0031364Y0094117D01*
X0029765Y0095715D02*
X0018815Y0095715D01*
X0020200Y0097314D02*
X0029190Y0097314D01*
X0029190Y0098912D02*
X0020200Y0098912D01*
X0020200Y0100511D02*
X0029931Y0100511D01*
X0035416Y0094117D02*
X0044176Y0094117D01*
X0044176Y0095715D02*
X0037015Y0095715D01*
X0044176Y0092518D02*
X0005800Y0092518D01*
X0005800Y0090920D02*
X0044176Y0090920D01*
X0044176Y0089321D02*
X0005800Y0089321D01*
X0005800Y0087723D02*
X0044176Y0087723D01*
X0044176Y0086124D02*
X0005800Y0086124D01*
X0005800Y0084526D02*
X0044176Y0084526D01*
X0044176Y0082927D02*
X0005800Y0082927D01*
X0005800Y0081329D02*
X0045317Y0081329D01*
X0046916Y0079730D02*
X0005800Y0079730D01*
X0005800Y0078132D02*
X0048514Y0078132D01*
X0050113Y0076533D02*
X0005800Y0076533D01*
X0005800Y0074934D02*
X0051711Y0074934D01*
X0053310Y0073336D02*
X0005800Y0073336D01*
X0005800Y0071737D02*
X0054908Y0071737D01*
X0056507Y0070139D02*
X0005800Y0070139D01*
X0005800Y0068540D02*
X0058105Y0068540D01*
X0059704Y0066942D02*
X0005800Y0066942D01*
X0005800Y0065343D02*
X0061302Y0065343D01*
X0062361Y0063745D02*
X0005800Y0063745D01*
X0005800Y0062146D02*
X0062689Y0062146D01*
X0064055Y0060548D02*
X0005800Y0060548D01*
X0005800Y0058949D02*
X0067798Y0058949D01*
X0067798Y0057351D02*
X0005800Y0057351D01*
X0005800Y0055752D02*
X0067798Y0055752D01*
X0067798Y0054154D02*
X0005800Y0054154D01*
X0005800Y0052555D02*
X0067798Y0052555D01*
X0067798Y0050957D02*
X0005800Y0050957D01*
X0005800Y0049358D02*
X0067798Y0049358D01*
X0067798Y0047760D02*
X0005800Y0047760D01*
X0005800Y0046161D02*
X0068674Y0046161D01*
X0070272Y0044563D02*
X0005800Y0044563D01*
X0005800Y0042964D02*
X0071871Y0042964D01*
X0073469Y0041366D02*
X0005800Y0041366D01*
X0005800Y0039767D02*
X0074200Y0039767D01*
X0074447Y0038169D02*
X0005800Y0038169D01*
X0005800Y0036570D02*
X0075490Y0036570D01*
X0077640Y0034972D02*
X0005800Y0034972D01*
X0005800Y0033373D02*
X0077640Y0033373D01*
X0077640Y0031775D02*
X0005800Y0031775D01*
X0005800Y0030176D02*
X0077640Y0030176D01*
X0077640Y0028578D02*
X0005800Y0028578D01*
X0005800Y0026979D02*
X0075019Y0026979D01*
X0073772Y0025381D02*
X0005800Y0025381D01*
X0005800Y0023782D02*
X0073380Y0023782D01*
X0073621Y0022184D02*
X0005800Y0022184D01*
X0005800Y0020585D02*
X0074655Y0020585D01*
X0076714Y0055752D02*
X0071998Y0055752D01*
X0071998Y0057351D02*
X0074786Y0057351D01*
X0074200Y0058949D02*
X0071998Y0058949D01*
X0071998Y0060548D02*
X0074247Y0060548D01*
X0075007Y0062146D02*
X0071998Y0062146D01*
X0067798Y0066942D02*
X0067433Y0066942D01*
X0073966Y0076533D02*
X0075527Y0076533D01*
X0074462Y0078132D02*
X0073966Y0078132D01*
X0073966Y0079730D02*
X0074200Y0079730D01*
X0073966Y0081329D02*
X0074570Y0081329D01*
X0073966Y0082927D02*
X0075787Y0082927D01*
X0100722Y0087723D02*
X0104632Y0087723D01*
X0104200Y0089321D02*
X0101057Y0089321D01*
X0102100Y0090920D02*
X0104401Y0090920D01*
X0089451Y0106905D02*
X0086844Y0106905D01*
X0087692Y0108503D02*
X0089451Y0108503D01*
X0089451Y0110102D02*
X0087800Y0110102D01*
X0087276Y0111700D02*
X0089451Y0111700D01*
X0089451Y0113299D02*
X0085645Y0113299D01*
X0103494Y0146868D02*
X0105193Y0146868D01*
X0104324Y0148466D02*
X0103494Y0148466D01*
X0103494Y0150065D02*
X0104200Y0150065D01*
X0104709Y0151663D02*
X0103494Y0151663D01*
X0103494Y0153262D02*
X0106265Y0153262D01*
X0084425Y0175641D02*
X0075935Y0175641D01*
X0075935Y0177239D02*
X0085514Y0177239D01*
X0085514Y0178838D02*
X0075935Y0178838D01*
X0078342Y0180436D02*
X0083658Y0180436D01*
X0082060Y0182035D02*
X0079940Y0182035D01*
X0080600Y0183633D02*
X0081400Y0183633D01*
X0081400Y0185232D02*
X0080600Y0185232D01*
X0080275Y0186830D02*
X0081725Y0186830D01*
X0083323Y0188429D02*
X0078677Y0188429D01*
X0077905Y0190000D02*
X0080600Y0192695D01*
X0080600Y0196505D01*
X0077905Y0199200D01*
X0074095Y0199200D01*
X0071400Y0196505D01*
X0071400Y0192695D01*
X0074095Y0190000D01*
X0077905Y0190000D01*
X0077933Y0190027D02*
X0084540Y0190027D01*
X0084876Y0189918D02*
X0085622Y0189800D01*
X0085800Y0189800D01*
X0085800Y0194400D01*
X0081200Y0194400D01*
X0081200Y0194222D01*
X0081318Y0193476D01*
X0081552Y0192757D01*
X0081895Y0192084D01*
X0082339Y0191473D01*
X0082873Y0190939D01*
X0083484Y0190495D01*
X0084157Y0190152D01*
X0084876Y0189918D01*
X0085800Y0190027D02*
X0086200Y0190027D01*
X0086200Y0191626D02*
X0085800Y0191626D01*
X0085800Y0193224D02*
X0086200Y0193224D01*
X0086200Y0194823D02*
X0085800Y0194823D01*
X0085800Y0196421D02*
X0086200Y0196421D01*
X0086200Y0198020D02*
X0085800Y0198020D01*
X0082632Y0198020D02*
X0079085Y0198020D01*
X0080600Y0196421D02*
X0081545Y0196421D01*
X0081200Y0194823D02*
X0080600Y0194823D01*
X0080600Y0193224D02*
X0081400Y0193224D01*
X0082228Y0191626D02*
X0079531Y0191626D01*
X0074067Y0190027D02*
X0067933Y0190027D01*
X0067905Y0190000D02*
X0070600Y0192695D01*
X0070600Y0196505D01*
X0067905Y0199200D01*
X0064095Y0199200D01*
X0061400Y0196505D01*
X0061400Y0192695D01*
X0064095Y0190000D01*
X0067905Y0190000D01*
X0068677Y0188429D02*
X0073323Y0188429D01*
X0071725Y0186830D02*
X0070275Y0186830D01*
X0070600Y0185232D02*
X0071400Y0185232D01*
X0071400Y0183633D02*
X0070600Y0183633D01*
X0069940Y0182035D02*
X0071735Y0182035D01*
X0071735Y0180436D02*
X0070260Y0180436D01*
X0067517Y0177239D02*
X0059677Y0177239D01*
X0061276Y0175641D02*
X0069115Y0175641D01*
X0069766Y0174042D02*
X0062874Y0174042D01*
X0064473Y0172444D02*
X0069766Y0172444D01*
X0069766Y0170845D02*
X0066071Y0170845D01*
X0067670Y0169247D02*
X0069766Y0169247D01*
X0069766Y0167648D02*
X0069268Y0167648D01*
X0066525Y0164451D02*
X0065762Y0164451D01*
X0066191Y0162853D02*
X0067798Y0162853D01*
X0067798Y0161254D02*
X0066600Y0161254D01*
X0066600Y0159656D02*
X0067798Y0159656D01*
X0067798Y0158057D02*
X0066600Y0158057D01*
X0066220Y0156459D02*
X0067798Y0156459D01*
X0067582Y0154860D02*
X0065792Y0154860D01*
X0064927Y0166050D02*
X0064903Y0166050D01*
X0075935Y0174042D02*
X0082827Y0174042D01*
X0065918Y0178838D02*
X0048376Y0178838D01*
X0050800Y0180436D02*
X0051200Y0180436D01*
X0051200Y0179800D02*
X0052988Y0179800D01*
X0055800Y0182612D01*
X0055800Y0184400D01*
X0051200Y0184400D01*
X0051200Y0179800D01*
X0051200Y0182035D02*
X0050800Y0182035D01*
X0050800Y0183633D02*
X0051200Y0183633D01*
X0051200Y0184800D02*
X0055800Y0184800D01*
X0055800Y0186588D01*
X0052988Y0189400D01*
X0051200Y0189400D01*
X0051200Y0184800D01*
X0051200Y0185232D02*
X0050800Y0185232D01*
X0050800Y0186830D02*
X0051200Y0186830D01*
X0051200Y0188429D02*
X0050800Y0188429D01*
X0049095Y0190000D02*
X0052905Y0190000D01*
X0055600Y0192695D01*
X0055600Y0196505D01*
X0052905Y0199200D01*
X0049095Y0199200D01*
X0046400Y0196505D01*
X0046400Y0192695D01*
X0049095Y0190000D01*
X0049067Y0190027D02*
X0048376Y0190027D01*
X0047469Y0191626D02*
X0047259Y0191626D01*
X0046400Y0193224D02*
X0045660Y0193224D01*
X0045600Y0194823D02*
X0046400Y0194823D01*
X0046400Y0196421D02*
X0045600Y0196421D01*
X0044085Y0198020D02*
X0047914Y0198020D01*
X0054085Y0198020D02*
X0062914Y0198020D01*
X0061400Y0196421D02*
X0055600Y0196421D01*
X0055600Y0194823D02*
X0061400Y0194823D01*
X0061400Y0193224D02*
X0055600Y0193224D01*
X0054531Y0191626D02*
X0062469Y0191626D01*
X0064067Y0190027D02*
X0052933Y0190027D01*
X0053959Y0188429D02*
X0063323Y0188429D01*
X0061725Y0186830D02*
X0055558Y0186830D01*
X0055800Y0185232D02*
X0061400Y0185232D01*
X0061400Y0183633D02*
X0055800Y0183633D01*
X0055223Y0182035D02*
X0062060Y0182035D01*
X0063658Y0180436D02*
X0053624Y0180436D01*
X0044176Y0188429D02*
X0043677Y0188429D01*
X0039067Y0190027D02*
X0038533Y0190027D01*
X0037469Y0191626D02*
X0037416Y0191626D01*
X0036400Y0193224D02*
X0035818Y0193224D01*
X0035600Y0194823D02*
X0036400Y0194823D01*
X0036400Y0196421D02*
X0035600Y0196421D01*
X0034085Y0198020D02*
X0037914Y0198020D01*
X0033075Y0190027D02*
X0032933Y0190027D01*
X0033677Y0188429D02*
X0034333Y0188429D01*
X0029067Y0190027D02*
X0022933Y0190027D01*
X0023677Y0188429D02*
X0028323Y0188429D01*
X0026725Y0186830D02*
X0025275Y0186830D01*
X0025600Y0185232D02*
X0026400Y0185232D01*
X0026400Y0183633D02*
X0025600Y0183633D01*
X0024940Y0182035D02*
X0027060Y0182035D01*
X0028658Y0180436D02*
X0023342Y0180436D01*
X0033342Y0180436D02*
X0034333Y0180436D01*
X0034422Y0178838D02*
X0005800Y0178838D01*
X0005800Y0180436D02*
X0008658Y0180436D01*
X0007060Y0182035D02*
X0005800Y0182035D01*
X0005800Y0183633D02*
X0006400Y0183633D01*
X0006400Y0185232D02*
X0005800Y0185232D01*
X0005800Y0186830D02*
X0006725Y0186830D01*
X0005800Y0188429D02*
X0008323Y0188429D01*
X0009067Y0190027D02*
X0005800Y0190027D01*
X0005800Y0191626D02*
X0007469Y0191626D01*
X0006400Y0193224D02*
X0005800Y0193224D01*
X0005800Y0194823D02*
X0006400Y0194823D01*
X0006400Y0196421D02*
X0005800Y0196421D01*
X0024085Y0198020D02*
X0027914Y0198020D01*
X0026400Y0196421D02*
X0025600Y0196421D01*
X0025600Y0194823D02*
X0026400Y0194823D01*
X0026400Y0193224D02*
X0025600Y0193224D01*
X0024531Y0191626D02*
X0027469Y0191626D01*
X0036021Y0177239D02*
X0005800Y0177239D01*
X0005800Y0175641D02*
X0036302Y0175641D01*
X0040502Y0156459D02*
X0040780Y0156459D01*
X0040502Y0154860D02*
X0041208Y0154860D01*
X0040502Y0153262D02*
X0042033Y0153262D01*
X0041946Y0151663D02*
X0042956Y0151663D01*
X0042470Y0150065D02*
X0044509Y0150065D01*
X0042470Y0148466D02*
X0046585Y0148466D01*
X0050404Y0146868D02*
X0042470Y0146868D01*
X0010236Y0132481D02*
X0005800Y0132481D01*
X0005800Y0130882D02*
X0009184Y0130882D01*
X0008870Y0129284D02*
X0005800Y0129284D01*
X0005800Y0127685D02*
X0009123Y0127685D01*
X0010088Y0126087D02*
X0005800Y0126087D01*
X0069531Y0191626D02*
X0072469Y0191626D01*
X0071400Y0193224D02*
X0070600Y0193224D01*
X0070600Y0194823D02*
X0071400Y0194823D01*
X0071400Y0196421D02*
X0070600Y0196421D01*
X0069085Y0198020D02*
X0072914Y0198020D01*
X0193583Y0129284D02*
X0194901Y0129284D01*
X0194901Y0121291D02*
X0194322Y0121291D01*
X0194901Y0097314D02*
X0192885Y0097314D01*
X0194623Y0089321D02*
X0194901Y0089321D01*
X0183838Y0063745D02*
X0182234Y0063745D01*
X0182234Y0062146D02*
X0184394Y0062146D01*
X0185238Y0060548D02*
X0182234Y0060548D01*
X0182234Y0058949D02*
X0185535Y0058949D01*
X0184518Y0057351D02*
X0182234Y0057351D01*
X0182234Y0055752D02*
X0183855Y0055752D01*
X0183838Y0054154D02*
X0182234Y0054154D01*
X0182234Y0052555D02*
X0183964Y0052555D01*
X0184626Y0050957D02*
X0182234Y0050957D01*
X0182234Y0049358D02*
X0185798Y0049358D01*
X0188038Y0047760D02*
X0182234Y0047760D01*
X0182234Y0046161D02*
X0194901Y0046161D01*
X0194901Y0044563D02*
X0182234Y0044563D01*
X0182234Y0042964D02*
X0194901Y0042964D01*
X0194901Y0041366D02*
X0182234Y0041366D01*
X0182234Y0039767D02*
X0188057Y0039767D01*
X0193943Y0039767D02*
X0194901Y0039767D01*
X0194901Y0047760D02*
X0193962Y0047760D01*
D27*
X0097457Y0089246D03*
X0065961Y0063655D03*
X0040370Y0101057D03*
X0148638Y0144364D03*
X0170291Y0167986D03*
X0178165Y0169954D03*
X0180134Y0144364D03*
M02*
