G75*
%MOIN*%
%OFA0B0*%
%FSLAX25Y25*%
%IPPOS*%
%LPD*%
%AMOC8*
5,1,8,0,0,1.08239X$1,22.5*
%
%ADD10C,0.00800*%
%ADD11C,0.00600*%
%ADD12C,0.00200*%
%ADD13C,0.01200*%
%ADD14C,0.00500*%
%ADD15C,0.01000*%
%ADD16R,0.01500X0.04000*%
D10*
X0084000Y0034600D02*
X0084000Y0035600D01*
X0084000Y0034600D02*
X0108000Y0034600D01*
X0108000Y0035600D01*
X0123205Y0039600D02*
X0123209Y0039914D01*
X0123220Y0040228D01*
X0123240Y0040541D01*
X0123267Y0040854D01*
X0123301Y0041166D01*
X0123343Y0041477D01*
X0123393Y0041787D01*
X0123451Y0042096D01*
X0123516Y0042403D01*
X0123588Y0042709D01*
X0123668Y0043013D01*
X0123756Y0043314D01*
X0123851Y0043614D01*
X0123953Y0043911D01*
X0124062Y0044205D01*
X0124179Y0044496D01*
X0124303Y0044785D01*
X0124433Y0045071D01*
X0124571Y0045353D01*
X0124716Y0045632D01*
X0124867Y0045907D01*
X0125025Y0046178D01*
X0125190Y0046445D01*
X0125361Y0046709D01*
X0125539Y0046967D01*
X0125723Y0047222D01*
X0125913Y0047472D01*
X0126109Y0047717D01*
X0126312Y0047957D01*
X0126520Y0048193D01*
X0126733Y0048423D01*
X0126953Y0048647D01*
X0127177Y0048867D01*
X0127407Y0049080D01*
X0127643Y0049288D01*
X0127883Y0049491D01*
X0128128Y0049687D01*
X0128378Y0049877D01*
X0128633Y0050061D01*
X0128891Y0050239D01*
X0129155Y0050410D01*
X0129422Y0050575D01*
X0129693Y0050733D01*
X0129968Y0050884D01*
X0130247Y0051029D01*
X0130529Y0051167D01*
X0130815Y0051297D01*
X0131104Y0051421D01*
X0131395Y0051538D01*
X0131689Y0051647D01*
X0131986Y0051749D01*
X0132286Y0051844D01*
X0132587Y0051932D01*
X0132891Y0052012D01*
X0133197Y0052084D01*
X0133504Y0052149D01*
X0133813Y0052207D01*
X0134123Y0052257D01*
X0134434Y0052299D01*
X0134746Y0052333D01*
X0135059Y0052360D01*
X0135372Y0052380D01*
X0135686Y0052391D01*
X0136000Y0052395D01*
X0136314Y0052391D01*
X0136628Y0052380D01*
X0136941Y0052360D01*
X0137254Y0052333D01*
X0137566Y0052299D01*
X0137877Y0052257D01*
X0138187Y0052207D01*
X0138496Y0052149D01*
X0138803Y0052084D01*
X0139109Y0052012D01*
X0139413Y0051932D01*
X0139714Y0051844D01*
X0140014Y0051749D01*
X0140311Y0051647D01*
X0140605Y0051538D01*
X0140896Y0051421D01*
X0141185Y0051297D01*
X0141471Y0051167D01*
X0141753Y0051029D01*
X0142032Y0050884D01*
X0142307Y0050733D01*
X0142578Y0050575D01*
X0142845Y0050410D01*
X0143109Y0050239D01*
X0143367Y0050061D01*
X0143622Y0049877D01*
X0143872Y0049687D01*
X0144117Y0049491D01*
X0144357Y0049288D01*
X0144593Y0049080D01*
X0144823Y0048867D01*
X0145047Y0048647D01*
X0145267Y0048423D01*
X0145480Y0048193D01*
X0145688Y0047957D01*
X0145891Y0047717D01*
X0146087Y0047472D01*
X0146277Y0047222D01*
X0146461Y0046967D01*
X0146639Y0046709D01*
X0146810Y0046445D01*
X0146975Y0046178D01*
X0147133Y0045907D01*
X0147284Y0045632D01*
X0147429Y0045353D01*
X0147567Y0045071D01*
X0147697Y0044785D01*
X0147821Y0044496D01*
X0147938Y0044205D01*
X0148047Y0043911D01*
X0148149Y0043614D01*
X0148244Y0043314D01*
X0148332Y0043013D01*
X0148412Y0042709D01*
X0148484Y0042403D01*
X0148549Y0042096D01*
X0148607Y0041787D01*
X0148657Y0041477D01*
X0148699Y0041166D01*
X0148733Y0040854D01*
X0148760Y0040541D01*
X0148780Y0040228D01*
X0148791Y0039914D01*
X0148795Y0039600D01*
X0148791Y0039286D01*
X0148780Y0038972D01*
X0148760Y0038659D01*
X0148733Y0038346D01*
X0148699Y0038034D01*
X0148657Y0037723D01*
X0148607Y0037413D01*
X0148549Y0037104D01*
X0148484Y0036797D01*
X0148412Y0036491D01*
X0148332Y0036187D01*
X0148244Y0035886D01*
X0148149Y0035586D01*
X0148047Y0035289D01*
X0147938Y0034995D01*
X0147821Y0034704D01*
X0147697Y0034415D01*
X0147567Y0034129D01*
X0147429Y0033847D01*
X0147284Y0033568D01*
X0147133Y0033293D01*
X0146975Y0033022D01*
X0146810Y0032755D01*
X0146639Y0032491D01*
X0146461Y0032233D01*
X0146277Y0031978D01*
X0146087Y0031728D01*
X0145891Y0031483D01*
X0145688Y0031243D01*
X0145480Y0031007D01*
X0145267Y0030777D01*
X0145047Y0030553D01*
X0144823Y0030333D01*
X0144593Y0030120D01*
X0144357Y0029912D01*
X0144117Y0029709D01*
X0143872Y0029513D01*
X0143622Y0029323D01*
X0143367Y0029139D01*
X0143109Y0028961D01*
X0142845Y0028790D01*
X0142578Y0028625D01*
X0142307Y0028467D01*
X0142032Y0028316D01*
X0141753Y0028171D01*
X0141471Y0028033D01*
X0141185Y0027903D01*
X0140896Y0027779D01*
X0140605Y0027662D01*
X0140311Y0027553D01*
X0140014Y0027451D01*
X0139714Y0027356D01*
X0139413Y0027268D01*
X0139109Y0027188D01*
X0138803Y0027116D01*
X0138496Y0027051D01*
X0138187Y0026993D01*
X0137877Y0026943D01*
X0137566Y0026901D01*
X0137254Y0026867D01*
X0136941Y0026840D01*
X0136628Y0026820D01*
X0136314Y0026809D01*
X0136000Y0026805D01*
X0135686Y0026809D01*
X0135372Y0026820D01*
X0135059Y0026840D01*
X0134746Y0026867D01*
X0134434Y0026901D01*
X0134123Y0026943D01*
X0133813Y0026993D01*
X0133504Y0027051D01*
X0133197Y0027116D01*
X0132891Y0027188D01*
X0132587Y0027268D01*
X0132286Y0027356D01*
X0131986Y0027451D01*
X0131689Y0027553D01*
X0131395Y0027662D01*
X0131104Y0027779D01*
X0130815Y0027903D01*
X0130529Y0028033D01*
X0130247Y0028171D01*
X0129968Y0028316D01*
X0129693Y0028467D01*
X0129422Y0028625D01*
X0129155Y0028790D01*
X0128891Y0028961D01*
X0128633Y0029139D01*
X0128378Y0029323D01*
X0128128Y0029513D01*
X0127883Y0029709D01*
X0127643Y0029912D01*
X0127407Y0030120D01*
X0127177Y0030333D01*
X0126953Y0030553D01*
X0126733Y0030777D01*
X0126520Y0031007D01*
X0126312Y0031243D01*
X0126109Y0031483D01*
X0125913Y0031728D01*
X0125723Y0031978D01*
X0125539Y0032233D01*
X0125361Y0032491D01*
X0125190Y0032755D01*
X0125025Y0033022D01*
X0124867Y0033293D01*
X0124716Y0033568D01*
X0124571Y0033847D01*
X0124433Y0034129D01*
X0124303Y0034415D01*
X0124179Y0034704D01*
X0124062Y0034995D01*
X0123953Y0035289D01*
X0123851Y0035586D01*
X0123756Y0035886D01*
X0123668Y0036187D01*
X0123588Y0036491D01*
X0123516Y0036797D01*
X0123451Y0037104D01*
X0123393Y0037413D01*
X0123343Y0037723D01*
X0123301Y0038034D01*
X0123267Y0038346D01*
X0123240Y0038659D01*
X0123220Y0038972D01*
X0123209Y0039286D01*
X0123205Y0039600D01*
X0138500Y0034600D02*
X0143500Y0034600D01*
X0161472Y0010978D02*
X0165409Y0010978D01*
X0161472Y0010978D02*
X0161472Y0058222D01*
X0165409Y0058222D01*
X0165409Y0060978D02*
X0161472Y0060978D01*
X0161472Y0108222D01*
X0165409Y0108222D01*
X0165409Y0110978D02*
X0161472Y0110978D01*
X0161472Y0158222D01*
X0165409Y0158222D01*
X0177220Y0158222D02*
X0204780Y0158222D01*
X0204780Y0110978D01*
X0177220Y0110978D01*
X0177220Y0108222D02*
X0204780Y0108222D01*
X0204780Y0060978D01*
X0177220Y0060978D01*
X0177220Y0058222D02*
X0204780Y0058222D01*
X0204780Y0010978D01*
X0177220Y0010978D01*
X0143500Y0082100D02*
X0138500Y0082100D01*
X0123205Y0087100D02*
X0123209Y0087414D01*
X0123220Y0087728D01*
X0123240Y0088041D01*
X0123267Y0088354D01*
X0123301Y0088666D01*
X0123343Y0088977D01*
X0123393Y0089287D01*
X0123451Y0089596D01*
X0123516Y0089903D01*
X0123588Y0090209D01*
X0123668Y0090513D01*
X0123756Y0090814D01*
X0123851Y0091114D01*
X0123953Y0091411D01*
X0124062Y0091705D01*
X0124179Y0091996D01*
X0124303Y0092285D01*
X0124433Y0092571D01*
X0124571Y0092853D01*
X0124716Y0093132D01*
X0124867Y0093407D01*
X0125025Y0093678D01*
X0125190Y0093945D01*
X0125361Y0094209D01*
X0125539Y0094467D01*
X0125723Y0094722D01*
X0125913Y0094972D01*
X0126109Y0095217D01*
X0126312Y0095457D01*
X0126520Y0095693D01*
X0126733Y0095923D01*
X0126953Y0096147D01*
X0127177Y0096367D01*
X0127407Y0096580D01*
X0127643Y0096788D01*
X0127883Y0096991D01*
X0128128Y0097187D01*
X0128378Y0097377D01*
X0128633Y0097561D01*
X0128891Y0097739D01*
X0129155Y0097910D01*
X0129422Y0098075D01*
X0129693Y0098233D01*
X0129968Y0098384D01*
X0130247Y0098529D01*
X0130529Y0098667D01*
X0130815Y0098797D01*
X0131104Y0098921D01*
X0131395Y0099038D01*
X0131689Y0099147D01*
X0131986Y0099249D01*
X0132286Y0099344D01*
X0132587Y0099432D01*
X0132891Y0099512D01*
X0133197Y0099584D01*
X0133504Y0099649D01*
X0133813Y0099707D01*
X0134123Y0099757D01*
X0134434Y0099799D01*
X0134746Y0099833D01*
X0135059Y0099860D01*
X0135372Y0099880D01*
X0135686Y0099891D01*
X0136000Y0099895D01*
X0136314Y0099891D01*
X0136628Y0099880D01*
X0136941Y0099860D01*
X0137254Y0099833D01*
X0137566Y0099799D01*
X0137877Y0099757D01*
X0138187Y0099707D01*
X0138496Y0099649D01*
X0138803Y0099584D01*
X0139109Y0099512D01*
X0139413Y0099432D01*
X0139714Y0099344D01*
X0140014Y0099249D01*
X0140311Y0099147D01*
X0140605Y0099038D01*
X0140896Y0098921D01*
X0141185Y0098797D01*
X0141471Y0098667D01*
X0141753Y0098529D01*
X0142032Y0098384D01*
X0142307Y0098233D01*
X0142578Y0098075D01*
X0142845Y0097910D01*
X0143109Y0097739D01*
X0143367Y0097561D01*
X0143622Y0097377D01*
X0143872Y0097187D01*
X0144117Y0096991D01*
X0144357Y0096788D01*
X0144593Y0096580D01*
X0144823Y0096367D01*
X0145047Y0096147D01*
X0145267Y0095923D01*
X0145480Y0095693D01*
X0145688Y0095457D01*
X0145891Y0095217D01*
X0146087Y0094972D01*
X0146277Y0094722D01*
X0146461Y0094467D01*
X0146639Y0094209D01*
X0146810Y0093945D01*
X0146975Y0093678D01*
X0147133Y0093407D01*
X0147284Y0093132D01*
X0147429Y0092853D01*
X0147567Y0092571D01*
X0147697Y0092285D01*
X0147821Y0091996D01*
X0147938Y0091705D01*
X0148047Y0091411D01*
X0148149Y0091114D01*
X0148244Y0090814D01*
X0148332Y0090513D01*
X0148412Y0090209D01*
X0148484Y0089903D01*
X0148549Y0089596D01*
X0148607Y0089287D01*
X0148657Y0088977D01*
X0148699Y0088666D01*
X0148733Y0088354D01*
X0148760Y0088041D01*
X0148780Y0087728D01*
X0148791Y0087414D01*
X0148795Y0087100D01*
X0148791Y0086786D01*
X0148780Y0086472D01*
X0148760Y0086159D01*
X0148733Y0085846D01*
X0148699Y0085534D01*
X0148657Y0085223D01*
X0148607Y0084913D01*
X0148549Y0084604D01*
X0148484Y0084297D01*
X0148412Y0083991D01*
X0148332Y0083687D01*
X0148244Y0083386D01*
X0148149Y0083086D01*
X0148047Y0082789D01*
X0147938Y0082495D01*
X0147821Y0082204D01*
X0147697Y0081915D01*
X0147567Y0081629D01*
X0147429Y0081347D01*
X0147284Y0081068D01*
X0147133Y0080793D01*
X0146975Y0080522D01*
X0146810Y0080255D01*
X0146639Y0079991D01*
X0146461Y0079733D01*
X0146277Y0079478D01*
X0146087Y0079228D01*
X0145891Y0078983D01*
X0145688Y0078743D01*
X0145480Y0078507D01*
X0145267Y0078277D01*
X0145047Y0078053D01*
X0144823Y0077833D01*
X0144593Y0077620D01*
X0144357Y0077412D01*
X0144117Y0077209D01*
X0143872Y0077013D01*
X0143622Y0076823D01*
X0143367Y0076639D01*
X0143109Y0076461D01*
X0142845Y0076290D01*
X0142578Y0076125D01*
X0142307Y0075967D01*
X0142032Y0075816D01*
X0141753Y0075671D01*
X0141471Y0075533D01*
X0141185Y0075403D01*
X0140896Y0075279D01*
X0140605Y0075162D01*
X0140311Y0075053D01*
X0140014Y0074951D01*
X0139714Y0074856D01*
X0139413Y0074768D01*
X0139109Y0074688D01*
X0138803Y0074616D01*
X0138496Y0074551D01*
X0138187Y0074493D01*
X0137877Y0074443D01*
X0137566Y0074401D01*
X0137254Y0074367D01*
X0136941Y0074340D01*
X0136628Y0074320D01*
X0136314Y0074309D01*
X0136000Y0074305D01*
X0135686Y0074309D01*
X0135372Y0074320D01*
X0135059Y0074340D01*
X0134746Y0074367D01*
X0134434Y0074401D01*
X0134123Y0074443D01*
X0133813Y0074493D01*
X0133504Y0074551D01*
X0133197Y0074616D01*
X0132891Y0074688D01*
X0132587Y0074768D01*
X0132286Y0074856D01*
X0131986Y0074951D01*
X0131689Y0075053D01*
X0131395Y0075162D01*
X0131104Y0075279D01*
X0130815Y0075403D01*
X0130529Y0075533D01*
X0130247Y0075671D01*
X0129968Y0075816D01*
X0129693Y0075967D01*
X0129422Y0076125D01*
X0129155Y0076290D01*
X0128891Y0076461D01*
X0128633Y0076639D01*
X0128378Y0076823D01*
X0128128Y0077013D01*
X0127883Y0077209D01*
X0127643Y0077412D01*
X0127407Y0077620D01*
X0127177Y0077833D01*
X0126953Y0078053D01*
X0126733Y0078277D01*
X0126520Y0078507D01*
X0126312Y0078743D01*
X0126109Y0078983D01*
X0125913Y0079228D01*
X0125723Y0079478D01*
X0125539Y0079733D01*
X0125361Y0079991D01*
X0125190Y0080255D01*
X0125025Y0080522D01*
X0124867Y0080793D01*
X0124716Y0081068D01*
X0124571Y0081347D01*
X0124433Y0081629D01*
X0124303Y0081915D01*
X0124179Y0082204D01*
X0124062Y0082495D01*
X0123953Y0082789D01*
X0123851Y0083086D01*
X0123756Y0083386D01*
X0123668Y0083687D01*
X0123588Y0083991D01*
X0123516Y0084297D01*
X0123451Y0084604D01*
X0123393Y0084913D01*
X0123343Y0085223D01*
X0123301Y0085534D01*
X0123267Y0085846D01*
X0123240Y0086159D01*
X0123220Y0086472D01*
X0123209Y0086786D01*
X0123205Y0087100D01*
X0138500Y0129600D02*
X0143500Y0129600D01*
X0123205Y0134600D02*
X0123209Y0134914D01*
X0123220Y0135228D01*
X0123240Y0135541D01*
X0123267Y0135854D01*
X0123301Y0136166D01*
X0123343Y0136477D01*
X0123393Y0136787D01*
X0123451Y0137096D01*
X0123516Y0137403D01*
X0123588Y0137709D01*
X0123668Y0138013D01*
X0123756Y0138314D01*
X0123851Y0138614D01*
X0123953Y0138911D01*
X0124062Y0139205D01*
X0124179Y0139496D01*
X0124303Y0139785D01*
X0124433Y0140071D01*
X0124571Y0140353D01*
X0124716Y0140632D01*
X0124867Y0140907D01*
X0125025Y0141178D01*
X0125190Y0141445D01*
X0125361Y0141709D01*
X0125539Y0141967D01*
X0125723Y0142222D01*
X0125913Y0142472D01*
X0126109Y0142717D01*
X0126312Y0142957D01*
X0126520Y0143193D01*
X0126733Y0143423D01*
X0126953Y0143647D01*
X0127177Y0143867D01*
X0127407Y0144080D01*
X0127643Y0144288D01*
X0127883Y0144491D01*
X0128128Y0144687D01*
X0128378Y0144877D01*
X0128633Y0145061D01*
X0128891Y0145239D01*
X0129155Y0145410D01*
X0129422Y0145575D01*
X0129693Y0145733D01*
X0129968Y0145884D01*
X0130247Y0146029D01*
X0130529Y0146167D01*
X0130815Y0146297D01*
X0131104Y0146421D01*
X0131395Y0146538D01*
X0131689Y0146647D01*
X0131986Y0146749D01*
X0132286Y0146844D01*
X0132587Y0146932D01*
X0132891Y0147012D01*
X0133197Y0147084D01*
X0133504Y0147149D01*
X0133813Y0147207D01*
X0134123Y0147257D01*
X0134434Y0147299D01*
X0134746Y0147333D01*
X0135059Y0147360D01*
X0135372Y0147380D01*
X0135686Y0147391D01*
X0136000Y0147395D01*
X0136314Y0147391D01*
X0136628Y0147380D01*
X0136941Y0147360D01*
X0137254Y0147333D01*
X0137566Y0147299D01*
X0137877Y0147257D01*
X0138187Y0147207D01*
X0138496Y0147149D01*
X0138803Y0147084D01*
X0139109Y0147012D01*
X0139413Y0146932D01*
X0139714Y0146844D01*
X0140014Y0146749D01*
X0140311Y0146647D01*
X0140605Y0146538D01*
X0140896Y0146421D01*
X0141185Y0146297D01*
X0141471Y0146167D01*
X0141753Y0146029D01*
X0142032Y0145884D01*
X0142307Y0145733D01*
X0142578Y0145575D01*
X0142845Y0145410D01*
X0143109Y0145239D01*
X0143367Y0145061D01*
X0143622Y0144877D01*
X0143872Y0144687D01*
X0144117Y0144491D01*
X0144357Y0144288D01*
X0144593Y0144080D01*
X0144823Y0143867D01*
X0145047Y0143647D01*
X0145267Y0143423D01*
X0145480Y0143193D01*
X0145688Y0142957D01*
X0145891Y0142717D01*
X0146087Y0142472D01*
X0146277Y0142222D01*
X0146461Y0141967D01*
X0146639Y0141709D01*
X0146810Y0141445D01*
X0146975Y0141178D01*
X0147133Y0140907D01*
X0147284Y0140632D01*
X0147429Y0140353D01*
X0147567Y0140071D01*
X0147697Y0139785D01*
X0147821Y0139496D01*
X0147938Y0139205D01*
X0148047Y0138911D01*
X0148149Y0138614D01*
X0148244Y0138314D01*
X0148332Y0138013D01*
X0148412Y0137709D01*
X0148484Y0137403D01*
X0148549Y0137096D01*
X0148607Y0136787D01*
X0148657Y0136477D01*
X0148699Y0136166D01*
X0148733Y0135854D01*
X0148760Y0135541D01*
X0148780Y0135228D01*
X0148791Y0134914D01*
X0148795Y0134600D01*
X0148791Y0134286D01*
X0148780Y0133972D01*
X0148760Y0133659D01*
X0148733Y0133346D01*
X0148699Y0133034D01*
X0148657Y0132723D01*
X0148607Y0132413D01*
X0148549Y0132104D01*
X0148484Y0131797D01*
X0148412Y0131491D01*
X0148332Y0131187D01*
X0148244Y0130886D01*
X0148149Y0130586D01*
X0148047Y0130289D01*
X0147938Y0129995D01*
X0147821Y0129704D01*
X0147697Y0129415D01*
X0147567Y0129129D01*
X0147429Y0128847D01*
X0147284Y0128568D01*
X0147133Y0128293D01*
X0146975Y0128022D01*
X0146810Y0127755D01*
X0146639Y0127491D01*
X0146461Y0127233D01*
X0146277Y0126978D01*
X0146087Y0126728D01*
X0145891Y0126483D01*
X0145688Y0126243D01*
X0145480Y0126007D01*
X0145267Y0125777D01*
X0145047Y0125553D01*
X0144823Y0125333D01*
X0144593Y0125120D01*
X0144357Y0124912D01*
X0144117Y0124709D01*
X0143872Y0124513D01*
X0143622Y0124323D01*
X0143367Y0124139D01*
X0143109Y0123961D01*
X0142845Y0123790D01*
X0142578Y0123625D01*
X0142307Y0123467D01*
X0142032Y0123316D01*
X0141753Y0123171D01*
X0141471Y0123033D01*
X0141185Y0122903D01*
X0140896Y0122779D01*
X0140605Y0122662D01*
X0140311Y0122553D01*
X0140014Y0122451D01*
X0139714Y0122356D01*
X0139413Y0122268D01*
X0139109Y0122188D01*
X0138803Y0122116D01*
X0138496Y0122051D01*
X0138187Y0121993D01*
X0137877Y0121943D01*
X0137566Y0121901D01*
X0137254Y0121867D01*
X0136941Y0121840D01*
X0136628Y0121820D01*
X0136314Y0121809D01*
X0136000Y0121805D01*
X0135686Y0121809D01*
X0135372Y0121820D01*
X0135059Y0121840D01*
X0134746Y0121867D01*
X0134434Y0121901D01*
X0134123Y0121943D01*
X0133813Y0121993D01*
X0133504Y0122051D01*
X0133197Y0122116D01*
X0132891Y0122188D01*
X0132587Y0122268D01*
X0132286Y0122356D01*
X0131986Y0122451D01*
X0131689Y0122553D01*
X0131395Y0122662D01*
X0131104Y0122779D01*
X0130815Y0122903D01*
X0130529Y0123033D01*
X0130247Y0123171D01*
X0129968Y0123316D01*
X0129693Y0123467D01*
X0129422Y0123625D01*
X0129155Y0123790D01*
X0128891Y0123961D01*
X0128633Y0124139D01*
X0128378Y0124323D01*
X0128128Y0124513D01*
X0127883Y0124709D01*
X0127643Y0124912D01*
X0127407Y0125120D01*
X0127177Y0125333D01*
X0126953Y0125553D01*
X0126733Y0125777D01*
X0126520Y0126007D01*
X0126312Y0126243D01*
X0126109Y0126483D01*
X0125913Y0126728D01*
X0125723Y0126978D01*
X0125539Y0127233D01*
X0125361Y0127491D01*
X0125190Y0127755D01*
X0125025Y0128022D01*
X0124867Y0128293D01*
X0124716Y0128568D01*
X0124571Y0128847D01*
X0124433Y0129129D01*
X0124303Y0129415D01*
X0124179Y0129704D01*
X0124062Y0129995D01*
X0123953Y0130289D01*
X0123851Y0130586D01*
X0123756Y0130886D01*
X0123668Y0131187D01*
X0123588Y0131491D01*
X0123516Y0131797D01*
X0123451Y0132104D01*
X0123393Y0132413D01*
X0123343Y0132723D01*
X0123301Y0133034D01*
X0123267Y0133346D01*
X0123240Y0133659D01*
X0123220Y0133972D01*
X0123209Y0134286D01*
X0123205Y0134600D01*
X0108000Y0173600D02*
X0108000Y0174600D01*
X0101000Y0174600D01*
X0100998Y0174460D01*
X0100992Y0174320D01*
X0100982Y0174180D01*
X0100969Y0174040D01*
X0100951Y0173901D01*
X0100929Y0173762D01*
X0100904Y0173625D01*
X0100875Y0173487D01*
X0100842Y0173351D01*
X0100805Y0173216D01*
X0100764Y0173082D01*
X0100719Y0172949D01*
X0100671Y0172817D01*
X0100619Y0172687D01*
X0100564Y0172558D01*
X0100505Y0172431D01*
X0100442Y0172305D01*
X0100376Y0172181D01*
X0100307Y0172060D01*
X0100234Y0171940D01*
X0100157Y0171822D01*
X0100078Y0171707D01*
X0099995Y0171593D01*
X0099909Y0171483D01*
X0099820Y0171374D01*
X0099728Y0171268D01*
X0099633Y0171165D01*
X0099536Y0171064D01*
X0099435Y0170967D01*
X0099332Y0170872D01*
X0099226Y0170780D01*
X0099117Y0170691D01*
X0099007Y0170605D01*
X0098893Y0170522D01*
X0098778Y0170443D01*
X0098660Y0170366D01*
X0098540Y0170293D01*
X0098419Y0170224D01*
X0098295Y0170158D01*
X0098169Y0170095D01*
X0098042Y0170036D01*
X0097913Y0169981D01*
X0097783Y0169929D01*
X0097651Y0169881D01*
X0097518Y0169836D01*
X0097384Y0169795D01*
X0097249Y0169758D01*
X0097113Y0169725D01*
X0096975Y0169696D01*
X0096838Y0169671D01*
X0096699Y0169649D01*
X0096560Y0169631D01*
X0096420Y0169618D01*
X0096280Y0169608D01*
X0096140Y0169602D01*
X0096000Y0169600D01*
X0095860Y0169602D01*
X0095720Y0169608D01*
X0095580Y0169618D01*
X0095440Y0169631D01*
X0095301Y0169649D01*
X0095162Y0169671D01*
X0095025Y0169696D01*
X0094887Y0169725D01*
X0094751Y0169758D01*
X0094616Y0169795D01*
X0094482Y0169836D01*
X0094349Y0169881D01*
X0094217Y0169929D01*
X0094087Y0169981D01*
X0093958Y0170036D01*
X0093831Y0170095D01*
X0093705Y0170158D01*
X0093581Y0170224D01*
X0093460Y0170293D01*
X0093340Y0170366D01*
X0093222Y0170443D01*
X0093107Y0170522D01*
X0092993Y0170605D01*
X0092883Y0170691D01*
X0092774Y0170780D01*
X0092668Y0170872D01*
X0092565Y0170967D01*
X0092464Y0171064D01*
X0092367Y0171165D01*
X0092272Y0171268D01*
X0092180Y0171374D01*
X0092091Y0171483D01*
X0092005Y0171593D01*
X0091922Y0171707D01*
X0091843Y0171822D01*
X0091766Y0171940D01*
X0091693Y0172060D01*
X0091624Y0172181D01*
X0091558Y0172305D01*
X0091495Y0172431D01*
X0091436Y0172558D01*
X0091381Y0172687D01*
X0091329Y0172817D01*
X0091281Y0172949D01*
X0091236Y0173082D01*
X0091195Y0173216D01*
X0091158Y0173351D01*
X0091125Y0173487D01*
X0091096Y0173625D01*
X0091071Y0173762D01*
X0091049Y0173901D01*
X0091031Y0174040D01*
X0091018Y0174180D01*
X0091008Y0174320D01*
X0091002Y0174460D01*
X0091000Y0174600D01*
X0084000Y0174600D01*
X0084000Y0173600D01*
X0104000Y0195100D02*
X0108000Y0195100D01*
X0101157Y0189600D02*
X0101160Y0189842D01*
X0101169Y0190083D01*
X0101184Y0190324D01*
X0101204Y0190565D01*
X0101231Y0190805D01*
X0101264Y0191044D01*
X0101302Y0191283D01*
X0101346Y0191520D01*
X0101396Y0191757D01*
X0101452Y0191992D01*
X0101514Y0192225D01*
X0101581Y0192457D01*
X0101654Y0192688D01*
X0101732Y0192916D01*
X0101817Y0193142D01*
X0101906Y0193367D01*
X0102001Y0193589D01*
X0102102Y0193808D01*
X0102208Y0194026D01*
X0102319Y0194240D01*
X0102436Y0194452D01*
X0102557Y0194660D01*
X0102684Y0194866D01*
X0102816Y0195068D01*
X0102953Y0195268D01*
X0103094Y0195463D01*
X0103240Y0195656D01*
X0103391Y0195844D01*
X0103547Y0196029D01*
X0103707Y0196210D01*
X0103871Y0196387D01*
X0104040Y0196560D01*
X0104213Y0196729D01*
X0104390Y0196893D01*
X0104571Y0197053D01*
X0104756Y0197209D01*
X0104944Y0197360D01*
X0105137Y0197506D01*
X0105332Y0197647D01*
X0105532Y0197784D01*
X0105734Y0197916D01*
X0105940Y0198043D01*
X0106148Y0198164D01*
X0106360Y0198281D01*
X0106574Y0198392D01*
X0106792Y0198498D01*
X0107011Y0198599D01*
X0107233Y0198694D01*
X0107458Y0198783D01*
X0107684Y0198868D01*
X0107912Y0198946D01*
X0108143Y0199019D01*
X0108375Y0199086D01*
X0108608Y0199148D01*
X0108843Y0199204D01*
X0109080Y0199254D01*
X0109317Y0199298D01*
X0109556Y0199336D01*
X0109795Y0199369D01*
X0110035Y0199396D01*
X0110276Y0199416D01*
X0110517Y0199431D01*
X0110758Y0199440D01*
X0111000Y0199443D01*
X0111242Y0199440D01*
X0111483Y0199431D01*
X0111724Y0199416D01*
X0111965Y0199396D01*
X0112205Y0199369D01*
X0112444Y0199336D01*
X0112683Y0199298D01*
X0112920Y0199254D01*
X0113157Y0199204D01*
X0113392Y0199148D01*
X0113625Y0199086D01*
X0113857Y0199019D01*
X0114088Y0198946D01*
X0114316Y0198868D01*
X0114542Y0198783D01*
X0114767Y0198694D01*
X0114989Y0198599D01*
X0115208Y0198498D01*
X0115426Y0198392D01*
X0115640Y0198281D01*
X0115852Y0198164D01*
X0116060Y0198043D01*
X0116266Y0197916D01*
X0116468Y0197784D01*
X0116668Y0197647D01*
X0116863Y0197506D01*
X0117056Y0197360D01*
X0117244Y0197209D01*
X0117429Y0197053D01*
X0117610Y0196893D01*
X0117787Y0196729D01*
X0117960Y0196560D01*
X0118129Y0196387D01*
X0118293Y0196210D01*
X0118453Y0196029D01*
X0118609Y0195844D01*
X0118760Y0195656D01*
X0118906Y0195463D01*
X0119047Y0195268D01*
X0119184Y0195068D01*
X0119316Y0194866D01*
X0119443Y0194660D01*
X0119564Y0194452D01*
X0119681Y0194240D01*
X0119792Y0194026D01*
X0119898Y0193808D01*
X0119999Y0193589D01*
X0120094Y0193367D01*
X0120183Y0193142D01*
X0120268Y0192916D01*
X0120346Y0192688D01*
X0120419Y0192457D01*
X0120486Y0192225D01*
X0120548Y0191992D01*
X0120604Y0191757D01*
X0120654Y0191520D01*
X0120698Y0191283D01*
X0120736Y0191044D01*
X0120769Y0190805D01*
X0120796Y0190565D01*
X0120816Y0190324D01*
X0120831Y0190083D01*
X0120840Y0189842D01*
X0120843Y0189600D01*
X0120840Y0189358D01*
X0120831Y0189117D01*
X0120816Y0188876D01*
X0120796Y0188635D01*
X0120769Y0188395D01*
X0120736Y0188156D01*
X0120698Y0187917D01*
X0120654Y0187680D01*
X0120604Y0187443D01*
X0120548Y0187208D01*
X0120486Y0186975D01*
X0120419Y0186743D01*
X0120346Y0186512D01*
X0120268Y0186284D01*
X0120183Y0186058D01*
X0120094Y0185833D01*
X0119999Y0185611D01*
X0119898Y0185392D01*
X0119792Y0185174D01*
X0119681Y0184960D01*
X0119564Y0184748D01*
X0119443Y0184540D01*
X0119316Y0184334D01*
X0119184Y0184132D01*
X0119047Y0183932D01*
X0118906Y0183737D01*
X0118760Y0183544D01*
X0118609Y0183356D01*
X0118453Y0183171D01*
X0118293Y0182990D01*
X0118129Y0182813D01*
X0117960Y0182640D01*
X0117787Y0182471D01*
X0117610Y0182307D01*
X0117429Y0182147D01*
X0117244Y0181991D01*
X0117056Y0181840D01*
X0116863Y0181694D01*
X0116668Y0181553D01*
X0116468Y0181416D01*
X0116266Y0181284D01*
X0116060Y0181157D01*
X0115852Y0181036D01*
X0115640Y0180919D01*
X0115426Y0180808D01*
X0115208Y0180702D01*
X0114989Y0180601D01*
X0114767Y0180506D01*
X0114542Y0180417D01*
X0114316Y0180332D01*
X0114088Y0180254D01*
X0113857Y0180181D01*
X0113625Y0180114D01*
X0113392Y0180052D01*
X0113157Y0179996D01*
X0112920Y0179946D01*
X0112683Y0179902D01*
X0112444Y0179864D01*
X0112205Y0179831D01*
X0111965Y0179804D01*
X0111724Y0179784D01*
X0111483Y0179769D01*
X0111242Y0179760D01*
X0111000Y0179757D01*
X0110758Y0179760D01*
X0110517Y0179769D01*
X0110276Y0179784D01*
X0110035Y0179804D01*
X0109795Y0179831D01*
X0109556Y0179864D01*
X0109317Y0179902D01*
X0109080Y0179946D01*
X0108843Y0179996D01*
X0108608Y0180052D01*
X0108375Y0180114D01*
X0108143Y0180181D01*
X0107912Y0180254D01*
X0107684Y0180332D01*
X0107458Y0180417D01*
X0107233Y0180506D01*
X0107011Y0180601D01*
X0106792Y0180702D01*
X0106574Y0180808D01*
X0106360Y0180919D01*
X0106148Y0181036D01*
X0105940Y0181157D01*
X0105734Y0181284D01*
X0105532Y0181416D01*
X0105332Y0181553D01*
X0105137Y0181694D01*
X0104944Y0181840D01*
X0104756Y0181991D01*
X0104571Y0182147D01*
X0104390Y0182307D01*
X0104213Y0182471D01*
X0104040Y0182640D01*
X0103871Y0182813D01*
X0103707Y0182990D01*
X0103547Y0183171D01*
X0103391Y0183356D01*
X0103240Y0183544D01*
X0103094Y0183737D01*
X0102953Y0183932D01*
X0102816Y0184132D01*
X0102684Y0184334D01*
X0102557Y0184540D01*
X0102436Y0184748D01*
X0102319Y0184960D01*
X0102208Y0185174D01*
X0102102Y0185392D01*
X0102001Y0185611D01*
X0101906Y0185833D01*
X0101817Y0186058D01*
X0101732Y0186284D01*
X0101654Y0186512D01*
X0101581Y0186743D01*
X0101514Y0186975D01*
X0101452Y0187208D01*
X0101396Y0187443D01*
X0101346Y0187680D01*
X0101302Y0187917D01*
X0101264Y0188156D01*
X0101231Y0188395D01*
X0101204Y0188635D01*
X0101184Y0188876D01*
X0101169Y0189117D01*
X0101160Y0189358D01*
X0101157Y0189600D01*
X0046020Y0159600D02*
X0046022Y0159784D01*
X0046029Y0159967D01*
X0046040Y0160150D01*
X0046056Y0160333D01*
X0046076Y0160516D01*
X0046101Y0160698D01*
X0046130Y0160879D01*
X0046164Y0161059D01*
X0046202Y0161239D01*
X0046244Y0161417D01*
X0046291Y0161595D01*
X0046342Y0161771D01*
X0046398Y0161946D01*
X0046457Y0162120D01*
X0046521Y0162292D01*
X0046589Y0162462D01*
X0046662Y0162631D01*
X0046738Y0162798D01*
X0046819Y0162963D01*
X0046903Y0163126D01*
X0046992Y0163287D01*
X0047084Y0163445D01*
X0047180Y0163602D01*
X0047281Y0163756D01*
X0047384Y0163907D01*
X0047492Y0164056D01*
X0047603Y0164202D01*
X0047718Y0164345D01*
X0047836Y0164486D01*
X0047958Y0164623D01*
X0048083Y0164758D01*
X0048211Y0164889D01*
X0048342Y0165017D01*
X0048477Y0165142D01*
X0048614Y0165264D01*
X0048755Y0165382D01*
X0048898Y0165497D01*
X0049044Y0165608D01*
X0049193Y0165716D01*
X0049344Y0165819D01*
X0049498Y0165920D01*
X0049655Y0166016D01*
X0049813Y0166108D01*
X0049974Y0166197D01*
X0050137Y0166281D01*
X0050302Y0166362D01*
X0050469Y0166438D01*
X0050638Y0166511D01*
X0050808Y0166579D01*
X0050980Y0166643D01*
X0051154Y0166702D01*
X0051329Y0166758D01*
X0051505Y0166809D01*
X0051683Y0166856D01*
X0051861Y0166898D01*
X0052041Y0166936D01*
X0052221Y0166970D01*
X0052402Y0166999D01*
X0052584Y0167024D01*
X0052767Y0167044D01*
X0052950Y0167060D01*
X0053133Y0167071D01*
X0053316Y0167078D01*
X0053500Y0167080D01*
X0053684Y0167078D01*
X0053867Y0167071D01*
X0054050Y0167060D01*
X0054233Y0167044D01*
X0054416Y0167024D01*
X0054598Y0166999D01*
X0054779Y0166970D01*
X0054959Y0166936D01*
X0055139Y0166898D01*
X0055317Y0166856D01*
X0055495Y0166809D01*
X0055671Y0166758D01*
X0055846Y0166702D01*
X0056020Y0166643D01*
X0056192Y0166579D01*
X0056362Y0166511D01*
X0056531Y0166438D01*
X0056698Y0166362D01*
X0056863Y0166281D01*
X0057026Y0166197D01*
X0057187Y0166108D01*
X0057345Y0166016D01*
X0057502Y0165920D01*
X0057656Y0165819D01*
X0057807Y0165716D01*
X0057956Y0165608D01*
X0058102Y0165497D01*
X0058245Y0165382D01*
X0058386Y0165264D01*
X0058523Y0165142D01*
X0058658Y0165017D01*
X0058789Y0164889D01*
X0058917Y0164758D01*
X0059042Y0164623D01*
X0059164Y0164486D01*
X0059282Y0164345D01*
X0059397Y0164202D01*
X0059508Y0164056D01*
X0059616Y0163907D01*
X0059719Y0163756D01*
X0059820Y0163602D01*
X0059916Y0163445D01*
X0060008Y0163287D01*
X0060097Y0163126D01*
X0060181Y0162963D01*
X0060262Y0162798D01*
X0060338Y0162631D01*
X0060411Y0162462D01*
X0060479Y0162292D01*
X0060543Y0162120D01*
X0060602Y0161946D01*
X0060658Y0161771D01*
X0060709Y0161595D01*
X0060756Y0161417D01*
X0060798Y0161239D01*
X0060836Y0161059D01*
X0060870Y0160879D01*
X0060899Y0160698D01*
X0060924Y0160516D01*
X0060944Y0160333D01*
X0060960Y0160150D01*
X0060971Y0159967D01*
X0060978Y0159784D01*
X0060980Y0159600D01*
X0060978Y0159416D01*
X0060971Y0159233D01*
X0060960Y0159050D01*
X0060944Y0158867D01*
X0060924Y0158684D01*
X0060899Y0158502D01*
X0060870Y0158321D01*
X0060836Y0158141D01*
X0060798Y0157961D01*
X0060756Y0157783D01*
X0060709Y0157605D01*
X0060658Y0157429D01*
X0060602Y0157254D01*
X0060543Y0157080D01*
X0060479Y0156908D01*
X0060411Y0156738D01*
X0060338Y0156569D01*
X0060262Y0156402D01*
X0060181Y0156237D01*
X0060097Y0156074D01*
X0060008Y0155913D01*
X0059916Y0155755D01*
X0059820Y0155598D01*
X0059719Y0155444D01*
X0059616Y0155293D01*
X0059508Y0155144D01*
X0059397Y0154998D01*
X0059282Y0154855D01*
X0059164Y0154714D01*
X0059042Y0154577D01*
X0058917Y0154442D01*
X0058789Y0154311D01*
X0058658Y0154183D01*
X0058523Y0154058D01*
X0058386Y0153936D01*
X0058245Y0153818D01*
X0058102Y0153703D01*
X0057956Y0153592D01*
X0057807Y0153484D01*
X0057656Y0153381D01*
X0057502Y0153280D01*
X0057345Y0153184D01*
X0057187Y0153092D01*
X0057026Y0153003D01*
X0056863Y0152919D01*
X0056698Y0152838D01*
X0056531Y0152762D01*
X0056362Y0152689D01*
X0056192Y0152621D01*
X0056020Y0152557D01*
X0055846Y0152498D01*
X0055671Y0152442D01*
X0055495Y0152391D01*
X0055317Y0152344D01*
X0055139Y0152302D01*
X0054959Y0152264D01*
X0054779Y0152230D01*
X0054598Y0152201D01*
X0054416Y0152176D01*
X0054233Y0152156D01*
X0054050Y0152140D01*
X0053867Y0152129D01*
X0053684Y0152122D01*
X0053500Y0152120D01*
X0053316Y0152122D01*
X0053133Y0152129D01*
X0052950Y0152140D01*
X0052767Y0152156D01*
X0052584Y0152176D01*
X0052402Y0152201D01*
X0052221Y0152230D01*
X0052041Y0152264D01*
X0051861Y0152302D01*
X0051683Y0152344D01*
X0051505Y0152391D01*
X0051329Y0152442D01*
X0051154Y0152498D01*
X0050980Y0152557D01*
X0050808Y0152621D01*
X0050638Y0152689D01*
X0050469Y0152762D01*
X0050302Y0152838D01*
X0050137Y0152919D01*
X0049974Y0153003D01*
X0049813Y0153092D01*
X0049655Y0153184D01*
X0049498Y0153280D01*
X0049344Y0153381D01*
X0049193Y0153484D01*
X0049044Y0153592D01*
X0048898Y0153703D01*
X0048755Y0153818D01*
X0048614Y0153936D01*
X0048477Y0154058D01*
X0048342Y0154183D01*
X0048211Y0154311D01*
X0048083Y0154442D01*
X0047958Y0154577D01*
X0047836Y0154714D01*
X0047718Y0154855D01*
X0047603Y0154998D01*
X0047492Y0155144D01*
X0047384Y0155293D01*
X0047281Y0155444D01*
X0047180Y0155598D01*
X0047084Y0155755D01*
X0046992Y0155913D01*
X0046903Y0156074D01*
X0046819Y0156237D01*
X0046738Y0156402D01*
X0046662Y0156569D01*
X0046589Y0156738D01*
X0046521Y0156908D01*
X0046457Y0157080D01*
X0046398Y0157254D01*
X0046342Y0157429D01*
X0046291Y0157605D01*
X0046244Y0157783D01*
X0046202Y0157961D01*
X0046164Y0158141D01*
X0046130Y0158321D01*
X0046101Y0158502D01*
X0046076Y0158684D01*
X0046056Y0158867D01*
X0046040Y0159050D01*
X0046029Y0159233D01*
X0046022Y0159416D01*
X0046020Y0159600D01*
X0023500Y0113840D02*
X0008500Y0113840D01*
X0177280Y0166214D02*
X0177280Y0170939D01*
X0182791Y0170939D01*
X0182791Y0188261D01*
X0177280Y0188261D01*
X0177280Y0192986D01*
X0183579Y0192986D01*
X0194209Y0192986D02*
X0194209Y0166214D01*
X0183579Y0166214D02*
X0177280Y0166214D01*
D11*
X0088680Y0005600D02*
X0075680Y0005600D01*
X0075680Y0031600D01*
X0088680Y0031600D01*
X0101680Y0031600D01*
X0101680Y0029600D01*
X0088680Y0029600D01*
X0088680Y0031600D01*
X0087680Y0026600D02*
X0102680Y0026600D01*
X0102680Y0020600D01*
X0087680Y0020600D01*
X0087680Y0026600D01*
X0087680Y0016600D02*
X0102680Y0016600D01*
X0102680Y0010600D01*
X0087680Y0010600D01*
X0087680Y0016600D01*
X0088680Y0007600D02*
X0088680Y0005600D01*
X0101680Y0005600D01*
X0114680Y0005600D01*
X0114680Y0031600D01*
X0101680Y0031600D01*
X0101680Y0007600D02*
X0088680Y0007600D01*
X0101680Y0007600D02*
X0101680Y0005600D01*
X0130000Y0008600D02*
X0131000Y0008600D01*
X0131500Y0009100D01*
X0140500Y0009100D01*
X0141000Y0008600D01*
X0142000Y0008600D01*
X0142060Y0008602D01*
X0142121Y0008607D01*
X0142180Y0008616D01*
X0142239Y0008629D01*
X0142298Y0008645D01*
X0142355Y0008665D01*
X0142410Y0008688D01*
X0142465Y0008715D01*
X0142517Y0008744D01*
X0142568Y0008777D01*
X0142617Y0008813D01*
X0142663Y0008851D01*
X0142707Y0008893D01*
X0142749Y0008937D01*
X0142787Y0008983D01*
X0142823Y0009032D01*
X0142856Y0009083D01*
X0142885Y0009135D01*
X0142912Y0009190D01*
X0142935Y0009245D01*
X0142955Y0009302D01*
X0142971Y0009361D01*
X0142984Y0009420D01*
X0142993Y0009479D01*
X0142998Y0009540D01*
X0143000Y0009600D01*
X0143000Y0014600D02*
X0142998Y0014660D01*
X0142993Y0014721D01*
X0142984Y0014780D01*
X0142971Y0014839D01*
X0142955Y0014898D01*
X0142935Y0014955D01*
X0142912Y0015010D01*
X0142885Y0015065D01*
X0142856Y0015117D01*
X0142823Y0015168D01*
X0142787Y0015217D01*
X0142749Y0015263D01*
X0142707Y0015307D01*
X0142663Y0015349D01*
X0142617Y0015387D01*
X0142568Y0015423D01*
X0142517Y0015456D01*
X0142465Y0015485D01*
X0142410Y0015512D01*
X0142355Y0015535D01*
X0142298Y0015555D01*
X0142239Y0015571D01*
X0142180Y0015584D01*
X0142121Y0015593D01*
X0142060Y0015598D01*
X0142000Y0015600D01*
X0141000Y0015600D01*
X0140500Y0015100D01*
X0131500Y0015100D01*
X0131000Y0015600D01*
X0130000Y0015600D01*
X0129940Y0015598D01*
X0129879Y0015593D01*
X0129820Y0015584D01*
X0129761Y0015571D01*
X0129702Y0015555D01*
X0129645Y0015535D01*
X0129590Y0015512D01*
X0129535Y0015485D01*
X0129483Y0015456D01*
X0129432Y0015423D01*
X0129383Y0015387D01*
X0129337Y0015349D01*
X0129293Y0015307D01*
X0129251Y0015263D01*
X0129213Y0015217D01*
X0129177Y0015168D01*
X0129144Y0015117D01*
X0129115Y0015065D01*
X0129088Y0015010D01*
X0129065Y0014955D01*
X0129045Y0014898D01*
X0129029Y0014839D01*
X0129016Y0014780D01*
X0129007Y0014721D01*
X0129002Y0014660D01*
X0129000Y0014600D01*
X0130000Y0018600D02*
X0131000Y0018600D01*
X0131500Y0019100D01*
X0140500Y0019100D01*
X0141000Y0018600D01*
X0142000Y0018600D01*
X0142060Y0018602D01*
X0142121Y0018607D01*
X0142180Y0018616D01*
X0142239Y0018629D01*
X0142298Y0018645D01*
X0142355Y0018665D01*
X0142410Y0018688D01*
X0142465Y0018715D01*
X0142517Y0018744D01*
X0142568Y0018777D01*
X0142617Y0018813D01*
X0142663Y0018851D01*
X0142707Y0018893D01*
X0142749Y0018937D01*
X0142787Y0018983D01*
X0142823Y0019032D01*
X0142856Y0019083D01*
X0142885Y0019135D01*
X0142912Y0019190D01*
X0142935Y0019245D01*
X0142955Y0019302D01*
X0142971Y0019361D01*
X0142984Y0019420D01*
X0142993Y0019479D01*
X0142998Y0019540D01*
X0143000Y0019600D01*
X0143000Y0024600D02*
X0142998Y0024660D01*
X0142993Y0024721D01*
X0142984Y0024780D01*
X0142971Y0024839D01*
X0142955Y0024898D01*
X0142935Y0024955D01*
X0142912Y0025010D01*
X0142885Y0025065D01*
X0142856Y0025117D01*
X0142823Y0025168D01*
X0142787Y0025217D01*
X0142749Y0025263D01*
X0142707Y0025307D01*
X0142663Y0025349D01*
X0142617Y0025387D01*
X0142568Y0025423D01*
X0142517Y0025456D01*
X0142465Y0025485D01*
X0142410Y0025512D01*
X0142355Y0025535D01*
X0142298Y0025555D01*
X0142239Y0025571D01*
X0142180Y0025584D01*
X0142121Y0025593D01*
X0142060Y0025598D01*
X0142000Y0025600D01*
X0141000Y0025600D01*
X0140500Y0025100D01*
X0131500Y0025100D01*
X0131000Y0025600D01*
X0130000Y0025600D01*
X0129940Y0025598D01*
X0129879Y0025593D01*
X0129820Y0025584D01*
X0129761Y0025571D01*
X0129702Y0025555D01*
X0129645Y0025535D01*
X0129590Y0025512D01*
X0129535Y0025485D01*
X0129483Y0025456D01*
X0129432Y0025423D01*
X0129383Y0025387D01*
X0129337Y0025349D01*
X0129293Y0025307D01*
X0129251Y0025263D01*
X0129213Y0025217D01*
X0129177Y0025168D01*
X0129144Y0025117D01*
X0129115Y0025065D01*
X0129088Y0025010D01*
X0129065Y0024955D01*
X0129045Y0024898D01*
X0129029Y0024839D01*
X0129016Y0024780D01*
X0129007Y0024721D01*
X0129002Y0024660D01*
X0129000Y0024600D01*
X0129000Y0019600D02*
X0129002Y0019540D01*
X0129007Y0019479D01*
X0129016Y0019420D01*
X0129029Y0019361D01*
X0129045Y0019302D01*
X0129065Y0019245D01*
X0129088Y0019190D01*
X0129115Y0019135D01*
X0129144Y0019083D01*
X0129177Y0019032D01*
X0129213Y0018983D01*
X0129251Y0018937D01*
X0129293Y0018893D01*
X0129337Y0018851D01*
X0129383Y0018813D01*
X0129432Y0018777D01*
X0129483Y0018744D01*
X0129535Y0018715D01*
X0129590Y0018688D01*
X0129645Y0018665D01*
X0129702Y0018645D01*
X0129761Y0018629D01*
X0129820Y0018616D01*
X0129879Y0018607D01*
X0129940Y0018602D01*
X0130000Y0018600D01*
X0129000Y0009600D02*
X0129002Y0009540D01*
X0129007Y0009479D01*
X0129016Y0009420D01*
X0129029Y0009361D01*
X0129045Y0009302D01*
X0129065Y0009245D01*
X0129088Y0009190D01*
X0129115Y0009135D01*
X0129144Y0009083D01*
X0129177Y0009032D01*
X0129213Y0008983D01*
X0129251Y0008937D01*
X0129293Y0008893D01*
X0129337Y0008851D01*
X0129383Y0008813D01*
X0129432Y0008777D01*
X0129483Y0008744D01*
X0129535Y0008715D01*
X0129590Y0008688D01*
X0129645Y0008665D01*
X0129702Y0008645D01*
X0129761Y0008629D01*
X0129820Y0008616D01*
X0129879Y0008607D01*
X0129940Y0008602D01*
X0130000Y0008600D01*
X0152500Y0026100D02*
X0152500Y0027100D01*
X0153000Y0027600D01*
X0153000Y0036600D01*
X0152500Y0037100D01*
X0152500Y0038100D01*
X0152502Y0038160D01*
X0152507Y0038221D01*
X0152516Y0038280D01*
X0152529Y0038339D01*
X0152545Y0038398D01*
X0152565Y0038455D01*
X0152588Y0038510D01*
X0152615Y0038565D01*
X0152644Y0038617D01*
X0152677Y0038668D01*
X0152713Y0038717D01*
X0152751Y0038763D01*
X0152793Y0038807D01*
X0152837Y0038849D01*
X0152883Y0038887D01*
X0152932Y0038923D01*
X0152983Y0038956D01*
X0153035Y0038985D01*
X0153090Y0039012D01*
X0153145Y0039035D01*
X0153202Y0039055D01*
X0153261Y0039071D01*
X0153320Y0039084D01*
X0153379Y0039093D01*
X0153440Y0039098D01*
X0153500Y0039100D01*
X0158500Y0039100D02*
X0158560Y0039098D01*
X0158621Y0039093D01*
X0158680Y0039084D01*
X0158739Y0039071D01*
X0158798Y0039055D01*
X0158855Y0039035D01*
X0158910Y0039012D01*
X0158965Y0038985D01*
X0159017Y0038956D01*
X0159068Y0038923D01*
X0159117Y0038887D01*
X0159163Y0038849D01*
X0159207Y0038807D01*
X0159249Y0038763D01*
X0159287Y0038717D01*
X0159323Y0038668D01*
X0159356Y0038617D01*
X0159385Y0038565D01*
X0159412Y0038510D01*
X0159435Y0038455D01*
X0159455Y0038398D01*
X0159471Y0038339D01*
X0159484Y0038280D01*
X0159493Y0038221D01*
X0159498Y0038160D01*
X0159500Y0038100D01*
X0159500Y0037100D01*
X0159000Y0036600D01*
X0159000Y0027600D01*
X0159500Y0027100D01*
X0159500Y0026100D01*
X0159498Y0026040D01*
X0159493Y0025979D01*
X0159484Y0025920D01*
X0159471Y0025861D01*
X0159455Y0025802D01*
X0159435Y0025745D01*
X0159412Y0025690D01*
X0159385Y0025635D01*
X0159356Y0025583D01*
X0159323Y0025532D01*
X0159287Y0025483D01*
X0159249Y0025437D01*
X0159207Y0025393D01*
X0159163Y0025351D01*
X0159117Y0025313D01*
X0159068Y0025277D01*
X0159017Y0025244D01*
X0158965Y0025215D01*
X0158910Y0025188D01*
X0158855Y0025165D01*
X0158798Y0025145D01*
X0158739Y0025129D01*
X0158680Y0025116D01*
X0158621Y0025107D01*
X0158560Y0025102D01*
X0158500Y0025100D01*
X0153500Y0025100D02*
X0153440Y0025102D01*
X0153379Y0025107D01*
X0153320Y0025116D01*
X0153261Y0025129D01*
X0153202Y0025145D01*
X0153145Y0025165D01*
X0153090Y0025188D01*
X0153035Y0025215D01*
X0152983Y0025244D01*
X0152932Y0025277D01*
X0152883Y0025313D01*
X0152837Y0025351D01*
X0152793Y0025393D01*
X0152751Y0025437D01*
X0152713Y0025483D01*
X0152677Y0025532D01*
X0152644Y0025583D01*
X0152615Y0025635D01*
X0152588Y0025690D01*
X0152565Y0025745D01*
X0152545Y0025802D01*
X0152529Y0025861D01*
X0152516Y0025920D01*
X0152507Y0025979D01*
X0152502Y0026040D01*
X0152500Y0026100D01*
X0142000Y0056100D02*
X0141000Y0056100D01*
X0140500Y0056600D01*
X0131500Y0056600D01*
X0131000Y0056100D01*
X0130000Y0056100D01*
X0129940Y0056102D01*
X0129879Y0056107D01*
X0129820Y0056116D01*
X0129761Y0056129D01*
X0129702Y0056145D01*
X0129645Y0056165D01*
X0129590Y0056188D01*
X0129535Y0056215D01*
X0129483Y0056244D01*
X0129432Y0056277D01*
X0129383Y0056313D01*
X0129337Y0056351D01*
X0129293Y0056393D01*
X0129251Y0056437D01*
X0129213Y0056483D01*
X0129177Y0056532D01*
X0129144Y0056583D01*
X0129115Y0056635D01*
X0129088Y0056690D01*
X0129065Y0056745D01*
X0129045Y0056802D01*
X0129029Y0056861D01*
X0129016Y0056920D01*
X0129007Y0056979D01*
X0129002Y0057040D01*
X0129000Y0057100D01*
X0129000Y0062100D02*
X0129002Y0062160D01*
X0129007Y0062221D01*
X0129016Y0062280D01*
X0129029Y0062339D01*
X0129045Y0062398D01*
X0129065Y0062455D01*
X0129088Y0062510D01*
X0129115Y0062565D01*
X0129144Y0062617D01*
X0129177Y0062668D01*
X0129213Y0062717D01*
X0129251Y0062763D01*
X0129293Y0062807D01*
X0129337Y0062849D01*
X0129383Y0062887D01*
X0129432Y0062923D01*
X0129483Y0062956D01*
X0129535Y0062985D01*
X0129590Y0063012D01*
X0129645Y0063035D01*
X0129702Y0063055D01*
X0129761Y0063071D01*
X0129820Y0063084D01*
X0129879Y0063093D01*
X0129940Y0063098D01*
X0130000Y0063100D01*
X0131000Y0063100D01*
X0131500Y0062600D01*
X0140500Y0062600D01*
X0141000Y0063100D01*
X0142000Y0063100D01*
X0142060Y0063098D01*
X0142121Y0063093D01*
X0142180Y0063084D01*
X0142239Y0063071D01*
X0142298Y0063055D01*
X0142355Y0063035D01*
X0142410Y0063012D01*
X0142465Y0062985D01*
X0142517Y0062956D01*
X0142568Y0062923D01*
X0142617Y0062887D01*
X0142663Y0062849D01*
X0142707Y0062807D01*
X0142749Y0062763D01*
X0142787Y0062717D01*
X0142823Y0062668D01*
X0142856Y0062617D01*
X0142885Y0062565D01*
X0142912Y0062510D01*
X0142935Y0062455D01*
X0142955Y0062398D01*
X0142971Y0062339D01*
X0142984Y0062280D01*
X0142993Y0062221D01*
X0142998Y0062160D01*
X0143000Y0062100D01*
X0142000Y0066100D02*
X0141000Y0066100D01*
X0140500Y0066600D01*
X0131500Y0066600D01*
X0131000Y0066100D01*
X0130000Y0066100D01*
X0129940Y0066102D01*
X0129879Y0066107D01*
X0129820Y0066116D01*
X0129761Y0066129D01*
X0129702Y0066145D01*
X0129645Y0066165D01*
X0129590Y0066188D01*
X0129535Y0066215D01*
X0129483Y0066244D01*
X0129432Y0066277D01*
X0129383Y0066313D01*
X0129337Y0066351D01*
X0129293Y0066393D01*
X0129251Y0066437D01*
X0129213Y0066483D01*
X0129177Y0066532D01*
X0129144Y0066583D01*
X0129115Y0066635D01*
X0129088Y0066690D01*
X0129065Y0066745D01*
X0129045Y0066802D01*
X0129029Y0066861D01*
X0129016Y0066920D01*
X0129007Y0066979D01*
X0129002Y0067040D01*
X0129000Y0067100D01*
X0129000Y0072100D02*
X0129002Y0072160D01*
X0129007Y0072221D01*
X0129016Y0072280D01*
X0129029Y0072339D01*
X0129045Y0072398D01*
X0129065Y0072455D01*
X0129088Y0072510D01*
X0129115Y0072565D01*
X0129144Y0072617D01*
X0129177Y0072668D01*
X0129213Y0072717D01*
X0129251Y0072763D01*
X0129293Y0072807D01*
X0129337Y0072849D01*
X0129383Y0072887D01*
X0129432Y0072923D01*
X0129483Y0072956D01*
X0129535Y0072985D01*
X0129590Y0073012D01*
X0129645Y0073035D01*
X0129702Y0073055D01*
X0129761Y0073071D01*
X0129820Y0073084D01*
X0129879Y0073093D01*
X0129940Y0073098D01*
X0130000Y0073100D01*
X0131000Y0073100D01*
X0131500Y0072600D01*
X0140500Y0072600D01*
X0141000Y0073100D01*
X0142000Y0073100D01*
X0142060Y0073098D01*
X0142121Y0073093D01*
X0142180Y0073084D01*
X0142239Y0073071D01*
X0142298Y0073055D01*
X0142355Y0073035D01*
X0142410Y0073012D01*
X0142465Y0072985D01*
X0142517Y0072956D01*
X0142568Y0072923D01*
X0142617Y0072887D01*
X0142663Y0072849D01*
X0142707Y0072807D01*
X0142749Y0072763D01*
X0142787Y0072717D01*
X0142823Y0072668D01*
X0142856Y0072617D01*
X0142885Y0072565D01*
X0142912Y0072510D01*
X0142935Y0072455D01*
X0142955Y0072398D01*
X0142971Y0072339D01*
X0142984Y0072280D01*
X0142993Y0072221D01*
X0142998Y0072160D01*
X0143000Y0072100D01*
X0143000Y0067100D02*
X0142998Y0067040D01*
X0142993Y0066979D01*
X0142984Y0066920D01*
X0142971Y0066861D01*
X0142955Y0066802D01*
X0142935Y0066745D01*
X0142912Y0066690D01*
X0142885Y0066635D01*
X0142856Y0066583D01*
X0142823Y0066532D01*
X0142787Y0066483D01*
X0142749Y0066437D01*
X0142707Y0066393D01*
X0142663Y0066351D01*
X0142617Y0066313D01*
X0142568Y0066277D01*
X0142517Y0066244D01*
X0142465Y0066215D01*
X0142410Y0066188D01*
X0142355Y0066165D01*
X0142298Y0066145D01*
X0142239Y0066129D01*
X0142180Y0066116D01*
X0142121Y0066107D01*
X0142060Y0066102D01*
X0142000Y0066100D01*
X0143000Y0057100D02*
X0142998Y0057040D01*
X0142993Y0056979D01*
X0142984Y0056920D01*
X0142971Y0056861D01*
X0142955Y0056802D01*
X0142935Y0056745D01*
X0142912Y0056690D01*
X0142885Y0056635D01*
X0142856Y0056583D01*
X0142823Y0056532D01*
X0142787Y0056483D01*
X0142749Y0056437D01*
X0142707Y0056393D01*
X0142663Y0056351D01*
X0142617Y0056313D01*
X0142568Y0056277D01*
X0142517Y0056244D01*
X0142465Y0056215D01*
X0142410Y0056188D01*
X0142355Y0056165D01*
X0142298Y0056145D01*
X0142239Y0056129D01*
X0142180Y0056116D01*
X0142121Y0056107D01*
X0142060Y0056102D01*
X0142000Y0056100D01*
X0152500Y0083600D02*
X0152500Y0084600D01*
X0153000Y0085100D01*
X0153000Y0094100D01*
X0152500Y0094600D01*
X0152500Y0095600D01*
X0152502Y0095660D01*
X0152507Y0095721D01*
X0152516Y0095780D01*
X0152529Y0095839D01*
X0152545Y0095898D01*
X0152565Y0095955D01*
X0152588Y0096010D01*
X0152615Y0096065D01*
X0152644Y0096117D01*
X0152677Y0096168D01*
X0152713Y0096217D01*
X0152751Y0096263D01*
X0152793Y0096307D01*
X0152837Y0096349D01*
X0152883Y0096387D01*
X0152932Y0096423D01*
X0152983Y0096456D01*
X0153035Y0096485D01*
X0153090Y0096512D01*
X0153145Y0096535D01*
X0153202Y0096555D01*
X0153261Y0096571D01*
X0153320Y0096584D01*
X0153379Y0096593D01*
X0153440Y0096598D01*
X0153500Y0096600D01*
X0158500Y0096600D02*
X0158560Y0096598D01*
X0158621Y0096593D01*
X0158680Y0096584D01*
X0158739Y0096571D01*
X0158798Y0096555D01*
X0158855Y0096535D01*
X0158910Y0096512D01*
X0158965Y0096485D01*
X0159017Y0096456D01*
X0159068Y0096423D01*
X0159117Y0096387D01*
X0159163Y0096349D01*
X0159207Y0096307D01*
X0159249Y0096263D01*
X0159287Y0096217D01*
X0159323Y0096168D01*
X0159356Y0096117D01*
X0159385Y0096065D01*
X0159412Y0096010D01*
X0159435Y0095955D01*
X0159455Y0095898D01*
X0159471Y0095839D01*
X0159484Y0095780D01*
X0159493Y0095721D01*
X0159498Y0095660D01*
X0159500Y0095600D01*
X0159500Y0094600D01*
X0159000Y0094100D01*
X0159000Y0085100D01*
X0159500Y0084600D01*
X0159500Y0083600D01*
X0159498Y0083540D01*
X0159493Y0083479D01*
X0159484Y0083420D01*
X0159471Y0083361D01*
X0159455Y0083302D01*
X0159435Y0083245D01*
X0159412Y0083190D01*
X0159385Y0083135D01*
X0159356Y0083083D01*
X0159323Y0083032D01*
X0159287Y0082983D01*
X0159249Y0082937D01*
X0159207Y0082893D01*
X0159163Y0082851D01*
X0159117Y0082813D01*
X0159068Y0082777D01*
X0159017Y0082744D01*
X0158965Y0082715D01*
X0158910Y0082688D01*
X0158855Y0082665D01*
X0158798Y0082645D01*
X0158739Y0082629D01*
X0158680Y0082616D01*
X0158621Y0082607D01*
X0158560Y0082602D01*
X0158500Y0082600D01*
X0153500Y0082600D02*
X0153440Y0082602D01*
X0153379Y0082607D01*
X0153320Y0082616D01*
X0153261Y0082629D01*
X0153202Y0082645D01*
X0153145Y0082665D01*
X0153090Y0082688D01*
X0153035Y0082715D01*
X0152983Y0082744D01*
X0152932Y0082777D01*
X0152883Y0082813D01*
X0152837Y0082851D01*
X0152793Y0082893D01*
X0152751Y0082937D01*
X0152713Y0082983D01*
X0152677Y0083032D01*
X0152644Y0083083D01*
X0152615Y0083135D01*
X0152588Y0083190D01*
X0152565Y0083245D01*
X0152545Y0083302D01*
X0152529Y0083361D01*
X0152516Y0083420D01*
X0152507Y0083479D01*
X0152502Y0083540D01*
X0152500Y0083600D01*
X0142000Y0103600D02*
X0141000Y0103600D01*
X0140500Y0104100D01*
X0131500Y0104100D01*
X0131000Y0103600D01*
X0130000Y0103600D01*
X0129940Y0103602D01*
X0129879Y0103607D01*
X0129820Y0103616D01*
X0129761Y0103629D01*
X0129702Y0103645D01*
X0129645Y0103665D01*
X0129590Y0103688D01*
X0129535Y0103715D01*
X0129483Y0103744D01*
X0129432Y0103777D01*
X0129383Y0103813D01*
X0129337Y0103851D01*
X0129293Y0103893D01*
X0129251Y0103937D01*
X0129213Y0103983D01*
X0129177Y0104032D01*
X0129144Y0104083D01*
X0129115Y0104135D01*
X0129088Y0104190D01*
X0129065Y0104245D01*
X0129045Y0104302D01*
X0129029Y0104361D01*
X0129016Y0104420D01*
X0129007Y0104479D01*
X0129002Y0104540D01*
X0129000Y0104600D01*
X0129000Y0109600D02*
X0129002Y0109660D01*
X0129007Y0109721D01*
X0129016Y0109780D01*
X0129029Y0109839D01*
X0129045Y0109898D01*
X0129065Y0109955D01*
X0129088Y0110010D01*
X0129115Y0110065D01*
X0129144Y0110117D01*
X0129177Y0110168D01*
X0129213Y0110217D01*
X0129251Y0110263D01*
X0129293Y0110307D01*
X0129337Y0110349D01*
X0129383Y0110387D01*
X0129432Y0110423D01*
X0129483Y0110456D01*
X0129535Y0110485D01*
X0129590Y0110512D01*
X0129645Y0110535D01*
X0129702Y0110555D01*
X0129761Y0110571D01*
X0129820Y0110584D01*
X0129879Y0110593D01*
X0129940Y0110598D01*
X0130000Y0110600D01*
X0131000Y0110600D01*
X0131500Y0110100D01*
X0140500Y0110100D01*
X0141000Y0110600D01*
X0142000Y0110600D01*
X0142060Y0110598D01*
X0142121Y0110593D01*
X0142180Y0110584D01*
X0142239Y0110571D01*
X0142298Y0110555D01*
X0142355Y0110535D01*
X0142410Y0110512D01*
X0142465Y0110485D01*
X0142517Y0110456D01*
X0142568Y0110423D01*
X0142617Y0110387D01*
X0142663Y0110349D01*
X0142707Y0110307D01*
X0142749Y0110263D01*
X0142787Y0110217D01*
X0142823Y0110168D01*
X0142856Y0110117D01*
X0142885Y0110065D01*
X0142912Y0110010D01*
X0142935Y0109955D01*
X0142955Y0109898D01*
X0142971Y0109839D01*
X0142984Y0109780D01*
X0142993Y0109721D01*
X0142998Y0109660D01*
X0143000Y0109600D01*
X0142000Y0113600D02*
X0141000Y0113600D01*
X0140500Y0114100D01*
X0131500Y0114100D01*
X0131000Y0113600D01*
X0130000Y0113600D01*
X0129940Y0113602D01*
X0129879Y0113607D01*
X0129820Y0113616D01*
X0129761Y0113629D01*
X0129702Y0113645D01*
X0129645Y0113665D01*
X0129590Y0113688D01*
X0129535Y0113715D01*
X0129483Y0113744D01*
X0129432Y0113777D01*
X0129383Y0113813D01*
X0129337Y0113851D01*
X0129293Y0113893D01*
X0129251Y0113937D01*
X0129213Y0113983D01*
X0129177Y0114032D01*
X0129144Y0114083D01*
X0129115Y0114135D01*
X0129088Y0114190D01*
X0129065Y0114245D01*
X0129045Y0114302D01*
X0129029Y0114361D01*
X0129016Y0114420D01*
X0129007Y0114479D01*
X0129002Y0114540D01*
X0129000Y0114600D01*
X0129000Y0119600D02*
X0129002Y0119660D01*
X0129007Y0119721D01*
X0129016Y0119780D01*
X0129029Y0119839D01*
X0129045Y0119898D01*
X0129065Y0119955D01*
X0129088Y0120010D01*
X0129115Y0120065D01*
X0129144Y0120117D01*
X0129177Y0120168D01*
X0129213Y0120217D01*
X0129251Y0120263D01*
X0129293Y0120307D01*
X0129337Y0120349D01*
X0129383Y0120387D01*
X0129432Y0120423D01*
X0129483Y0120456D01*
X0129535Y0120485D01*
X0129590Y0120512D01*
X0129645Y0120535D01*
X0129702Y0120555D01*
X0129761Y0120571D01*
X0129820Y0120584D01*
X0129879Y0120593D01*
X0129940Y0120598D01*
X0130000Y0120600D01*
X0131000Y0120600D01*
X0131500Y0120100D01*
X0140500Y0120100D01*
X0141000Y0120600D01*
X0142000Y0120600D01*
X0142060Y0120598D01*
X0142121Y0120593D01*
X0142180Y0120584D01*
X0142239Y0120571D01*
X0142298Y0120555D01*
X0142355Y0120535D01*
X0142410Y0120512D01*
X0142465Y0120485D01*
X0142517Y0120456D01*
X0142568Y0120423D01*
X0142617Y0120387D01*
X0142663Y0120349D01*
X0142707Y0120307D01*
X0142749Y0120263D01*
X0142787Y0120217D01*
X0142823Y0120168D01*
X0142856Y0120117D01*
X0142885Y0120065D01*
X0142912Y0120010D01*
X0142935Y0119955D01*
X0142955Y0119898D01*
X0142971Y0119839D01*
X0142984Y0119780D01*
X0142993Y0119721D01*
X0142998Y0119660D01*
X0143000Y0119600D01*
X0143000Y0114600D02*
X0142998Y0114540D01*
X0142993Y0114479D01*
X0142984Y0114420D01*
X0142971Y0114361D01*
X0142955Y0114302D01*
X0142935Y0114245D01*
X0142912Y0114190D01*
X0142885Y0114135D01*
X0142856Y0114083D01*
X0142823Y0114032D01*
X0142787Y0113983D01*
X0142749Y0113937D01*
X0142707Y0113893D01*
X0142663Y0113851D01*
X0142617Y0113813D01*
X0142568Y0113777D01*
X0142517Y0113744D01*
X0142465Y0113715D01*
X0142410Y0113688D01*
X0142355Y0113665D01*
X0142298Y0113645D01*
X0142239Y0113629D01*
X0142180Y0113616D01*
X0142121Y0113607D01*
X0142060Y0113602D01*
X0142000Y0113600D01*
X0143000Y0104600D02*
X0142998Y0104540D01*
X0142993Y0104479D01*
X0142984Y0104420D01*
X0142971Y0104361D01*
X0142955Y0104302D01*
X0142935Y0104245D01*
X0142912Y0104190D01*
X0142885Y0104135D01*
X0142856Y0104083D01*
X0142823Y0104032D01*
X0142787Y0103983D01*
X0142749Y0103937D01*
X0142707Y0103893D01*
X0142663Y0103851D01*
X0142617Y0103813D01*
X0142568Y0103777D01*
X0142517Y0103744D01*
X0142465Y0103715D01*
X0142410Y0103688D01*
X0142355Y0103665D01*
X0142298Y0103645D01*
X0142239Y0103629D01*
X0142180Y0103616D01*
X0142121Y0103607D01*
X0142060Y0103602D01*
X0142000Y0103600D01*
X0152500Y0133600D02*
X0152500Y0134600D01*
X0153000Y0135100D01*
X0153000Y0144100D01*
X0152500Y0144600D01*
X0152500Y0145600D01*
X0152502Y0145660D01*
X0152507Y0145721D01*
X0152516Y0145780D01*
X0152529Y0145839D01*
X0152545Y0145898D01*
X0152565Y0145955D01*
X0152588Y0146010D01*
X0152615Y0146065D01*
X0152644Y0146117D01*
X0152677Y0146168D01*
X0152713Y0146217D01*
X0152751Y0146263D01*
X0152793Y0146307D01*
X0152837Y0146349D01*
X0152883Y0146387D01*
X0152932Y0146423D01*
X0152983Y0146456D01*
X0153035Y0146485D01*
X0153090Y0146512D01*
X0153145Y0146535D01*
X0153202Y0146555D01*
X0153261Y0146571D01*
X0153320Y0146584D01*
X0153379Y0146593D01*
X0153440Y0146598D01*
X0153500Y0146600D01*
X0158500Y0146600D02*
X0158560Y0146598D01*
X0158621Y0146593D01*
X0158680Y0146584D01*
X0158739Y0146571D01*
X0158798Y0146555D01*
X0158855Y0146535D01*
X0158910Y0146512D01*
X0158965Y0146485D01*
X0159017Y0146456D01*
X0159068Y0146423D01*
X0159117Y0146387D01*
X0159163Y0146349D01*
X0159207Y0146307D01*
X0159249Y0146263D01*
X0159287Y0146217D01*
X0159323Y0146168D01*
X0159356Y0146117D01*
X0159385Y0146065D01*
X0159412Y0146010D01*
X0159435Y0145955D01*
X0159455Y0145898D01*
X0159471Y0145839D01*
X0159484Y0145780D01*
X0159493Y0145721D01*
X0159498Y0145660D01*
X0159500Y0145600D01*
X0159500Y0144600D01*
X0159000Y0144100D01*
X0159000Y0135100D01*
X0159500Y0134600D01*
X0159500Y0133600D01*
X0159498Y0133540D01*
X0159493Y0133479D01*
X0159484Y0133420D01*
X0159471Y0133361D01*
X0159455Y0133302D01*
X0159435Y0133245D01*
X0159412Y0133190D01*
X0159385Y0133135D01*
X0159356Y0133083D01*
X0159323Y0133032D01*
X0159287Y0132983D01*
X0159249Y0132937D01*
X0159207Y0132893D01*
X0159163Y0132851D01*
X0159117Y0132813D01*
X0159068Y0132777D01*
X0159017Y0132744D01*
X0158965Y0132715D01*
X0158910Y0132688D01*
X0158855Y0132665D01*
X0158798Y0132645D01*
X0158739Y0132629D01*
X0158680Y0132616D01*
X0158621Y0132607D01*
X0158560Y0132602D01*
X0158500Y0132600D01*
X0153500Y0132600D02*
X0153440Y0132602D01*
X0153379Y0132607D01*
X0153320Y0132616D01*
X0153261Y0132629D01*
X0153202Y0132645D01*
X0153145Y0132665D01*
X0153090Y0132688D01*
X0153035Y0132715D01*
X0152983Y0132744D01*
X0152932Y0132777D01*
X0152883Y0132813D01*
X0152837Y0132851D01*
X0152793Y0132893D01*
X0152751Y0132937D01*
X0152713Y0132983D01*
X0152677Y0133032D01*
X0152644Y0133083D01*
X0152615Y0133135D01*
X0152588Y0133190D01*
X0152565Y0133245D01*
X0152545Y0133302D01*
X0152529Y0133361D01*
X0152516Y0133420D01*
X0152507Y0133479D01*
X0152502Y0133540D01*
X0152500Y0133600D01*
X0152000Y0155100D02*
X0160000Y0155100D01*
X0160060Y0155102D01*
X0160121Y0155107D01*
X0160180Y0155116D01*
X0160239Y0155129D01*
X0160298Y0155145D01*
X0160355Y0155165D01*
X0160410Y0155188D01*
X0160465Y0155215D01*
X0160517Y0155244D01*
X0160568Y0155277D01*
X0160617Y0155313D01*
X0160663Y0155351D01*
X0160707Y0155393D01*
X0160749Y0155437D01*
X0160787Y0155483D01*
X0160823Y0155532D01*
X0160856Y0155583D01*
X0160885Y0155635D01*
X0160912Y0155690D01*
X0160935Y0155745D01*
X0160955Y0155802D01*
X0160971Y0155861D01*
X0160984Y0155920D01*
X0160993Y0155979D01*
X0160998Y0156040D01*
X0161000Y0156100D01*
X0161000Y0183100D01*
X0160998Y0183160D01*
X0160993Y0183221D01*
X0160984Y0183280D01*
X0160971Y0183339D01*
X0160955Y0183398D01*
X0160935Y0183455D01*
X0160912Y0183510D01*
X0160885Y0183565D01*
X0160856Y0183617D01*
X0160823Y0183668D01*
X0160787Y0183717D01*
X0160749Y0183763D01*
X0160707Y0183807D01*
X0160663Y0183849D01*
X0160617Y0183887D01*
X0160568Y0183923D01*
X0160517Y0183956D01*
X0160465Y0183985D01*
X0160410Y0184012D01*
X0160355Y0184035D01*
X0160298Y0184055D01*
X0160239Y0184071D01*
X0160180Y0184084D01*
X0160121Y0184093D01*
X0160060Y0184098D01*
X0160000Y0184100D01*
X0152000Y0184100D01*
X0151940Y0184098D01*
X0151879Y0184093D01*
X0151820Y0184084D01*
X0151761Y0184071D01*
X0151702Y0184055D01*
X0151645Y0184035D01*
X0151590Y0184012D01*
X0151535Y0183985D01*
X0151483Y0183956D01*
X0151432Y0183923D01*
X0151383Y0183887D01*
X0151337Y0183849D01*
X0151293Y0183807D01*
X0151251Y0183763D01*
X0151213Y0183717D01*
X0151177Y0183668D01*
X0151144Y0183617D01*
X0151115Y0183565D01*
X0151088Y0183510D01*
X0151065Y0183455D01*
X0151045Y0183398D01*
X0151029Y0183339D01*
X0151016Y0183280D01*
X0151007Y0183221D01*
X0151002Y0183160D01*
X0151000Y0183100D01*
X0151000Y0156100D01*
X0151002Y0156040D01*
X0151007Y0155979D01*
X0151016Y0155920D01*
X0151029Y0155861D01*
X0151045Y0155802D01*
X0151065Y0155745D01*
X0151088Y0155690D01*
X0151115Y0155635D01*
X0151144Y0155583D01*
X0151177Y0155532D01*
X0151213Y0155483D01*
X0151251Y0155437D01*
X0151293Y0155393D01*
X0151337Y0155351D01*
X0151383Y0155313D01*
X0151432Y0155277D01*
X0151483Y0155244D01*
X0151535Y0155215D01*
X0151590Y0155188D01*
X0151645Y0155165D01*
X0151702Y0155145D01*
X0151761Y0155129D01*
X0151820Y0155116D01*
X0151879Y0155107D01*
X0151940Y0155102D01*
X0152000Y0155100D01*
X0146000Y0156100D02*
X0146000Y0183100D01*
X0145998Y0183160D01*
X0145993Y0183221D01*
X0145984Y0183280D01*
X0145971Y0183339D01*
X0145955Y0183398D01*
X0145935Y0183455D01*
X0145912Y0183510D01*
X0145885Y0183565D01*
X0145856Y0183617D01*
X0145823Y0183668D01*
X0145787Y0183717D01*
X0145749Y0183763D01*
X0145707Y0183807D01*
X0145663Y0183849D01*
X0145617Y0183887D01*
X0145568Y0183923D01*
X0145517Y0183956D01*
X0145465Y0183985D01*
X0145410Y0184012D01*
X0145355Y0184035D01*
X0145298Y0184055D01*
X0145239Y0184071D01*
X0145180Y0184084D01*
X0145121Y0184093D01*
X0145060Y0184098D01*
X0145000Y0184100D01*
X0137000Y0184100D01*
X0136940Y0184098D01*
X0136879Y0184093D01*
X0136820Y0184084D01*
X0136761Y0184071D01*
X0136702Y0184055D01*
X0136645Y0184035D01*
X0136590Y0184012D01*
X0136535Y0183985D01*
X0136483Y0183956D01*
X0136432Y0183923D01*
X0136383Y0183887D01*
X0136337Y0183849D01*
X0136293Y0183807D01*
X0136251Y0183763D01*
X0136213Y0183717D01*
X0136177Y0183668D01*
X0136144Y0183617D01*
X0136115Y0183565D01*
X0136088Y0183510D01*
X0136065Y0183455D01*
X0136045Y0183398D01*
X0136029Y0183339D01*
X0136016Y0183280D01*
X0136007Y0183221D01*
X0136002Y0183160D01*
X0136000Y0183100D01*
X0136000Y0156100D01*
X0136002Y0156040D01*
X0136007Y0155979D01*
X0136016Y0155920D01*
X0136029Y0155861D01*
X0136045Y0155802D01*
X0136065Y0155745D01*
X0136088Y0155690D01*
X0136115Y0155635D01*
X0136144Y0155583D01*
X0136177Y0155532D01*
X0136213Y0155483D01*
X0136251Y0155437D01*
X0136293Y0155393D01*
X0136337Y0155351D01*
X0136383Y0155313D01*
X0136432Y0155277D01*
X0136483Y0155244D01*
X0136535Y0155215D01*
X0136590Y0155188D01*
X0136645Y0155165D01*
X0136702Y0155145D01*
X0136761Y0155129D01*
X0136820Y0155116D01*
X0136879Y0155107D01*
X0136940Y0155102D01*
X0137000Y0155100D01*
X0145000Y0155100D01*
X0145060Y0155102D01*
X0145121Y0155107D01*
X0145180Y0155116D01*
X0145239Y0155129D01*
X0145298Y0155145D01*
X0145355Y0155165D01*
X0145410Y0155188D01*
X0145465Y0155215D01*
X0145517Y0155244D01*
X0145568Y0155277D01*
X0145617Y0155313D01*
X0145663Y0155351D01*
X0145707Y0155393D01*
X0145749Y0155437D01*
X0145787Y0155483D01*
X0145823Y0155532D01*
X0145856Y0155583D01*
X0145885Y0155635D01*
X0145912Y0155690D01*
X0145935Y0155745D01*
X0145955Y0155802D01*
X0145971Y0155861D01*
X0145984Y0155920D01*
X0145993Y0155979D01*
X0145998Y0156040D01*
X0146000Y0156100D01*
X0141000Y0163600D02*
X0141000Y0168400D01*
X0141000Y0170900D02*
X0141000Y0175600D01*
X0132000Y0175600D02*
X0132000Y0174600D01*
X0131500Y0174100D01*
X0131500Y0165100D01*
X0132000Y0164600D01*
X0132000Y0163600D01*
X0131998Y0163540D01*
X0131993Y0163479D01*
X0131984Y0163420D01*
X0131971Y0163361D01*
X0131955Y0163302D01*
X0131935Y0163245D01*
X0131912Y0163190D01*
X0131885Y0163135D01*
X0131856Y0163083D01*
X0131823Y0163032D01*
X0131787Y0162983D01*
X0131749Y0162937D01*
X0131707Y0162893D01*
X0131663Y0162851D01*
X0131617Y0162813D01*
X0131568Y0162777D01*
X0131517Y0162744D01*
X0131465Y0162715D01*
X0131410Y0162688D01*
X0131355Y0162665D01*
X0131298Y0162645D01*
X0131239Y0162629D01*
X0131180Y0162616D01*
X0131121Y0162607D01*
X0131060Y0162602D01*
X0131000Y0162600D01*
X0126000Y0162600D02*
X0125940Y0162602D01*
X0125879Y0162607D01*
X0125820Y0162616D01*
X0125761Y0162629D01*
X0125702Y0162645D01*
X0125645Y0162665D01*
X0125590Y0162688D01*
X0125535Y0162715D01*
X0125483Y0162744D01*
X0125432Y0162777D01*
X0125383Y0162813D01*
X0125337Y0162851D01*
X0125293Y0162893D01*
X0125251Y0162937D01*
X0125213Y0162983D01*
X0125177Y0163032D01*
X0125144Y0163083D01*
X0125115Y0163135D01*
X0125088Y0163190D01*
X0125065Y0163245D01*
X0125045Y0163302D01*
X0125029Y0163361D01*
X0125016Y0163420D01*
X0125007Y0163479D01*
X0125002Y0163540D01*
X0125000Y0163600D01*
X0125000Y0164600D01*
X0125500Y0165100D01*
X0125500Y0174100D01*
X0125000Y0174600D01*
X0125000Y0175600D01*
X0125002Y0175660D01*
X0125007Y0175721D01*
X0125016Y0175780D01*
X0125029Y0175839D01*
X0125045Y0175898D01*
X0125065Y0175955D01*
X0125088Y0176010D01*
X0125115Y0176065D01*
X0125144Y0176117D01*
X0125177Y0176168D01*
X0125213Y0176217D01*
X0125251Y0176263D01*
X0125293Y0176307D01*
X0125337Y0176349D01*
X0125383Y0176387D01*
X0125432Y0176423D01*
X0125483Y0176456D01*
X0125535Y0176485D01*
X0125590Y0176512D01*
X0125645Y0176535D01*
X0125702Y0176555D01*
X0125761Y0176571D01*
X0125820Y0176584D01*
X0125879Y0176593D01*
X0125940Y0176598D01*
X0126000Y0176600D01*
X0131000Y0176600D02*
X0131060Y0176598D01*
X0131121Y0176593D01*
X0131180Y0176584D01*
X0131239Y0176571D01*
X0131298Y0176555D01*
X0131355Y0176535D01*
X0131410Y0176512D01*
X0131465Y0176485D01*
X0131517Y0176456D01*
X0131568Y0176423D01*
X0131617Y0176387D01*
X0131663Y0176349D01*
X0131707Y0176307D01*
X0131749Y0176263D01*
X0131787Y0176217D01*
X0131823Y0176168D01*
X0131856Y0176117D01*
X0131885Y0176065D01*
X0131912Y0176010D01*
X0131935Y0175955D01*
X0131955Y0175898D01*
X0131971Y0175839D01*
X0131984Y0175780D01*
X0131993Y0175721D01*
X0131998Y0175660D01*
X0132000Y0175600D01*
X0140000Y0185600D02*
X0167000Y0185600D01*
X0167219Y0185603D01*
X0167438Y0185611D01*
X0167657Y0185624D01*
X0167875Y0185643D01*
X0168093Y0185667D01*
X0168310Y0185696D01*
X0168527Y0185730D01*
X0168742Y0185770D01*
X0168957Y0185815D01*
X0169170Y0185866D01*
X0169382Y0185921D01*
X0169593Y0185982D01*
X0169802Y0186047D01*
X0170009Y0186118D01*
X0170215Y0186194D01*
X0170419Y0186275D01*
X0170621Y0186360D01*
X0170820Y0186451D01*
X0171017Y0186546D01*
X0171212Y0186647D01*
X0171405Y0186752D01*
X0171595Y0186861D01*
X0171782Y0186975D01*
X0171966Y0187094D01*
X0172147Y0187217D01*
X0172325Y0187345D01*
X0172501Y0187477D01*
X0172672Y0187613D01*
X0172841Y0187753D01*
X0173006Y0187897D01*
X0173167Y0188045D01*
X0173325Y0188197D01*
X0173479Y0188353D01*
X0173629Y0188513D01*
X0173776Y0188676D01*
X0173918Y0188843D01*
X0174056Y0189013D01*
X0174190Y0189187D01*
X0174320Y0189363D01*
X0174445Y0189543D01*
X0174566Y0189726D01*
X0174682Y0189912D01*
X0174794Y0190100D01*
X0174901Y0190291D01*
X0175004Y0190485D01*
X0175102Y0190681D01*
X0175195Y0190879D01*
X0175283Y0191080D01*
X0175366Y0191283D01*
X0175445Y0191488D01*
X0175518Y0191694D01*
X0175586Y0191902D01*
X0175649Y0192112D01*
X0175707Y0192324D01*
X0175760Y0192536D01*
X0175808Y0192750D01*
X0175850Y0192965D01*
X0175887Y0193181D01*
X0175919Y0193398D01*
X0175946Y0193616D01*
X0175967Y0193834D01*
X0175983Y0194052D01*
X0175994Y0194271D01*
X0175999Y0194490D01*
X0175999Y0194710D01*
X0175994Y0194929D01*
X0175983Y0195148D01*
X0175967Y0195366D01*
X0175946Y0195584D01*
X0175919Y0195802D01*
X0175887Y0196019D01*
X0175850Y0196235D01*
X0175808Y0196450D01*
X0175760Y0196664D01*
X0175707Y0196876D01*
X0175649Y0197088D01*
X0175586Y0197298D01*
X0175518Y0197506D01*
X0175445Y0197712D01*
X0175366Y0197917D01*
X0175283Y0198120D01*
X0175195Y0198321D01*
X0175102Y0198519D01*
X0175004Y0198715D01*
X0174901Y0198909D01*
X0174794Y0199100D01*
X0174682Y0199288D01*
X0174566Y0199474D01*
X0174445Y0199657D01*
X0174320Y0199837D01*
X0174190Y0200013D01*
X0174056Y0200187D01*
X0173918Y0200357D01*
X0173776Y0200524D01*
X0173629Y0200687D01*
X0173479Y0200847D01*
X0173325Y0201003D01*
X0173167Y0201155D01*
X0173006Y0201303D01*
X0172841Y0201447D01*
X0172672Y0201587D01*
X0172501Y0201723D01*
X0172325Y0201855D01*
X0172147Y0201983D01*
X0171966Y0202106D01*
X0171782Y0202225D01*
X0171595Y0202339D01*
X0171405Y0202448D01*
X0171212Y0202553D01*
X0171017Y0202654D01*
X0170820Y0202749D01*
X0170621Y0202840D01*
X0170419Y0202925D01*
X0170215Y0203006D01*
X0170009Y0203082D01*
X0169802Y0203153D01*
X0169593Y0203218D01*
X0169382Y0203279D01*
X0169170Y0203334D01*
X0168957Y0203385D01*
X0168742Y0203430D01*
X0168527Y0203470D01*
X0168310Y0203504D01*
X0168093Y0203533D01*
X0167875Y0203557D01*
X0167657Y0203576D01*
X0167438Y0203589D01*
X0167219Y0203597D01*
X0167000Y0203600D01*
X0140000Y0203600D01*
X0139781Y0203597D01*
X0139562Y0203589D01*
X0139343Y0203576D01*
X0139125Y0203557D01*
X0138907Y0203533D01*
X0138690Y0203504D01*
X0138473Y0203470D01*
X0138258Y0203430D01*
X0138043Y0203385D01*
X0137830Y0203334D01*
X0137618Y0203279D01*
X0137407Y0203218D01*
X0137198Y0203153D01*
X0136991Y0203082D01*
X0136785Y0203006D01*
X0136581Y0202925D01*
X0136379Y0202840D01*
X0136180Y0202749D01*
X0135983Y0202654D01*
X0135788Y0202553D01*
X0135595Y0202448D01*
X0135405Y0202339D01*
X0135218Y0202225D01*
X0135034Y0202106D01*
X0134853Y0201983D01*
X0134675Y0201855D01*
X0134499Y0201723D01*
X0134328Y0201587D01*
X0134159Y0201447D01*
X0133994Y0201303D01*
X0133833Y0201155D01*
X0133675Y0201003D01*
X0133521Y0200847D01*
X0133371Y0200687D01*
X0133224Y0200524D01*
X0133082Y0200357D01*
X0132944Y0200187D01*
X0132810Y0200013D01*
X0132680Y0199837D01*
X0132555Y0199657D01*
X0132434Y0199474D01*
X0132318Y0199288D01*
X0132206Y0199100D01*
X0132099Y0198909D01*
X0131996Y0198715D01*
X0131898Y0198519D01*
X0131805Y0198321D01*
X0131717Y0198120D01*
X0131634Y0197917D01*
X0131555Y0197712D01*
X0131482Y0197506D01*
X0131414Y0197298D01*
X0131351Y0197088D01*
X0131293Y0196876D01*
X0131240Y0196664D01*
X0131192Y0196450D01*
X0131150Y0196235D01*
X0131113Y0196019D01*
X0131081Y0195802D01*
X0131054Y0195584D01*
X0131033Y0195366D01*
X0131017Y0195148D01*
X0131006Y0194929D01*
X0131001Y0194710D01*
X0131001Y0194490D01*
X0131006Y0194271D01*
X0131017Y0194052D01*
X0131033Y0193834D01*
X0131054Y0193616D01*
X0131081Y0193398D01*
X0131113Y0193181D01*
X0131150Y0192965D01*
X0131192Y0192750D01*
X0131240Y0192536D01*
X0131293Y0192324D01*
X0131351Y0192112D01*
X0131414Y0191902D01*
X0131482Y0191694D01*
X0131555Y0191488D01*
X0131634Y0191283D01*
X0131717Y0191080D01*
X0131805Y0190879D01*
X0131898Y0190681D01*
X0131996Y0190485D01*
X0132099Y0190291D01*
X0132206Y0190100D01*
X0132318Y0189912D01*
X0132434Y0189726D01*
X0132555Y0189543D01*
X0132680Y0189363D01*
X0132810Y0189187D01*
X0132944Y0189013D01*
X0133082Y0188843D01*
X0133224Y0188676D01*
X0133371Y0188513D01*
X0133521Y0188353D01*
X0133675Y0188197D01*
X0133833Y0188045D01*
X0133994Y0187897D01*
X0134159Y0187753D01*
X0134328Y0187613D01*
X0134499Y0187477D01*
X0134675Y0187345D01*
X0134853Y0187217D01*
X0135034Y0187094D01*
X0135218Y0186975D01*
X0135405Y0186861D01*
X0135595Y0186752D01*
X0135788Y0186647D01*
X0135983Y0186546D01*
X0136180Y0186451D01*
X0136379Y0186360D01*
X0136581Y0186275D01*
X0136785Y0186194D01*
X0136991Y0186118D01*
X0137198Y0186047D01*
X0137407Y0185982D01*
X0137618Y0185921D01*
X0137830Y0185866D01*
X0138043Y0185815D01*
X0138258Y0185770D01*
X0138473Y0185730D01*
X0138690Y0185696D01*
X0138907Y0185667D01*
X0139125Y0185643D01*
X0139343Y0185624D01*
X0139562Y0185611D01*
X0139781Y0185603D01*
X0140000Y0185600D01*
X0156000Y0175600D02*
X0156000Y0170800D01*
X0156000Y0168300D02*
X0156000Y0163600D01*
X0091000Y0182100D02*
X0091000Y0197100D01*
X0088500Y0199600D01*
X0083500Y0199600D01*
X0081000Y0197100D01*
X0078500Y0199600D01*
X0073500Y0199600D01*
X0071000Y0197100D01*
X0068500Y0199600D01*
X0063500Y0199600D01*
X0061000Y0197100D01*
X0061000Y0182100D01*
X0063500Y0179600D01*
X0068500Y0179600D01*
X0071000Y0182100D01*
X0073500Y0179600D01*
X0078500Y0179600D01*
X0081000Y0182100D01*
X0083500Y0179600D01*
X0088500Y0179600D01*
X0091000Y0182100D01*
X0056000Y0182100D02*
X0053500Y0179600D01*
X0048500Y0179600D01*
X0046000Y0182100D01*
X0043500Y0179600D01*
X0038500Y0179600D01*
X0036000Y0182100D01*
X0033500Y0179600D01*
X0028500Y0179600D01*
X0026000Y0182100D01*
X0023500Y0179600D01*
X0018500Y0179600D01*
X0016000Y0182100D01*
X0013500Y0179600D01*
X0008500Y0179600D01*
X0006000Y0182100D01*
X0006000Y0197100D01*
X0008500Y0199600D01*
X0013500Y0199600D01*
X0016000Y0197100D01*
X0018500Y0199600D01*
X0023500Y0199600D01*
X0026000Y0197100D01*
X0028500Y0199600D01*
X0033500Y0199600D01*
X0036000Y0197100D01*
X0038500Y0199600D01*
X0043500Y0199600D01*
X0046000Y0197100D01*
X0048500Y0199600D01*
X0053500Y0199600D01*
X0056000Y0197100D01*
X0056000Y0182100D01*
X0040000Y0159600D02*
X0040004Y0159931D01*
X0040016Y0160262D01*
X0040037Y0160593D01*
X0040065Y0160923D01*
X0040102Y0161253D01*
X0040146Y0161581D01*
X0040199Y0161908D01*
X0040259Y0162234D01*
X0040328Y0162558D01*
X0040405Y0162880D01*
X0040489Y0163201D01*
X0040581Y0163519D01*
X0040681Y0163835D01*
X0040789Y0164148D01*
X0040905Y0164459D01*
X0041028Y0164766D01*
X0041158Y0165071D01*
X0041296Y0165372D01*
X0041441Y0165670D01*
X0041594Y0165964D01*
X0041754Y0166254D01*
X0041921Y0166540D01*
X0042094Y0166822D01*
X0042275Y0167100D01*
X0042463Y0167373D01*
X0042657Y0167642D01*
X0042857Y0167906D01*
X0043064Y0168164D01*
X0043278Y0168418D01*
X0043497Y0168666D01*
X0043723Y0168909D01*
X0043954Y0169146D01*
X0044191Y0169377D01*
X0044434Y0169603D01*
X0044682Y0169822D01*
X0044936Y0170036D01*
X0045194Y0170243D01*
X0045458Y0170443D01*
X0045727Y0170637D01*
X0046000Y0170825D01*
X0046278Y0171006D01*
X0046560Y0171179D01*
X0046846Y0171346D01*
X0047136Y0171506D01*
X0047430Y0171659D01*
X0047728Y0171804D01*
X0048029Y0171942D01*
X0048334Y0172072D01*
X0048641Y0172195D01*
X0048952Y0172311D01*
X0049265Y0172419D01*
X0049581Y0172519D01*
X0049899Y0172611D01*
X0050220Y0172695D01*
X0050542Y0172772D01*
X0050866Y0172841D01*
X0051192Y0172901D01*
X0051519Y0172954D01*
X0051847Y0172998D01*
X0052177Y0173035D01*
X0052507Y0173063D01*
X0052838Y0173084D01*
X0053169Y0173096D01*
X0053500Y0173100D01*
X0053831Y0173096D01*
X0054162Y0173084D01*
X0054493Y0173063D01*
X0054823Y0173035D01*
X0055153Y0172998D01*
X0055481Y0172954D01*
X0055808Y0172901D01*
X0056134Y0172841D01*
X0056458Y0172772D01*
X0056780Y0172695D01*
X0057101Y0172611D01*
X0057419Y0172519D01*
X0057735Y0172419D01*
X0058048Y0172311D01*
X0058359Y0172195D01*
X0058666Y0172072D01*
X0058971Y0171942D01*
X0059272Y0171804D01*
X0059570Y0171659D01*
X0059864Y0171506D01*
X0060154Y0171346D01*
X0060440Y0171179D01*
X0060722Y0171006D01*
X0061000Y0170825D01*
X0061273Y0170637D01*
X0061542Y0170443D01*
X0061806Y0170243D01*
X0062064Y0170036D01*
X0062318Y0169822D01*
X0062566Y0169603D01*
X0062809Y0169377D01*
X0063046Y0169146D01*
X0063277Y0168909D01*
X0063503Y0168666D01*
X0063722Y0168418D01*
X0063936Y0168164D01*
X0064143Y0167906D01*
X0064343Y0167642D01*
X0064537Y0167373D01*
X0064725Y0167100D01*
X0064906Y0166822D01*
X0065079Y0166540D01*
X0065246Y0166254D01*
X0065406Y0165964D01*
X0065559Y0165670D01*
X0065704Y0165372D01*
X0065842Y0165071D01*
X0065972Y0164766D01*
X0066095Y0164459D01*
X0066211Y0164148D01*
X0066319Y0163835D01*
X0066419Y0163519D01*
X0066511Y0163201D01*
X0066595Y0162880D01*
X0066672Y0162558D01*
X0066741Y0162234D01*
X0066801Y0161908D01*
X0066854Y0161581D01*
X0066898Y0161253D01*
X0066935Y0160923D01*
X0066963Y0160593D01*
X0066984Y0160262D01*
X0066996Y0159931D01*
X0067000Y0159600D01*
X0066996Y0159269D01*
X0066984Y0158938D01*
X0066963Y0158607D01*
X0066935Y0158277D01*
X0066898Y0157947D01*
X0066854Y0157619D01*
X0066801Y0157292D01*
X0066741Y0156966D01*
X0066672Y0156642D01*
X0066595Y0156320D01*
X0066511Y0155999D01*
X0066419Y0155681D01*
X0066319Y0155365D01*
X0066211Y0155052D01*
X0066095Y0154741D01*
X0065972Y0154434D01*
X0065842Y0154129D01*
X0065704Y0153828D01*
X0065559Y0153530D01*
X0065406Y0153236D01*
X0065246Y0152946D01*
X0065079Y0152660D01*
X0064906Y0152378D01*
X0064725Y0152100D01*
X0064537Y0151827D01*
X0064343Y0151558D01*
X0064143Y0151294D01*
X0063936Y0151036D01*
X0063722Y0150782D01*
X0063503Y0150534D01*
X0063277Y0150291D01*
X0063046Y0150054D01*
X0062809Y0149823D01*
X0062566Y0149597D01*
X0062318Y0149378D01*
X0062064Y0149164D01*
X0061806Y0148957D01*
X0061542Y0148757D01*
X0061273Y0148563D01*
X0061000Y0148375D01*
X0060722Y0148194D01*
X0060440Y0148021D01*
X0060154Y0147854D01*
X0059864Y0147694D01*
X0059570Y0147541D01*
X0059272Y0147396D01*
X0058971Y0147258D01*
X0058666Y0147128D01*
X0058359Y0147005D01*
X0058048Y0146889D01*
X0057735Y0146781D01*
X0057419Y0146681D01*
X0057101Y0146589D01*
X0056780Y0146505D01*
X0056458Y0146428D01*
X0056134Y0146359D01*
X0055808Y0146299D01*
X0055481Y0146246D01*
X0055153Y0146202D01*
X0054823Y0146165D01*
X0054493Y0146137D01*
X0054162Y0146116D01*
X0053831Y0146104D01*
X0053500Y0146100D01*
X0053169Y0146104D01*
X0052838Y0146116D01*
X0052507Y0146137D01*
X0052177Y0146165D01*
X0051847Y0146202D01*
X0051519Y0146246D01*
X0051192Y0146299D01*
X0050866Y0146359D01*
X0050542Y0146428D01*
X0050220Y0146505D01*
X0049899Y0146589D01*
X0049581Y0146681D01*
X0049265Y0146781D01*
X0048952Y0146889D01*
X0048641Y0147005D01*
X0048334Y0147128D01*
X0048029Y0147258D01*
X0047728Y0147396D01*
X0047430Y0147541D01*
X0047136Y0147694D01*
X0046846Y0147854D01*
X0046560Y0148021D01*
X0046278Y0148194D01*
X0046000Y0148375D01*
X0045727Y0148563D01*
X0045458Y0148757D01*
X0045194Y0148957D01*
X0044936Y0149164D01*
X0044682Y0149378D01*
X0044434Y0149597D01*
X0044191Y0149823D01*
X0043954Y0150054D01*
X0043723Y0150291D01*
X0043497Y0150534D01*
X0043278Y0150782D01*
X0043064Y0151036D01*
X0042857Y0151294D01*
X0042657Y0151558D01*
X0042463Y0151827D01*
X0042275Y0152100D01*
X0042094Y0152378D01*
X0041921Y0152660D01*
X0041754Y0152946D01*
X0041594Y0153236D01*
X0041441Y0153530D01*
X0041296Y0153828D01*
X0041158Y0154129D01*
X0041028Y0154434D01*
X0040905Y0154741D01*
X0040789Y0155052D01*
X0040681Y0155365D01*
X0040581Y0155681D01*
X0040489Y0155999D01*
X0040405Y0156320D01*
X0040328Y0156642D01*
X0040259Y0156966D01*
X0040199Y0157292D01*
X0040146Y0157619D01*
X0040102Y0157947D01*
X0040065Y0158277D01*
X0040037Y0158607D01*
X0040016Y0158938D01*
X0040004Y0159269D01*
X0040000Y0159600D01*
X0028000Y0157100D02*
X0027998Y0157040D01*
X0027993Y0156979D01*
X0027984Y0156920D01*
X0027971Y0156861D01*
X0027955Y0156802D01*
X0027935Y0156745D01*
X0027912Y0156690D01*
X0027885Y0156635D01*
X0027856Y0156583D01*
X0027823Y0156532D01*
X0027787Y0156483D01*
X0027749Y0156437D01*
X0027707Y0156393D01*
X0027663Y0156351D01*
X0027617Y0156313D01*
X0027568Y0156277D01*
X0027517Y0156244D01*
X0027465Y0156215D01*
X0027410Y0156188D01*
X0027355Y0156165D01*
X0027298Y0156145D01*
X0027239Y0156129D01*
X0027180Y0156116D01*
X0027121Y0156107D01*
X0027060Y0156102D01*
X0027000Y0156100D01*
X0026000Y0156100D01*
X0025500Y0156600D01*
X0016500Y0156600D01*
X0016000Y0156100D01*
X0015000Y0156100D01*
X0014940Y0156102D01*
X0014879Y0156107D01*
X0014820Y0156116D01*
X0014761Y0156129D01*
X0014702Y0156145D01*
X0014645Y0156165D01*
X0014590Y0156188D01*
X0014535Y0156215D01*
X0014483Y0156244D01*
X0014432Y0156277D01*
X0014383Y0156313D01*
X0014337Y0156351D01*
X0014293Y0156393D01*
X0014251Y0156437D01*
X0014213Y0156483D01*
X0014177Y0156532D01*
X0014144Y0156583D01*
X0014115Y0156635D01*
X0014088Y0156690D01*
X0014065Y0156745D01*
X0014045Y0156802D01*
X0014029Y0156861D01*
X0014016Y0156920D01*
X0014007Y0156979D01*
X0014002Y0157040D01*
X0014000Y0157100D01*
X0013970Y0154210D02*
X0011470Y0151710D01*
X0011470Y0146710D01*
X0013970Y0144210D01*
X0011470Y0141710D01*
X0011470Y0136710D01*
X0013970Y0134210D01*
X0011470Y0131710D01*
X0011470Y0126710D01*
X0013970Y0124210D01*
X0011470Y0121710D01*
X0011470Y0116710D01*
X0013970Y0114210D01*
X0018970Y0114210D01*
X0021470Y0116710D01*
X0021470Y0121710D01*
X0018970Y0124210D01*
X0021470Y0126710D01*
X0021470Y0131710D01*
X0018970Y0134210D01*
X0021470Y0136710D01*
X0021470Y0141710D01*
X0018970Y0144210D01*
X0021470Y0146710D01*
X0021470Y0151710D01*
X0018970Y0154210D01*
X0013970Y0154210D01*
X0014000Y0162100D02*
X0014002Y0162160D01*
X0014007Y0162221D01*
X0014016Y0162280D01*
X0014029Y0162339D01*
X0014045Y0162398D01*
X0014065Y0162455D01*
X0014088Y0162510D01*
X0014115Y0162565D01*
X0014144Y0162617D01*
X0014177Y0162668D01*
X0014213Y0162717D01*
X0014251Y0162763D01*
X0014293Y0162807D01*
X0014337Y0162849D01*
X0014383Y0162887D01*
X0014432Y0162923D01*
X0014483Y0162956D01*
X0014535Y0162985D01*
X0014590Y0163012D01*
X0014645Y0163035D01*
X0014702Y0163055D01*
X0014761Y0163071D01*
X0014820Y0163084D01*
X0014879Y0163093D01*
X0014940Y0163098D01*
X0015000Y0163100D01*
X0016000Y0163100D01*
X0016500Y0162600D01*
X0025500Y0162600D01*
X0026000Y0163100D01*
X0027000Y0163100D01*
X0027060Y0163098D01*
X0027121Y0163093D01*
X0027180Y0163084D01*
X0027239Y0163071D01*
X0027298Y0163055D01*
X0027355Y0163035D01*
X0027410Y0163012D01*
X0027465Y0162985D01*
X0027517Y0162956D01*
X0027568Y0162923D01*
X0027617Y0162887D01*
X0027663Y0162849D01*
X0027707Y0162807D01*
X0027749Y0162763D01*
X0027787Y0162717D01*
X0027823Y0162668D01*
X0027856Y0162617D01*
X0027885Y0162565D01*
X0027912Y0162510D01*
X0027935Y0162455D01*
X0027955Y0162398D01*
X0027971Y0162339D01*
X0027984Y0162280D01*
X0027993Y0162221D01*
X0027998Y0162160D01*
X0028000Y0162100D01*
X0027000Y0166100D02*
X0026000Y0166100D01*
X0025500Y0166600D01*
X0016500Y0166600D01*
X0016000Y0166100D01*
X0015000Y0166100D01*
X0014940Y0166102D01*
X0014879Y0166107D01*
X0014820Y0166116D01*
X0014761Y0166129D01*
X0014702Y0166145D01*
X0014645Y0166165D01*
X0014590Y0166188D01*
X0014535Y0166215D01*
X0014483Y0166244D01*
X0014432Y0166277D01*
X0014383Y0166313D01*
X0014337Y0166351D01*
X0014293Y0166393D01*
X0014251Y0166437D01*
X0014213Y0166483D01*
X0014177Y0166532D01*
X0014144Y0166583D01*
X0014115Y0166635D01*
X0014088Y0166690D01*
X0014065Y0166745D01*
X0014045Y0166802D01*
X0014029Y0166861D01*
X0014016Y0166920D01*
X0014007Y0166979D01*
X0014002Y0167040D01*
X0014000Y0167100D01*
X0014000Y0172100D02*
X0014002Y0172160D01*
X0014007Y0172221D01*
X0014016Y0172280D01*
X0014029Y0172339D01*
X0014045Y0172398D01*
X0014065Y0172455D01*
X0014088Y0172510D01*
X0014115Y0172565D01*
X0014144Y0172617D01*
X0014177Y0172668D01*
X0014213Y0172717D01*
X0014251Y0172763D01*
X0014293Y0172807D01*
X0014337Y0172849D01*
X0014383Y0172887D01*
X0014432Y0172923D01*
X0014483Y0172956D01*
X0014535Y0172985D01*
X0014590Y0173012D01*
X0014645Y0173035D01*
X0014702Y0173055D01*
X0014761Y0173071D01*
X0014820Y0173084D01*
X0014879Y0173093D01*
X0014940Y0173098D01*
X0015000Y0173100D01*
X0016000Y0173100D01*
X0016500Y0172600D01*
X0025500Y0172600D01*
X0026000Y0173100D01*
X0027000Y0173100D01*
X0027060Y0173098D01*
X0027121Y0173093D01*
X0027180Y0173084D01*
X0027239Y0173071D01*
X0027298Y0173055D01*
X0027355Y0173035D01*
X0027410Y0173012D01*
X0027465Y0172985D01*
X0027517Y0172956D01*
X0027568Y0172923D01*
X0027617Y0172887D01*
X0027663Y0172849D01*
X0027707Y0172807D01*
X0027749Y0172763D01*
X0027787Y0172717D01*
X0027823Y0172668D01*
X0027856Y0172617D01*
X0027885Y0172565D01*
X0027912Y0172510D01*
X0027935Y0172455D01*
X0027955Y0172398D01*
X0027971Y0172339D01*
X0027984Y0172280D01*
X0027993Y0172221D01*
X0027998Y0172160D01*
X0028000Y0172100D01*
X0028000Y0167100D02*
X0027998Y0167040D01*
X0027993Y0166979D01*
X0027984Y0166920D01*
X0027971Y0166861D01*
X0027955Y0166802D01*
X0027935Y0166745D01*
X0027912Y0166690D01*
X0027885Y0166635D01*
X0027856Y0166583D01*
X0027823Y0166532D01*
X0027787Y0166483D01*
X0027749Y0166437D01*
X0027707Y0166393D01*
X0027663Y0166351D01*
X0027617Y0166313D01*
X0027568Y0166277D01*
X0027517Y0166244D01*
X0027465Y0166215D01*
X0027410Y0166188D01*
X0027355Y0166165D01*
X0027298Y0166145D01*
X0027239Y0166129D01*
X0027180Y0166116D01*
X0027121Y0166107D01*
X0027060Y0166102D01*
X0027000Y0166100D01*
X0037500Y0140600D02*
X0038500Y0140600D01*
X0039000Y0140100D01*
X0048000Y0140100D01*
X0048500Y0140600D01*
X0049500Y0140600D01*
X0049560Y0140598D01*
X0049621Y0140593D01*
X0049680Y0140584D01*
X0049739Y0140571D01*
X0049798Y0140555D01*
X0049855Y0140535D01*
X0049910Y0140512D01*
X0049965Y0140485D01*
X0050017Y0140456D01*
X0050068Y0140423D01*
X0050117Y0140387D01*
X0050163Y0140349D01*
X0050207Y0140307D01*
X0050249Y0140263D01*
X0050287Y0140217D01*
X0050323Y0140168D01*
X0050356Y0140117D01*
X0050385Y0140065D01*
X0050412Y0140010D01*
X0050435Y0139955D01*
X0050455Y0139898D01*
X0050471Y0139839D01*
X0050484Y0139780D01*
X0050493Y0139721D01*
X0050498Y0139660D01*
X0050500Y0139600D01*
X0050500Y0134600D02*
X0050498Y0134540D01*
X0050493Y0134479D01*
X0050484Y0134420D01*
X0050471Y0134361D01*
X0050455Y0134302D01*
X0050435Y0134245D01*
X0050412Y0134190D01*
X0050385Y0134135D01*
X0050356Y0134083D01*
X0050323Y0134032D01*
X0050287Y0133983D01*
X0050249Y0133937D01*
X0050207Y0133893D01*
X0050163Y0133851D01*
X0050117Y0133813D01*
X0050068Y0133777D01*
X0050017Y0133744D01*
X0049965Y0133715D01*
X0049910Y0133688D01*
X0049855Y0133665D01*
X0049798Y0133645D01*
X0049739Y0133629D01*
X0049680Y0133616D01*
X0049621Y0133607D01*
X0049560Y0133602D01*
X0049500Y0133600D01*
X0048500Y0133600D01*
X0048000Y0134100D01*
X0039000Y0134100D01*
X0038500Y0133600D01*
X0037500Y0133600D01*
X0037440Y0133602D01*
X0037379Y0133607D01*
X0037320Y0133616D01*
X0037261Y0133629D01*
X0037202Y0133645D01*
X0037145Y0133665D01*
X0037090Y0133688D01*
X0037035Y0133715D01*
X0036983Y0133744D01*
X0036932Y0133777D01*
X0036883Y0133813D01*
X0036837Y0133851D01*
X0036793Y0133893D01*
X0036751Y0133937D01*
X0036713Y0133983D01*
X0036677Y0134032D01*
X0036644Y0134083D01*
X0036615Y0134135D01*
X0036588Y0134190D01*
X0036565Y0134245D01*
X0036545Y0134302D01*
X0036529Y0134361D01*
X0036516Y0134420D01*
X0036507Y0134479D01*
X0036502Y0134540D01*
X0036500Y0134600D01*
X0037500Y0130600D02*
X0038500Y0130600D01*
X0039000Y0130100D01*
X0048000Y0130100D01*
X0048500Y0130600D01*
X0049500Y0130600D01*
X0049560Y0130598D01*
X0049621Y0130593D01*
X0049680Y0130584D01*
X0049739Y0130571D01*
X0049798Y0130555D01*
X0049855Y0130535D01*
X0049910Y0130512D01*
X0049965Y0130485D01*
X0050017Y0130456D01*
X0050068Y0130423D01*
X0050117Y0130387D01*
X0050163Y0130349D01*
X0050207Y0130307D01*
X0050249Y0130263D01*
X0050287Y0130217D01*
X0050323Y0130168D01*
X0050356Y0130117D01*
X0050385Y0130065D01*
X0050412Y0130010D01*
X0050435Y0129955D01*
X0050455Y0129898D01*
X0050471Y0129839D01*
X0050484Y0129780D01*
X0050493Y0129721D01*
X0050498Y0129660D01*
X0050500Y0129600D01*
X0050500Y0124600D02*
X0050498Y0124540D01*
X0050493Y0124479D01*
X0050484Y0124420D01*
X0050471Y0124361D01*
X0050455Y0124302D01*
X0050435Y0124245D01*
X0050412Y0124190D01*
X0050385Y0124135D01*
X0050356Y0124083D01*
X0050323Y0124032D01*
X0050287Y0123983D01*
X0050249Y0123937D01*
X0050207Y0123893D01*
X0050163Y0123851D01*
X0050117Y0123813D01*
X0050068Y0123777D01*
X0050017Y0123744D01*
X0049965Y0123715D01*
X0049910Y0123688D01*
X0049855Y0123665D01*
X0049798Y0123645D01*
X0049739Y0123629D01*
X0049680Y0123616D01*
X0049621Y0123607D01*
X0049560Y0123602D01*
X0049500Y0123600D01*
X0048500Y0123600D01*
X0048000Y0124100D01*
X0039000Y0124100D01*
X0038500Y0123600D01*
X0037500Y0123600D01*
X0037440Y0123602D01*
X0037379Y0123607D01*
X0037320Y0123616D01*
X0037261Y0123629D01*
X0037202Y0123645D01*
X0037145Y0123665D01*
X0037090Y0123688D01*
X0037035Y0123715D01*
X0036983Y0123744D01*
X0036932Y0123777D01*
X0036883Y0123813D01*
X0036837Y0123851D01*
X0036793Y0123893D01*
X0036751Y0123937D01*
X0036713Y0123983D01*
X0036677Y0124032D01*
X0036644Y0124083D01*
X0036615Y0124135D01*
X0036588Y0124190D01*
X0036565Y0124245D01*
X0036545Y0124302D01*
X0036529Y0124361D01*
X0036516Y0124420D01*
X0036507Y0124479D01*
X0036502Y0124540D01*
X0036500Y0124600D01*
X0037370Y0120730D02*
X0038370Y0120730D01*
X0038870Y0120230D01*
X0047870Y0120230D01*
X0048370Y0120730D01*
X0049370Y0120730D01*
X0049430Y0120728D01*
X0049491Y0120723D01*
X0049550Y0120714D01*
X0049609Y0120701D01*
X0049668Y0120685D01*
X0049725Y0120665D01*
X0049780Y0120642D01*
X0049835Y0120615D01*
X0049887Y0120586D01*
X0049938Y0120553D01*
X0049987Y0120517D01*
X0050033Y0120479D01*
X0050077Y0120437D01*
X0050119Y0120393D01*
X0050157Y0120347D01*
X0050193Y0120298D01*
X0050226Y0120247D01*
X0050255Y0120195D01*
X0050282Y0120140D01*
X0050305Y0120085D01*
X0050325Y0120028D01*
X0050341Y0119969D01*
X0050354Y0119910D01*
X0050363Y0119851D01*
X0050368Y0119790D01*
X0050370Y0119730D01*
X0050370Y0114730D02*
X0050368Y0114670D01*
X0050363Y0114609D01*
X0050354Y0114550D01*
X0050341Y0114491D01*
X0050325Y0114432D01*
X0050305Y0114375D01*
X0050282Y0114320D01*
X0050255Y0114265D01*
X0050226Y0114213D01*
X0050193Y0114162D01*
X0050157Y0114113D01*
X0050119Y0114067D01*
X0050077Y0114023D01*
X0050033Y0113981D01*
X0049987Y0113943D01*
X0049938Y0113907D01*
X0049887Y0113874D01*
X0049835Y0113845D01*
X0049780Y0113818D01*
X0049725Y0113795D01*
X0049668Y0113775D01*
X0049609Y0113759D01*
X0049550Y0113746D01*
X0049491Y0113737D01*
X0049430Y0113732D01*
X0049370Y0113730D01*
X0048370Y0113730D01*
X0047870Y0114230D01*
X0038870Y0114230D01*
X0038370Y0113730D01*
X0037370Y0113730D01*
X0037310Y0113732D01*
X0037249Y0113737D01*
X0037190Y0113746D01*
X0037131Y0113759D01*
X0037072Y0113775D01*
X0037015Y0113795D01*
X0036960Y0113818D01*
X0036905Y0113845D01*
X0036853Y0113874D01*
X0036802Y0113907D01*
X0036753Y0113943D01*
X0036707Y0113981D01*
X0036663Y0114023D01*
X0036621Y0114067D01*
X0036583Y0114113D01*
X0036547Y0114162D01*
X0036514Y0114213D01*
X0036485Y0114265D01*
X0036458Y0114320D01*
X0036435Y0114375D01*
X0036415Y0114432D01*
X0036399Y0114491D01*
X0036386Y0114550D01*
X0036377Y0114609D01*
X0036372Y0114670D01*
X0036370Y0114730D01*
X0037500Y0110600D02*
X0038500Y0110600D01*
X0039000Y0110100D01*
X0048000Y0110100D01*
X0048500Y0110600D01*
X0049500Y0110600D01*
X0049560Y0110598D01*
X0049621Y0110593D01*
X0049680Y0110584D01*
X0049739Y0110571D01*
X0049798Y0110555D01*
X0049855Y0110535D01*
X0049910Y0110512D01*
X0049965Y0110485D01*
X0050017Y0110456D01*
X0050068Y0110423D01*
X0050117Y0110387D01*
X0050163Y0110349D01*
X0050207Y0110307D01*
X0050249Y0110263D01*
X0050287Y0110217D01*
X0050323Y0110168D01*
X0050356Y0110117D01*
X0050385Y0110065D01*
X0050412Y0110010D01*
X0050435Y0109955D01*
X0050455Y0109898D01*
X0050471Y0109839D01*
X0050484Y0109780D01*
X0050493Y0109721D01*
X0050498Y0109660D01*
X0050500Y0109600D01*
X0050500Y0104600D02*
X0050498Y0104540D01*
X0050493Y0104479D01*
X0050484Y0104420D01*
X0050471Y0104361D01*
X0050455Y0104302D01*
X0050435Y0104245D01*
X0050412Y0104190D01*
X0050385Y0104135D01*
X0050356Y0104083D01*
X0050323Y0104032D01*
X0050287Y0103983D01*
X0050249Y0103937D01*
X0050207Y0103893D01*
X0050163Y0103851D01*
X0050117Y0103813D01*
X0050068Y0103777D01*
X0050017Y0103744D01*
X0049965Y0103715D01*
X0049910Y0103688D01*
X0049855Y0103665D01*
X0049798Y0103645D01*
X0049739Y0103629D01*
X0049680Y0103616D01*
X0049621Y0103607D01*
X0049560Y0103602D01*
X0049500Y0103600D01*
X0048500Y0103600D01*
X0048000Y0104100D01*
X0039000Y0104100D01*
X0038500Y0103600D01*
X0037500Y0103600D01*
X0037440Y0103602D01*
X0037379Y0103607D01*
X0037320Y0103616D01*
X0037261Y0103629D01*
X0037202Y0103645D01*
X0037145Y0103665D01*
X0037090Y0103688D01*
X0037035Y0103715D01*
X0036983Y0103744D01*
X0036932Y0103777D01*
X0036883Y0103813D01*
X0036837Y0103851D01*
X0036793Y0103893D01*
X0036751Y0103937D01*
X0036713Y0103983D01*
X0036677Y0104032D01*
X0036644Y0104083D01*
X0036615Y0104135D01*
X0036588Y0104190D01*
X0036565Y0104245D01*
X0036545Y0104302D01*
X0036529Y0104361D01*
X0036516Y0104420D01*
X0036507Y0104479D01*
X0036502Y0104540D01*
X0036500Y0104600D01*
X0037390Y0101530D02*
X0038390Y0101530D01*
X0038890Y0101030D01*
X0047890Y0101030D01*
X0048390Y0101530D01*
X0049390Y0101530D01*
X0049450Y0101528D01*
X0049511Y0101523D01*
X0049570Y0101514D01*
X0049629Y0101501D01*
X0049688Y0101485D01*
X0049745Y0101465D01*
X0049800Y0101442D01*
X0049855Y0101415D01*
X0049907Y0101386D01*
X0049958Y0101353D01*
X0050007Y0101317D01*
X0050053Y0101279D01*
X0050097Y0101237D01*
X0050139Y0101193D01*
X0050177Y0101147D01*
X0050213Y0101098D01*
X0050246Y0101047D01*
X0050275Y0100995D01*
X0050302Y0100940D01*
X0050325Y0100885D01*
X0050345Y0100828D01*
X0050361Y0100769D01*
X0050374Y0100710D01*
X0050383Y0100651D01*
X0050388Y0100590D01*
X0050390Y0100530D01*
X0050390Y0095530D02*
X0050388Y0095470D01*
X0050383Y0095409D01*
X0050374Y0095350D01*
X0050361Y0095291D01*
X0050345Y0095232D01*
X0050325Y0095175D01*
X0050302Y0095120D01*
X0050275Y0095065D01*
X0050246Y0095013D01*
X0050213Y0094962D01*
X0050177Y0094913D01*
X0050139Y0094867D01*
X0050097Y0094823D01*
X0050053Y0094781D01*
X0050007Y0094743D01*
X0049958Y0094707D01*
X0049907Y0094674D01*
X0049855Y0094645D01*
X0049800Y0094618D01*
X0049745Y0094595D01*
X0049688Y0094575D01*
X0049629Y0094559D01*
X0049570Y0094546D01*
X0049511Y0094537D01*
X0049450Y0094532D01*
X0049390Y0094530D01*
X0048390Y0094530D01*
X0047890Y0095030D01*
X0038890Y0095030D01*
X0038390Y0094530D01*
X0037390Y0094530D01*
X0037330Y0094532D01*
X0037269Y0094537D01*
X0037210Y0094546D01*
X0037151Y0094559D01*
X0037092Y0094575D01*
X0037035Y0094595D01*
X0036980Y0094618D01*
X0036925Y0094645D01*
X0036873Y0094674D01*
X0036822Y0094707D01*
X0036773Y0094743D01*
X0036727Y0094781D01*
X0036683Y0094823D01*
X0036641Y0094867D01*
X0036603Y0094913D01*
X0036567Y0094962D01*
X0036534Y0095013D01*
X0036505Y0095065D01*
X0036478Y0095120D01*
X0036455Y0095175D01*
X0036435Y0095232D01*
X0036419Y0095291D01*
X0036406Y0095350D01*
X0036397Y0095409D01*
X0036392Y0095470D01*
X0036390Y0095530D01*
X0036390Y0100530D02*
X0036392Y0100590D01*
X0036397Y0100651D01*
X0036406Y0100710D01*
X0036419Y0100769D01*
X0036435Y0100828D01*
X0036455Y0100885D01*
X0036478Y0100940D01*
X0036505Y0100995D01*
X0036534Y0101047D01*
X0036567Y0101098D01*
X0036603Y0101147D01*
X0036641Y0101193D01*
X0036683Y0101237D01*
X0036727Y0101279D01*
X0036773Y0101317D01*
X0036822Y0101353D01*
X0036873Y0101386D01*
X0036925Y0101415D01*
X0036980Y0101442D01*
X0037035Y0101465D01*
X0037092Y0101485D01*
X0037151Y0101501D01*
X0037210Y0101514D01*
X0037269Y0101523D01*
X0037330Y0101528D01*
X0037390Y0101530D01*
X0036500Y0109600D02*
X0036502Y0109660D01*
X0036507Y0109721D01*
X0036516Y0109780D01*
X0036529Y0109839D01*
X0036545Y0109898D01*
X0036565Y0109955D01*
X0036588Y0110010D01*
X0036615Y0110065D01*
X0036644Y0110117D01*
X0036677Y0110168D01*
X0036713Y0110217D01*
X0036751Y0110263D01*
X0036793Y0110307D01*
X0036837Y0110349D01*
X0036883Y0110387D01*
X0036932Y0110423D01*
X0036983Y0110456D01*
X0037035Y0110485D01*
X0037090Y0110512D01*
X0037145Y0110535D01*
X0037202Y0110555D01*
X0037261Y0110571D01*
X0037320Y0110584D01*
X0037379Y0110593D01*
X0037440Y0110598D01*
X0037500Y0110600D01*
X0036370Y0119730D02*
X0036372Y0119790D01*
X0036377Y0119851D01*
X0036386Y0119910D01*
X0036399Y0119969D01*
X0036415Y0120028D01*
X0036435Y0120085D01*
X0036458Y0120140D01*
X0036485Y0120195D01*
X0036514Y0120247D01*
X0036547Y0120298D01*
X0036583Y0120347D01*
X0036621Y0120393D01*
X0036663Y0120437D01*
X0036707Y0120479D01*
X0036753Y0120517D01*
X0036802Y0120553D01*
X0036853Y0120586D01*
X0036905Y0120615D01*
X0036960Y0120642D01*
X0037015Y0120665D01*
X0037072Y0120685D01*
X0037131Y0120701D01*
X0037190Y0120714D01*
X0037249Y0120723D01*
X0037310Y0120728D01*
X0037370Y0120730D01*
X0036500Y0129600D02*
X0036502Y0129660D01*
X0036507Y0129721D01*
X0036516Y0129780D01*
X0036529Y0129839D01*
X0036545Y0129898D01*
X0036565Y0129955D01*
X0036588Y0130010D01*
X0036615Y0130065D01*
X0036644Y0130117D01*
X0036677Y0130168D01*
X0036713Y0130217D01*
X0036751Y0130263D01*
X0036793Y0130307D01*
X0036837Y0130349D01*
X0036883Y0130387D01*
X0036932Y0130423D01*
X0036983Y0130456D01*
X0037035Y0130485D01*
X0037090Y0130512D01*
X0037145Y0130535D01*
X0037202Y0130555D01*
X0037261Y0130571D01*
X0037320Y0130584D01*
X0037379Y0130593D01*
X0037440Y0130598D01*
X0037500Y0130600D01*
X0036500Y0139600D02*
X0036502Y0139660D01*
X0036507Y0139721D01*
X0036516Y0139780D01*
X0036529Y0139839D01*
X0036545Y0139898D01*
X0036565Y0139955D01*
X0036588Y0140010D01*
X0036615Y0140065D01*
X0036644Y0140117D01*
X0036677Y0140168D01*
X0036713Y0140217D01*
X0036751Y0140263D01*
X0036793Y0140307D01*
X0036837Y0140349D01*
X0036883Y0140387D01*
X0036932Y0140423D01*
X0036983Y0140456D01*
X0037035Y0140485D01*
X0037090Y0140512D01*
X0037145Y0140535D01*
X0037202Y0140555D01*
X0037261Y0140571D01*
X0037320Y0140584D01*
X0037379Y0140593D01*
X0037440Y0140598D01*
X0037500Y0140600D01*
X0063760Y0114670D02*
X0063760Y0113670D01*
X0064260Y0113170D01*
X0064260Y0104170D01*
X0063760Y0103670D01*
X0063760Y0102670D01*
X0063762Y0102610D01*
X0063767Y0102549D01*
X0063776Y0102490D01*
X0063789Y0102431D01*
X0063805Y0102372D01*
X0063825Y0102315D01*
X0063848Y0102260D01*
X0063875Y0102205D01*
X0063904Y0102153D01*
X0063937Y0102102D01*
X0063973Y0102053D01*
X0064011Y0102007D01*
X0064053Y0101963D01*
X0064097Y0101921D01*
X0064143Y0101883D01*
X0064192Y0101847D01*
X0064243Y0101814D01*
X0064295Y0101785D01*
X0064350Y0101758D01*
X0064405Y0101735D01*
X0064462Y0101715D01*
X0064521Y0101699D01*
X0064580Y0101686D01*
X0064639Y0101677D01*
X0064700Y0101672D01*
X0064760Y0101670D01*
X0069760Y0101670D02*
X0069820Y0101672D01*
X0069881Y0101677D01*
X0069940Y0101686D01*
X0069999Y0101699D01*
X0070058Y0101715D01*
X0070115Y0101735D01*
X0070170Y0101758D01*
X0070225Y0101785D01*
X0070277Y0101814D01*
X0070328Y0101847D01*
X0070377Y0101883D01*
X0070423Y0101921D01*
X0070467Y0101963D01*
X0070509Y0102007D01*
X0070547Y0102053D01*
X0070583Y0102102D01*
X0070616Y0102153D01*
X0070645Y0102205D01*
X0070672Y0102260D01*
X0070695Y0102315D01*
X0070715Y0102372D01*
X0070731Y0102431D01*
X0070744Y0102490D01*
X0070753Y0102549D01*
X0070758Y0102610D01*
X0070760Y0102670D01*
X0070760Y0103670D01*
X0070260Y0104170D01*
X0070260Y0113170D01*
X0070760Y0113670D01*
X0070760Y0114670D01*
X0070758Y0114730D01*
X0070753Y0114791D01*
X0070744Y0114850D01*
X0070731Y0114909D01*
X0070715Y0114968D01*
X0070695Y0115025D01*
X0070672Y0115080D01*
X0070645Y0115135D01*
X0070616Y0115187D01*
X0070583Y0115238D01*
X0070547Y0115287D01*
X0070509Y0115333D01*
X0070467Y0115377D01*
X0070423Y0115419D01*
X0070377Y0115457D01*
X0070328Y0115493D01*
X0070277Y0115526D01*
X0070225Y0115555D01*
X0070170Y0115582D01*
X0070115Y0115605D01*
X0070058Y0115625D01*
X0069999Y0115641D01*
X0069940Y0115654D01*
X0069881Y0115663D01*
X0069820Y0115668D01*
X0069760Y0115670D01*
X0064760Y0115670D02*
X0064700Y0115668D01*
X0064639Y0115663D01*
X0064580Y0115654D01*
X0064521Y0115641D01*
X0064462Y0115625D01*
X0064405Y0115605D01*
X0064350Y0115582D01*
X0064295Y0115555D01*
X0064243Y0115526D01*
X0064192Y0115493D01*
X0064143Y0115457D01*
X0064097Y0115419D01*
X0064053Y0115377D01*
X0064011Y0115333D01*
X0063973Y0115287D01*
X0063937Y0115238D01*
X0063904Y0115187D01*
X0063875Y0115135D01*
X0063848Y0115080D01*
X0063825Y0115025D01*
X0063805Y0114968D01*
X0063789Y0114909D01*
X0063776Y0114850D01*
X0063767Y0114791D01*
X0063762Y0114730D01*
X0063760Y0114670D01*
X0006000Y0103840D02*
X0006003Y0104085D01*
X0006012Y0104331D01*
X0006027Y0104576D01*
X0006048Y0104820D01*
X0006075Y0105064D01*
X0006108Y0105307D01*
X0006147Y0105550D01*
X0006192Y0105791D01*
X0006243Y0106031D01*
X0006300Y0106270D01*
X0006362Y0106507D01*
X0006431Y0106743D01*
X0006505Y0106977D01*
X0006585Y0107209D01*
X0006670Y0107439D01*
X0006761Y0107667D01*
X0006858Y0107892D01*
X0006960Y0108116D01*
X0007068Y0108336D01*
X0007181Y0108554D01*
X0007299Y0108769D01*
X0007423Y0108981D01*
X0007551Y0109190D01*
X0007685Y0109396D01*
X0007824Y0109598D01*
X0007968Y0109797D01*
X0008117Y0109992D01*
X0008270Y0110184D01*
X0008428Y0110372D01*
X0008590Y0110556D01*
X0008758Y0110735D01*
X0008929Y0110911D01*
X0009105Y0111082D01*
X0009284Y0111250D01*
X0009468Y0111412D01*
X0009656Y0111570D01*
X0009848Y0111723D01*
X0010043Y0111872D01*
X0010242Y0112016D01*
X0010444Y0112155D01*
X0010650Y0112289D01*
X0010859Y0112417D01*
X0011071Y0112541D01*
X0011286Y0112659D01*
X0011504Y0112772D01*
X0011724Y0112880D01*
X0011948Y0112982D01*
X0012173Y0113079D01*
X0012401Y0113170D01*
X0012631Y0113255D01*
X0012863Y0113335D01*
X0013097Y0113409D01*
X0013333Y0113478D01*
X0013570Y0113540D01*
X0013809Y0113597D01*
X0014049Y0113648D01*
X0014290Y0113693D01*
X0014533Y0113732D01*
X0014776Y0113765D01*
X0015020Y0113792D01*
X0015264Y0113813D01*
X0015509Y0113828D01*
X0015755Y0113837D01*
X0016000Y0113840D01*
X0016245Y0113837D01*
X0016491Y0113828D01*
X0016736Y0113813D01*
X0016980Y0113792D01*
X0017224Y0113765D01*
X0017467Y0113732D01*
X0017710Y0113693D01*
X0017951Y0113648D01*
X0018191Y0113597D01*
X0018430Y0113540D01*
X0018667Y0113478D01*
X0018903Y0113409D01*
X0019137Y0113335D01*
X0019369Y0113255D01*
X0019599Y0113170D01*
X0019827Y0113079D01*
X0020052Y0112982D01*
X0020276Y0112880D01*
X0020496Y0112772D01*
X0020714Y0112659D01*
X0020929Y0112541D01*
X0021141Y0112417D01*
X0021350Y0112289D01*
X0021556Y0112155D01*
X0021758Y0112016D01*
X0021957Y0111872D01*
X0022152Y0111723D01*
X0022344Y0111570D01*
X0022532Y0111412D01*
X0022716Y0111250D01*
X0022895Y0111082D01*
X0023071Y0110911D01*
X0023242Y0110735D01*
X0023410Y0110556D01*
X0023572Y0110372D01*
X0023730Y0110184D01*
X0023883Y0109992D01*
X0024032Y0109797D01*
X0024176Y0109598D01*
X0024315Y0109396D01*
X0024449Y0109190D01*
X0024577Y0108981D01*
X0024701Y0108769D01*
X0024819Y0108554D01*
X0024932Y0108336D01*
X0025040Y0108116D01*
X0025142Y0107892D01*
X0025239Y0107667D01*
X0025330Y0107439D01*
X0025415Y0107209D01*
X0025495Y0106977D01*
X0025569Y0106743D01*
X0025638Y0106507D01*
X0025700Y0106270D01*
X0025757Y0106031D01*
X0025808Y0105791D01*
X0025853Y0105550D01*
X0025892Y0105307D01*
X0025925Y0105064D01*
X0025952Y0104820D01*
X0025973Y0104576D01*
X0025988Y0104331D01*
X0025997Y0104085D01*
X0026000Y0103840D01*
X0025997Y0103595D01*
X0025988Y0103349D01*
X0025973Y0103104D01*
X0025952Y0102860D01*
X0025925Y0102616D01*
X0025892Y0102373D01*
X0025853Y0102130D01*
X0025808Y0101889D01*
X0025757Y0101649D01*
X0025700Y0101410D01*
X0025638Y0101173D01*
X0025569Y0100937D01*
X0025495Y0100703D01*
X0025415Y0100471D01*
X0025330Y0100241D01*
X0025239Y0100013D01*
X0025142Y0099788D01*
X0025040Y0099564D01*
X0024932Y0099344D01*
X0024819Y0099126D01*
X0024701Y0098911D01*
X0024577Y0098699D01*
X0024449Y0098490D01*
X0024315Y0098284D01*
X0024176Y0098082D01*
X0024032Y0097883D01*
X0023883Y0097688D01*
X0023730Y0097496D01*
X0023572Y0097308D01*
X0023410Y0097124D01*
X0023242Y0096945D01*
X0023071Y0096769D01*
X0022895Y0096598D01*
X0022716Y0096430D01*
X0022532Y0096268D01*
X0022344Y0096110D01*
X0022152Y0095957D01*
X0021957Y0095808D01*
X0021758Y0095664D01*
X0021556Y0095525D01*
X0021350Y0095391D01*
X0021141Y0095263D01*
X0020929Y0095139D01*
X0020714Y0095021D01*
X0020496Y0094908D01*
X0020276Y0094800D01*
X0020052Y0094698D01*
X0019827Y0094601D01*
X0019599Y0094510D01*
X0019369Y0094425D01*
X0019137Y0094345D01*
X0018903Y0094271D01*
X0018667Y0094202D01*
X0018430Y0094140D01*
X0018191Y0094083D01*
X0017951Y0094032D01*
X0017710Y0093987D01*
X0017467Y0093948D01*
X0017224Y0093915D01*
X0016980Y0093888D01*
X0016736Y0093867D01*
X0016491Y0093852D01*
X0016245Y0093843D01*
X0016000Y0093840D01*
X0015755Y0093843D01*
X0015509Y0093852D01*
X0015264Y0093867D01*
X0015020Y0093888D01*
X0014776Y0093915D01*
X0014533Y0093948D01*
X0014290Y0093987D01*
X0014049Y0094032D01*
X0013809Y0094083D01*
X0013570Y0094140D01*
X0013333Y0094202D01*
X0013097Y0094271D01*
X0012863Y0094345D01*
X0012631Y0094425D01*
X0012401Y0094510D01*
X0012173Y0094601D01*
X0011948Y0094698D01*
X0011724Y0094800D01*
X0011504Y0094908D01*
X0011286Y0095021D01*
X0011071Y0095139D01*
X0010859Y0095263D01*
X0010650Y0095391D01*
X0010444Y0095525D01*
X0010242Y0095664D01*
X0010043Y0095808D01*
X0009848Y0095957D01*
X0009656Y0096110D01*
X0009468Y0096268D01*
X0009284Y0096430D01*
X0009105Y0096598D01*
X0008929Y0096769D01*
X0008758Y0096945D01*
X0008590Y0097124D01*
X0008428Y0097308D01*
X0008270Y0097496D01*
X0008117Y0097688D01*
X0007968Y0097883D01*
X0007824Y0098082D01*
X0007685Y0098284D01*
X0007551Y0098490D01*
X0007423Y0098699D01*
X0007299Y0098911D01*
X0007181Y0099126D01*
X0007068Y0099344D01*
X0006960Y0099564D01*
X0006858Y0099788D01*
X0006761Y0100013D01*
X0006670Y0100241D01*
X0006585Y0100471D01*
X0006505Y0100703D01*
X0006431Y0100937D01*
X0006362Y0101173D01*
X0006300Y0101410D01*
X0006243Y0101649D01*
X0006192Y0101889D01*
X0006147Y0102130D01*
X0006108Y0102373D01*
X0006075Y0102616D01*
X0006048Y0102860D01*
X0006027Y0103104D01*
X0006012Y0103349D01*
X0006003Y0103595D01*
X0006000Y0103840D01*
D12*
X0140000Y0187600D02*
X0167000Y0187600D01*
X0167170Y0187602D01*
X0167341Y0187608D01*
X0167511Y0187619D01*
X0167681Y0187633D01*
X0167850Y0187652D01*
X0168019Y0187675D01*
X0168188Y0187701D01*
X0168355Y0187732D01*
X0168522Y0187767D01*
X0168688Y0187807D01*
X0168853Y0187850D01*
X0169017Y0187897D01*
X0169179Y0187948D01*
X0169341Y0188003D01*
X0169501Y0188062D01*
X0169659Y0188125D01*
X0169816Y0188191D01*
X0169971Y0188262D01*
X0170125Y0188336D01*
X0170276Y0188414D01*
X0170426Y0188496D01*
X0170574Y0188581D01*
X0170719Y0188670D01*
X0170862Y0188762D01*
X0171003Y0188858D01*
X0171142Y0188957D01*
X0171278Y0189060D01*
X0171412Y0189165D01*
X0171543Y0189274D01*
X0171671Y0189387D01*
X0171797Y0189502D01*
X0171920Y0189620D01*
X0172039Y0189741D01*
X0172156Y0189866D01*
X0172270Y0189993D01*
X0172381Y0190122D01*
X0172488Y0190255D01*
X0172592Y0190390D01*
X0172693Y0190527D01*
X0172791Y0190667D01*
X0172885Y0190809D01*
X0172975Y0190953D01*
X0173062Y0191100D01*
X0173146Y0191249D01*
X0173225Y0191399D01*
X0173301Y0191552D01*
X0173374Y0191706D01*
X0173442Y0191862D01*
X0173507Y0192020D01*
X0173568Y0192179D01*
X0173625Y0192340D01*
X0173678Y0192502D01*
X0173727Y0192665D01*
X0173772Y0192829D01*
X0173813Y0192995D01*
X0173851Y0193161D01*
X0173884Y0193329D01*
X0173912Y0193497D01*
X0173937Y0193665D01*
X0173958Y0193834D01*
X0173975Y0194004D01*
X0173987Y0194174D01*
X0173995Y0194344D01*
X0173999Y0194515D01*
X0173999Y0194685D01*
X0173995Y0194856D01*
X0173987Y0195026D01*
X0173975Y0195196D01*
X0173958Y0195366D01*
X0173937Y0195535D01*
X0173912Y0195703D01*
X0173884Y0195871D01*
X0173851Y0196039D01*
X0173813Y0196205D01*
X0173772Y0196371D01*
X0173727Y0196535D01*
X0173678Y0196698D01*
X0173625Y0196860D01*
X0173568Y0197021D01*
X0173507Y0197180D01*
X0173442Y0197338D01*
X0173374Y0197494D01*
X0173301Y0197648D01*
X0173225Y0197801D01*
X0173146Y0197951D01*
X0173062Y0198100D01*
X0172975Y0198247D01*
X0172885Y0198391D01*
X0172791Y0198533D01*
X0172693Y0198673D01*
X0172592Y0198810D01*
X0172488Y0198945D01*
X0172381Y0199078D01*
X0172270Y0199207D01*
X0172156Y0199334D01*
X0172039Y0199459D01*
X0171920Y0199580D01*
X0171797Y0199698D01*
X0171671Y0199813D01*
X0171543Y0199926D01*
X0171412Y0200035D01*
X0171278Y0200140D01*
X0171142Y0200243D01*
X0171003Y0200342D01*
X0170862Y0200438D01*
X0170719Y0200530D01*
X0170574Y0200619D01*
X0170426Y0200704D01*
X0170276Y0200786D01*
X0170125Y0200864D01*
X0169971Y0200938D01*
X0169816Y0201009D01*
X0169659Y0201075D01*
X0169501Y0201138D01*
X0169341Y0201197D01*
X0169179Y0201252D01*
X0169017Y0201303D01*
X0168853Y0201350D01*
X0168688Y0201393D01*
X0168522Y0201433D01*
X0168355Y0201468D01*
X0168188Y0201499D01*
X0168019Y0201525D01*
X0167850Y0201548D01*
X0167681Y0201567D01*
X0167511Y0201581D01*
X0167341Y0201592D01*
X0167170Y0201598D01*
X0167000Y0201600D01*
X0140000Y0201600D01*
X0139830Y0201598D01*
X0139659Y0201592D01*
X0139489Y0201581D01*
X0139319Y0201567D01*
X0139150Y0201548D01*
X0138981Y0201525D01*
X0138812Y0201499D01*
X0138645Y0201468D01*
X0138478Y0201433D01*
X0138312Y0201393D01*
X0138147Y0201350D01*
X0137983Y0201303D01*
X0137821Y0201252D01*
X0137659Y0201197D01*
X0137499Y0201138D01*
X0137341Y0201075D01*
X0137184Y0201009D01*
X0137029Y0200938D01*
X0136875Y0200864D01*
X0136724Y0200786D01*
X0136574Y0200704D01*
X0136426Y0200619D01*
X0136281Y0200530D01*
X0136138Y0200438D01*
X0135997Y0200342D01*
X0135858Y0200243D01*
X0135722Y0200140D01*
X0135588Y0200035D01*
X0135457Y0199926D01*
X0135329Y0199813D01*
X0135203Y0199698D01*
X0135080Y0199580D01*
X0134961Y0199459D01*
X0134844Y0199334D01*
X0134730Y0199207D01*
X0134619Y0199078D01*
X0134512Y0198945D01*
X0134408Y0198810D01*
X0134307Y0198673D01*
X0134209Y0198533D01*
X0134115Y0198391D01*
X0134025Y0198247D01*
X0133938Y0198100D01*
X0133854Y0197951D01*
X0133775Y0197801D01*
X0133699Y0197648D01*
X0133626Y0197494D01*
X0133558Y0197338D01*
X0133493Y0197180D01*
X0133432Y0197021D01*
X0133375Y0196860D01*
X0133322Y0196698D01*
X0133273Y0196535D01*
X0133228Y0196371D01*
X0133187Y0196205D01*
X0133149Y0196039D01*
X0133116Y0195871D01*
X0133088Y0195703D01*
X0133063Y0195535D01*
X0133042Y0195366D01*
X0133025Y0195196D01*
X0133013Y0195026D01*
X0133005Y0194856D01*
X0133001Y0194685D01*
X0133001Y0194515D01*
X0133005Y0194344D01*
X0133013Y0194174D01*
X0133025Y0194004D01*
X0133042Y0193834D01*
X0133063Y0193665D01*
X0133088Y0193497D01*
X0133116Y0193329D01*
X0133149Y0193161D01*
X0133187Y0192995D01*
X0133228Y0192829D01*
X0133273Y0192665D01*
X0133322Y0192502D01*
X0133375Y0192340D01*
X0133432Y0192179D01*
X0133493Y0192020D01*
X0133558Y0191862D01*
X0133626Y0191706D01*
X0133699Y0191552D01*
X0133775Y0191399D01*
X0133854Y0191249D01*
X0133938Y0191100D01*
X0134025Y0190953D01*
X0134115Y0190809D01*
X0134209Y0190667D01*
X0134307Y0190527D01*
X0134408Y0190390D01*
X0134512Y0190255D01*
X0134619Y0190122D01*
X0134730Y0189993D01*
X0134844Y0189866D01*
X0134961Y0189741D01*
X0135080Y0189620D01*
X0135203Y0189502D01*
X0135329Y0189387D01*
X0135457Y0189274D01*
X0135588Y0189165D01*
X0135722Y0189060D01*
X0135858Y0188957D01*
X0135997Y0188858D01*
X0136138Y0188762D01*
X0136281Y0188670D01*
X0136426Y0188581D01*
X0136574Y0188496D01*
X0136724Y0188414D01*
X0136875Y0188336D01*
X0137029Y0188262D01*
X0137184Y0188191D01*
X0137341Y0188125D01*
X0137499Y0188062D01*
X0137659Y0188003D01*
X0137821Y0187948D01*
X0137983Y0187897D01*
X0138147Y0187850D01*
X0138312Y0187807D01*
X0138478Y0187767D01*
X0138645Y0187732D01*
X0138812Y0187701D01*
X0138981Y0187675D01*
X0139150Y0187652D01*
X0139319Y0187633D01*
X0139489Y0187619D01*
X0139659Y0187608D01*
X0139830Y0187602D01*
X0140000Y0187600D01*
D13*
X0141000Y0170900D02*
X0138500Y0170900D01*
X0138500Y0168400D02*
X0141000Y0168400D01*
X0143500Y0168400D01*
X0143500Y0170900D02*
X0141000Y0170900D01*
X0153500Y0170800D02*
X0156000Y0170800D01*
X0158500Y0170800D01*
X0158500Y0168300D02*
X0156000Y0168300D01*
X0153500Y0168300D01*
D14*
X0087149Y0201350D02*
X0084146Y0201350D01*
X0085647Y0201350D02*
X0085647Y0205854D01*
X0084146Y0204353D01*
X0056856Y0205103D02*
X0056856Y0202101D01*
X0056106Y0201350D01*
X0054605Y0201350D01*
X0053854Y0202101D01*
X0056856Y0205103D01*
X0056106Y0205854D01*
X0054605Y0205854D01*
X0053854Y0205103D01*
X0053854Y0202101D01*
X0052253Y0201350D02*
X0049250Y0201350D01*
X0050751Y0201350D02*
X0050751Y0205854D01*
X0049250Y0204353D01*
X0058649Y0186854D02*
X0057147Y0186103D01*
X0055646Y0184602D01*
X0057898Y0184602D01*
X0058649Y0183851D01*
X0058649Y0183101D01*
X0057898Y0182350D01*
X0056397Y0182350D01*
X0055646Y0183101D01*
X0055646Y0184602D01*
X0018720Y0157359D02*
X0018720Y0154356D01*
X0018720Y0155857D02*
X0014216Y0155857D01*
X0015717Y0154356D01*
X0012253Y0173350D02*
X0009250Y0173350D01*
X0010751Y0173350D02*
X0010751Y0177854D01*
X0009250Y0176353D01*
X0016468Y0111859D02*
X0016468Y0108856D01*
X0014216Y0111108D01*
X0018720Y0111108D01*
D15*
X0023500Y0113840D02*
X0023743Y0113653D01*
X0023981Y0113461D01*
X0024214Y0113262D01*
X0024442Y0113058D01*
X0024665Y0112849D01*
X0024883Y0112634D01*
X0025096Y0112414D01*
X0025303Y0112189D01*
X0025505Y0111958D01*
X0025701Y0111723D01*
X0025891Y0111483D01*
X0026075Y0111239D01*
X0026253Y0110990D01*
X0026425Y0110736D01*
X0026591Y0110479D01*
X0026751Y0110218D01*
X0026904Y0109953D01*
X0027050Y0109684D01*
X0027190Y0109411D01*
X0027323Y0109136D01*
X0027449Y0108857D01*
X0027569Y0108575D01*
X0027681Y0108290D01*
X0027786Y0108003D01*
X0027885Y0107713D01*
X0027976Y0107421D01*
X0028060Y0107126D01*
X0028137Y0106830D01*
X0028207Y0106532D01*
X0028269Y0106232D01*
X0028324Y0105931D01*
X0028371Y0105629D01*
X0028411Y0105325D01*
X0028444Y0105021D01*
X0028469Y0104716D01*
X0028487Y0104410D01*
X0028497Y0104104D01*
X0028500Y0103798D01*
X0028495Y0103492D01*
X0028483Y0103186D01*
X0028463Y0102880D01*
X0028436Y0102576D01*
X0028401Y0102271D01*
X0028359Y0101968D01*
X0028310Y0101666D01*
X0028253Y0101365D01*
X0028188Y0101066D01*
X0028117Y0100768D01*
X0028038Y0100473D01*
X0027952Y0100179D01*
X0027859Y0099887D01*
X0027758Y0099598D01*
X0027651Y0099311D01*
X0027536Y0099027D01*
X0027415Y0098746D01*
X0027287Y0098468D01*
X0027152Y0098193D01*
X0027010Y0097922D01*
X0026862Y0097654D01*
X0026707Y0097390D01*
X0026546Y0097130D01*
X0026379Y0096874D01*
X0026205Y0096621D01*
X0026025Y0096374D01*
X0025839Y0096130D01*
X0025648Y0095892D01*
X0025450Y0095658D01*
X0025247Y0095429D01*
X0025038Y0095205D01*
X0024824Y0094986D01*
X0024604Y0094773D01*
X0024380Y0094565D01*
X0024150Y0094362D01*
X0023916Y0094166D01*
X0023676Y0093975D01*
X0023433Y0093790D01*
X0023184Y0093611D01*
X0022932Y0093438D01*
X0022675Y0093271D01*
X0022414Y0093111D01*
X0022149Y0092957D01*
X0021881Y0092810D01*
X0021609Y0092669D01*
X0021334Y0092535D01*
X0021055Y0092408D01*
X0020774Y0092287D01*
X0020489Y0092174D01*
X0020202Y0092068D01*
X0019913Y0091968D01*
X0019621Y0091876D01*
X0019327Y0091791D01*
X0019031Y0091713D01*
X0018733Y0091642D01*
X0018433Y0091579D01*
X0018132Y0091523D01*
X0017830Y0091475D01*
X0017527Y0091434D01*
X0017223Y0091400D01*
X0016918Y0091374D01*
X0016612Y0091355D01*
X0016306Y0091344D01*
X0016000Y0091340D01*
X0015694Y0091344D01*
X0015388Y0091355D01*
X0015082Y0091374D01*
X0014777Y0091400D01*
X0014473Y0091434D01*
X0014170Y0091475D01*
X0013868Y0091523D01*
X0013567Y0091579D01*
X0013267Y0091642D01*
X0012969Y0091713D01*
X0012673Y0091791D01*
X0012379Y0091876D01*
X0012087Y0091968D01*
X0011798Y0092068D01*
X0011511Y0092174D01*
X0011226Y0092287D01*
X0010945Y0092408D01*
X0010666Y0092535D01*
X0010391Y0092669D01*
X0010119Y0092810D01*
X0009851Y0092957D01*
X0009586Y0093111D01*
X0009325Y0093271D01*
X0009068Y0093438D01*
X0008816Y0093611D01*
X0008567Y0093790D01*
X0008324Y0093975D01*
X0008084Y0094166D01*
X0007850Y0094362D01*
X0007620Y0094565D01*
X0007396Y0094773D01*
X0007176Y0094986D01*
X0006962Y0095205D01*
X0006753Y0095429D01*
X0006550Y0095658D01*
X0006352Y0095892D01*
X0006161Y0096130D01*
X0005975Y0096374D01*
X0005795Y0096621D01*
X0005621Y0096874D01*
X0005454Y0097130D01*
X0005293Y0097390D01*
X0005138Y0097654D01*
X0004990Y0097922D01*
X0004848Y0098193D01*
X0004713Y0098468D01*
X0004585Y0098746D01*
X0004464Y0099027D01*
X0004349Y0099311D01*
X0004242Y0099598D01*
X0004141Y0099887D01*
X0004048Y0100179D01*
X0003962Y0100473D01*
X0003883Y0100768D01*
X0003812Y0101066D01*
X0003747Y0101365D01*
X0003690Y0101666D01*
X0003641Y0101968D01*
X0003599Y0102271D01*
X0003564Y0102576D01*
X0003537Y0102880D01*
X0003517Y0103186D01*
X0003505Y0103492D01*
X0003500Y0103798D01*
X0003503Y0104104D01*
X0003513Y0104410D01*
X0003531Y0104716D01*
X0003556Y0105021D01*
X0003589Y0105325D01*
X0003629Y0105629D01*
X0003676Y0105931D01*
X0003731Y0106232D01*
X0003793Y0106532D01*
X0003863Y0106830D01*
X0003940Y0107126D01*
X0004024Y0107421D01*
X0004115Y0107713D01*
X0004214Y0108003D01*
X0004319Y0108290D01*
X0004431Y0108575D01*
X0004551Y0108857D01*
X0004677Y0109136D01*
X0004810Y0109411D01*
X0004950Y0109684D01*
X0005096Y0109953D01*
X0005249Y0110218D01*
X0005409Y0110479D01*
X0005575Y0110736D01*
X0005747Y0110990D01*
X0005925Y0111239D01*
X0006109Y0111483D01*
X0006299Y0111723D01*
X0006495Y0111958D01*
X0006697Y0112189D01*
X0006904Y0112414D01*
X0007117Y0112634D01*
X0007335Y0112849D01*
X0007558Y0113058D01*
X0007786Y0113262D01*
X0008019Y0113461D01*
X0008257Y0113653D01*
X0008500Y0113840D01*
D16*
X0095930Y0023600D03*
X0098430Y0023600D03*
X0100930Y0023600D03*
X0100930Y0013600D03*
X0098430Y0013600D03*
X0095930Y0013600D03*
M02*
