G75*
%MOIN*%
%OFA0B0*%
%FSLAX25Y25*%
%IPPOS*%
%LPD*%
%AMOC8*
5,1,8,0,0,1.08239X$1,22.5*
%
%ADD10C,0.06000*%
%ADD11C,0.09400*%
%ADD12C,0.05524*%
%ADD13OC8,0.06000*%
%ADD14C,0.07300*%
%ADD15R,0.07300X0.07300*%
%ADD16C,0.05200*%
%ADD17OC8,0.07100*%
%ADD18C,0.06800*%
%ADD19OC8,0.06800*%
%ADD20C,0.23800*%
%ADD21C,0.06800*%
%ADD22C,0.04800*%
D10*
X0077580Y0013600D02*
X0082780Y0013600D01*
X0082780Y0023600D02*
X0077580Y0023600D01*
X0078400Y0039600D02*
X0083600Y0039600D01*
X0083600Y0049600D02*
X0078400Y0049600D01*
X0078400Y0059600D02*
X0083600Y0059600D01*
X0083600Y0069600D02*
X0078400Y0069600D01*
X0078400Y0079600D02*
X0083600Y0079600D01*
X0083600Y0089600D02*
X0078400Y0089600D01*
X0078400Y0099600D02*
X0083600Y0099600D01*
X0083600Y0109600D02*
X0078400Y0109600D01*
X0078400Y0119600D02*
X0083600Y0119600D01*
X0083600Y0129600D02*
X0078400Y0129600D01*
X0078400Y0139600D02*
X0083600Y0139600D01*
X0083600Y0149600D02*
X0078400Y0149600D01*
X0078400Y0159600D02*
X0083600Y0159600D01*
X0083600Y0169600D02*
X0078400Y0169600D01*
X0108400Y0169600D02*
X0113600Y0169600D01*
X0113600Y0159600D02*
X0108400Y0159600D01*
X0108400Y0149600D02*
X0113600Y0149600D01*
X0113600Y0139600D02*
X0108400Y0139600D01*
X0108400Y0129600D02*
X0113600Y0129600D01*
X0113600Y0119600D02*
X0108400Y0119600D01*
X0108400Y0109600D02*
X0113600Y0109600D01*
X0113600Y0099600D02*
X0108400Y0099600D01*
X0108400Y0089600D02*
X0113600Y0089600D01*
X0113600Y0079600D02*
X0108400Y0079600D01*
X0108400Y0069600D02*
X0113600Y0069600D01*
X0113600Y0059600D02*
X0108400Y0059600D01*
X0108400Y0049600D02*
X0113600Y0049600D01*
X0113600Y0039600D02*
X0108400Y0039600D01*
X0107580Y0023600D02*
X0112780Y0023600D01*
X0112780Y0013600D02*
X0107580Y0013600D01*
D11*
X0171315Y0014915D03*
X0171315Y0024757D03*
X0171315Y0044443D03*
X0171315Y0054285D03*
X0171315Y0064915D03*
X0171315Y0074757D03*
X0171315Y0094443D03*
X0171315Y0104285D03*
X0171315Y0114915D03*
X0171315Y0124757D03*
X0171315Y0144443D03*
X0171315Y0154285D03*
X0191000Y0134600D03*
X0191000Y0084600D03*
X0191000Y0034600D03*
D12*
X0191000Y0014915D03*
X0171315Y0034600D03*
X0191000Y0054285D03*
X0191000Y0064915D03*
X0171315Y0084600D03*
X0191000Y0104285D03*
X0191000Y0114915D03*
X0171315Y0134600D03*
X0191000Y0154285D03*
D13*
X0156000Y0149600D03*
X0156000Y0129600D03*
X0146000Y0117100D03*
X0146000Y0107100D03*
X0156000Y0099600D03*
X0156000Y0079600D03*
X0146000Y0069600D03*
X0146000Y0059600D03*
X0126000Y0059600D03*
X0126000Y0069600D03*
X0156000Y0042100D03*
X0156000Y0022100D03*
X0146000Y0022100D03*
X0146000Y0012100D03*
X0126000Y0012100D03*
X0126000Y0022100D03*
X0067260Y0098670D03*
X0053390Y0098030D03*
X0053500Y0107100D03*
X0053370Y0117230D03*
X0053500Y0127100D03*
X0053500Y0137100D03*
X0033500Y0137100D03*
X0033500Y0127100D03*
X0033370Y0117230D03*
X0033500Y0107100D03*
X0033390Y0098030D03*
X0016000Y0098840D03*
X0016000Y0108840D03*
X0067260Y0118670D03*
X0031000Y0159600D03*
X0031000Y0169600D03*
X0011000Y0169600D03*
X0011000Y0159600D03*
X0126000Y0117100D03*
X0126000Y0107100D03*
X0128500Y0159600D03*
X0128500Y0179600D03*
D14*
X0106000Y0189600D03*
X0141000Y0134600D03*
X0141000Y0087100D03*
X0141000Y0039600D03*
D15*
X0131000Y0039600D03*
X0131000Y0087100D03*
X0131000Y0134600D03*
X0116000Y0189600D03*
D16*
X0143500Y0192400D02*
X0143500Y0196800D01*
X0163500Y0196800D02*
X0163500Y0192400D01*
D17*
X0156000Y0179600D03*
X0141000Y0179600D03*
X0141000Y0159600D03*
X0156000Y0159600D03*
D18*
X0086000Y0194600D03*
D19*
X0086000Y0184600D03*
X0076000Y0184600D03*
X0066000Y0184600D03*
X0066000Y0194600D03*
X0076000Y0194600D03*
X0051000Y0194600D03*
X0051000Y0184600D03*
X0041000Y0184600D03*
X0031000Y0184600D03*
X0031000Y0194600D03*
X0041000Y0194600D03*
X0021000Y0194600D03*
X0011000Y0194600D03*
X0011000Y0184600D03*
X0021000Y0184600D03*
D20*
X0053500Y0159600D03*
D21*
X0019470Y0149210D02*
X0013470Y0149210D01*
X0013470Y0139210D02*
X0019470Y0139210D01*
X0019470Y0129210D02*
X0013470Y0129210D01*
X0013470Y0119210D02*
X0019470Y0119210D01*
D22*
X0065961Y0063655D03*
X0097457Y0089246D03*
X0040370Y0101057D03*
X0148638Y0144364D03*
X0170291Y0167986D03*
X0178165Y0169954D03*
X0180134Y0144364D03*
M02*
