G75*
%MOIN*%
%OFA0B0*%
%FSLAX25Y25*%
%IPPOS*%
%LPD*%
%AMOC8*
5,1,8,0,0,1.08239X$1,22.5*
%
%ADD10C,0.00000*%
D10*
X0001000Y0004600D02*
X0001000Y0204561D01*
X0199701Y0204561D01*
X0199701Y0004600D01*
X0001000Y0004600D01*
X0168953Y0034600D02*
X0168955Y0034697D01*
X0168961Y0034794D01*
X0168971Y0034890D01*
X0168985Y0034986D01*
X0169003Y0035082D01*
X0169024Y0035176D01*
X0169050Y0035270D01*
X0169079Y0035362D01*
X0169113Y0035453D01*
X0169149Y0035543D01*
X0169190Y0035631D01*
X0169234Y0035717D01*
X0169282Y0035802D01*
X0169333Y0035884D01*
X0169387Y0035965D01*
X0169445Y0036043D01*
X0169506Y0036118D01*
X0169569Y0036191D01*
X0169636Y0036262D01*
X0169706Y0036329D01*
X0169778Y0036394D01*
X0169853Y0036455D01*
X0169931Y0036514D01*
X0170010Y0036569D01*
X0170092Y0036621D01*
X0170176Y0036669D01*
X0170262Y0036714D01*
X0170350Y0036756D01*
X0170439Y0036794D01*
X0170530Y0036828D01*
X0170622Y0036858D01*
X0170715Y0036885D01*
X0170810Y0036907D01*
X0170905Y0036926D01*
X0171001Y0036941D01*
X0171097Y0036952D01*
X0171194Y0036959D01*
X0171291Y0036962D01*
X0171388Y0036961D01*
X0171485Y0036956D01*
X0171581Y0036947D01*
X0171677Y0036934D01*
X0171773Y0036917D01*
X0171868Y0036896D01*
X0171961Y0036872D01*
X0172054Y0036843D01*
X0172146Y0036811D01*
X0172236Y0036775D01*
X0172324Y0036736D01*
X0172411Y0036692D01*
X0172496Y0036646D01*
X0172579Y0036595D01*
X0172660Y0036542D01*
X0172738Y0036485D01*
X0172815Y0036425D01*
X0172888Y0036362D01*
X0172959Y0036296D01*
X0173027Y0036227D01*
X0173093Y0036155D01*
X0173155Y0036081D01*
X0173214Y0036004D01*
X0173270Y0035925D01*
X0173323Y0035843D01*
X0173373Y0035760D01*
X0173418Y0035674D01*
X0173461Y0035587D01*
X0173500Y0035498D01*
X0173535Y0035408D01*
X0173566Y0035316D01*
X0173593Y0035223D01*
X0173617Y0035129D01*
X0173637Y0035034D01*
X0173653Y0034938D01*
X0173665Y0034842D01*
X0173673Y0034745D01*
X0173677Y0034648D01*
X0173677Y0034552D01*
X0173673Y0034455D01*
X0173665Y0034358D01*
X0173653Y0034262D01*
X0173637Y0034166D01*
X0173617Y0034071D01*
X0173593Y0033977D01*
X0173566Y0033884D01*
X0173535Y0033792D01*
X0173500Y0033702D01*
X0173461Y0033613D01*
X0173418Y0033526D01*
X0173373Y0033440D01*
X0173323Y0033357D01*
X0173270Y0033275D01*
X0173214Y0033196D01*
X0173155Y0033119D01*
X0173093Y0033045D01*
X0173027Y0032973D01*
X0172959Y0032904D01*
X0172888Y0032838D01*
X0172815Y0032775D01*
X0172738Y0032715D01*
X0172660Y0032658D01*
X0172579Y0032605D01*
X0172496Y0032554D01*
X0172411Y0032508D01*
X0172324Y0032464D01*
X0172236Y0032425D01*
X0172146Y0032389D01*
X0172054Y0032357D01*
X0171961Y0032328D01*
X0171868Y0032304D01*
X0171773Y0032283D01*
X0171677Y0032266D01*
X0171581Y0032253D01*
X0171485Y0032244D01*
X0171388Y0032239D01*
X0171291Y0032238D01*
X0171194Y0032241D01*
X0171097Y0032248D01*
X0171001Y0032259D01*
X0170905Y0032274D01*
X0170810Y0032293D01*
X0170715Y0032315D01*
X0170622Y0032342D01*
X0170530Y0032372D01*
X0170439Y0032406D01*
X0170350Y0032444D01*
X0170262Y0032486D01*
X0170176Y0032531D01*
X0170092Y0032579D01*
X0170010Y0032631D01*
X0169931Y0032686D01*
X0169853Y0032745D01*
X0169778Y0032806D01*
X0169706Y0032871D01*
X0169636Y0032938D01*
X0169569Y0033009D01*
X0169506Y0033082D01*
X0169445Y0033157D01*
X0169387Y0033235D01*
X0169333Y0033316D01*
X0169282Y0033398D01*
X0169234Y0033483D01*
X0169190Y0033569D01*
X0169149Y0033657D01*
X0169113Y0033747D01*
X0169079Y0033838D01*
X0169050Y0033930D01*
X0169024Y0034024D01*
X0169003Y0034118D01*
X0168985Y0034214D01*
X0168971Y0034310D01*
X0168961Y0034406D01*
X0168955Y0034503D01*
X0168953Y0034600D01*
X0188638Y0014915D02*
X0188640Y0015012D01*
X0188646Y0015109D01*
X0188656Y0015205D01*
X0188670Y0015301D01*
X0188688Y0015397D01*
X0188709Y0015491D01*
X0188735Y0015585D01*
X0188764Y0015677D01*
X0188798Y0015768D01*
X0188834Y0015858D01*
X0188875Y0015946D01*
X0188919Y0016032D01*
X0188967Y0016117D01*
X0189018Y0016199D01*
X0189072Y0016280D01*
X0189130Y0016358D01*
X0189191Y0016433D01*
X0189254Y0016506D01*
X0189321Y0016577D01*
X0189391Y0016644D01*
X0189463Y0016709D01*
X0189538Y0016770D01*
X0189616Y0016829D01*
X0189695Y0016884D01*
X0189777Y0016936D01*
X0189861Y0016984D01*
X0189947Y0017029D01*
X0190035Y0017071D01*
X0190124Y0017109D01*
X0190215Y0017143D01*
X0190307Y0017173D01*
X0190400Y0017200D01*
X0190495Y0017222D01*
X0190590Y0017241D01*
X0190686Y0017256D01*
X0190782Y0017267D01*
X0190879Y0017274D01*
X0190976Y0017277D01*
X0191073Y0017276D01*
X0191170Y0017271D01*
X0191266Y0017262D01*
X0191362Y0017249D01*
X0191458Y0017232D01*
X0191553Y0017211D01*
X0191646Y0017187D01*
X0191739Y0017158D01*
X0191831Y0017126D01*
X0191921Y0017090D01*
X0192009Y0017051D01*
X0192096Y0017007D01*
X0192181Y0016961D01*
X0192264Y0016910D01*
X0192345Y0016857D01*
X0192423Y0016800D01*
X0192500Y0016740D01*
X0192573Y0016677D01*
X0192644Y0016611D01*
X0192712Y0016542D01*
X0192778Y0016470D01*
X0192840Y0016396D01*
X0192899Y0016319D01*
X0192955Y0016240D01*
X0193008Y0016158D01*
X0193058Y0016075D01*
X0193103Y0015989D01*
X0193146Y0015902D01*
X0193185Y0015813D01*
X0193220Y0015723D01*
X0193251Y0015631D01*
X0193278Y0015538D01*
X0193302Y0015444D01*
X0193322Y0015349D01*
X0193338Y0015253D01*
X0193350Y0015157D01*
X0193358Y0015060D01*
X0193362Y0014963D01*
X0193362Y0014867D01*
X0193358Y0014770D01*
X0193350Y0014673D01*
X0193338Y0014577D01*
X0193322Y0014481D01*
X0193302Y0014386D01*
X0193278Y0014292D01*
X0193251Y0014199D01*
X0193220Y0014107D01*
X0193185Y0014017D01*
X0193146Y0013928D01*
X0193103Y0013841D01*
X0193058Y0013755D01*
X0193008Y0013672D01*
X0192955Y0013590D01*
X0192899Y0013511D01*
X0192840Y0013434D01*
X0192778Y0013360D01*
X0192712Y0013288D01*
X0192644Y0013219D01*
X0192573Y0013153D01*
X0192500Y0013090D01*
X0192423Y0013030D01*
X0192345Y0012973D01*
X0192264Y0012920D01*
X0192181Y0012869D01*
X0192096Y0012823D01*
X0192009Y0012779D01*
X0191921Y0012740D01*
X0191831Y0012704D01*
X0191739Y0012672D01*
X0191646Y0012643D01*
X0191553Y0012619D01*
X0191458Y0012598D01*
X0191362Y0012581D01*
X0191266Y0012568D01*
X0191170Y0012559D01*
X0191073Y0012554D01*
X0190976Y0012553D01*
X0190879Y0012556D01*
X0190782Y0012563D01*
X0190686Y0012574D01*
X0190590Y0012589D01*
X0190495Y0012608D01*
X0190400Y0012630D01*
X0190307Y0012657D01*
X0190215Y0012687D01*
X0190124Y0012721D01*
X0190035Y0012759D01*
X0189947Y0012801D01*
X0189861Y0012846D01*
X0189777Y0012894D01*
X0189695Y0012946D01*
X0189616Y0013001D01*
X0189538Y0013060D01*
X0189463Y0013121D01*
X0189391Y0013186D01*
X0189321Y0013253D01*
X0189254Y0013324D01*
X0189191Y0013397D01*
X0189130Y0013472D01*
X0189072Y0013550D01*
X0189018Y0013631D01*
X0188967Y0013713D01*
X0188919Y0013798D01*
X0188875Y0013884D01*
X0188834Y0013972D01*
X0188798Y0014062D01*
X0188764Y0014153D01*
X0188735Y0014245D01*
X0188709Y0014339D01*
X0188688Y0014433D01*
X0188670Y0014529D01*
X0188656Y0014625D01*
X0188646Y0014721D01*
X0188640Y0014818D01*
X0188638Y0014915D01*
X0188638Y0054285D02*
X0188640Y0054382D01*
X0188646Y0054479D01*
X0188656Y0054575D01*
X0188670Y0054671D01*
X0188688Y0054767D01*
X0188709Y0054861D01*
X0188735Y0054955D01*
X0188764Y0055047D01*
X0188798Y0055138D01*
X0188834Y0055228D01*
X0188875Y0055316D01*
X0188919Y0055402D01*
X0188967Y0055487D01*
X0189018Y0055569D01*
X0189072Y0055650D01*
X0189130Y0055728D01*
X0189191Y0055803D01*
X0189254Y0055876D01*
X0189321Y0055947D01*
X0189391Y0056014D01*
X0189463Y0056079D01*
X0189538Y0056140D01*
X0189616Y0056199D01*
X0189695Y0056254D01*
X0189777Y0056306D01*
X0189861Y0056354D01*
X0189947Y0056399D01*
X0190035Y0056441D01*
X0190124Y0056479D01*
X0190215Y0056513D01*
X0190307Y0056543D01*
X0190400Y0056570D01*
X0190495Y0056592D01*
X0190590Y0056611D01*
X0190686Y0056626D01*
X0190782Y0056637D01*
X0190879Y0056644D01*
X0190976Y0056647D01*
X0191073Y0056646D01*
X0191170Y0056641D01*
X0191266Y0056632D01*
X0191362Y0056619D01*
X0191458Y0056602D01*
X0191553Y0056581D01*
X0191646Y0056557D01*
X0191739Y0056528D01*
X0191831Y0056496D01*
X0191921Y0056460D01*
X0192009Y0056421D01*
X0192096Y0056377D01*
X0192181Y0056331D01*
X0192264Y0056280D01*
X0192345Y0056227D01*
X0192423Y0056170D01*
X0192500Y0056110D01*
X0192573Y0056047D01*
X0192644Y0055981D01*
X0192712Y0055912D01*
X0192778Y0055840D01*
X0192840Y0055766D01*
X0192899Y0055689D01*
X0192955Y0055610D01*
X0193008Y0055528D01*
X0193058Y0055445D01*
X0193103Y0055359D01*
X0193146Y0055272D01*
X0193185Y0055183D01*
X0193220Y0055093D01*
X0193251Y0055001D01*
X0193278Y0054908D01*
X0193302Y0054814D01*
X0193322Y0054719D01*
X0193338Y0054623D01*
X0193350Y0054527D01*
X0193358Y0054430D01*
X0193362Y0054333D01*
X0193362Y0054237D01*
X0193358Y0054140D01*
X0193350Y0054043D01*
X0193338Y0053947D01*
X0193322Y0053851D01*
X0193302Y0053756D01*
X0193278Y0053662D01*
X0193251Y0053569D01*
X0193220Y0053477D01*
X0193185Y0053387D01*
X0193146Y0053298D01*
X0193103Y0053211D01*
X0193058Y0053125D01*
X0193008Y0053042D01*
X0192955Y0052960D01*
X0192899Y0052881D01*
X0192840Y0052804D01*
X0192778Y0052730D01*
X0192712Y0052658D01*
X0192644Y0052589D01*
X0192573Y0052523D01*
X0192500Y0052460D01*
X0192423Y0052400D01*
X0192345Y0052343D01*
X0192264Y0052290D01*
X0192181Y0052239D01*
X0192096Y0052193D01*
X0192009Y0052149D01*
X0191921Y0052110D01*
X0191831Y0052074D01*
X0191739Y0052042D01*
X0191646Y0052013D01*
X0191553Y0051989D01*
X0191458Y0051968D01*
X0191362Y0051951D01*
X0191266Y0051938D01*
X0191170Y0051929D01*
X0191073Y0051924D01*
X0190976Y0051923D01*
X0190879Y0051926D01*
X0190782Y0051933D01*
X0190686Y0051944D01*
X0190590Y0051959D01*
X0190495Y0051978D01*
X0190400Y0052000D01*
X0190307Y0052027D01*
X0190215Y0052057D01*
X0190124Y0052091D01*
X0190035Y0052129D01*
X0189947Y0052171D01*
X0189861Y0052216D01*
X0189777Y0052264D01*
X0189695Y0052316D01*
X0189616Y0052371D01*
X0189538Y0052430D01*
X0189463Y0052491D01*
X0189391Y0052556D01*
X0189321Y0052623D01*
X0189254Y0052694D01*
X0189191Y0052767D01*
X0189130Y0052842D01*
X0189072Y0052920D01*
X0189018Y0053001D01*
X0188967Y0053083D01*
X0188919Y0053168D01*
X0188875Y0053254D01*
X0188834Y0053342D01*
X0188798Y0053432D01*
X0188764Y0053523D01*
X0188735Y0053615D01*
X0188709Y0053709D01*
X0188688Y0053803D01*
X0188670Y0053899D01*
X0188656Y0053995D01*
X0188646Y0054091D01*
X0188640Y0054188D01*
X0188638Y0054285D01*
X0188638Y0064915D02*
X0188640Y0065012D01*
X0188646Y0065109D01*
X0188656Y0065205D01*
X0188670Y0065301D01*
X0188688Y0065397D01*
X0188709Y0065491D01*
X0188735Y0065585D01*
X0188764Y0065677D01*
X0188798Y0065768D01*
X0188834Y0065858D01*
X0188875Y0065946D01*
X0188919Y0066032D01*
X0188967Y0066117D01*
X0189018Y0066199D01*
X0189072Y0066280D01*
X0189130Y0066358D01*
X0189191Y0066433D01*
X0189254Y0066506D01*
X0189321Y0066577D01*
X0189391Y0066644D01*
X0189463Y0066709D01*
X0189538Y0066770D01*
X0189616Y0066829D01*
X0189695Y0066884D01*
X0189777Y0066936D01*
X0189861Y0066984D01*
X0189947Y0067029D01*
X0190035Y0067071D01*
X0190124Y0067109D01*
X0190215Y0067143D01*
X0190307Y0067173D01*
X0190400Y0067200D01*
X0190495Y0067222D01*
X0190590Y0067241D01*
X0190686Y0067256D01*
X0190782Y0067267D01*
X0190879Y0067274D01*
X0190976Y0067277D01*
X0191073Y0067276D01*
X0191170Y0067271D01*
X0191266Y0067262D01*
X0191362Y0067249D01*
X0191458Y0067232D01*
X0191553Y0067211D01*
X0191646Y0067187D01*
X0191739Y0067158D01*
X0191831Y0067126D01*
X0191921Y0067090D01*
X0192009Y0067051D01*
X0192096Y0067007D01*
X0192181Y0066961D01*
X0192264Y0066910D01*
X0192345Y0066857D01*
X0192423Y0066800D01*
X0192500Y0066740D01*
X0192573Y0066677D01*
X0192644Y0066611D01*
X0192712Y0066542D01*
X0192778Y0066470D01*
X0192840Y0066396D01*
X0192899Y0066319D01*
X0192955Y0066240D01*
X0193008Y0066158D01*
X0193058Y0066075D01*
X0193103Y0065989D01*
X0193146Y0065902D01*
X0193185Y0065813D01*
X0193220Y0065723D01*
X0193251Y0065631D01*
X0193278Y0065538D01*
X0193302Y0065444D01*
X0193322Y0065349D01*
X0193338Y0065253D01*
X0193350Y0065157D01*
X0193358Y0065060D01*
X0193362Y0064963D01*
X0193362Y0064867D01*
X0193358Y0064770D01*
X0193350Y0064673D01*
X0193338Y0064577D01*
X0193322Y0064481D01*
X0193302Y0064386D01*
X0193278Y0064292D01*
X0193251Y0064199D01*
X0193220Y0064107D01*
X0193185Y0064017D01*
X0193146Y0063928D01*
X0193103Y0063841D01*
X0193058Y0063755D01*
X0193008Y0063672D01*
X0192955Y0063590D01*
X0192899Y0063511D01*
X0192840Y0063434D01*
X0192778Y0063360D01*
X0192712Y0063288D01*
X0192644Y0063219D01*
X0192573Y0063153D01*
X0192500Y0063090D01*
X0192423Y0063030D01*
X0192345Y0062973D01*
X0192264Y0062920D01*
X0192181Y0062869D01*
X0192096Y0062823D01*
X0192009Y0062779D01*
X0191921Y0062740D01*
X0191831Y0062704D01*
X0191739Y0062672D01*
X0191646Y0062643D01*
X0191553Y0062619D01*
X0191458Y0062598D01*
X0191362Y0062581D01*
X0191266Y0062568D01*
X0191170Y0062559D01*
X0191073Y0062554D01*
X0190976Y0062553D01*
X0190879Y0062556D01*
X0190782Y0062563D01*
X0190686Y0062574D01*
X0190590Y0062589D01*
X0190495Y0062608D01*
X0190400Y0062630D01*
X0190307Y0062657D01*
X0190215Y0062687D01*
X0190124Y0062721D01*
X0190035Y0062759D01*
X0189947Y0062801D01*
X0189861Y0062846D01*
X0189777Y0062894D01*
X0189695Y0062946D01*
X0189616Y0063001D01*
X0189538Y0063060D01*
X0189463Y0063121D01*
X0189391Y0063186D01*
X0189321Y0063253D01*
X0189254Y0063324D01*
X0189191Y0063397D01*
X0189130Y0063472D01*
X0189072Y0063550D01*
X0189018Y0063631D01*
X0188967Y0063713D01*
X0188919Y0063798D01*
X0188875Y0063884D01*
X0188834Y0063972D01*
X0188798Y0064062D01*
X0188764Y0064153D01*
X0188735Y0064245D01*
X0188709Y0064339D01*
X0188688Y0064433D01*
X0188670Y0064529D01*
X0188656Y0064625D01*
X0188646Y0064721D01*
X0188640Y0064818D01*
X0188638Y0064915D01*
X0168953Y0084600D02*
X0168955Y0084697D01*
X0168961Y0084794D01*
X0168971Y0084890D01*
X0168985Y0084986D01*
X0169003Y0085082D01*
X0169024Y0085176D01*
X0169050Y0085270D01*
X0169079Y0085362D01*
X0169113Y0085453D01*
X0169149Y0085543D01*
X0169190Y0085631D01*
X0169234Y0085717D01*
X0169282Y0085802D01*
X0169333Y0085884D01*
X0169387Y0085965D01*
X0169445Y0086043D01*
X0169506Y0086118D01*
X0169569Y0086191D01*
X0169636Y0086262D01*
X0169706Y0086329D01*
X0169778Y0086394D01*
X0169853Y0086455D01*
X0169931Y0086514D01*
X0170010Y0086569D01*
X0170092Y0086621D01*
X0170176Y0086669D01*
X0170262Y0086714D01*
X0170350Y0086756D01*
X0170439Y0086794D01*
X0170530Y0086828D01*
X0170622Y0086858D01*
X0170715Y0086885D01*
X0170810Y0086907D01*
X0170905Y0086926D01*
X0171001Y0086941D01*
X0171097Y0086952D01*
X0171194Y0086959D01*
X0171291Y0086962D01*
X0171388Y0086961D01*
X0171485Y0086956D01*
X0171581Y0086947D01*
X0171677Y0086934D01*
X0171773Y0086917D01*
X0171868Y0086896D01*
X0171961Y0086872D01*
X0172054Y0086843D01*
X0172146Y0086811D01*
X0172236Y0086775D01*
X0172324Y0086736D01*
X0172411Y0086692D01*
X0172496Y0086646D01*
X0172579Y0086595D01*
X0172660Y0086542D01*
X0172738Y0086485D01*
X0172815Y0086425D01*
X0172888Y0086362D01*
X0172959Y0086296D01*
X0173027Y0086227D01*
X0173093Y0086155D01*
X0173155Y0086081D01*
X0173214Y0086004D01*
X0173270Y0085925D01*
X0173323Y0085843D01*
X0173373Y0085760D01*
X0173418Y0085674D01*
X0173461Y0085587D01*
X0173500Y0085498D01*
X0173535Y0085408D01*
X0173566Y0085316D01*
X0173593Y0085223D01*
X0173617Y0085129D01*
X0173637Y0085034D01*
X0173653Y0084938D01*
X0173665Y0084842D01*
X0173673Y0084745D01*
X0173677Y0084648D01*
X0173677Y0084552D01*
X0173673Y0084455D01*
X0173665Y0084358D01*
X0173653Y0084262D01*
X0173637Y0084166D01*
X0173617Y0084071D01*
X0173593Y0083977D01*
X0173566Y0083884D01*
X0173535Y0083792D01*
X0173500Y0083702D01*
X0173461Y0083613D01*
X0173418Y0083526D01*
X0173373Y0083440D01*
X0173323Y0083357D01*
X0173270Y0083275D01*
X0173214Y0083196D01*
X0173155Y0083119D01*
X0173093Y0083045D01*
X0173027Y0082973D01*
X0172959Y0082904D01*
X0172888Y0082838D01*
X0172815Y0082775D01*
X0172738Y0082715D01*
X0172660Y0082658D01*
X0172579Y0082605D01*
X0172496Y0082554D01*
X0172411Y0082508D01*
X0172324Y0082464D01*
X0172236Y0082425D01*
X0172146Y0082389D01*
X0172054Y0082357D01*
X0171961Y0082328D01*
X0171868Y0082304D01*
X0171773Y0082283D01*
X0171677Y0082266D01*
X0171581Y0082253D01*
X0171485Y0082244D01*
X0171388Y0082239D01*
X0171291Y0082238D01*
X0171194Y0082241D01*
X0171097Y0082248D01*
X0171001Y0082259D01*
X0170905Y0082274D01*
X0170810Y0082293D01*
X0170715Y0082315D01*
X0170622Y0082342D01*
X0170530Y0082372D01*
X0170439Y0082406D01*
X0170350Y0082444D01*
X0170262Y0082486D01*
X0170176Y0082531D01*
X0170092Y0082579D01*
X0170010Y0082631D01*
X0169931Y0082686D01*
X0169853Y0082745D01*
X0169778Y0082806D01*
X0169706Y0082871D01*
X0169636Y0082938D01*
X0169569Y0083009D01*
X0169506Y0083082D01*
X0169445Y0083157D01*
X0169387Y0083235D01*
X0169333Y0083316D01*
X0169282Y0083398D01*
X0169234Y0083483D01*
X0169190Y0083569D01*
X0169149Y0083657D01*
X0169113Y0083747D01*
X0169079Y0083838D01*
X0169050Y0083930D01*
X0169024Y0084024D01*
X0169003Y0084118D01*
X0168985Y0084214D01*
X0168971Y0084310D01*
X0168961Y0084406D01*
X0168955Y0084503D01*
X0168953Y0084600D01*
X0188638Y0104285D02*
X0188640Y0104382D01*
X0188646Y0104479D01*
X0188656Y0104575D01*
X0188670Y0104671D01*
X0188688Y0104767D01*
X0188709Y0104861D01*
X0188735Y0104955D01*
X0188764Y0105047D01*
X0188798Y0105138D01*
X0188834Y0105228D01*
X0188875Y0105316D01*
X0188919Y0105402D01*
X0188967Y0105487D01*
X0189018Y0105569D01*
X0189072Y0105650D01*
X0189130Y0105728D01*
X0189191Y0105803D01*
X0189254Y0105876D01*
X0189321Y0105947D01*
X0189391Y0106014D01*
X0189463Y0106079D01*
X0189538Y0106140D01*
X0189616Y0106199D01*
X0189695Y0106254D01*
X0189777Y0106306D01*
X0189861Y0106354D01*
X0189947Y0106399D01*
X0190035Y0106441D01*
X0190124Y0106479D01*
X0190215Y0106513D01*
X0190307Y0106543D01*
X0190400Y0106570D01*
X0190495Y0106592D01*
X0190590Y0106611D01*
X0190686Y0106626D01*
X0190782Y0106637D01*
X0190879Y0106644D01*
X0190976Y0106647D01*
X0191073Y0106646D01*
X0191170Y0106641D01*
X0191266Y0106632D01*
X0191362Y0106619D01*
X0191458Y0106602D01*
X0191553Y0106581D01*
X0191646Y0106557D01*
X0191739Y0106528D01*
X0191831Y0106496D01*
X0191921Y0106460D01*
X0192009Y0106421D01*
X0192096Y0106377D01*
X0192181Y0106331D01*
X0192264Y0106280D01*
X0192345Y0106227D01*
X0192423Y0106170D01*
X0192500Y0106110D01*
X0192573Y0106047D01*
X0192644Y0105981D01*
X0192712Y0105912D01*
X0192778Y0105840D01*
X0192840Y0105766D01*
X0192899Y0105689D01*
X0192955Y0105610D01*
X0193008Y0105528D01*
X0193058Y0105445D01*
X0193103Y0105359D01*
X0193146Y0105272D01*
X0193185Y0105183D01*
X0193220Y0105093D01*
X0193251Y0105001D01*
X0193278Y0104908D01*
X0193302Y0104814D01*
X0193322Y0104719D01*
X0193338Y0104623D01*
X0193350Y0104527D01*
X0193358Y0104430D01*
X0193362Y0104333D01*
X0193362Y0104237D01*
X0193358Y0104140D01*
X0193350Y0104043D01*
X0193338Y0103947D01*
X0193322Y0103851D01*
X0193302Y0103756D01*
X0193278Y0103662D01*
X0193251Y0103569D01*
X0193220Y0103477D01*
X0193185Y0103387D01*
X0193146Y0103298D01*
X0193103Y0103211D01*
X0193058Y0103125D01*
X0193008Y0103042D01*
X0192955Y0102960D01*
X0192899Y0102881D01*
X0192840Y0102804D01*
X0192778Y0102730D01*
X0192712Y0102658D01*
X0192644Y0102589D01*
X0192573Y0102523D01*
X0192500Y0102460D01*
X0192423Y0102400D01*
X0192345Y0102343D01*
X0192264Y0102290D01*
X0192181Y0102239D01*
X0192096Y0102193D01*
X0192009Y0102149D01*
X0191921Y0102110D01*
X0191831Y0102074D01*
X0191739Y0102042D01*
X0191646Y0102013D01*
X0191553Y0101989D01*
X0191458Y0101968D01*
X0191362Y0101951D01*
X0191266Y0101938D01*
X0191170Y0101929D01*
X0191073Y0101924D01*
X0190976Y0101923D01*
X0190879Y0101926D01*
X0190782Y0101933D01*
X0190686Y0101944D01*
X0190590Y0101959D01*
X0190495Y0101978D01*
X0190400Y0102000D01*
X0190307Y0102027D01*
X0190215Y0102057D01*
X0190124Y0102091D01*
X0190035Y0102129D01*
X0189947Y0102171D01*
X0189861Y0102216D01*
X0189777Y0102264D01*
X0189695Y0102316D01*
X0189616Y0102371D01*
X0189538Y0102430D01*
X0189463Y0102491D01*
X0189391Y0102556D01*
X0189321Y0102623D01*
X0189254Y0102694D01*
X0189191Y0102767D01*
X0189130Y0102842D01*
X0189072Y0102920D01*
X0189018Y0103001D01*
X0188967Y0103083D01*
X0188919Y0103168D01*
X0188875Y0103254D01*
X0188834Y0103342D01*
X0188798Y0103432D01*
X0188764Y0103523D01*
X0188735Y0103615D01*
X0188709Y0103709D01*
X0188688Y0103803D01*
X0188670Y0103899D01*
X0188656Y0103995D01*
X0188646Y0104091D01*
X0188640Y0104188D01*
X0188638Y0104285D01*
X0188638Y0114915D02*
X0188640Y0115012D01*
X0188646Y0115109D01*
X0188656Y0115205D01*
X0188670Y0115301D01*
X0188688Y0115397D01*
X0188709Y0115491D01*
X0188735Y0115585D01*
X0188764Y0115677D01*
X0188798Y0115768D01*
X0188834Y0115858D01*
X0188875Y0115946D01*
X0188919Y0116032D01*
X0188967Y0116117D01*
X0189018Y0116199D01*
X0189072Y0116280D01*
X0189130Y0116358D01*
X0189191Y0116433D01*
X0189254Y0116506D01*
X0189321Y0116577D01*
X0189391Y0116644D01*
X0189463Y0116709D01*
X0189538Y0116770D01*
X0189616Y0116829D01*
X0189695Y0116884D01*
X0189777Y0116936D01*
X0189861Y0116984D01*
X0189947Y0117029D01*
X0190035Y0117071D01*
X0190124Y0117109D01*
X0190215Y0117143D01*
X0190307Y0117173D01*
X0190400Y0117200D01*
X0190495Y0117222D01*
X0190590Y0117241D01*
X0190686Y0117256D01*
X0190782Y0117267D01*
X0190879Y0117274D01*
X0190976Y0117277D01*
X0191073Y0117276D01*
X0191170Y0117271D01*
X0191266Y0117262D01*
X0191362Y0117249D01*
X0191458Y0117232D01*
X0191553Y0117211D01*
X0191646Y0117187D01*
X0191739Y0117158D01*
X0191831Y0117126D01*
X0191921Y0117090D01*
X0192009Y0117051D01*
X0192096Y0117007D01*
X0192181Y0116961D01*
X0192264Y0116910D01*
X0192345Y0116857D01*
X0192423Y0116800D01*
X0192500Y0116740D01*
X0192573Y0116677D01*
X0192644Y0116611D01*
X0192712Y0116542D01*
X0192778Y0116470D01*
X0192840Y0116396D01*
X0192899Y0116319D01*
X0192955Y0116240D01*
X0193008Y0116158D01*
X0193058Y0116075D01*
X0193103Y0115989D01*
X0193146Y0115902D01*
X0193185Y0115813D01*
X0193220Y0115723D01*
X0193251Y0115631D01*
X0193278Y0115538D01*
X0193302Y0115444D01*
X0193322Y0115349D01*
X0193338Y0115253D01*
X0193350Y0115157D01*
X0193358Y0115060D01*
X0193362Y0114963D01*
X0193362Y0114867D01*
X0193358Y0114770D01*
X0193350Y0114673D01*
X0193338Y0114577D01*
X0193322Y0114481D01*
X0193302Y0114386D01*
X0193278Y0114292D01*
X0193251Y0114199D01*
X0193220Y0114107D01*
X0193185Y0114017D01*
X0193146Y0113928D01*
X0193103Y0113841D01*
X0193058Y0113755D01*
X0193008Y0113672D01*
X0192955Y0113590D01*
X0192899Y0113511D01*
X0192840Y0113434D01*
X0192778Y0113360D01*
X0192712Y0113288D01*
X0192644Y0113219D01*
X0192573Y0113153D01*
X0192500Y0113090D01*
X0192423Y0113030D01*
X0192345Y0112973D01*
X0192264Y0112920D01*
X0192181Y0112869D01*
X0192096Y0112823D01*
X0192009Y0112779D01*
X0191921Y0112740D01*
X0191831Y0112704D01*
X0191739Y0112672D01*
X0191646Y0112643D01*
X0191553Y0112619D01*
X0191458Y0112598D01*
X0191362Y0112581D01*
X0191266Y0112568D01*
X0191170Y0112559D01*
X0191073Y0112554D01*
X0190976Y0112553D01*
X0190879Y0112556D01*
X0190782Y0112563D01*
X0190686Y0112574D01*
X0190590Y0112589D01*
X0190495Y0112608D01*
X0190400Y0112630D01*
X0190307Y0112657D01*
X0190215Y0112687D01*
X0190124Y0112721D01*
X0190035Y0112759D01*
X0189947Y0112801D01*
X0189861Y0112846D01*
X0189777Y0112894D01*
X0189695Y0112946D01*
X0189616Y0113001D01*
X0189538Y0113060D01*
X0189463Y0113121D01*
X0189391Y0113186D01*
X0189321Y0113253D01*
X0189254Y0113324D01*
X0189191Y0113397D01*
X0189130Y0113472D01*
X0189072Y0113550D01*
X0189018Y0113631D01*
X0188967Y0113713D01*
X0188919Y0113798D01*
X0188875Y0113884D01*
X0188834Y0113972D01*
X0188798Y0114062D01*
X0188764Y0114153D01*
X0188735Y0114245D01*
X0188709Y0114339D01*
X0188688Y0114433D01*
X0188670Y0114529D01*
X0188656Y0114625D01*
X0188646Y0114721D01*
X0188640Y0114818D01*
X0188638Y0114915D01*
X0168953Y0134600D02*
X0168955Y0134697D01*
X0168961Y0134794D01*
X0168971Y0134890D01*
X0168985Y0134986D01*
X0169003Y0135082D01*
X0169024Y0135176D01*
X0169050Y0135270D01*
X0169079Y0135362D01*
X0169113Y0135453D01*
X0169149Y0135543D01*
X0169190Y0135631D01*
X0169234Y0135717D01*
X0169282Y0135802D01*
X0169333Y0135884D01*
X0169387Y0135965D01*
X0169445Y0136043D01*
X0169506Y0136118D01*
X0169569Y0136191D01*
X0169636Y0136262D01*
X0169706Y0136329D01*
X0169778Y0136394D01*
X0169853Y0136455D01*
X0169931Y0136514D01*
X0170010Y0136569D01*
X0170092Y0136621D01*
X0170176Y0136669D01*
X0170262Y0136714D01*
X0170350Y0136756D01*
X0170439Y0136794D01*
X0170530Y0136828D01*
X0170622Y0136858D01*
X0170715Y0136885D01*
X0170810Y0136907D01*
X0170905Y0136926D01*
X0171001Y0136941D01*
X0171097Y0136952D01*
X0171194Y0136959D01*
X0171291Y0136962D01*
X0171388Y0136961D01*
X0171485Y0136956D01*
X0171581Y0136947D01*
X0171677Y0136934D01*
X0171773Y0136917D01*
X0171868Y0136896D01*
X0171961Y0136872D01*
X0172054Y0136843D01*
X0172146Y0136811D01*
X0172236Y0136775D01*
X0172324Y0136736D01*
X0172411Y0136692D01*
X0172496Y0136646D01*
X0172579Y0136595D01*
X0172660Y0136542D01*
X0172738Y0136485D01*
X0172815Y0136425D01*
X0172888Y0136362D01*
X0172959Y0136296D01*
X0173027Y0136227D01*
X0173093Y0136155D01*
X0173155Y0136081D01*
X0173214Y0136004D01*
X0173270Y0135925D01*
X0173323Y0135843D01*
X0173373Y0135760D01*
X0173418Y0135674D01*
X0173461Y0135587D01*
X0173500Y0135498D01*
X0173535Y0135408D01*
X0173566Y0135316D01*
X0173593Y0135223D01*
X0173617Y0135129D01*
X0173637Y0135034D01*
X0173653Y0134938D01*
X0173665Y0134842D01*
X0173673Y0134745D01*
X0173677Y0134648D01*
X0173677Y0134552D01*
X0173673Y0134455D01*
X0173665Y0134358D01*
X0173653Y0134262D01*
X0173637Y0134166D01*
X0173617Y0134071D01*
X0173593Y0133977D01*
X0173566Y0133884D01*
X0173535Y0133792D01*
X0173500Y0133702D01*
X0173461Y0133613D01*
X0173418Y0133526D01*
X0173373Y0133440D01*
X0173323Y0133357D01*
X0173270Y0133275D01*
X0173214Y0133196D01*
X0173155Y0133119D01*
X0173093Y0133045D01*
X0173027Y0132973D01*
X0172959Y0132904D01*
X0172888Y0132838D01*
X0172815Y0132775D01*
X0172738Y0132715D01*
X0172660Y0132658D01*
X0172579Y0132605D01*
X0172496Y0132554D01*
X0172411Y0132508D01*
X0172324Y0132464D01*
X0172236Y0132425D01*
X0172146Y0132389D01*
X0172054Y0132357D01*
X0171961Y0132328D01*
X0171868Y0132304D01*
X0171773Y0132283D01*
X0171677Y0132266D01*
X0171581Y0132253D01*
X0171485Y0132244D01*
X0171388Y0132239D01*
X0171291Y0132238D01*
X0171194Y0132241D01*
X0171097Y0132248D01*
X0171001Y0132259D01*
X0170905Y0132274D01*
X0170810Y0132293D01*
X0170715Y0132315D01*
X0170622Y0132342D01*
X0170530Y0132372D01*
X0170439Y0132406D01*
X0170350Y0132444D01*
X0170262Y0132486D01*
X0170176Y0132531D01*
X0170092Y0132579D01*
X0170010Y0132631D01*
X0169931Y0132686D01*
X0169853Y0132745D01*
X0169778Y0132806D01*
X0169706Y0132871D01*
X0169636Y0132938D01*
X0169569Y0133009D01*
X0169506Y0133082D01*
X0169445Y0133157D01*
X0169387Y0133235D01*
X0169333Y0133316D01*
X0169282Y0133398D01*
X0169234Y0133483D01*
X0169190Y0133569D01*
X0169149Y0133657D01*
X0169113Y0133747D01*
X0169079Y0133838D01*
X0169050Y0133930D01*
X0169024Y0134024D01*
X0169003Y0134118D01*
X0168985Y0134214D01*
X0168971Y0134310D01*
X0168961Y0134406D01*
X0168955Y0134503D01*
X0168953Y0134600D01*
X0188638Y0154285D02*
X0188640Y0154382D01*
X0188646Y0154479D01*
X0188656Y0154575D01*
X0188670Y0154671D01*
X0188688Y0154767D01*
X0188709Y0154861D01*
X0188735Y0154955D01*
X0188764Y0155047D01*
X0188798Y0155138D01*
X0188834Y0155228D01*
X0188875Y0155316D01*
X0188919Y0155402D01*
X0188967Y0155487D01*
X0189018Y0155569D01*
X0189072Y0155650D01*
X0189130Y0155728D01*
X0189191Y0155803D01*
X0189254Y0155876D01*
X0189321Y0155947D01*
X0189391Y0156014D01*
X0189463Y0156079D01*
X0189538Y0156140D01*
X0189616Y0156199D01*
X0189695Y0156254D01*
X0189777Y0156306D01*
X0189861Y0156354D01*
X0189947Y0156399D01*
X0190035Y0156441D01*
X0190124Y0156479D01*
X0190215Y0156513D01*
X0190307Y0156543D01*
X0190400Y0156570D01*
X0190495Y0156592D01*
X0190590Y0156611D01*
X0190686Y0156626D01*
X0190782Y0156637D01*
X0190879Y0156644D01*
X0190976Y0156647D01*
X0191073Y0156646D01*
X0191170Y0156641D01*
X0191266Y0156632D01*
X0191362Y0156619D01*
X0191458Y0156602D01*
X0191553Y0156581D01*
X0191646Y0156557D01*
X0191739Y0156528D01*
X0191831Y0156496D01*
X0191921Y0156460D01*
X0192009Y0156421D01*
X0192096Y0156377D01*
X0192181Y0156331D01*
X0192264Y0156280D01*
X0192345Y0156227D01*
X0192423Y0156170D01*
X0192500Y0156110D01*
X0192573Y0156047D01*
X0192644Y0155981D01*
X0192712Y0155912D01*
X0192778Y0155840D01*
X0192840Y0155766D01*
X0192899Y0155689D01*
X0192955Y0155610D01*
X0193008Y0155528D01*
X0193058Y0155445D01*
X0193103Y0155359D01*
X0193146Y0155272D01*
X0193185Y0155183D01*
X0193220Y0155093D01*
X0193251Y0155001D01*
X0193278Y0154908D01*
X0193302Y0154814D01*
X0193322Y0154719D01*
X0193338Y0154623D01*
X0193350Y0154527D01*
X0193358Y0154430D01*
X0193362Y0154333D01*
X0193362Y0154237D01*
X0193358Y0154140D01*
X0193350Y0154043D01*
X0193338Y0153947D01*
X0193322Y0153851D01*
X0193302Y0153756D01*
X0193278Y0153662D01*
X0193251Y0153569D01*
X0193220Y0153477D01*
X0193185Y0153387D01*
X0193146Y0153298D01*
X0193103Y0153211D01*
X0193058Y0153125D01*
X0193008Y0153042D01*
X0192955Y0152960D01*
X0192899Y0152881D01*
X0192840Y0152804D01*
X0192778Y0152730D01*
X0192712Y0152658D01*
X0192644Y0152589D01*
X0192573Y0152523D01*
X0192500Y0152460D01*
X0192423Y0152400D01*
X0192345Y0152343D01*
X0192264Y0152290D01*
X0192181Y0152239D01*
X0192096Y0152193D01*
X0192009Y0152149D01*
X0191921Y0152110D01*
X0191831Y0152074D01*
X0191739Y0152042D01*
X0191646Y0152013D01*
X0191553Y0151989D01*
X0191458Y0151968D01*
X0191362Y0151951D01*
X0191266Y0151938D01*
X0191170Y0151929D01*
X0191073Y0151924D01*
X0190976Y0151923D01*
X0190879Y0151926D01*
X0190782Y0151933D01*
X0190686Y0151944D01*
X0190590Y0151959D01*
X0190495Y0151978D01*
X0190400Y0152000D01*
X0190307Y0152027D01*
X0190215Y0152057D01*
X0190124Y0152091D01*
X0190035Y0152129D01*
X0189947Y0152171D01*
X0189861Y0152216D01*
X0189777Y0152264D01*
X0189695Y0152316D01*
X0189616Y0152371D01*
X0189538Y0152430D01*
X0189463Y0152491D01*
X0189391Y0152556D01*
X0189321Y0152623D01*
X0189254Y0152694D01*
X0189191Y0152767D01*
X0189130Y0152842D01*
X0189072Y0152920D01*
X0189018Y0153001D01*
X0188967Y0153083D01*
X0188919Y0153168D01*
X0188875Y0153254D01*
X0188834Y0153342D01*
X0188798Y0153432D01*
X0188764Y0153523D01*
X0188735Y0153615D01*
X0188709Y0153709D01*
X0188688Y0153803D01*
X0188670Y0153899D01*
X0188656Y0153995D01*
X0188646Y0154091D01*
X0188640Y0154188D01*
X0188638Y0154285D01*
M02*
