G75*
%MOIN*%
%OFA0B0*%
%FSLAX25Y25*%
%IPPOS*%
%LPD*%
%AMOC8*
5,1,8,0,0,1.08239X$1,22.5*
%
%ADD10C,0.05200*%
%ADD11C,0.08600*%
%ADD12OC8,0.05200*%
%ADD13C,0.06500*%
%ADD14R,0.06500X0.06500*%
%ADD15C,0.04400*%
%ADD16OC8,0.06300*%
%ADD17C,0.06000*%
%ADD18OC8,0.06000*%
%ADD19C,0.23000*%
%ADD20C,0.06000*%
%ADD21C,0.01000*%
%ADD22C,0.01600*%
%ADD23C,0.04000*%
D10*
X0077580Y0013600D02*
X0082780Y0013600D01*
X0082780Y0023600D02*
X0077580Y0023600D01*
X0078400Y0039600D02*
X0083600Y0039600D01*
X0083600Y0049600D02*
X0078400Y0049600D01*
X0078400Y0059600D02*
X0083600Y0059600D01*
X0083600Y0069600D02*
X0078400Y0069600D01*
X0078400Y0079600D02*
X0083600Y0079600D01*
X0083600Y0089600D02*
X0078400Y0089600D01*
X0078400Y0099600D02*
X0083600Y0099600D01*
X0083600Y0109600D02*
X0078400Y0109600D01*
X0078400Y0119600D02*
X0083600Y0119600D01*
X0083600Y0129600D02*
X0078400Y0129600D01*
X0078400Y0139600D02*
X0083600Y0139600D01*
X0083600Y0149600D02*
X0078400Y0149600D01*
X0078400Y0159600D02*
X0083600Y0159600D01*
X0083600Y0169600D02*
X0078400Y0169600D01*
X0108400Y0169600D02*
X0113600Y0169600D01*
X0113600Y0159600D02*
X0108400Y0159600D01*
X0108400Y0149600D02*
X0113600Y0149600D01*
X0113600Y0139600D02*
X0108400Y0139600D01*
X0108400Y0129600D02*
X0113600Y0129600D01*
X0113600Y0119600D02*
X0108400Y0119600D01*
X0108400Y0109600D02*
X0113600Y0109600D01*
X0113600Y0099600D02*
X0108400Y0099600D01*
X0108400Y0089600D02*
X0113600Y0089600D01*
X0113600Y0079600D02*
X0108400Y0079600D01*
X0108400Y0069600D02*
X0113600Y0069600D01*
X0113600Y0059600D02*
X0108400Y0059600D01*
X0108400Y0049600D02*
X0113600Y0049600D01*
X0113600Y0039600D02*
X0108400Y0039600D01*
X0107580Y0023600D02*
X0112780Y0023600D01*
X0112780Y0013600D02*
X0107580Y0013600D01*
D11*
X0171315Y0014915D03*
X0171315Y0024757D03*
X0171315Y0044443D03*
X0171315Y0054285D03*
X0171315Y0064915D03*
X0171315Y0074757D03*
X0171315Y0094443D03*
X0171315Y0104285D03*
X0171315Y0114915D03*
X0171315Y0124757D03*
X0171315Y0144443D03*
X0171315Y0154285D03*
X0191000Y0134600D03*
X0191000Y0084600D03*
X0191000Y0034600D03*
D12*
X0156000Y0042100D03*
X0156000Y0022100D03*
X0146000Y0022100D03*
X0146000Y0012100D03*
X0126000Y0012100D03*
X0126000Y0022100D03*
X0126000Y0059600D03*
X0126000Y0069600D03*
X0146000Y0069600D03*
X0146000Y0059600D03*
X0156000Y0079600D03*
X0156000Y0099600D03*
X0146000Y0107100D03*
X0146000Y0117100D03*
X0156000Y0129600D03*
X0156000Y0149600D03*
X0128500Y0159600D03*
X0128500Y0179600D03*
X0126000Y0117100D03*
X0126000Y0107100D03*
X0067260Y0098670D03*
X0053390Y0098030D03*
X0053500Y0107100D03*
X0053370Y0117230D03*
X0053500Y0127100D03*
X0053500Y0137100D03*
X0033500Y0137100D03*
X0033500Y0127100D03*
X0033370Y0117230D03*
X0033500Y0107100D03*
X0033390Y0098030D03*
X0016000Y0098840D03*
X0016000Y0108840D03*
X0067260Y0118670D03*
X0031000Y0159600D03*
X0031000Y0169600D03*
X0011000Y0169600D03*
X0011000Y0159600D03*
D13*
X0106000Y0189600D03*
X0141000Y0134600D03*
X0141000Y0087100D03*
X0141000Y0039600D03*
D14*
X0131000Y0039600D03*
X0131000Y0087100D03*
X0131000Y0134600D03*
X0116000Y0189600D03*
D15*
X0143500Y0192400D02*
X0143500Y0196800D01*
X0163500Y0196800D02*
X0163500Y0192400D01*
D16*
X0156000Y0179600D03*
X0141000Y0179600D03*
X0141000Y0159600D03*
X0156000Y0159600D03*
D17*
X0086000Y0194600D03*
D18*
X0086000Y0184600D03*
X0076000Y0184600D03*
X0066000Y0184600D03*
X0066000Y0194600D03*
X0076000Y0194600D03*
X0051000Y0194600D03*
X0051000Y0184600D03*
X0041000Y0184600D03*
X0031000Y0184600D03*
X0031000Y0194600D03*
X0041000Y0194600D03*
X0021000Y0194600D03*
X0011000Y0194600D03*
X0011000Y0184600D03*
X0021000Y0184600D03*
D19*
X0053500Y0159600D03*
D20*
X0019470Y0149210D02*
X0013470Y0149210D01*
X0013470Y0139210D02*
X0019470Y0139210D01*
X0019470Y0129210D02*
X0013470Y0129210D01*
X0013470Y0119210D02*
X0019470Y0119210D01*
D21*
X0016748Y0118773D02*
X0016470Y0119210D01*
X0016748Y0118773D02*
X0032496Y0118773D01*
X0033370Y0117230D01*
X0032496Y0108931D02*
X0026591Y0108931D01*
X0016748Y0099088D01*
X0016000Y0098840D01*
X0032496Y0108931D02*
X0033500Y0107100D01*
X0040370Y0101057D02*
X0075803Y0065624D01*
X0103362Y0065624D01*
X0109268Y0059718D01*
X0111000Y0059600D01*
X0126000Y0069600D02*
X0126984Y0071529D01*
X0132890Y0077435D01*
X0158480Y0077435D01*
X0156512Y0079403D01*
X0156000Y0079600D01*
X0158480Y0077435D02*
X0164386Y0071529D01*
X0166354Y0071529D01*
X0172260Y0065624D01*
X0171315Y0064915D01*
X0189976Y0085309D02*
X0191000Y0084600D01*
X0189976Y0085309D02*
X0180134Y0095151D01*
X0180134Y0144364D01*
X0180134Y0150269D02*
X0180134Y0162080D01*
X0166354Y0162080D01*
X0154543Y0150269D01*
X0156000Y0149600D01*
X0154543Y0148301D01*
X0111236Y0148301D01*
X0111000Y0149600D01*
X0111236Y0158143D02*
X0111000Y0159600D01*
X0111236Y0158143D02*
X0117142Y0158143D01*
X0126984Y0167986D01*
X0170291Y0167986D01*
X0180134Y0150269D02*
X0186039Y0144364D01*
X0191945Y0144364D01*
X0191945Y0136490D01*
X0191000Y0134600D01*
X0156000Y0129600D02*
X0154543Y0128616D01*
X0152575Y0128616D01*
X0150606Y0126647D01*
X0130921Y0126647D01*
X0130921Y0134521D01*
X0131000Y0134600D01*
X0130921Y0126647D02*
X0130921Y0118773D01*
X0126984Y0118773D01*
X0126000Y0117100D01*
X0121079Y0101057D02*
X0121079Y0144364D01*
X0148638Y0144364D01*
X0128500Y0159600D02*
X0126984Y0158143D01*
X0123047Y0154206D01*
X0101394Y0154206D01*
X0085646Y0169954D01*
X0081709Y0169954D01*
X0081000Y0169600D01*
X0069898Y0177828D02*
X0075803Y0183734D01*
X0076000Y0184600D01*
X0069898Y0177828D02*
X0030528Y0177828D01*
X0030528Y0183734D01*
X0031000Y0184600D01*
X0026591Y0189639D02*
X0058087Y0189639D01*
X0062024Y0185702D01*
X0065961Y0185702D01*
X0066000Y0184600D01*
X0076000Y0194600D02*
X0075803Y0195545D01*
X0071866Y0199482D01*
X0034465Y0199482D01*
X0030528Y0195545D01*
X0031000Y0194600D01*
X0026591Y0189639D02*
X0022654Y0185702D01*
X0021000Y0184600D01*
X0011000Y0159600D02*
X0012811Y0158143D01*
X0020685Y0158143D01*
X0034465Y0144364D01*
X0067929Y0144364D01*
X0077772Y0134521D01*
X0091551Y0134521D01*
X0091551Y0118773D01*
X0109268Y0101057D01*
X0111000Y0099600D01*
X0115173Y0095151D02*
X0121079Y0101057D01*
X0115173Y0095151D02*
X0091551Y0095151D01*
X0087614Y0091214D01*
X0081709Y0091214D01*
X0081000Y0089600D01*
X0081709Y0081372D02*
X0081000Y0079600D01*
X0081709Y0081372D02*
X0087614Y0081372D01*
X0095488Y0089246D01*
X0097457Y0089246D01*
X0079740Y0071529D02*
X0081000Y0069600D01*
X0079740Y0071529D02*
X0060055Y0091214D01*
X0060055Y0126647D01*
X0054150Y0126647D01*
X0053500Y0127100D01*
X0058087Y0132553D02*
X0075803Y0132553D01*
X0077772Y0130584D01*
X0079740Y0130584D01*
X0081000Y0129600D01*
X0058087Y0132553D02*
X0054150Y0136490D01*
X0053500Y0137100D01*
X0033500Y0137100D02*
X0032496Y0138458D01*
X0020685Y0150269D01*
X0016748Y0150269D01*
X0016470Y0149210D01*
X0016470Y0129210D02*
X0016748Y0128616D01*
X0020685Y0128616D01*
X0022654Y0126647D01*
X0032496Y0126647D01*
X0033500Y0127100D01*
X0033390Y0098030D02*
X0034465Y0097120D01*
X0034465Y0051844D01*
X0075803Y0051844D01*
X0077772Y0049876D01*
X0079740Y0049876D01*
X0081000Y0049600D01*
X0081709Y0049876D01*
X0091551Y0049876D01*
X0091551Y0024285D01*
X0081709Y0014443D01*
X0080180Y0013600D01*
X0081000Y0059600D02*
X0079740Y0059718D01*
X0075803Y0063655D01*
X0065961Y0063655D01*
X0156000Y0022100D02*
X0156512Y0020348D01*
X0160449Y0016411D01*
X0170291Y0016411D01*
X0171315Y0014915D01*
D22*
X0005800Y0009400D02*
X0005800Y0199761D01*
X0031773Y0199761D01*
X0031213Y0199200D01*
X0029095Y0199200D01*
X0026400Y0196505D01*
X0026400Y0192695D01*
X0027355Y0191739D01*
X0025721Y0191739D01*
X0024491Y0190509D01*
X0023043Y0189062D01*
X0022905Y0189200D01*
X0019095Y0189200D01*
X0016400Y0186505D01*
X0016400Y0182695D01*
X0019095Y0180000D01*
X0022905Y0180000D01*
X0025600Y0182695D01*
X0025600Y0185679D01*
X0026400Y0186479D01*
X0026400Y0182695D01*
X0028428Y0180667D01*
X0028428Y0176958D01*
X0029658Y0175728D01*
X0070767Y0175728D01*
X0075039Y0180000D01*
X0077905Y0180000D01*
X0080600Y0182695D01*
X0080600Y0186505D01*
X0077905Y0189200D01*
X0074095Y0189200D01*
X0071400Y0186505D01*
X0071400Y0182695D01*
X0071597Y0182498D01*
X0069028Y0179928D01*
X0032628Y0179928D01*
X0032628Y0180000D01*
X0032905Y0180000D01*
X0035600Y0182695D01*
X0035600Y0186505D01*
X0034566Y0187539D01*
X0037434Y0187539D01*
X0036400Y0186505D01*
X0036400Y0182695D01*
X0039095Y0180000D01*
X0042905Y0180000D01*
X0045600Y0182695D01*
X0045600Y0186505D01*
X0044566Y0187539D01*
X0047434Y0187539D01*
X0046400Y0186505D01*
X0046400Y0182695D01*
X0049095Y0180000D01*
X0052905Y0180000D01*
X0055600Y0182695D01*
X0055600Y0186505D01*
X0054566Y0187539D01*
X0057217Y0187539D01*
X0059924Y0184833D01*
X0059924Y0184833D01*
X0061154Y0183602D01*
X0061400Y0183602D01*
X0061400Y0182695D01*
X0064095Y0180000D01*
X0067905Y0180000D01*
X0070600Y0182695D01*
X0070600Y0186505D01*
X0067905Y0189200D01*
X0064095Y0189200D01*
X0062795Y0187901D01*
X0060187Y0190509D01*
X0060187Y0190509D01*
X0058956Y0191739D01*
X0054928Y0191739D01*
X0055800Y0192612D01*
X0055800Y0194400D01*
X0051200Y0194400D01*
X0051200Y0194800D01*
X0055800Y0194800D01*
X0055800Y0196588D01*
X0055006Y0197382D01*
X0061994Y0197382D01*
X0061200Y0196588D01*
X0061200Y0194800D01*
X0065800Y0194800D01*
X0065800Y0194400D01*
X0066200Y0194400D01*
X0066200Y0194800D01*
X0070800Y0194800D01*
X0070800Y0196588D01*
X0070006Y0197382D01*
X0070996Y0197382D01*
X0071636Y0196742D01*
X0071400Y0196505D01*
X0071400Y0192695D01*
X0074095Y0190000D01*
X0077905Y0190000D01*
X0080600Y0192695D01*
X0080600Y0196505D01*
X0077905Y0199200D01*
X0075118Y0199200D01*
X0074557Y0199761D01*
X0141087Y0199761D01*
X0140279Y0198953D01*
X0139700Y0197556D01*
X0139700Y0191644D01*
X0140279Y0190247D01*
X0141347Y0189179D01*
X0142744Y0188600D01*
X0144256Y0188600D01*
X0145653Y0189179D01*
X0146721Y0190247D01*
X0147300Y0191644D01*
X0147300Y0197556D01*
X0146721Y0198953D01*
X0145913Y0199761D01*
X0161087Y0199761D01*
X0160279Y0198953D01*
X0159700Y0197556D01*
X0159700Y0191644D01*
X0160279Y0190247D01*
X0161347Y0189179D01*
X0162744Y0188600D01*
X0164256Y0188600D01*
X0165653Y0189179D01*
X0166721Y0190247D01*
X0167300Y0191644D01*
X0167300Y0197556D01*
X0166721Y0198953D01*
X0165913Y0199761D01*
X0194901Y0199761D01*
X0194901Y0160422D01*
X0192425Y0161447D01*
X0189575Y0161447D01*
X0186943Y0160357D01*
X0184928Y0158342D01*
X0183838Y0155710D01*
X0183838Y0152860D01*
X0184928Y0150228D01*
X0186943Y0148213D01*
X0189575Y0147123D01*
X0192425Y0147123D01*
X0194901Y0148148D01*
X0194901Y0139043D01*
X0194342Y0139602D01*
X0194045Y0139725D01*
X0194045Y0145234D01*
X0192815Y0146464D01*
X0186909Y0146464D01*
X0182234Y0151139D01*
X0182234Y0162950D01*
X0181004Y0164180D01*
X0165484Y0164180D01*
X0160750Y0159446D01*
X0160750Y0161568D01*
X0157968Y0164350D01*
X0154032Y0164350D01*
X0151250Y0161568D01*
X0151250Y0157632D01*
X0154032Y0154850D01*
X0156154Y0154850D01*
X0155104Y0153800D01*
X0154260Y0153800D01*
X0151800Y0151340D01*
X0151800Y0150401D01*
X0117800Y0150401D01*
X0117800Y0150435D01*
X0117161Y0151979D01*
X0117033Y0152106D01*
X0123917Y0152106D01*
X0125147Y0153336D01*
X0127211Y0155400D01*
X0130240Y0155400D01*
X0132700Y0157860D01*
X0132700Y0161340D01*
X0130240Y0163800D01*
X0126760Y0163800D01*
X0124300Y0161340D01*
X0124300Y0158429D01*
X0122177Y0156306D01*
X0118275Y0156306D01*
X0119242Y0157273D01*
X0127854Y0165886D01*
X0167300Y0165886D01*
X0168252Y0164934D01*
X0169575Y0164386D01*
X0171007Y0164386D01*
X0172331Y0164934D01*
X0173343Y0165947D01*
X0173891Y0167270D01*
X0173891Y0168702D01*
X0173343Y0170025D01*
X0172331Y0171038D01*
X0171007Y0171586D01*
X0169575Y0171586D01*
X0168252Y0171038D01*
X0167300Y0170086D01*
X0126114Y0170086D01*
X0117409Y0161380D01*
X0117161Y0161979D01*
X0115979Y0163161D01*
X0114435Y0163800D01*
X0107565Y0163800D01*
X0106021Y0163161D01*
X0104839Y0161979D01*
X0104200Y0160435D01*
X0104200Y0158765D01*
X0104839Y0157221D01*
X0105754Y0156306D01*
X0102264Y0156306D01*
X0087746Y0170824D01*
X0087564Y0171006D01*
X0087161Y0171979D01*
X0085979Y0173161D01*
X0084435Y0173800D01*
X0077565Y0173800D01*
X0076021Y0173161D01*
X0074839Y0171979D01*
X0074200Y0170435D01*
X0074200Y0168765D01*
X0074839Y0167221D01*
X0076021Y0166039D01*
X0077565Y0165400D01*
X0084435Y0165400D01*
X0085979Y0166039D01*
X0086285Y0166345D01*
X0100524Y0152106D01*
X0104967Y0152106D01*
X0104839Y0151979D01*
X0104200Y0150435D01*
X0104200Y0148765D01*
X0104839Y0147221D01*
X0106021Y0146039D01*
X0107565Y0145400D01*
X0114435Y0145400D01*
X0115979Y0146039D01*
X0116140Y0146201D01*
X0119946Y0146201D01*
X0118979Y0145234D01*
X0118979Y0101927D01*
X0117709Y0100656D01*
X0117161Y0101979D01*
X0115979Y0103161D01*
X0114435Y0103800D01*
X0109494Y0103800D01*
X0107894Y0105400D01*
X0114435Y0105400D01*
X0115979Y0106039D01*
X0117161Y0107221D01*
X0117800Y0108765D01*
X0117800Y0110435D01*
X0117161Y0111979D01*
X0115979Y0113161D01*
X0114435Y0113800D01*
X0107565Y0113800D01*
X0106021Y0113161D01*
X0104839Y0111979D01*
X0104200Y0110435D01*
X0104200Y0109094D01*
X0093651Y0119643D01*
X0093651Y0135391D01*
X0092421Y0136621D01*
X0086561Y0136621D01*
X0087161Y0137221D01*
X0087800Y0138765D01*
X0087800Y0140435D01*
X0087161Y0141979D01*
X0085979Y0143161D01*
X0084435Y0143800D01*
X0077565Y0143800D01*
X0076021Y0143161D01*
X0074839Y0141979D01*
X0074384Y0140879D01*
X0070029Y0145234D01*
X0068799Y0146464D01*
X0035334Y0146464D01*
X0022785Y0159013D01*
X0021555Y0160243D01*
X0015200Y0160243D01*
X0015200Y0161340D01*
X0012740Y0163800D01*
X0009260Y0163800D01*
X0006800Y0161340D01*
X0006800Y0157860D01*
X0009260Y0155400D01*
X0012740Y0155400D01*
X0013383Y0156043D01*
X0019815Y0156043D01*
X0033595Y0142264D01*
X0067059Y0142264D01*
X0074670Y0134653D01*
X0058956Y0134653D01*
X0057700Y0135909D01*
X0057700Y0138840D01*
X0055240Y0141300D01*
X0051760Y0141300D01*
X0049300Y0138840D01*
X0049300Y0135360D01*
X0051760Y0132900D01*
X0054770Y0132900D01*
X0055987Y0131683D01*
X0057217Y0130453D01*
X0074207Y0130453D01*
X0074200Y0130435D01*
X0074200Y0128765D01*
X0074839Y0127221D01*
X0076021Y0126039D01*
X0077565Y0125400D01*
X0084435Y0125400D01*
X0085979Y0126039D01*
X0087161Y0127221D01*
X0087800Y0128765D01*
X0087800Y0130435D01*
X0087161Y0131979D01*
X0086718Y0132421D01*
X0089451Y0132421D01*
X0089451Y0117903D01*
X0090681Y0116673D01*
X0105107Y0102247D01*
X0104839Y0101979D01*
X0104200Y0100435D01*
X0104200Y0098765D01*
X0104827Y0097251D01*
X0090681Y0097251D01*
X0089451Y0096021D01*
X0086744Y0093314D01*
X0085608Y0093314D01*
X0084435Y0093800D01*
X0077565Y0093800D01*
X0076021Y0093161D01*
X0074839Y0091979D01*
X0074200Y0090435D01*
X0074200Y0088765D01*
X0074839Y0087221D01*
X0076021Y0086039D01*
X0077565Y0085400D01*
X0084435Y0085400D01*
X0085979Y0086039D01*
X0087161Y0087221D01*
X0087800Y0088765D01*
X0087800Y0089114D01*
X0088484Y0089114D01*
X0092421Y0093051D01*
X0105664Y0093051D01*
X0105534Y0092956D01*
X0105044Y0092466D01*
X0104637Y0091906D01*
X0104322Y0091289D01*
X0104108Y0090630D01*
X0104000Y0089946D01*
X0104000Y0089600D01*
X0111000Y0089600D01*
X0118000Y0089600D01*
X0118000Y0089946D01*
X0117892Y0090630D01*
X0117678Y0091289D01*
X0117363Y0091906D01*
X0116956Y0092466D01*
X0116466Y0092956D01*
X0116166Y0093174D01*
X0121949Y0098957D01*
X0123179Y0100187D01*
X0123179Y0103982D01*
X0124260Y0102900D01*
X0127740Y0102900D01*
X0130200Y0105360D01*
X0130200Y0108840D01*
X0127740Y0111300D01*
X0124260Y0111300D01*
X0123179Y0110218D01*
X0123179Y0113982D01*
X0124260Y0112900D01*
X0127740Y0112900D01*
X0130200Y0115360D01*
X0130200Y0116673D01*
X0131791Y0116673D01*
X0133021Y0117903D01*
X0133021Y0124547D01*
X0151476Y0124547D01*
X0153295Y0126366D01*
X0154260Y0125400D01*
X0157740Y0125400D01*
X0160200Y0127860D01*
X0160200Y0131340D01*
X0157740Y0133800D01*
X0154260Y0133800D01*
X0151800Y0131340D01*
X0151800Y0130716D01*
X0151705Y0130716D01*
X0150475Y0129486D01*
X0150475Y0129486D01*
X0149736Y0128747D01*
X0133021Y0128747D01*
X0133021Y0129750D01*
X0134913Y0129750D01*
X0135850Y0130687D01*
X0135850Y0138513D01*
X0134913Y0139450D01*
X0127087Y0139450D01*
X0126150Y0138513D01*
X0126150Y0130687D01*
X0127087Y0129750D01*
X0128821Y0129750D01*
X0128821Y0120873D01*
X0128166Y0120873D01*
X0127740Y0121300D01*
X0124260Y0121300D01*
X0123179Y0120218D01*
X0123179Y0142264D01*
X0145647Y0142264D01*
X0146599Y0141312D01*
X0147922Y0140764D01*
X0149354Y0140764D01*
X0150677Y0141312D01*
X0151690Y0142325D01*
X0152238Y0143648D01*
X0152238Y0145080D01*
X0151773Y0146201D01*
X0153460Y0146201D01*
X0154260Y0145400D01*
X0157740Y0145400D01*
X0160200Y0147860D01*
X0160200Y0151340D01*
X0159392Y0152148D01*
X0167224Y0159980D01*
X0169647Y0159980D01*
X0167973Y0159287D01*
X0166313Y0157627D01*
X0165415Y0155459D01*
X0165415Y0153111D01*
X0166313Y0150943D01*
X0167892Y0149364D01*
X0166313Y0147785D01*
X0165415Y0145616D01*
X0165415Y0143269D01*
X0166313Y0141100D01*
X0167000Y0140414D01*
X0165243Y0138657D01*
X0164153Y0136025D01*
X0164153Y0133175D01*
X0165243Y0130543D01*
X0167000Y0128786D01*
X0166313Y0128100D01*
X0165415Y0125931D01*
X0165415Y0123584D01*
X0166313Y0121415D01*
X0167892Y0119836D01*
X0166313Y0118257D01*
X0165415Y0116089D01*
X0165415Y0113741D01*
X0166313Y0111573D01*
X0167973Y0109913D01*
X0168729Y0109600D01*
X0167973Y0109287D01*
X0166313Y0107627D01*
X0165415Y0105459D01*
X0165415Y0103111D01*
X0166313Y0100943D01*
X0167892Y0099364D01*
X0166313Y0097785D01*
X0165415Y0095616D01*
X0165415Y0093269D01*
X0166313Y0091100D01*
X0167000Y0090414D01*
X0165243Y0088657D01*
X0164153Y0086025D01*
X0164153Y0083175D01*
X0165243Y0080543D01*
X0167000Y0078786D01*
X0166313Y0078100D01*
X0165415Y0075931D01*
X0165415Y0073629D01*
X0165256Y0073629D01*
X0160580Y0078304D01*
X0160200Y0078685D01*
X0160200Y0081340D01*
X0157740Y0083800D01*
X0154260Y0083800D01*
X0151800Y0081340D01*
X0151800Y0079535D01*
X0132020Y0079535D01*
X0130790Y0078304D01*
X0126285Y0073800D01*
X0124260Y0073800D01*
X0121800Y0071340D01*
X0121800Y0067860D01*
X0124260Y0065400D01*
X0127740Y0065400D01*
X0130200Y0067860D01*
X0130200Y0071340D01*
X0129982Y0071557D01*
X0133760Y0075335D01*
X0157610Y0075335D01*
X0162286Y0070659D01*
X0163516Y0069429D01*
X0165484Y0069429D01*
X0166485Y0068429D01*
X0166313Y0068257D01*
X0165415Y0066089D01*
X0165415Y0063741D01*
X0166313Y0061573D01*
X0167973Y0059913D01*
X0168729Y0059600D01*
X0167973Y0059287D01*
X0166313Y0057627D01*
X0165415Y0055459D01*
X0165415Y0053111D01*
X0166313Y0050943D01*
X0167892Y0049364D01*
X0166313Y0047785D01*
X0165415Y0045616D01*
X0165415Y0043269D01*
X0166313Y0041100D01*
X0167000Y0040414D01*
X0165243Y0038657D01*
X0164153Y0036025D01*
X0164153Y0033175D01*
X0165243Y0030543D01*
X0167000Y0028786D01*
X0166313Y0028100D01*
X0165415Y0025931D01*
X0165415Y0023584D01*
X0166313Y0021415D01*
X0167892Y0019836D01*
X0166567Y0018511D01*
X0161319Y0018511D01*
X0159835Y0019995D01*
X0160200Y0020360D01*
X0160200Y0023840D01*
X0157740Y0026300D01*
X0154260Y0026300D01*
X0151800Y0023840D01*
X0151800Y0020360D01*
X0154260Y0017900D01*
X0155990Y0017900D01*
X0158349Y0015541D01*
X0159579Y0014311D01*
X0165415Y0014311D01*
X0165415Y0013741D01*
X0166313Y0011573D01*
X0167973Y0009913D01*
X0169212Y0009400D01*
X0149523Y0009400D01*
X0150400Y0010277D01*
X0150400Y0012100D01*
X0150400Y0013923D01*
X0147823Y0016500D01*
X0146000Y0016500D01*
X0146000Y0012100D01*
X0146000Y0012100D01*
X0150400Y0012100D01*
X0146000Y0012100D01*
X0146000Y0012100D01*
X0146000Y0012100D01*
X0141600Y0012100D01*
X0141600Y0013923D01*
X0144177Y0016500D01*
X0146000Y0016500D01*
X0146000Y0012100D01*
X0141600Y0012100D01*
X0141600Y0010277D01*
X0142477Y0009400D01*
X0129240Y0009400D01*
X0130200Y0010360D01*
X0130200Y0013840D01*
X0127740Y0016300D01*
X0124260Y0016300D01*
X0121800Y0013840D01*
X0121800Y0010360D01*
X0122760Y0009400D01*
X0114092Y0009400D01*
X0114469Y0009522D01*
X0115086Y0009837D01*
X0115646Y0010244D01*
X0116136Y0010734D01*
X0116543Y0011294D01*
X0116858Y0011911D01*
X0117072Y0012570D01*
X0117180Y0013254D01*
X0117180Y0013600D01*
X0117180Y0013946D01*
X0117072Y0014630D01*
X0116858Y0015289D01*
X0116543Y0015906D01*
X0116136Y0016466D01*
X0115646Y0016956D01*
X0115086Y0017363D01*
X0114469Y0017678D01*
X0113810Y0017892D01*
X0113126Y0018000D01*
X0110180Y0018000D01*
X0110180Y0013600D01*
X0110180Y0013600D01*
X0117180Y0013600D01*
X0110180Y0013600D01*
X0110180Y0013600D01*
X0110180Y0013600D01*
X0103180Y0013600D01*
X0103180Y0013946D01*
X0103288Y0014630D01*
X0103502Y0015289D01*
X0103817Y0015906D01*
X0104224Y0016466D01*
X0104714Y0016956D01*
X0105274Y0017363D01*
X0105891Y0017678D01*
X0106550Y0017892D01*
X0107234Y0018000D01*
X0110180Y0018000D01*
X0110180Y0013600D01*
X0103180Y0013600D01*
X0103180Y0013254D01*
X0103288Y0012570D01*
X0103502Y0011911D01*
X0103817Y0011294D01*
X0104224Y0010734D01*
X0104714Y0010244D01*
X0105274Y0009837D01*
X0105891Y0009522D01*
X0106268Y0009400D01*
X0005800Y0009400D01*
X0005800Y0010994D02*
X0074246Y0010994D01*
X0074019Y0011221D02*
X0075201Y0010039D01*
X0076745Y0009400D01*
X0083615Y0009400D01*
X0085159Y0010039D01*
X0086341Y0011221D01*
X0086980Y0012765D01*
X0086980Y0014435D01*
X0086341Y0015979D01*
X0086278Y0016042D01*
X0092421Y0022185D01*
X0093651Y0023415D01*
X0093651Y0050745D01*
X0092421Y0051976D01*
X0087162Y0051976D01*
X0087161Y0051979D01*
X0085979Y0053161D01*
X0084435Y0053800D01*
X0077565Y0053800D01*
X0077036Y0053581D01*
X0076673Y0053944D01*
X0036565Y0053944D01*
X0036565Y0095265D01*
X0037590Y0096290D01*
X0037590Y0098746D01*
X0038331Y0098005D01*
X0039654Y0097457D01*
X0041000Y0097457D01*
X0072702Y0065755D01*
X0068952Y0065755D01*
X0068000Y0066707D01*
X0066677Y0067255D01*
X0065245Y0067255D01*
X0063921Y0066707D01*
X0062909Y0065694D01*
X0062361Y0064371D01*
X0062361Y0062939D01*
X0062909Y0061616D01*
X0063921Y0060603D01*
X0065245Y0060055D01*
X0066677Y0060055D01*
X0068000Y0060603D01*
X0068952Y0061555D01*
X0074664Y0061555D01*
X0074200Y0060435D01*
X0074200Y0058765D01*
X0074839Y0057221D01*
X0076021Y0056039D01*
X0077565Y0055400D01*
X0084435Y0055400D01*
X0085979Y0056039D01*
X0087161Y0057221D01*
X0087800Y0058765D01*
X0087800Y0060435D01*
X0087161Y0061979D01*
X0085979Y0063161D01*
X0085103Y0063524D01*
X0102492Y0063524D01*
X0104604Y0061412D01*
X0104200Y0060435D01*
X0104200Y0058765D01*
X0104839Y0057221D01*
X0106021Y0056039D01*
X0107565Y0055400D01*
X0114435Y0055400D01*
X0115979Y0056039D01*
X0117161Y0057221D01*
X0117800Y0058765D01*
X0117800Y0060435D01*
X0117161Y0061979D01*
X0115979Y0063161D01*
X0114435Y0063800D01*
X0108156Y0063800D01*
X0105462Y0066493D01*
X0104232Y0067724D01*
X0087369Y0067724D01*
X0087800Y0068765D01*
X0087800Y0070435D01*
X0087161Y0071979D01*
X0085979Y0073161D01*
X0084435Y0073800D01*
X0080439Y0073800D01*
X0078839Y0075400D01*
X0084435Y0075400D01*
X0085979Y0076039D01*
X0087161Y0077221D01*
X0087800Y0078765D01*
X0087800Y0079272D01*
X0088484Y0079272D01*
X0095412Y0086199D01*
X0095417Y0086194D01*
X0096741Y0085646D01*
X0098173Y0085646D01*
X0099496Y0086194D01*
X0100509Y0087206D01*
X0101057Y0088530D01*
X0101057Y0089962D01*
X0100509Y0091285D01*
X0099496Y0092298D01*
X0098173Y0092846D01*
X0096741Y0092846D01*
X0095417Y0092298D01*
X0094405Y0091285D01*
X0094297Y0091024D01*
X0093388Y0090116D01*
X0086744Y0083472D01*
X0085228Y0083472D01*
X0084435Y0083800D01*
X0077565Y0083800D01*
X0076021Y0083161D01*
X0074839Y0081979D01*
X0074200Y0080435D01*
X0074200Y0080039D01*
X0062155Y0092084D01*
X0062155Y0127517D01*
X0060925Y0128747D01*
X0057700Y0128747D01*
X0057700Y0128840D01*
X0055240Y0131300D01*
X0051760Y0131300D01*
X0049300Y0128840D01*
X0049300Y0125360D01*
X0051760Y0122900D01*
X0055240Y0122900D01*
X0056887Y0124547D01*
X0057955Y0124547D01*
X0057955Y0090344D01*
X0059185Y0089114D01*
X0075580Y0072720D01*
X0074839Y0071979D01*
X0074200Y0070435D01*
X0074200Y0070197D01*
X0043970Y0100427D01*
X0043970Y0101773D01*
X0043422Y0103096D01*
X0042409Y0104109D01*
X0041086Y0104657D01*
X0039654Y0104657D01*
X0038331Y0104109D01*
X0037318Y0103096D01*
X0036770Y0101773D01*
X0036770Y0100590D01*
X0035130Y0102230D01*
X0031650Y0102230D01*
X0029190Y0099770D01*
X0029190Y0096290D01*
X0031650Y0093830D01*
X0032365Y0093830D01*
X0032365Y0050974D01*
X0033595Y0049744D01*
X0074200Y0049744D01*
X0074200Y0048765D01*
X0074839Y0047221D01*
X0076021Y0046039D01*
X0077565Y0045400D01*
X0084435Y0045400D01*
X0085979Y0046039D01*
X0087161Y0047221D01*
X0087390Y0047776D01*
X0089451Y0047776D01*
X0089451Y0025155D01*
X0086923Y0022626D01*
X0086980Y0022765D01*
X0086980Y0024435D01*
X0086341Y0025979D01*
X0085159Y0027161D01*
X0083615Y0027800D01*
X0076745Y0027800D01*
X0075201Y0027161D01*
X0074019Y0025979D01*
X0073380Y0024435D01*
X0073380Y0022765D01*
X0074019Y0021221D01*
X0075201Y0020039D01*
X0076745Y0019400D01*
X0083615Y0019400D01*
X0083754Y0019457D01*
X0082096Y0017800D01*
X0076745Y0017800D01*
X0075201Y0017161D01*
X0074019Y0015979D01*
X0073380Y0014435D01*
X0073380Y0012765D01*
X0074019Y0011221D01*
X0073451Y0012593D02*
X0005800Y0012593D01*
X0005800Y0014191D02*
X0073380Y0014191D01*
X0073941Y0015790D02*
X0005800Y0015790D01*
X0005800Y0017388D02*
X0075750Y0017388D01*
X0074655Y0020585D02*
X0005800Y0020585D01*
X0005800Y0018987D02*
X0083283Y0018987D01*
X0086419Y0015790D02*
X0103757Y0015790D01*
X0103219Y0014191D02*
X0086980Y0014191D01*
X0086909Y0012593D02*
X0103285Y0012593D01*
X0104035Y0010994D02*
X0086114Y0010994D01*
X0087624Y0017388D02*
X0105323Y0017388D01*
X0105891Y0019522D02*
X0106550Y0019308D01*
X0107234Y0019200D01*
X0110180Y0019200D01*
X0113126Y0019200D01*
X0113810Y0019308D01*
X0114469Y0019522D01*
X0115086Y0019837D01*
X0115646Y0020244D01*
X0116136Y0020734D01*
X0116543Y0021294D01*
X0116858Y0021911D01*
X0117072Y0022570D01*
X0117180Y0023254D01*
X0117180Y0023600D01*
X0117180Y0023946D01*
X0117072Y0024630D01*
X0116858Y0025289D01*
X0116543Y0025906D01*
X0116136Y0026466D01*
X0115646Y0026956D01*
X0115086Y0027363D01*
X0114469Y0027678D01*
X0113810Y0027892D01*
X0113126Y0028000D01*
X0110180Y0028000D01*
X0110180Y0023600D01*
X0110180Y0023600D01*
X0117180Y0023600D01*
X0110180Y0023600D01*
X0110180Y0023600D01*
X0110180Y0028000D01*
X0107234Y0028000D01*
X0106550Y0027892D01*
X0105891Y0027678D01*
X0105274Y0027363D01*
X0104714Y0026956D01*
X0104224Y0026466D01*
X0103817Y0025906D01*
X0103502Y0025289D01*
X0103288Y0024630D01*
X0103180Y0023946D01*
X0103180Y0023600D01*
X0110180Y0023600D01*
X0110180Y0019200D01*
X0110180Y0023600D01*
X0110180Y0023600D01*
X0110180Y0023600D01*
X0103180Y0023600D01*
X0103180Y0023254D01*
X0103288Y0022570D01*
X0103502Y0021911D01*
X0103817Y0021294D01*
X0104224Y0020734D01*
X0104714Y0020244D01*
X0105274Y0019837D01*
X0105891Y0019522D01*
X0104372Y0020585D02*
X0090821Y0020585D01*
X0089223Y0018987D02*
X0123174Y0018987D01*
X0124260Y0017900D02*
X0121800Y0020360D01*
X0121800Y0023840D01*
X0124260Y0026300D01*
X0127740Y0026300D01*
X0130200Y0023840D01*
X0130200Y0020360D01*
X0127740Y0017900D01*
X0124260Y0017900D01*
X0123750Y0015790D02*
X0116603Y0015790D01*
X0117141Y0014191D02*
X0122151Y0014191D01*
X0121800Y0012593D02*
X0117075Y0012593D01*
X0116325Y0010994D02*
X0121800Y0010994D01*
X0128250Y0015790D02*
X0143467Y0015790D01*
X0144260Y0017900D02*
X0147740Y0017900D01*
X0150200Y0020360D01*
X0150200Y0023840D01*
X0147740Y0026300D01*
X0144260Y0026300D01*
X0141800Y0023840D01*
X0141800Y0020360D01*
X0144260Y0017900D01*
X0143174Y0018987D02*
X0128826Y0018987D01*
X0130200Y0020585D02*
X0141800Y0020585D01*
X0141800Y0022184D02*
X0130200Y0022184D01*
X0130200Y0023782D02*
X0141800Y0023782D01*
X0143341Y0025381D02*
X0128659Y0025381D01*
X0123341Y0025381D02*
X0116811Y0025381D01*
X0117180Y0023782D02*
X0121800Y0023782D01*
X0121800Y0022184D02*
X0116946Y0022184D01*
X0115988Y0020585D02*
X0121800Y0020585D01*
X0115037Y0017388D02*
X0156502Y0017388D01*
X0158100Y0015790D02*
X0148533Y0015790D01*
X0150131Y0014191D02*
X0165415Y0014191D01*
X0165891Y0012593D02*
X0150400Y0012593D01*
X0150400Y0010994D02*
X0166892Y0010994D01*
X0167043Y0018987D02*
X0160843Y0018987D01*
X0160200Y0020585D02*
X0167143Y0020585D01*
X0165995Y0022184D02*
X0160200Y0022184D01*
X0160200Y0023782D02*
X0165415Y0023782D01*
X0165415Y0025381D02*
X0158659Y0025381D01*
X0153341Y0025381D02*
X0148659Y0025381D01*
X0150200Y0023782D02*
X0151800Y0023782D01*
X0151800Y0022184D02*
X0150200Y0022184D01*
X0150200Y0020585D02*
X0151800Y0020585D01*
X0153174Y0018987D02*
X0148826Y0018987D01*
X0146000Y0015790D02*
X0146000Y0015790D01*
X0146000Y0014191D02*
X0146000Y0014191D01*
X0146000Y0012593D02*
X0146000Y0012593D01*
X0141869Y0014191D02*
X0129849Y0014191D01*
X0130200Y0012593D02*
X0141600Y0012593D01*
X0141600Y0010994D02*
X0130200Y0010994D01*
X0115615Y0026979D02*
X0165849Y0026979D01*
X0166791Y0028578D02*
X0093651Y0028578D01*
X0093651Y0030176D02*
X0165610Y0030176D01*
X0164733Y0031775D02*
X0093651Y0031775D01*
X0093651Y0033373D02*
X0164153Y0033373D01*
X0164153Y0034972D02*
X0142500Y0034972D01*
X0141965Y0034750D02*
X0143747Y0035488D01*
X0145112Y0036853D01*
X0145850Y0038635D01*
X0145850Y0040565D01*
X0145112Y0042347D01*
X0143747Y0043712D01*
X0141965Y0044450D01*
X0140035Y0044450D01*
X0138253Y0043712D01*
X0136888Y0042347D01*
X0136150Y0040565D01*
X0136150Y0038635D01*
X0136888Y0036853D01*
X0138253Y0035488D01*
X0140035Y0034750D01*
X0141965Y0034750D01*
X0144829Y0036570D02*
X0164379Y0036570D01*
X0165041Y0038169D02*
X0158008Y0038169D01*
X0157740Y0037900D02*
X0160200Y0040360D01*
X0160200Y0043840D01*
X0157740Y0046300D01*
X0154260Y0046300D01*
X0151800Y0043840D01*
X0151800Y0040360D01*
X0154260Y0037900D01*
X0157740Y0037900D01*
X0159607Y0039767D02*
X0166353Y0039767D01*
X0166203Y0041366D02*
X0160200Y0041366D01*
X0160200Y0042964D02*
X0165541Y0042964D01*
X0165415Y0044563D02*
X0159477Y0044563D01*
X0157878Y0046161D02*
X0165641Y0046161D01*
X0166303Y0047760D02*
X0117384Y0047760D01*
X0117161Y0047221D02*
X0117800Y0048765D01*
X0117800Y0050435D01*
X0117161Y0051979D01*
X0115979Y0053161D01*
X0114435Y0053800D01*
X0107565Y0053800D01*
X0106021Y0053161D01*
X0104839Y0051979D01*
X0104200Y0050435D01*
X0104200Y0048765D01*
X0104839Y0047221D01*
X0106021Y0046039D01*
X0107565Y0045400D01*
X0114435Y0045400D01*
X0115979Y0046039D01*
X0117161Y0047221D01*
X0116101Y0046161D02*
X0154122Y0046161D01*
X0152523Y0044563D02*
X0093651Y0044563D01*
X0093651Y0046161D02*
X0105899Y0046161D01*
X0104616Y0047760D02*
X0093651Y0047760D01*
X0093651Y0049358D02*
X0104200Y0049358D01*
X0104416Y0050957D02*
X0093440Y0050957D01*
X0089451Y0047760D02*
X0087384Y0047760D01*
X0086101Y0046161D02*
X0089451Y0046161D01*
X0089451Y0044563D02*
X0005800Y0044563D01*
X0005800Y0046161D02*
X0075899Y0046161D01*
X0074616Y0047760D02*
X0005800Y0047760D01*
X0005800Y0049358D02*
X0074200Y0049358D01*
X0076021Y0043161D02*
X0074839Y0041979D01*
X0074200Y0040435D01*
X0074200Y0038765D01*
X0074839Y0037221D01*
X0076021Y0036039D01*
X0077565Y0035400D01*
X0084435Y0035400D01*
X0085979Y0036039D01*
X0087161Y0037221D01*
X0087800Y0038765D01*
X0087800Y0040435D01*
X0087161Y0041979D01*
X0085979Y0043161D01*
X0084435Y0043800D01*
X0077565Y0043800D01*
X0076021Y0043161D01*
X0075825Y0042964D02*
X0005800Y0042964D01*
X0005800Y0041366D02*
X0074585Y0041366D01*
X0074200Y0039767D02*
X0005800Y0039767D01*
X0005800Y0038169D02*
X0074447Y0038169D01*
X0075490Y0036570D02*
X0005800Y0036570D01*
X0005800Y0034972D02*
X0089451Y0034972D01*
X0089451Y0036570D02*
X0086510Y0036570D01*
X0087553Y0038169D02*
X0089451Y0038169D01*
X0089451Y0039767D02*
X0087800Y0039767D01*
X0087415Y0041366D02*
X0089451Y0041366D01*
X0089451Y0042964D02*
X0086175Y0042964D01*
X0093651Y0042964D02*
X0105825Y0042964D01*
X0106021Y0043161D02*
X0104839Y0041979D01*
X0104200Y0040435D01*
X0104200Y0038765D01*
X0104839Y0037221D01*
X0106021Y0036039D01*
X0107565Y0035400D01*
X0114435Y0035400D01*
X0115979Y0036039D01*
X0117161Y0037221D01*
X0117800Y0038765D01*
X0117800Y0040435D01*
X0117161Y0041979D01*
X0115979Y0043161D01*
X0114435Y0043800D01*
X0107565Y0043800D01*
X0106021Y0043161D01*
X0104585Y0041366D02*
X0093651Y0041366D01*
X0093651Y0039767D02*
X0104200Y0039767D01*
X0104447Y0038169D02*
X0093651Y0038169D01*
X0093651Y0036570D02*
X0105490Y0036570D01*
X0104745Y0026979D02*
X0093651Y0026979D01*
X0093651Y0025381D02*
X0103549Y0025381D01*
X0103180Y0023782D02*
X0093651Y0023782D01*
X0092420Y0022184D02*
X0103414Y0022184D01*
X0110180Y0022184D02*
X0110180Y0022184D01*
X0110180Y0023782D02*
X0110180Y0023782D01*
X0110180Y0025381D02*
X0110180Y0025381D01*
X0110180Y0026979D02*
X0110180Y0026979D01*
X0110180Y0020585D02*
X0110180Y0020585D01*
X0110180Y0017388D02*
X0110180Y0017388D01*
X0110180Y0015790D02*
X0110180Y0015790D01*
X0110180Y0014191D02*
X0110180Y0014191D01*
X0089451Y0025381D02*
X0086588Y0025381D01*
X0086980Y0023782D02*
X0088078Y0023782D01*
X0089451Y0026979D02*
X0085341Y0026979D01*
X0089451Y0028578D02*
X0005800Y0028578D01*
X0005800Y0030176D02*
X0089451Y0030176D01*
X0089451Y0031775D02*
X0005800Y0031775D01*
X0005800Y0033373D02*
X0089451Y0033373D01*
X0093651Y0034972D02*
X0126866Y0034972D01*
X0127087Y0034750D02*
X0134913Y0034750D01*
X0135850Y0035687D01*
X0135850Y0043513D01*
X0134913Y0044450D01*
X0127087Y0044450D01*
X0126150Y0043513D01*
X0126150Y0035687D01*
X0127087Y0034750D01*
X0126150Y0036570D02*
X0116510Y0036570D01*
X0117553Y0038169D02*
X0126150Y0038169D01*
X0126150Y0039767D02*
X0117800Y0039767D01*
X0117415Y0041366D02*
X0126150Y0041366D01*
X0126150Y0042964D02*
X0116175Y0042964D01*
X0117800Y0049358D02*
X0167887Y0049358D01*
X0166307Y0050957D02*
X0117584Y0050957D01*
X0116584Y0052555D02*
X0165645Y0052555D01*
X0165415Y0054154D02*
X0036565Y0054154D01*
X0036565Y0055752D02*
X0076714Y0055752D01*
X0074786Y0057351D02*
X0036565Y0057351D01*
X0036565Y0058949D02*
X0074200Y0058949D01*
X0074247Y0060548D02*
X0067866Y0060548D01*
X0064055Y0060548D02*
X0036565Y0060548D01*
X0036565Y0062146D02*
X0062689Y0062146D01*
X0062361Y0063745D02*
X0036565Y0063745D01*
X0036565Y0065343D02*
X0062763Y0065343D01*
X0064488Y0066942D02*
X0036565Y0066942D01*
X0036565Y0068540D02*
X0069916Y0068540D01*
X0068318Y0070139D02*
X0036565Y0070139D01*
X0036565Y0071737D02*
X0066719Y0071737D01*
X0065121Y0073336D02*
X0036565Y0073336D01*
X0036565Y0074934D02*
X0063522Y0074934D01*
X0061924Y0076533D02*
X0036565Y0076533D01*
X0036565Y0078132D02*
X0060325Y0078132D01*
X0058727Y0079730D02*
X0036565Y0079730D01*
X0036565Y0081329D02*
X0057128Y0081329D01*
X0055530Y0082927D02*
X0036565Y0082927D01*
X0036565Y0084526D02*
X0053931Y0084526D01*
X0052333Y0086124D02*
X0036565Y0086124D01*
X0036565Y0087723D02*
X0050734Y0087723D01*
X0049136Y0089321D02*
X0036565Y0089321D01*
X0036565Y0090920D02*
X0047537Y0090920D01*
X0045939Y0092518D02*
X0036565Y0092518D01*
X0036565Y0094117D02*
X0044340Y0094117D01*
X0042742Y0095715D02*
X0037015Y0095715D01*
X0037590Y0097314D02*
X0041143Y0097314D01*
X0043970Y0100511D02*
X0049931Y0100511D01*
X0049190Y0099770D02*
X0049190Y0096290D01*
X0051650Y0093830D01*
X0055130Y0093830D01*
X0057590Y0096290D01*
X0057590Y0099770D01*
X0055130Y0102230D01*
X0051650Y0102230D01*
X0049190Y0099770D01*
X0049190Y0098912D02*
X0045484Y0098912D01*
X0047083Y0097314D02*
X0049190Y0097314D01*
X0048681Y0095715D02*
X0049765Y0095715D01*
X0050280Y0094117D02*
X0051364Y0094117D01*
X0051878Y0092518D02*
X0057955Y0092518D01*
X0057955Y0090920D02*
X0053477Y0090920D01*
X0055076Y0089321D02*
X0058978Y0089321D01*
X0060577Y0087723D02*
X0056674Y0087723D01*
X0058273Y0086124D02*
X0062175Y0086124D01*
X0063774Y0084526D02*
X0059871Y0084526D01*
X0061470Y0082927D02*
X0065372Y0082927D01*
X0066971Y0081329D02*
X0063068Y0081329D01*
X0064667Y0079730D02*
X0068569Y0079730D01*
X0070168Y0078132D02*
X0066265Y0078132D01*
X0067864Y0076533D02*
X0071766Y0076533D01*
X0073365Y0074934D02*
X0069462Y0074934D01*
X0071061Y0073336D02*
X0074963Y0073336D01*
X0074739Y0071737D02*
X0072659Y0071737D01*
X0071515Y0066942D02*
X0067433Y0066942D01*
X0079305Y0074934D02*
X0127420Y0074934D01*
X0129018Y0076533D02*
X0116473Y0076533D01*
X0115979Y0076039D02*
X0117161Y0077221D01*
X0117800Y0078765D01*
X0117800Y0080435D01*
X0117161Y0081979D01*
X0115979Y0083161D01*
X0114435Y0083800D01*
X0107565Y0083800D01*
X0106021Y0083161D01*
X0104839Y0081979D01*
X0104200Y0080435D01*
X0104200Y0078765D01*
X0104839Y0077221D01*
X0106021Y0076039D01*
X0107565Y0075400D01*
X0114435Y0075400D01*
X0115979Y0076039D01*
X0117538Y0078132D02*
X0130617Y0078132D01*
X0133359Y0074934D02*
X0158011Y0074934D01*
X0159609Y0073336D02*
X0148204Y0073336D01*
X0147740Y0073800D02*
X0144260Y0073800D01*
X0141800Y0071340D01*
X0141800Y0067860D01*
X0144260Y0065400D01*
X0147740Y0065400D01*
X0150200Y0067860D01*
X0150200Y0071340D01*
X0147740Y0073800D01*
X0149802Y0071737D02*
X0161208Y0071737D01*
X0162806Y0070139D02*
X0150200Y0070139D01*
X0150200Y0068540D02*
X0166373Y0068540D01*
X0165768Y0066942D02*
X0149282Y0066942D01*
X0147823Y0064000D02*
X0146000Y0064000D01*
X0146000Y0059600D01*
X0150400Y0059600D01*
X0150400Y0061423D01*
X0147823Y0064000D01*
X0148078Y0063745D02*
X0165415Y0063745D01*
X0165415Y0065343D02*
X0106612Y0065343D01*
X0106021Y0066039D02*
X0107565Y0065400D01*
X0114435Y0065400D01*
X0115979Y0066039D01*
X0117161Y0067221D01*
X0117800Y0068765D01*
X0117800Y0070435D01*
X0117161Y0071979D01*
X0115979Y0073161D01*
X0114435Y0073800D01*
X0107565Y0073800D01*
X0106021Y0073161D01*
X0104839Y0071979D01*
X0104200Y0070435D01*
X0104200Y0068765D01*
X0104839Y0067221D01*
X0106021Y0066039D01*
X0105118Y0066942D02*
X0105014Y0066942D01*
X0104293Y0068540D02*
X0087707Y0068540D01*
X0087800Y0070139D02*
X0104200Y0070139D01*
X0104739Y0071737D02*
X0087261Y0071737D01*
X0085556Y0073336D02*
X0106444Y0073336D01*
X0105527Y0076533D02*
X0086473Y0076533D01*
X0087538Y0078132D02*
X0104462Y0078132D01*
X0104200Y0079730D02*
X0088942Y0079730D01*
X0090541Y0081329D02*
X0104570Y0081329D01*
X0105787Y0082927D02*
X0092139Y0082927D01*
X0093738Y0084526D02*
X0126150Y0084526D01*
X0126150Y0083187D02*
X0127087Y0082250D01*
X0134913Y0082250D01*
X0135850Y0083187D01*
X0135850Y0091013D01*
X0134913Y0091950D01*
X0127087Y0091950D01*
X0126150Y0091013D01*
X0126150Y0083187D01*
X0126410Y0082927D02*
X0116213Y0082927D01*
X0117430Y0081329D02*
X0151800Y0081329D01*
X0151800Y0079730D02*
X0117800Y0079730D01*
X0115289Y0085522D02*
X0115906Y0085837D01*
X0116466Y0086244D01*
X0116956Y0086734D01*
X0117363Y0087294D01*
X0117678Y0087911D01*
X0117892Y0088570D01*
X0118000Y0089254D01*
X0118000Y0089600D01*
X0111000Y0089600D01*
X0111000Y0089600D01*
X0111000Y0085200D01*
X0113946Y0085200D01*
X0114630Y0085308D01*
X0115289Y0085522D01*
X0116302Y0086124D02*
X0126150Y0086124D01*
X0126150Y0087723D02*
X0117582Y0087723D01*
X0118000Y0089321D02*
X0126150Y0089321D01*
X0126150Y0090920D02*
X0117798Y0090920D01*
X0116904Y0092518D02*
X0165726Y0092518D01*
X0165415Y0094117D02*
X0117109Y0094117D01*
X0118707Y0095715D02*
X0153945Y0095715D01*
X0154260Y0095400D02*
X0157740Y0095400D01*
X0160200Y0097860D01*
X0160200Y0101340D01*
X0157740Y0103800D01*
X0154260Y0103800D01*
X0151800Y0101340D01*
X0151800Y0097860D01*
X0154260Y0095400D01*
X0152347Y0097314D02*
X0120306Y0097314D01*
X0121904Y0098912D02*
X0151800Y0098912D01*
X0151800Y0100511D02*
X0123179Y0100511D01*
X0123179Y0102109D02*
X0152570Y0102109D01*
X0154168Y0103708D02*
X0148830Y0103708D01*
X0147823Y0102700D02*
X0150400Y0105277D01*
X0150400Y0107100D01*
X0150400Y0108923D01*
X0147823Y0111500D01*
X0146000Y0111500D01*
X0146000Y0107100D01*
X0150400Y0107100D01*
X0146000Y0107100D01*
X0146000Y0107100D01*
X0146000Y0107100D01*
X0146000Y0102700D01*
X0147823Y0102700D01*
X0146000Y0102700D02*
X0146000Y0107100D01*
X0146000Y0107100D01*
X0146000Y0107100D01*
X0141600Y0107100D01*
X0141600Y0108923D01*
X0144177Y0111500D01*
X0146000Y0111500D01*
X0146000Y0107100D01*
X0141600Y0107100D01*
X0141600Y0105277D01*
X0144177Y0102700D01*
X0146000Y0102700D01*
X0146000Y0103708D02*
X0146000Y0103708D01*
X0146000Y0105306D02*
X0146000Y0105306D01*
X0146000Y0106905D02*
X0146000Y0106905D01*
X0146000Y0108503D02*
X0146000Y0108503D01*
X0146000Y0110102D02*
X0146000Y0110102D01*
X0142779Y0110102D02*
X0128938Y0110102D01*
X0130200Y0108503D02*
X0141600Y0108503D01*
X0141600Y0106905D02*
X0130200Y0106905D01*
X0130146Y0105306D02*
X0141600Y0105306D01*
X0143170Y0103708D02*
X0128547Y0103708D01*
X0123453Y0103708D02*
X0123179Y0103708D01*
X0118979Y0103708D02*
X0114658Y0103708D01*
X0117030Y0102109D02*
X0118979Y0102109D01*
X0118979Y0105306D02*
X0107988Y0105306D01*
X0104970Y0102109D02*
X0087030Y0102109D01*
X0087161Y0101979D02*
X0085979Y0103161D01*
X0084435Y0103800D01*
X0077565Y0103800D01*
X0076021Y0103161D01*
X0074839Y0101979D01*
X0074200Y0100435D01*
X0074200Y0098765D01*
X0074839Y0097221D01*
X0076021Y0096039D01*
X0077565Y0095400D01*
X0084435Y0095400D01*
X0085979Y0096039D01*
X0087161Y0097221D01*
X0087800Y0098765D01*
X0087800Y0100435D01*
X0087161Y0101979D01*
X0087769Y0100511D02*
X0104231Y0100511D01*
X0104200Y0098912D02*
X0087800Y0098912D01*
X0087199Y0097314D02*
X0104801Y0097314D01*
X0105096Y0092518D02*
X0098964Y0092518D01*
X0100660Y0090920D02*
X0104202Y0090920D01*
X0104000Y0089600D02*
X0104000Y0089254D01*
X0104108Y0088570D01*
X0104322Y0087911D01*
X0104637Y0087294D01*
X0105044Y0086734D01*
X0105534Y0086244D01*
X0106094Y0085837D01*
X0106711Y0085522D01*
X0107370Y0085308D01*
X0108054Y0085200D01*
X0111000Y0085200D01*
X0111000Y0089600D01*
X0111000Y0089600D01*
X0111000Y0089600D01*
X0104000Y0089600D01*
X0104000Y0089321D02*
X0101057Y0089321D01*
X0100722Y0087723D02*
X0104418Y0087723D01*
X0105698Y0086124D02*
X0099328Y0086124D01*
X0095586Y0086124D02*
X0095336Y0086124D01*
X0092594Y0089321D02*
X0088691Y0089321D01*
X0087368Y0087723D02*
X0090995Y0087723D01*
X0089397Y0086124D02*
X0086064Y0086124D01*
X0087798Y0084526D02*
X0069714Y0084526D01*
X0071312Y0082927D02*
X0075787Y0082927D01*
X0074570Y0081329D02*
X0072911Y0081329D01*
X0075936Y0086124D02*
X0068115Y0086124D01*
X0066517Y0087723D02*
X0074632Y0087723D01*
X0074200Y0089321D02*
X0064918Y0089321D01*
X0063320Y0090920D02*
X0074401Y0090920D01*
X0075378Y0092518D02*
X0062155Y0092518D01*
X0062155Y0094117D02*
X0087547Y0094117D01*
X0089145Y0095715D02*
X0085196Y0095715D01*
X0090289Y0090920D02*
X0094192Y0090920D01*
X0095950Y0092518D02*
X0091888Y0092518D01*
X0084658Y0103708D02*
X0103647Y0103708D01*
X0102048Y0105306D02*
X0084617Y0105306D01*
X0084630Y0105308D02*
X0085289Y0105522D01*
X0085906Y0105837D01*
X0086466Y0106244D01*
X0086956Y0106734D01*
X0087363Y0107294D01*
X0087678Y0107911D01*
X0087892Y0108570D01*
X0088000Y0109254D01*
X0088000Y0109600D01*
X0088000Y0109946D01*
X0087892Y0110630D01*
X0087678Y0111289D01*
X0087363Y0111906D01*
X0086956Y0112466D01*
X0086466Y0112956D01*
X0085906Y0113363D01*
X0085289Y0113678D01*
X0084630Y0113892D01*
X0083946Y0114000D01*
X0081000Y0114000D01*
X0081000Y0109600D01*
X0081000Y0109600D01*
X0088000Y0109600D01*
X0081000Y0109600D01*
X0081000Y0109600D01*
X0081000Y0105200D01*
X0083946Y0105200D01*
X0084630Y0105308D01*
X0087080Y0106905D02*
X0100450Y0106905D01*
X0098851Y0108503D02*
X0087870Y0108503D01*
X0087975Y0110102D02*
X0097253Y0110102D01*
X0095654Y0111700D02*
X0087468Y0111700D01*
X0085995Y0113299D02*
X0094056Y0113299D01*
X0092457Y0114897D02*
X0069427Y0114897D01*
X0069000Y0114470D02*
X0065520Y0114470D01*
X0063060Y0116930D01*
X0063060Y0120410D01*
X0065520Y0122870D01*
X0069000Y0122870D01*
X0071460Y0120410D01*
X0071460Y0116930D01*
X0069000Y0114470D01*
X0071025Y0116496D02*
X0075565Y0116496D01*
X0076021Y0116039D02*
X0077565Y0115400D01*
X0084435Y0115400D01*
X0085979Y0116039D01*
X0087161Y0117221D01*
X0087800Y0118765D01*
X0087800Y0120435D01*
X0087161Y0121979D01*
X0085979Y0123161D01*
X0084435Y0123800D01*
X0077565Y0123800D01*
X0076021Y0123161D01*
X0074839Y0121979D01*
X0074200Y0120435D01*
X0074200Y0118765D01*
X0074839Y0117221D01*
X0076021Y0116039D01*
X0076711Y0113678D02*
X0076094Y0113363D01*
X0075534Y0112956D01*
X0075044Y0112466D01*
X0074637Y0111906D01*
X0074322Y0111289D01*
X0074108Y0110630D01*
X0074000Y0109946D01*
X0074000Y0109600D01*
X0081000Y0109600D01*
X0081000Y0109600D01*
X0081000Y0109600D01*
X0081000Y0114000D01*
X0078054Y0114000D01*
X0077370Y0113892D01*
X0076711Y0113678D01*
X0076005Y0113299D02*
X0062155Y0113299D01*
X0062155Y0114897D02*
X0065093Y0114897D01*
X0063495Y0116496D02*
X0062155Y0116496D01*
X0062155Y0118094D02*
X0063060Y0118094D01*
X0063060Y0119693D02*
X0062155Y0119693D01*
X0062155Y0121291D02*
X0063942Y0121291D01*
X0062155Y0122890D02*
X0075750Y0122890D01*
X0074555Y0121291D02*
X0070578Y0121291D01*
X0071460Y0119693D02*
X0074200Y0119693D01*
X0074478Y0118094D02*
X0071460Y0118094D01*
X0074532Y0111700D02*
X0062155Y0111700D01*
X0062155Y0110102D02*
X0074025Y0110102D01*
X0074000Y0109600D02*
X0074000Y0109254D01*
X0074108Y0108570D01*
X0074322Y0107911D01*
X0074637Y0107294D01*
X0075044Y0106734D01*
X0075534Y0106244D01*
X0076094Y0105837D01*
X0076711Y0105522D01*
X0077370Y0105308D01*
X0078054Y0105200D01*
X0081000Y0105200D01*
X0081000Y0109600D01*
X0074000Y0109600D01*
X0074130Y0108503D02*
X0062155Y0108503D01*
X0062155Y0106905D02*
X0074920Y0106905D01*
X0077383Y0105306D02*
X0062155Y0105306D01*
X0062155Y0103708D02*
X0077342Y0103708D01*
X0074970Y0102109D02*
X0069760Y0102109D01*
X0069000Y0102870D02*
X0071460Y0100410D01*
X0071460Y0096930D01*
X0069000Y0094470D01*
X0065520Y0094470D01*
X0063060Y0096930D01*
X0063060Y0100410D01*
X0065520Y0102870D01*
X0069000Y0102870D01*
X0071359Y0100511D02*
X0074231Y0100511D01*
X0074200Y0098912D02*
X0071460Y0098912D01*
X0071460Y0097314D02*
X0074801Y0097314D01*
X0076804Y0095715D02*
X0070245Y0095715D01*
X0064275Y0095715D02*
X0062155Y0095715D01*
X0062155Y0097314D02*
X0063060Y0097314D01*
X0063060Y0098912D02*
X0062155Y0098912D01*
X0062155Y0100511D02*
X0063161Y0100511D01*
X0062155Y0102109D02*
X0064759Y0102109D01*
X0057955Y0102109D02*
X0055250Y0102109D01*
X0055323Y0102700D02*
X0053500Y0102700D01*
X0053500Y0107100D01*
X0057900Y0107100D01*
X0057900Y0108923D01*
X0055323Y0111500D01*
X0053500Y0111500D01*
X0053500Y0107100D01*
X0053500Y0107100D01*
X0053500Y0107100D01*
X0057900Y0107100D01*
X0057900Y0105277D01*
X0055323Y0102700D01*
X0056330Y0103708D02*
X0057955Y0103708D01*
X0057900Y0105306D02*
X0057955Y0105306D01*
X0057900Y0106905D02*
X0057955Y0106905D01*
X0057900Y0108503D02*
X0057955Y0108503D01*
X0057955Y0110102D02*
X0056721Y0110102D01*
X0057955Y0111700D02*
X0019079Y0111700D01*
X0020200Y0110580D02*
X0017740Y0113040D01*
X0014260Y0113040D01*
X0011800Y0110580D01*
X0011800Y0107100D01*
X0014260Y0104640D01*
X0017740Y0104640D01*
X0020200Y0107100D01*
X0020200Y0110580D01*
X0020200Y0110102D02*
X0024792Y0110102D01*
X0024491Y0109801D02*
X0017730Y0103040D01*
X0014260Y0103040D01*
X0011800Y0100580D01*
X0011800Y0097100D01*
X0014260Y0094640D01*
X0017740Y0094640D01*
X0020200Y0097100D01*
X0020200Y0099570D01*
X0027460Y0106831D01*
X0029300Y0106831D01*
X0029300Y0105360D01*
X0031760Y0102900D01*
X0035240Y0102900D01*
X0037700Y0105360D01*
X0037700Y0108840D01*
X0035240Y0111300D01*
X0031760Y0111300D01*
X0031491Y0111031D01*
X0025721Y0111031D01*
X0024491Y0109801D01*
X0023193Y0108503D02*
X0020200Y0108503D01*
X0020004Y0106905D02*
X0021595Y0106905D01*
X0019996Y0105306D02*
X0018406Y0105306D01*
X0018398Y0103708D02*
X0005800Y0103708D01*
X0005800Y0105306D02*
X0013594Y0105306D01*
X0011996Y0106905D02*
X0005800Y0106905D01*
X0005800Y0108503D02*
X0011800Y0108503D01*
X0011800Y0110102D02*
X0005800Y0110102D01*
X0005800Y0111700D02*
X0012921Y0111700D01*
X0012555Y0114610D02*
X0020385Y0114610D01*
X0022076Y0115310D01*
X0023370Y0116604D01*
X0023398Y0116673D01*
X0029170Y0116673D01*
X0029170Y0115490D01*
X0031630Y0113030D01*
X0035110Y0113030D01*
X0037570Y0115490D01*
X0037570Y0118970D01*
X0035110Y0121430D01*
X0031630Y0121430D01*
X0031074Y0120873D01*
X0023760Y0120873D01*
X0023370Y0121816D01*
X0022076Y0123110D01*
X0020385Y0123810D01*
X0012555Y0123810D01*
X0010864Y0123110D01*
X0009570Y0121816D01*
X0008870Y0120125D01*
X0008870Y0118295D01*
X0009570Y0116604D01*
X0010864Y0115310D01*
X0012555Y0114610D01*
X0011861Y0114897D02*
X0005800Y0114897D01*
X0005800Y0113299D02*
X0031362Y0113299D01*
X0029763Y0114897D02*
X0021079Y0114897D01*
X0023261Y0116496D02*
X0029170Y0116496D01*
X0031492Y0121291D02*
X0023587Y0121291D01*
X0022296Y0122890D02*
X0057955Y0122890D01*
X0057955Y0124488D02*
X0056828Y0124488D01*
X0057955Y0121291D02*
X0055248Y0121291D01*
X0055110Y0121430D02*
X0051630Y0121430D01*
X0049170Y0118970D01*
X0049170Y0115490D01*
X0051630Y0113030D01*
X0055110Y0113030D01*
X0057570Y0115490D01*
X0057570Y0118970D01*
X0055110Y0121430D01*
X0056847Y0119693D02*
X0057955Y0119693D01*
X0057955Y0118094D02*
X0057570Y0118094D01*
X0057570Y0116496D02*
X0057955Y0116496D01*
X0057955Y0114897D02*
X0056977Y0114897D01*
X0057955Y0113299D02*
X0055378Y0113299D01*
X0053500Y0111500D02*
X0051677Y0111500D01*
X0049100Y0108923D01*
X0049100Y0107100D01*
X0053500Y0107100D01*
X0053500Y0107100D01*
X0053500Y0107100D01*
X0053500Y0111500D01*
X0053500Y0110102D02*
X0053500Y0110102D01*
X0053500Y0108503D02*
X0053500Y0108503D01*
X0053500Y0107100D02*
X0049100Y0107100D01*
X0049100Y0105277D01*
X0051677Y0102700D01*
X0053500Y0102700D01*
X0053500Y0107100D01*
X0053500Y0106905D02*
X0053500Y0106905D01*
X0053500Y0105306D02*
X0053500Y0105306D01*
X0053500Y0103708D02*
X0053500Y0103708D01*
X0051529Y0102109D02*
X0043831Y0102109D01*
X0042810Y0103708D02*
X0050670Y0103708D01*
X0049100Y0105306D02*
X0037646Y0105306D01*
X0037700Y0106905D02*
X0049100Y0106905D01*
X0049100Y0108503D02*
X0037700Y0108503D01*
X0036438Y0110102D02*
X0050279Y0110102D01*
X0051362Y0113299D02*
X0035378Y0113299D01*
X0036977Y0114897D02*
X0049763Y0114897D01*
X0049170Y0116496D02*
X0037570Y0116496D01*
X0037570Y0118094D02*
X0049170Y0118094D01*
X0049893Y0119693D02*
X0036847Y0119693D01*
X0035248Y0121291D02*
X0051492Y0121291D01*
X0050172Y0124488D02*
X0036828Y0124488D01*
X0037700Y0125360D02*
X0035240Y0122900D01*
X0031760Y0122900D01*
X0030113Y0124547D01*
X0021784Y0124547D01*
X0021330Y0125001D01*
X0020385Y0124610D01*
X0012555Y0124610D01*
X0010864Y0125310D01*
X0009570Y0126604D01*
X0008870Y0128295D01*
X0008870Y0130125D01*
X0009570Y0131816D01*
X0010864Y0133110D01*
X0012555Y0133810D01*
X0020385Y0133810D01*
X0022076Y0133110D01*
X0023370Y0131816D01*
X0024070Y0130125D01*
X0024070Y0128747D01*
X0029300Y0128747D01*
X0029300Y0128840D01*
X0031760Y0131300D01*
X0035240Y0131300D01*
X0037700Y0128840D01*
X0037700Y0125360D01*
X0037700Y0126087D02*
X0049300Y0126087D01*
X0049300Y0127685D02*
X0037700Y0127685D01*
X0037256Y0129284D02*
X0049744Y0129284D01*
X0051343Y0130882D02*
X0035657Y0130882D01*
X0035240Y0132900D02*
X0037700Y0135360D01*
X0037700Y0138840D01*
X0035240Y0141300D01*
X0032624Y0141300D01*
X0024070Y0149854D01*
X0024070Y0150125D01*
X0023370Y0151816D01*
X0022076Y0153110D01*
X0020385Y0153810D01*
X0012555Y0153810D01*
X0010864Y0153110D01*
X0009570Y0151816D01*
X0008870Y0150125D01*
X0008870Y0148295D01*
X0009570Y0146604D01*
X0010864Y0145310D01*
X0012555Y0144610D01*
X0020385Y0144610D01*
X0022076Y0145310D01*
X0022375Y0145610D01*
X0029300Y0138684D01*
X0029300Y0135360D01*
X0031760Y0132900D01*
X0035240Y0132900D01*
X0036419Y0134079D02*
X0050581Y0134079D01*
X0049300Y0135678D02*
X0037700Y0135678D01*
X0037700Y0137276D02*
X0049300Y0137276D01*
X0049335Y0138875D02*
X0037665Y0138875D01*
X0036066Y0140473D02*
X0050934Y0140473D01*
X0056066Y0140473D02*
X0068850Y0140473D01*
X0070448Y0138875D02*
X0057665Y0138875D01*
X0057700Y0137276D02*
X0072047Y0137276D01*
X0073645Y0135678D02*
X0057931Y0135678D01*
X0055189Y0132481D02*
X0022704Y0132481D01*
X0023756Y0130882D02*
X0031343Y0130882D01*
X0029744Y0129284D02*
X0024070Y0129284D01*
X0030172Y0124488D02*
X0005800Y0124488D01*
X0005800Y0122890D02*
X0010644Y0122890D01*
X0009353Y0121291D02*
X0005800Y0121291D01*
X0005800Y0119693D02*
X0008870Y0119693D01*
X0008953Y0118094D02*
X0005800Y0118094D01*
X0005800Y0116496D02*
X0009679Y0116496D01*
X0010088Y0126087D02*
X0005800Y0126087D01*
X0005800Y0127685D02*
X0009123Y0127685D01*
X0008870Y0129284D02*
X0005800Y0129284D01*
X0005800Y0130882D02*
X0009184Y0130882D01*
X0010236Y0132481D02*
X0005800Y0132481D01*
X0005800Y0134079D02*
X0030581Y0134079D01*
X0029300Y0135678D02*
X0022443Y0135678D01*
X0022076Y0135310D02*
X0023370Y0136604D01*
X0024070Y0138295D01*
X0024070Y0140125D01*
X0023370Y0141816D01*
X0022076Y0143110D01*
X0020385Y0143810D01*
X0012555Y0143810D01*
X0010864Y0143110D01*
X0009570Y0141816D01*
X0008870Y0140125D01*
X0008870Y0138295D01*
X0009570Y0136604D01*
X0010864Y0135310D01*
X0012555Y0134610D01*
X0020385Y0134610D01*
X0022076Y0135310D01*
X0023648Y0137276D02*
X0029300Y0137276D01*
X0029110Y0138875D02*
X0024070Y0138875D01*
X0023926Y0140473D02*
X0027511Y0140473D01*
X0025912Y0142072D02*
X0023113Y0142072D01*
X0024314Y0143670D02*
X0020722Y0143670D01*
X0021976Y0145269D02*
X0022715Y0145269D01*
X0025458Y0148466D02*
X0027392Y0148466D01*
X0027057Y0146868D02*
X0028991Y0146868D01*
X0028655Y0145269D02*
X0030589Y0145269D01*
X0030254Y0143670D02*
X0032188Y0143670D01*
X0031852Y0142072D02*
X0067251Y0142072D01*
X0069994Y0145269D02*
X0119014Y0145269D01*
X0118979Y0143670D02*
X0114748Y0143670D01*
X0114435Y0143800D02*
X0115979Y0143161D01*
X0117161Y0141979D01*
X0117800Y0140435D01*
X0117800Y0138765D01*
X0117161Y0137221D01*
X0115979Y0136039D01*
X0114435Y0135400D01*
X0107565Y0135400D01*
X0106021Y0136039D01*
X0104839Y0137221D01*
X0104200Y0138765D01*
X0104200Y0140435D01*
X0104839Y0141979D01*
X0106021Y0143161D01*
X0107565Y0143800D01*
X0114435Y0143800D01*
X0117068Y0142072D02*
X0118979Y0142072D01*
X0118979Y0140473D02*
X0117784Y0140473D01*
X0117800Y0138875D02*
X0118979Y0138875D01*
X0118979Y0137276D02*
X0117184Y0137276D01*
X0118979Y0135678D02*
X0115106Y0135678D01*
X0114435Y0133800D02*
X0115979Y0133161D01*
X0117161Y0131979D01*
X0117800Y0130435D01*
X0117800Y0128765D01*
X0117161Y0127221D01*
X0115979Y0126039D01*
X0114435Y0125400D01*
X0107565Y0125400D01*
X0106021Y0126039D01*
X0104839Y0127221D01*
X0104200Y0128765D01*
X0104200Y0130435D01*
X0104839Y0131979D01*
X0106021Y0133161D01*
X0107565Y0133800D01*
X0114435Y0133800D01*
X0116659Y0132481D02*
X0118979Y0132481D01*
X0118979Y0134079D02*
X0093651Y0134079D01*
X0093651Y0132481D02*
X0105341Y0132481D01*
X0104385Y0130882D02*
X0093651Y0130882D01*
X0093651Y0129284D02*
X0104200Y0129284D01*
X0104647Y0127685D02*
X0093651Y0127685D01*
X0093651Y0126087D02*
X0105973Y0126087D01*
X0107565Y0123800D02*
X0106021Y0123161D01*
X0104839Y0121979D01*
X0104200Y0120435D01*
X0104200Y0118765D01*
X0104839Y0117221D01*
X0106021Y0116039D01*
X0107565Y0115400D01*
X0114435Y0115400D01*
X0115979Y0116039D01*
X0117161Y0117221D01*
X0117800Y0118765D01*
X0117800Y0120435D01*
X0117161Y0121979D01*
X0115979Y0123161D01*
X0114435Y0123800D01*
X0107565Y0123800D01*
X0105750Y0122890D02*
X0093651Y0122890D01*
X0093651Y0124488D02*
X0118979Y0124488D01*
X0118979Y0122890D02*
X0116250Y0122890D01*
X0117445Y0121291D02*
X0118979Y0121291D01*
X0118979Y0119693D02*
X0117800Y0119693D01*
X0117522Y0118094D02*
X0118979Y0118094D01*
X0118979Y0116496D02*
X0116435Y0116496D01*
X0118979Y0114897D02*
X0098397Y0114897D01*
X0099995Y0113299D02*
X0106355Y0113299D01*
X0104724Y0111700D02*
X0101594Y0111700D01*
X0103192Y0110102D02*
X0104200Y0110102D01*
X0105565Y0116496D02*
X0096798Y0116496D01*
X0095200Y0118094D02*
X0104478Y0118094D01*
X0104200Y0119693D02*
X0093651Y0119693D01*
X0093651Y0121291D02*
X0104555Y0121291D01*
X0116027Y0126087D02*
X0118979Y0126087D01*
X0118979Y0127685D02*
X0117353Y0127685D01*
X0117800Y0129284D02*
X0118979Y0129284D01*
X0118979Y0130882D02*
X0117615Y0130882D01*
X0123179Y0130882D02*
X0126150Y0130882D01*
X0126150Y0132481D02*
X0123179Y0132481D01*
X0123179Y0134079D02*
X0126150Y0134079D01*
X0126150Y0135678D02*
X0123179Y0135678D01*
X0123179Y0137276D02*
X0126150Y0137276D01*
X0126512Y0138875D02*
X0123179Y0138875D01*
X0123179Y0140473D02*
X0166940Y0140473D01*
X0165911Y0142072D02*
X0151437Y0142072D01*
X0152238Y0143670D02*
X0165415Y0143670D01*
X0165415Y0145269D02*
X0152159Y0145269D01*
X0152123Y0151663D02*
X0117291Y0151663D01*
X0118427Y0156459D02*
X0122330Y0156459D01*
X0123928Y0158057D02*
X0120025Y0158057D01*
X0121624Y0159656D02*
X0124300Y0159656D01*
X0124300Y0161254D02*
X0123222Y0161254D01*
X0124821Y0162853D02*
X0125813Y0162853D01*
X0126419Y0164451D02*
X0169418Y0164451D01*
X0171165Y0164451D02*
X0194901Y0164451D01*
X0194901Y0162853D02*
X0182234Y0162853D01*
X0182234Y0161254D02*
X0189109Y0161254D01*
X0186242Y0159656D02*
X0182234Y0159656D01*
X0182234Y0158057D02*
X0184810Y0158057D01*
X0184148Y0156459D02*
X0182234Y0156459D01*
X0182234Y0154860D02*
X0183838Y0154860D01*
X0183838Y0153262D02*
X0182234Y0153262D01*
X0182234Y0151663D02*
X0184334Y0151663D01*
X0185092Y0150065D02*
X0183308Y0150065D01*
X0184907Y0148466D02*
X0186690Y0148466D01*
X0186505Y0146868D02*
X0194901Y0146868D01*
X0194901Y0145269D02*
X0194009Y0145269D01*
X0194045Y0143670D02*
X0194901Y0143670D01*
X0194901Y0142072D02*
X0194045Y0142072D01*
X0194045Y0140473D02*
X0194901Y0140473D01*
X0194901Y0161254D02*
X0192891Y0161254D01*
X0194901Y0166050D02*
X0173386Y0166050D01*
X0173891Y0167648D02*
X0194901Y0167648D01*
X0194901Y0169247D02*
X0173666Y0169247D01*
X0172523Y0170845D02*
X0194901Y0170845D01*
X0194901Y0172444D02*
X0116696Y0172444D01*
X0117161Y0171979D02*
X0115979Y0173161D01*
X0114435Y0173800D01*
X0107565Y0173800D01*
X0106021Y0173161D01*
X0104839Y0171979D01*
X0104200Y0170435D01*
X0104200Y0168765D01*
X0104839Y0167221D01*
X0106021Y0166039D01*
X0107565Y0165400D01*
X0114435Y0165400D01*
X0115979Y0166039D01*
X0117161Y0167221D01*
X0117800Y0168765D01*
X0117800Y0170435D01*
X0117161Y0171979D01*
X0117630Y0170845D02*
X0168060Y0170845D01*
X0164157Y0162853D02*
X0159465Y0162853D01*
X0160750Y0161254D02*
X0162558Y0161254D01*
X0160960Y0159656D02*
X0160750Y0159656D01*
X0163702Y0156459D02*
X0165829Y0156459D01*
X0165415Y0154860D02*
X0162104Y0154860D01*
X0160505Y0153262D02*
X0165415Y0153262D01*
X0166015Y0151663D02*
X0159877Y0151663D01*
X0160200Y0150065D02*
X0167192Y0150065D01*
X0166995Y0148466D02*
X0160200Y0148466D01*
X0159207Y0146868D02*
X0165933Y0146868D01*
X0165461Y0138875D02*
X0143353Y0138875D01*
X0143747Y0138712D02*
X0141965Y0139450D01*
X0140035Y0139450D01*
X0138253Y0138712D01*
X0136888Y0137347D01*
X0136150Y0135565D01*
X0136150Y0133635D01*
X0136888Y0131853D01*
X0138253Y0130488D01*
X0140035Y0129750D01*
X0141965Y0129750D01*
X0143747Y0130488D01*
X0145112Y0131853D01*
X0145850Y0133635D01*
X0145850Y0135565D01*
X0145112Y0137347D01*
X0143747Y0138712D01*
X0145141Y0137276D02*
X0164671Y0137276D01*
X0164153Y0135678D02*
X0145803Y0135678D01*
X0145850Y0134079D02*
X0164153Y0134079D01*
X0164440Y0132481D02*
X0159059Y0132481D01*
X0160200Y0130882D02*
X0165103Y0130882D01*
X0166502Y0129284D02*
X0160200Y0129284D01*
X0160025Y0127685D02*
X0166142Y0127685D01*
X0165480Y0126087D02*
X0158427Y0126087D01*
X0153573Y0126087D02*
X0153016Y0126087D01*
X0150273Y0129284D02*
X0133021Y0129284D01*
X0135850Y0130882D02*
X0137859Y0130882D01*
X0136628Y0132481D02*
X0135850Y0132481D01*
X0135850Y0134079D02*
X0136150Y0134079D01*
X0136197Y0135678D02*
X0135850Y0135678D01*
X0135850Y0137276D02*
X0136859Y0137276D01*
X0135488Y0138875D02*
X0138647Y0138875D01*
X0145838Y0142072D02*
X0123179Y0142072D01*
X0125072Y0153262D02*
X0153722Y0153262D01*
X0154022Y0154860D02*
X0142978Y0154860D01*
X0142968Y0154850D02*
X0145750Y0157632D01*
X0145750Y0161568D01*
X0142968Y0164350D01*
X0139032Y0164350D01*
X0136250Y0161568D01*
X0136250Y0157632D01*
X0139032Y0154850D01*
X0142968Y0154850D01*
X0144576Y0156459D02*
X0152424Y0156459D01*
X0151250Y0158057D02*
X0145750Y0158057D01*
X0145750Y0159656D02*
X0151250Y0159656D01*
X0151250Y0161254D02*
X0145750Y0161254D01*
X0144465Y0162853D02*
X0152535Y0162853D01*
X0154032Y0174850D02*
X0157968Y0174850D01*
X0160750Y0177632D01*
X0160750Y0181568D01*
X0157968Y0184350D01*
X0154032Y0184350D01*
X0151250Y0181568D01*
X0151250Y0177632D01*
X0154032Y0174850D01*
X0153242Y0175641D02*
X0143758Y0175641D01*
X0142968Y0174850D02*
X0145750Y0177632D01*
X0145750Y0181568D01*
X0142968Y0184350D01*
X0139032Y0184350D01*
X0136250Y0181568D01*
X0136250Y0177632D01*
X0139032Y0174850D01*
X0142968Y0174850D01*
X0145357Y0177239D02*
X0151643Y0177239D01*
X0151250Y0178838D02*
X0145750Y0178838D01*
X0145750Y0180436D02*
X0151250Y0180436D01*
X0151717Y0182035D02*
X0145283Y0182035D01*
X0143684Y0183633D02*
X0153316Y0183633D01*
X0158684Y0183633D02*
X0194901Y0183633D01*
X0194901Y0182035D02*
X0160283Y0182035D01*
X0160750Y0180436D02*
X0194901Y0180436D01*
X0194901Y0178838D02*
X0160750Y0178838D01*
X0160357Y0177239D02*
X0194901Y0177239D01*
X0194901Y0175641D02*
X0158758Y0175641D01*
X0160499Y0190027D02*
X0146501Y0190027D01*
X0147292Y0191626D02*
X0159708Y0191626D01*
X0159700Y0193224D02*
X0147300Y0193224D01*
X0147300Y0194823D02*
X0159700Y0194823D01*
X0159700Y0196421D02*
X0147300Y0196421D01*
X0147108Y0198020D02*
X0159892Y0198020D01*
X0160944Y0199618D02*
X0146056Y0199618D01*
X0140944Y0199618D02*
X0074699Y0199618D01*
X0071400Y0196421D02*
X0070800Y0196421D01*
X0070800Y0194823D02*
X0071400Y0194823D01*
X0070800Y0194400D02*
X0066200Y0194400D01*
X0066200Y0189800D01*
X0067988Y0189800D01*
X0070800Y0192612D01*
X0070800Y0194400D01*
X0070800Y0193224D02*
X0071400Y0193224D01*
X0072469Y0191626D02*
X0069814Y0191626D01*
X0068216Y0190027D02*
X0074067Y0190027D01*
X0073323Y0188429D02*
X0068677Y0188429D01*
X0070275Y0186830D02*
X0071725Y0186830D01*
X0071400Y0185232D02*
X0070600Y0185232D01*
X0070600Y0183633D02*
X0071400Y0183633D01*
X0071134Y0182035D02*
X0069940Y0182035D01*
X0069536Y0180436D02*
X0068342Y0180436D01*
X0063658Y0180436D02*
X0053342Y0180436D01*
X0054940Y0182035D02*
X0062060Y0182035D01*
X0061123Y0183633D02*
X0055600Y0183633D01*
X0055600Y0185232D02*
X0059524Y0185232D01*
X0057926Y0186830D02*
X0055275Y0186830D01*
X0060668Y0190027D02*
X0063784Y0190027D01*
X0064012Y0189800D02*
X0065800Y0189800D01*
X0065800Y0194400D01*
X0061200Y0194400D01*
X0061200Y0192612D01*
X0064012Y0189800D01*
X0063323Y0188429D02*
X0062267Y0188429D01*
X0062186Y0191626D02*
X0059070Y0191626D01*
X0061200Y0193224D02*
X0055800Y0193224D01*
X0055800Y0194823D02*
X0061200Y0194823D01*
X0061200Y0196421D02*
X0055800Y0196421D01*
X0050800Y0194800D02*
X0050800Y0194400D01*
X0046200Y0194400D01*
X0046200Y0192612D01*
X0047072Y0191739D01*
X0044645Y0191739D01*
X0045600Y0192695D01*
X0045600Y0196505D01*
X0044723Y0197382D01*
X0046994Y0197382D01*
X0046200Y0196588D01*
X0046200Y0194800D01*
X0050800Y0194800D01*
X0046200Y0194823D02*
X0045600Y0194823D01*
X0045600Y0196421D02*
X0046200Y0196421D01*
X0046200Y0193224D02*
X0045600Y0193224D01*
X0045275Y0186830D02*
X0046725Y0186830D01*
X0046400Y0185232D02*
X0045600Y0185232D01*
X0045600Y0183633D02*
X0046400Y0183633D01*
X0047060Y0182035D02*
X0044940Y0182035D01*
X0043342Y0180436D02*
X0048658Y0180436D01*
X0050819Y0172444D02*
X0034379Y0172444D01*
X0035400Y0171423D02*
X0032823Y0174000D01*
X0031000Y0174000D01*
X0031000Y0169600D01*
X0035400Y0169600D01*
X0035400Y0171423D01*
X0035400Y0170845D02*
X0046777Y0170845D01*
X0045456Y0170083D02*
X0043017Y0167644D01*
X0041293Y0164656D01*
X0040400Y0161325D01*
X0040400Y0157875D01*
X0041293Y0154544D01*
X0043017Y0151556D01*
X0045456Y0149117D01*
X0048444Y0147393D01*
X0051775Y0146500D01*
X0055225Y0146500D01*
X0058556Y0147393D01*
X0061544Y0149117D01*
X0063983Y0151556D01*
X0065707Y0154544D01*
X0066600Y0157875D01*
X0066600Y0161325D01*
X0065707Y0164656D01*
X0063983Y0167644D01*
X0061544Y0170083D01*
X0058556Y0171807D01*
X0055225Y0172700D01*
X0051775Y0172700D01*
X0048444Y0171807D01*
X0045456Y0170083D01*
X0044620Y0169247D02*
X0035400Y0169247D01*
X0035400Y0169600D02*
X0031000Y0169600D01*
X0031000Y0169600D01*
X0031000Y0169600D01*
X0031000Y0165200D01*
X0032823Y0165200D01*
X0035400Y0167777D01*
X0035400Y0169600D01*
X0035271Y0167648D02*
X0043022Y0167648D01*
X0042097Y0166050D02*
X0033672Y0166050D01*
X0031000Y0166050D02*
X0031000Y0166050D01*
X0031000Y0165200D02*
X0029177Y0165200D01*
X0026600Y0167777D01*
X0026600Y0169600D01*
X0031000Y0169600D01*
X0031000Y0169600D01*
X0031000Y0169600D01*
X0031000Y0174000D01*
X0029177Y0174000D01*
X0026600Y0171423D01*
X0026600Y0169600D01*
X0031000Y0169600D01*
X0031000Y0165200D01*
X0029260Y0163800D02*
X0026800Y0161340D01*
X0026800Y0157860D01*
X0029260Y0155400D01*
X0032740Y0155400D01*
X0035200Y0157860D01*
X0035200Y0161340D01*
X0032740Y0163800D01*
X0029260Y0163800D01*
X0028313Y0162853D02*
X0013687Y0162853D01*
X0015200Y0161254D02*
X0026800Y0161254D01*
X0026800Y0159656D02*
X0022143Y0159656D01*
X0023741Y0158057D02*
X0026800Y0158057D01*
X0028202Y0156459D02*
X0025340Y0156459D01*
X0026938Y0154860D02*
X0041208Y0154860D01*
X0040780Y0156459D02*
X0033798Y0156459D01*
X0035200Y0158057D02*
X0040400Y0158057D01*
X0040400Y0159656D02*
X0035200Y0159656D01*
X0035200Y0161254D02*
X0040400Y0161254D01*
X0040809Y0162853D02*
X0033687Y0162853D01*
X0031000Y0167648D02*
X0031000Y0167648D01*
X0031000Y0169247D02*
X0031000Y0169247D01*
X0031000Y0170845D02*
X0031000Y0170845D01*
X0031000Y0172444D02*
X0031000Y0172444D01*
X0027621Y0172444D02*
X0014096Y0172444D01*
X0015200Y0171340D02*
X0012740Y0173800D01*
X0009260Y0173800D01*
X0006800Y0171340D01*
X0006800Y0167860D01*
X0009260Y0165400D01*
X0012740Y0165400D01*
X0015200Y0167860D01*
X0015200Y0171340D01*
X0015200Y0170845D02*
X0026600Y0170845D01*
X0026600Y0169247D02*
X0015200Y0169247D01*
X0014988Y0167648D02*
X0026729Y0167648D01*
X0028328Y0166050D02*
X0013389Y0166050D01*
X0008611Y0166050D02*
X0005800Y0166050D01*
X0005800Y0167648D02*
X0007012Y0167648D01*
X0006800Y0169247D02*
X0005800Y0169247D01*
X0005800Y0170845D02*
X0006800Y0170845D01*
X0005800Y0172444D02*
X0007904Y0172444D01*
X0005800Y0174042D02*
X0194901Y0174042D01*
X0194901Y0185232D02*
X0120677Y0185232D01*
X0120690Y0185245D02*
X0120927Y0185655D01*
X0121050Y0186113D01*
X0121050Y0189600D01*
X0121050Y0193087D01*
X0120927Y0193545D01*
X0120690Y0193955D01*
X0120355Y0194290D01*
X0119945Y0194527D01*
X0119487Y0194650D01*
X0116000Y0194650D01*
X0116000Y0189600D01*
X0121050Y0189600D01*
X0116000Y0189600D01*
X0116000Y0189600D01*
X0116000Y0189600D01*
X0116000Y0184550D01*
X0119487Y0184550D01*
X0119945Y0184673D01*
X0120355Y0184910D01*
X0120690Y0185245D01*
X0121050Y0186830D02*
X0194901Y0186830D01*
X0194901Y0188429D02*
X0121050Y0188429D01*
X0121050Y0190027D02*
X0140499Y0190027D01*
X0139708Y0191626D02*
X0121050Y0191626D01*
X0121013Y0193224D02*
X0139700Y0193224D01*
X0139700Y0194823D02*
X0090600Y0194823D01*
X0090600Y0195515D02*
X0089900Y0197206D01*
X0088606Y0198500D01*
X0086915Y0199200D01*
X0085085Y0199200D01*
X0083394Y0198500D01*
X0082100Y0197206D01*
X0081400Y0195515D01*
X0081400Y0193685D01*
X0082100Y0191994D01*
X0083394Y0190700D01*
X0085085Y0190000D01*
X0086915Y0190000D01*
X0088606Y0190700D01*
X0089900Y0191994D01*
X0090600Y0193685D01*
X0090600Y0195515D01*
X0090225Y0196421D02*
X0139700Y0196421D01*
X0139892Y0198020D02*
X0089085Y0198020D01*
X0082914Y0198020D02*
X0079085Y0198020D01*
X0080600Y0196421D02*
X0081775Y0196421D01*
X0081400Y0194823D02*
X0080600Y0194823D01*
X0080600Y0193224D02*
X0081591Y0193224D01*
X0082469Y0191626D02*
X0079531Y0191626D01*
X0077933Y0190027D02*
X0085019Y0190027D01*
X0084095Y0189200D02*
X0081400Y0186505D01*
X0081400Y0182695D01*
X0084095Y0180000D01*
X0087905Y0180000D01*
X0090600Y0182695D01*
X0090600Y0186505D01*
X0087905Y0189200D01*
X0084095Y0189200D01*
X0083323Y0188429D02*
X0078677Y0188429D01*
X0080275Y0186830D02*
X0081725Y0186830D01*
X0081400Y0185232D02*
X0080600Y0185232D01*
X0080600Y0183633D02*
X0081400Y0183633D01*
X0082060Y0182035D02*
X0079940Y0182035D01*
X0078342Y0180436D02*
X0083658Y0180436D01*
X0088342Y0180436D02*
X0124100Y0180436D01*
X0124100Y0179600D02*
X0128500Y0179600D01*
X0128500Y0179600D01*
X0128500Y0184000D01*
X0130323Y0184000D01*
X0132900Y0181423D01*
X0132900Y0179600D01*
X0128500Y0179600D01*
X0128500Y0179600D01*
X0128500Y0179600D01*
X0128500Y0184000D01*
X0126677Y0184000D01*
X0124100Y0181423D01*
X0124100Y0179600D01*
X0124100Y0177777D01*
X0126677Y0175200D01*
X0128500Y0175200D01*
X0130323Y0175200D01*
X0132900Y0177777D01*
X0132900Y0179600D01*
X0128500Y0179600D01*
X0128500Y0175200D01*
X0128500Y0179600D01*
X0128500Y0179600D01*
X0124100Y0179600D01*
X0124100Y0178838D02*
X0073877Y0178838D01*
X0072278Y0177239D02*
X0124638Y0177239D01*
X0126237Y0175641D02*
X0005800Y0175641D01*
X0005800Y0177239D02*
X0028428Y0177239D01*
X0028428Y0178838D02*
X0005800Y0178838D01*
X0005800Y0180436D02*
X0008658Y0180436D01*
X0009095Y0180000D02*
X0006400Y0182695D01*
X0006400Y0186505D01*
X0009095Y0189200D01*
X0012905Y0189200D01*
X0015600Y0186505D01*
X0015600Y0182695D01*
X0012905Y0180000D01*
X0009095Y0180000D01*
X0007060Y0182035D02*
X0005800Y0182035D01*
X0005800Y0183633D02*
X0006400Y0183633D01*
X0006400Y0185232D02*
X0005800Y0185232D01*
X0005800Y0186830D02*
X0006725Y0186830D01*
X0005800Y0188429D02*
X0008323Y0188429D01*
X0009095Y0190000D02*
X0012905Y0190000D01*
X0015600Y0192695D01*
X0015600Y0196505D01*
X0012905Y0199200D01*
X0009095Y0199200D01*
X0006400Y0196505D01*
X0006400Y0192695D01*
X0009095Y0190000D01*
X0009067Y0190027D02*
X0005800Y0190027D01*
X0005800Y0191626D02*
X0007469Y0191626D01*
X0006400Y0193224D02*
X0005800Y0193224D01*
X0005800Y0194823D02*
X0006400Y0194823D01*
X0006400Y0196421D02*
X0005800Y0196421D01*
X0005800Y0198020D02*
X0007914Y0198020D01*
X0005800Y0199618D02*
X0031631Y0199618D01*
X0027914Y0198020D02*
X0024085Y0198020D01*
X0022905Y0199200D02*
X0025600Y0196505D01*
X0025600Y0192695D01*
X0022905Y0190000D01*
X0019095Y0190000D01*
X0016400Y0192695D01*
X0016400Y0196505D01*
X0019095Y0199200D01*
X0022905Y0199200D01*
X0025600Y0196421D02*
X0026400Y0196421D01*
X0026400Y0194823D02*
X0025600Y0194823D01*
X0025600Y0193224D02*
X0026400Y0193224D01*
X0025607Y0191626D02*
X0024531Y0191626D01*
X0024009Y0190027D02*
X0022933Y0190027D01*
X0019067Y0190027D02*
X0012933Y0190027D01*
X0013677Y0188429D02*
X0018323Y0188429D01*
X0016725Y0186830D02*
X0015275Y0186830D01*
X0015600Y0185232D02*
X0016400Y0185232D01*
X0016400Y0183633D02*
X0015600Y0183633D01*
X0014940Y0182035D02*
X0017060Y0182035D01*
X0018658Y0180436D02*
X0013342Y0180436D01*
X0023342Y0180436D02*
X0028428Y0180436D01*
X0027060Y0182035D02*
X0024940Y0182035D01*
X0025600Y0183633D02*
X0026400Y0183633D01*
X0026400Y0185232D02*
X0025600Y0185232D01*
X0017469Y0191626D02*
X0014531Y0191626D01*
X0015600Y0193224D02*
X0016400Y0193224D01*
X0016400Y0194823D02*
X0015600Y0194823D01*
X0015600Y0196421D02*
X0016400Y0196421D01*
X0017914Y0198020D02*
X0014085Y0198020D01*
X0033342Y0180436D02*
X0038658Y0180436D01*
X0037060Y0182035D02*
X0034940Y0182035D01*
X0035600Y0183633D02*
X0036400Y0183633D01*
X0036400Y0185232D02*
X0035600Y0185232D01*
X0035275Y0186830D02*
X0036725Y0186830D01*
X0056181Y0172444D02*
X0075304Y0172444D01*
X0074370Y0170845D02*
X0060223Y0170845D01*
X0062380Y0169247D02*
X0074200Y0169247D01*
X0074662Y0167648D02*
X0063978Y0167648D01*
X0064903Y0166050D02*
X0076011Y0166050D01*
X0077565Y0163800D02*
X0076021Y0163161D01*
X0074839Y0161979D01*
X0074200Y0160435D01*
X0074200Y0158765D01*
X0074839Y0157221D01*
X0076021Y0156039D01*
X0077565Y0155400D01*
X0084435Y0155400D01*
X0085979Y0156039D01*
X0087161Y0157221D01*
X0087800Y0158765D01*
X0087800Y0160435D01*
X0087161Y0161979D01*
X0085979Y0163161D01*
X0084435Y0163800D01*
X0077565Y0163800D01*
X0075713Y0162853D02*
X0066191Y0162853D01*
X0066600Y0161254D02*
X0074539Y0161254D01*
X0074200Y0159656D02*
X0066600Y0159656D01*
X0066600Y0158057D02*
X0074493Y0158057D01*
X0075602Y0156459D02*
X0066220Y0156459D01*
X0065792Y0154860D02*
X0097770Y0154860D01*
X0096172Y0156459D02*
X0086398Y0156459D01*
X0087507Y0158057D02*
X0094573Y0158057D01*
X0092975Y0159656D02*
X0087800Y0159656D01*
X0087461Y0161254D02*
X0091376Y0161254D01*
X0089778Y0162853D02*
X0086287Y0162853D01*
X0088179Y0164451D02*
X0065762Y0164451D01*
X0064967Y0153262D02*
X0076265Y0153262D01*
X0076021Y0153161D02*
X0074839Y0151979D01*
X0074200Y0150435D01*
X0074200Y0148765D01*
X0074839Y0147221D01*
X0076021Y0146039D01*
X0077565Y0145400D01*
X0084435Y0145400D01*
X0085979Y0146039D01*
X0087161Y0147221D01*
X0087800Y0148765D01*
X0087800Y0150435D01*
X0087161Y0151979D01*
X0085979Y0153161D01*
X0084435Y0153800D01*
X0077565Y0153800D01*
X0076021Y0153161D01*
X0074709Y0151663D02*
X0064044Y0151663D01*
X0062491Y0150065D02*
X0074200Y0150065D01*
X0074324Y0148466D02*
X0060415Y0148466D01*
X0056596Y0146868D02*
X0075193Y0146868D01*
X0077252Y0143670D02*
X0071592Y0143670D01*
X0073191Y0142072D02*
X0074932Y0142072D01*
X0084748Y0143670D02*
X0107252Y0143670D01*
X0104932Y0142072D02*
X0087068Y0142072D01*
X0087784Y0140473D02*
X0104216Y0140473D01*
X0104200Y0138875D02*
X0087800Y0138875D01*
X0087184Y0137276D02*
X0104816Y0137276D01*
X0106894Y0135678D02*
X0093364Y0135678D01*
X0089451Y0130882D02*
X0087615Y0130882D01*
X0087800Y0129284D02*
X0089451Y0129284D01*
X0089451Y0127685D02*
X0087353Y0127685D01*
X0086027Y0126087D02*
X0089451Y0126087D01*
X0089451Y0124488D02*
X0062155Y0124488D01*
X0062155Y0126087D02*
X0075973Y0126087D01*
X0074647Y0127685D02*
X0061987Y0127685D01*
X0057256Y0129284D02*
X0074200Y0129284D01*
X0086250Y0122890D02*
X0089451Y0122890D01*
X0089451Y0121291D02*
X0087445Y0121291D01*
X0087800Y0119693D02*
X0089451Y0119693D01*
X0089451Y0118094D02*
X0087522Y0118094D01*
X0086435Y0116496D02*
X0090859Y0116496D01*
X0081000Y0113299D02*
X0081000Y0113299D01*
X0081000Y0111700D02*
X0081000Y0111700D01*
X0081000Y0110102D02*
X0081000Y0110102D01*
X0081000Y0108503D02*
X0081000Y0108503D01*
X0081000Y0106905D02*
X0081000Y0106905D01*
X0081000Y0105306D02*
X0081000Y0105306D01*
X0057955Y0100511D02*
X0056849Y0100511D01*
X0057590Y0098912D02*
X0057955Y0098912D01*
X0057955Y0097314D02*
X0057590Y0097314D01*
X0057955Y0095715D02*
X0057015Y0095715D01*
X0057955Y0094117D02*
X0055416Y0094117D01*
X0037930Y0103708D02*
X0036047Y0103708D01*
X0035250Y0102109D02*
X0036909Y0102109D01*
X0031529Y0102109D02*
X0022739Y0102109D01*
X0021140Y0100511D02*
X0029931Y0100511D01*
X0029190Y0098912D02*
X0020200Y0098912D01*
X0020200Y0097314D02*
X0029190Y0097314D01*
X0029765Y0095715D02*
X0018815Y0095715D01*
X0013185Y0095715D02*
X0005800Y0095715D01*
X0005800Y0094117D02*
X0031364Y0094117D01*
X0032365Y0092518D02*
X0005800Y0092518D01*
X0005800Y0090920D02*
X0032365Y0090920D01*
X0032365Y0089321D02*
X0005800Y0089321D01*
X0005800Y0087723D02*
X0032365Y0087723D01*
X0032365Y0086124D02*
X0005800Y0086124D01*
X0005800Y0084526D02*
X0032365Y0084526D01*
X0032365Y0082927D02*
X0005800Y0082927D01*
X0005800Y0081329D02*
X0032365Y0081329D01*
X0032365Y0079730D02*
X0005800Y0079730D01*
X0005800Y0078132D02*
X0032365Y0078132D01*
X0032365Y0076533D02*
X0005800Y0076533D01*
X0005800Y0074934D02*
X0032365Y0074934D01*
X0032365Y0073336D02*
X0005800Y0073336D01*
X0005800Y0071737D02*
X0032365Y0071737D01*
X0032365Y0070139D02*
X0005800Y0070139D01*
X0005800Y0068540D02*
X0032365Y0068540D01*
X0032365Y0066942D02*
X0005800Y0066942D01*
X0005800Y0065343D02*
X0032365Y0065343D01*
X0032365Y0063745D02*
X0005800Y0063745D01*
X0005800Y0062146D02*
X0032365Y0062146D01*
X0032365Y0060548D02*
X0005800Y0060548D01*
X0005800Y0058949D02*
X0032365Y0058949D01*
X0032365Y0057351D02*
X0005800Y0057351D01*
X0005800Y0055752D02*
X0032365Y0055752D01*
X0032365Y0054154D02*
X0005800Y0054154D01*
X0005800Y0052555D02*
X0032365Y0052555D01*
X0032382Y0050957D02*
X0005800Y0050957D01*
X0005800Y0026979D02*
X0075019Y0026979D01*
X0073772Y0025381D02*
X0005800Y0025381D01*
X0005800Y0023782D02*
X0073380Y0023782D01*
X0073621Y0022184D02*
X0005800Y0022184D01*
X0005800Y0097314D02*
X0011800Y0097314D01*
X0011800Y0098912D02*
X0005800Y0098912D01*
X0005800Y0100511D02*
X0011800Y0100511D01*
X0013330Y0102109D02*
X0005800Y0102109D01*
X0024337Y0103708D02*
X0030953Y0103708D01*
X0029354Y0105306D02*
X0025936Y0105306D01*
X0010497Y0135678D02*
X0005800Y0135678D01*
X0005800Y0137276D02*
X0009292Y0137276D01*
X0008870Y0138875D02*
X0005800Y0138875D01*
X0005800Y0140473D02*
X0009014Y0140473D01*
X0009827Y0142072D02*
X0005800Y0142072D01*
X0005800Y0143670D02*
X0012218Y0143670D01*
X0010964Y0145269D02*
X0005800Y0145269D01*
X0005800Y0146868D02*
X0009461Y0146868D01*
X0008870Y0148466D02*
X0005800Y0148466D01*
X0005800Y0150065D02*
X0008870Y0150065D01*
X0009507Y0151663D02*
X0005800Y0151663D01*
X0005800Y0153262D02*
X0011231Y0153262D01*
X0008202Y0156459D02*
X0005800Y0156459D01*
X0005800Y0158057D02*
X0006800Y0158057D01*
X0006800Y0159656D02*
X0005800Y0159656D01*
X0005800Y0161254D02*
X0006800Y0161254D01*
X0005800Y0162853D02*
X0008313Y0162853D01*
X0005800Y0164451D02*
X0041238Y0164451D01*
X0042033Y0153262D02*
X0028537Y0153262D01*
X0030135Y0151663D02*
X0042956Y0151663D01*
X0044509Y0150065D02*
X0031734Y0150065D01*
X0033332Y0148466D02*
X0046585Y0148466D01*
X0050404Y0146868D02*
X0034931Y0146868D01*
X0025794Y0150065D02*
X0024070Y0150065D01*
X0024195Y0151663D02*
X0023433Y0151663D01*
X0022597Y0153262D02*
X0021709Y0153262D01*
X0020998Y0154860D02*
X0005800Y0154860D01*
X0055657Y0130882D02*
X0056787Y0130882D01*
X0086807Y0146868D02*
X0105193Y0146868D01*
X0104324Y0148466D02*
X0087676Y0148466D01*
X0087800Y0150065D02*
X0104200Y0150065D01*
X0104709Y0151663D02*
X0087291Y0151663D01*
X0085735Y0153262D02*
X0099369Y0153262D01*
X0102111Y0156459D02*
X0105602Y0156459D01*
X0104493Y0158057D02*
X0100513Y0158057D01*
X0098914Y0159656D02*
X0104200Y0159656D01*
X0104539Y0161254D02*
X0097316Y0161254D01*
X0095717Y0162853D02*
X0105713Y0162853D01*
X0106011Y0166050D02*
X0092520Y0166050D01*
X0090922Y0167648D02*
X0104662Y0167648D01*
X0104200Y0169247D02*
X0089323Y0169247D01*
X0087725Y0170845D02*
X0104370Y0170845D01*
X0105304Y0172444D02*
X0086696Y0172444D01*
X0086580Y0166050D02*
X0085989Y0166050D01*
X0094119Y0164451D02*
X0120480Y0164451D01*
X0122078Y0166050D02*
X0115989Y0166050D01*
X0117338Y0167648D02*
X0123677Y0167648D01*
X0125275Y0169247D02*
X0117800Y0169247D01*
X0118881Y0162853D02*
X0116287Y0162853D01*
X0126671Y0154860D02*
X0139022Y0154860D01*
X0137424Y0156459D02*
X0131298Y0156459D01*
X0132700Y0158057D02*
X0136250Y0158057D01*
X0136250Y0159656D02*
X0132700Y0159656D01*
X0132700Y0161254D02*
X0136250Y0161254D01*
X0137535Y0162853D02*
X0131187Y0162853D01*
X0130763Y0175641D02*
X0138242Y0175641D01*
X0136643Y0177239D02*
X0132362Y0177239D01*
X0132900Y0178838D02*
X0136250Y0178838D01*
X0136250Y0180436D02*
X0132900Y0180436D01*
X0132288Y0182035D02*
X0136717Y0182035D01*
X0138316Y0183633D02*
X0130689Y0183633D01*
X0128500Y0183633D02*
X0128500Y0183633D01*
X0128500Y0182035D02*
X0128500Y0182035D01*
X0128500Y0180436D02*
X0128500Y0180436D01*
X0128500Y0178838D02*
X0128500Y0178838D01*
X0128500Y0177239D02*
X0128500Y0177239D01*
X0128500Y0175641D02*
X0128500Y0175641D01*
X0124712Y0182035D02*
X0089940Y0182035D01*
X0090600Y0183633D02*
X0126311Y0183633D01*
X0116000Y0184550D02*
X0116000Y0189600D01*
X0116000Y0189600D01*
X0116000Y0189600D01*
X0110950Y0189600D01*
X0110950Y0193087D01*
X0111073Y0193545D01*
X0111310Y0193955D01*
X0111645Y0194290D01*
X0112055Y0194527D01*
X0112513Y0194650D01*
X0116000Y0194650D01*
X0116000Y0189600D01*
X0110950Y0189600D01*
X0110950Y0186113D01*
X0111073Y0185655D01*
X0111310Y0185245D01*
X0111645Y0184910D01*
X0112055Y0184673D01*
X0112513Y0184550D01*
X0116000Y0184550D01*
X0116000Y0185232D02*
X0116000Y0185232D01*
X0116000Y0186830D02*
X0116000Y0186830D01*
X0116000Y0188429D02*
X0116000Y0188429D01*
X0116000Y0190027D02*
X0116000Y0190027D01*
X0116000Y0191626D02*
X0116000Y0191626D01*
X0116000Y0193224D02*
X0116000Y0193224D01*
X0110987Y0193224D02*
X0109235Y0193224D01*
X0108747Y0193712D02*
X0110112Y0192347D01*
X0110850Y0190565D01*
X0110850Y0188635D01*
X0110112Y0186853D01*
X0108747Y0185488D01*
X0106965Y0184750D01*
X0105035Y0184750D01*
X0103253Y0185488D01*
X0101888Y0186853D01*
X0101150Y0188635D01*
X0101150Y0190565D01*
X0101888Y0192347D01*
X0103253Y0193712D01*
X0105035Y0194450D01*
X0106965Y0194450D01*
X0108747Y0193712D01*
X0110410Y0191626D02*
X0110950Y0191626D01*
X0110950Y0190027D02*
X0110850Y0190027D01*
X0110764Y0188429D02*
X0110950Y0188429D01*
X0110950Y0186830D02*
X0110089Y0186830D01*
X0111323Y0185232D02*
X0108128Y0185232D01*
X0103872Y0185232D02*
X0090600Y0185232D01*
X0090275Y0186830D02*
X0101911Y0186830D01*
X0101236Y0188429D02*
X0088677Y0188429D01*
X0086981Y0190027D02*
X0101150Y0190027D01*
X0101590Y0191626D02*
X0089531Y0191626D01*
X0090409Y0193224D02*
X0102765Y0193224D01*
X0066200Y0193224D02*
X0065800Y0193224D01*
X0065800Y0191626D02*
X0066200Y0191626D01*
X0066200Y0190027D02*
X0065800Y0190027D01*
X0123179Y0129284D02*
X0128821Y0129284D01*
X0128821Y0127685D02*
X0123179Y0127685D01*
X0123179Y0126087D02*
X0128821Y0126087D01*
X0128821Y0124488D02*
X0123179Y0124488D01*
X0123179Y0122890D02*
X0128821Y0122890D01*
X0128821Y0121291D02*
X0127748Y0121291D01*
X0124252Y0121291D02*
X0123179Y0121291D01*
X0130200Y0116496D02*
X0141800Y0116496D01*
X0141800Y0115360D02*
X0144260Y0112900D01*
X0147740Y0112900D01*
X0150200Y0115360D01*
X0150200Y0118840D01*
X0147740Y0121300D01*
X0144260Y0121300D01*
X0141800Y0118840D01*
X0141800Y0115360D01*
X0142263Y0114897D02*
X0129737Y0114897D01*
X0128138Y0113299D02*
X0143862Y0113299D01*
X0148138Y0113299D02*
X0165598Y0113299D01*
X0165415Y0114897D02*
X0149737Y0114897D01*
X0150200Y0116496D02*
X0165584Y0116496D01*
X0166246Y0118094D02*
X0150200Y0118094D01*
X0149347Y0119693D02*
X0167749Y0119693D01*
X0166437Y0121291D02*
X0147748Y0121291D01*
X0144252Y0121291D02*
X0133021Y0121291D01*
X0133021Y0119693D02*
X0142653Y0119693D01*
X0141800Y0118094D02*
X0133021Y0118094D01*
X0133021Y0122890D02*
X0165702Y0122890D01*
X0165415Y0124488D02*
X0133021Y0124488D01*
X0144141Y0130882D02*
X0151800Y0130882D01*
X0152941Y0132481D02*
X0145372Y0132481D01*
X0123862Y0113299D02*
X0123179Y0113299D01*
X0123179Y0111700D02*
X0166260Y0111700D01*
X0167784Y0110102D02*
X0149221Y0110102D01*
X0150400Y0108503D02*
X0167189Y0108503D01*
X0166014Y0106905D02*
X0150400Y0106905D01*
X0150400Y0105306D02*
X0165415Y0105306D01*
X0165415Y0103708D02*
X0157832Y0103708D01*
X0159430Y0102109D02*
X0165830Y0102109D01*
X0166745Y0100511D02*
X0160200Y0100511D01*
X0160200Y0098912D02*
X0167441Y0098912D01*
X0166118Y0097314D02*
X0159653Y0097314D01*
X0158055Y0095715D02*
X0165456Y0095715D01*
X0166494Y0090920D02*
X0144039Y0090920D01*
X0143747Y0091212D02*
X0145112Y0089847D01*
X0145850Y0088065D01*
X0145850Y0086135D01*
X0145112Y0084353D01*
X0143747Y0082988D01*
X0141965Y0082250D01*
X0140035Y0082250D01*
X0138253Y0082988D01*
X0136888Y0084353D01*
X0136150Y0086135D01*
X0136150Y0088065D01*
X0136888Y0089847D01*
X0138253Y0091212D01*
X0140035Y0091950D01*
X0141965Y0091950D01*
X0143747Y0091212D01*
X0145330Y0089321D02*
X0165907Y0089321D01*
X0164856Y0087723D02*
X0145850Y0087723D01*
X0145845Y0086124D02*
X0164194Y0086124D01*
X0164153Y0084526D02*
X0145183Y0084526D01*
X0143599Y0082927D02*
X0153387Y0082927D01*
X0158613Y0082927D02*
X0164256Y0082927D01*
X0164918Y0081329D02*
X0160200Y0081329D01*
X0160200Y0079730D02*
X0166056Y0079730D01*
X0166345Y0078132D02*
X0160753Y0078132D01*
X0162352Y0076533D02*
X0165664Y0076533D01*
X0165415Y0074934D02*
X0163950Y0074934D01*
X0166076Y0062146D02*
X0149676Y0062146D01*
X0150400Y0060548D02*
X0167338Y0060548D01*
X0167635Y0058949D02*
X0150400Y0058949D01*
X0150400Y0059600D02*
X0150400Y0057777D01*
X0147823Y0055200D01*
X0146000Y0055200D01*
X0146000Y0059600D01*
X0146000Y0059600D01*
X0146000Y0059600D01*
X0150400Y0059600D01*
X0149973Y0057351D02*
X0166199Y0057351D01*
X0165537Y0055752D02*
X0148375Y0055752D01*
X0146000Y0055752D02*
X0146000Y0055752D01*
X0146000Y0055200D02*
X0146000Y0059600D01*
X0146000Y0059600D01*
X0146000Y0059600D01*
X0141600Y0059600D01*
X0141600Y0061423D01*
X0144177Y0064000D01*
X0146000Y0064000D01*
X0146000Y0059600D01*
X0141600Y0059600D01*
X0141600Y0057777D01*
X0144177Y0055200D01*
X0146000Y0055200D01*
X0146000Y0057351D02*
X0146000Y0057351D01*
X0146000Y0058949D02*
X0146000Y0058949D01*
X0146000Y0060548D02*
X0146000Y0060548D01*
X0146000Y0062146D02*
X0146000Y0062146D01*
X0146000Y0063745D02*
X0146000Y0063745D01*
X0143922Y0063745D02*
X0127795Y0063745D01*
X0127740Y0063800D02*
X0124260Y0063800D01*
X0121800Y0061340D01*
X0121800Y0057860D01*
X0124260Y0055400D01*
X0127740Y0055400D01*
X0130200Y0057860D01*
X0130200Y0061340D01*
X0127740Y0063800D01*
X0129393Y0062146D02*
X0142324Y0062146D01*
X0141600Y0060548D02*
X0130200Y0060548D01*
X0130200Y0058949D02*
X0141600Y0058949D01*
X0142027Y0057351D02*
X0129691Y0057351D01*
X0128092Y0055752D02*
X0143625Y0055752D01*
X0142718Y0066942D02*
X0129282Y0066942D01*
X0130200Y0068540D02*
X0141800Y0068540D01*
X0141800Y0070139D02*
X0130200Y0070139D01*
X0130162Y0071737D02*
X0142198Y0071737D01*
X0143796Y0073336D02*
X0131761Y0073336D01*
X0123796Y0073336D02*
X0115556Y0073336D01*
X0117261Y0071737D02*
X0122198Y0071737D01*
X0121800Y0070139D02*
X0117800Y0070139D01*
X0117707Y0068540D02*
X0121800Y0068540D01*
X0122718Y0066942D02*
X0116882Y0066942D01*
X0114568Y0063745D02*
X0124205Y0063745D01*
X0122607Y0062146D02*
X0116993Y0062146D01*
X0117753Y0060548D02*
X0121800Y0060548D01*
X0121800Y0058949D02*
X0117800Y0058949D01*
X0117214Y0057351D02*
X0122309Y0057351D01*
X0123908Y0055752D02*
X0115286Y0055752D01*
X0106714Y0055752D02*
X0085286Y0055752D01*
X0087214Y0057351D02*
X0104786Y0057351D01*
X0104200Y0058949D02*
X0087800Y0058949D01*
X0087753Y0060548D02*
X0104247Y0060548D01*
X0103870Y0062146D02*
X0086993Y0062146D01*
X0086584Y0052555D02*
X0105416Y0052555D01*
X0135134Y0034972D02*
X0139500Y0034972D01*
X0137171Y0036570D02*
X0135850Y0036570D01*
X0135850Y0038169D02*
X0136343Y0038169D01*
X0136150Y0039767D02*
X0135850Y0039767D01*
X0135850Y0041366D02*
X0136482Y0041366D01*
X0135850Y0042964D02*
X0137505Y0042964D01*
X0144495Y0042964D02*
X0151800Y0042964D01*
X0151800Y0041366D02*
X0145518Y0041366D01*
X0145850Y0039767D02*
X0152393Y0039767D01*
X0153992Y0038169D02*
X0145657Y0038169D01*
X0138401Y0082927D02*
X0135590Y0082927D01*
X0135850Y0084526D02*
X0136817Y0084526D01*
X0136155Y0086124D02*
X0135850Y0086124D01*
X0135850Y0087723D02*
X0136150Y0087723D01*
X0135850Y0089321D02*
X0136670Y0089321D01*
X0135850Y0090920D02*
X0137961Y0090920D01*
X0118979Y0106905D02*
X0116844Y0106905D01*
X0117692Y0108503D02*
X0118979Y0108503D01*
X0118979Y0110102D02*
X0117800Y0110102D01*
X0117276Y0111700D02*
X0118979Y0111700D01*
X0118979Y0113299D02*
X0115645Y0113299D01*
X0111000Y0089321D02*
X0111000Y0089321D01*
X0111000Y0087723D02*
X0111000Y0087723D01*
X0111000Y0086124D02*
X0111000Y0086124D01*
X0165301Y0158057D02*
X0166743Y0158057D01*
X0166899Y0159656D02*
X0168863Y0159656D01*
X0166501Y0190027D02*
X0194901Y0190027D01*
X0194901Y0191626D02*
X0167292Y0191626D01*
X0167300Y0193224D02*
X0194901Y0193224D01*
X0194901Y0194823D02*
X0167300Y0194823D01*
X0167300Y0196421D02*
X0194901Y0196421D01*
X0194901Y0198020D02*
X0167108Y0198020D01*
X0166056Y0199618D02*
X0194901Y0199618D01*
D23*
X0178165Y0169954D03*
X0170291Y0167986D03*
X0180134Y0144364D03*
X0148638Y0144364D03*
X0097457Y0089246D03*
X0065961Y0063655D03*
X0040370Y0101057D03*
M02*
